<svg width="20" height="20" viewBox="0 0 20 20" fill="none" xmlns="http://www.w3.org/2000/svg">
<path fill-rule="evenodd" clip-rule="evenodd" d="M0 14.0801V5.91012C0 2.38012 2.271 0.00012207 5.66 0.00012207H14.33C17.72 0.00012207 20 2.38012 20 5.91012V14.0801C20 17.6201 17.72 20.0001 14.33 20.0001H5.66C2.271 20.0001 0 17.6201 0 14.0801ZM10.75 12.2701V5.92012C10.75 5.50012 10.41 5.17012 10 5.17012C9.58 5.17012 9.25 5.50012 9.25 5.92012V12.2701L6.78 9.79012C6.64 9.65012 6.44 9.57012 6.25 9.57012C6.061 9.57012 5.87 9.65012 5.72 9.79012C5.43 10.0801 5.43 10.5601 5.72 10.8501L9.47 14.6201C9.75 14.9001 10.25 14.9001 10.53 14.6201L14.28 10.8501C14.57 10.5601 14.57 10.0801 14.28 9.79012C13.98 9.50012 13.51 9.50012 13.21 9.79012L10.75 12.2701Z" fill="#FFCD2C"/>
</svg>
