<svg width="12" height="12" viewBox="0 0 12 12" fill="none" xmlns="http://www.w3.org/2000/svg">
<path fill-rule="evenodd" clip-rule="evenodd" d="M4.76191 7.87109C2.51958 7.87109 0.604492 8.21001 0.604492 9.56801C0.604492 10.926 2.50791 11.2772 4.76191 11.2772C7.00483 11.2772 8.91933 10.9377 8.91933 9.58026C8.91933 8.22284 7.01649 7.87109 4.76191 7.87109Z" stroke="#FFCD2C" stroke-linecap="round" stroke-linejoin="round"/>
<path fill-rule="evenodd" clip-rule="evenodd" d="M4.76273 5.9348C6.23448 5.9348 7.4274 4.74189 7.4274 3.27014C7.4274 1.79839 6.23448 0.605469 4.76273 0.605469C3.29157 0.605469 2.09865 1.79839 2.09865 3.27014C2.0934 4.73664 3.27757 5.92955 4.74465 5.9348H4.76273Z" stroke="#FFCD2C" stroke-linecap="round" stroke-linejoin="round"/>
<path d="M10.2018 4.05859V6.39776" stroke="#FFCD2C" stroke-linecap="round" stroke-linejoin="round"/>
<path d="M11.3966 5.22917H9.01074" stroke="#FFCD2C" stroke-linecap="round" stroke-linejoin="round"/>
</svg>
