<svg width="48" height="48" viewBox="0 0 48 48" fill="none" xmlns="http://www.w3.org/2000/svg">
<circle opacity="0.2" cx="24" cy="24" r="24" fill="#FFCD2C"/>
<path d="M42.1362 30.345V31.789C42.1173 31.8588 42.089 31.9273 42.0815 31.9984C41.8972 33.7832 41.235 35.3705 40.1061 36.7622C39.542 37.4571 38.8817 38.0489 38.1352 38.5432C37.878 38.7136 37.5975 38.6627 37.4447 38.435C37.2975 38.2156 37.351 37.959 37.5862 37.7747C37.6604 37.7169 37.7428 37.6703 37.8176 37.6131C40.3476 35.6837 41.518 33.1297 41.1017 29.9734C40.4187 24.7875 35.1184 21.6928 30.2169 23.5467C26.5536 24.9328 24.3827 29.0439 25.2832 32.8908C26.0863 36.322 29.022 38.8212 32.5444 39.0834C33.7103 39.1702 34.8354 38.9985 35.9347 38.6143C36.236 38.5093 36.4881 38.613 36.5875 38.8633C36.6925 39.1275 36.563 39.3847 36.2511 39.5029C36.0467 39.5803 35.8385 39.6589 35.6253 39.7023C34.9725 39.835 34.3166 39.9507 33.6625 40.0733H32.6582C32.0174 39.9595 31.3772 39.8438 30.7357 39.7337C30.681 39.7243 30.615 39.7381 30.5628 39.7614C30.3389 39.8614 30.1181 39.9689 29.8968 40.0733H11.3181C10.2585 39.6815 10 39.3067 10 38.1609C10 28.6628 10 19.164 10 9.66592C10 8.62889 10.6251 8.00063 11.6565 8C17.6196 8 23.5821 8 29.5446 8.00126C29.6798 8.00126 29.8182 8.00503 29.9496 8.03207C30.73 8.19433 31.1803 8.79617 31.181 9.68542C31.1828 13.7336 31.1822 17.7824 31.1822 21.8305C31.1822 21.9638 31.1822 22.0978 31.1822 22.2582C31.3086 22.2462 31.3998 22.2393 31.4904 22.2286C31.9262 22.177 32.3601 22.0934 32.7972 22.0758C36.9114 21.911 40.6231 24.5825 41.7658 28.5395C41.9356 29.1281 42.0154 29.7419 42.1374 30.3444L42.1362 30.345ZM28.5736 23.2776C29.0559 23.06 29.4936 22.8399 29.949 22.6676C30.1779 22.5808 30.2351 22.4669 30.2351 22.2349C30.2282 18.0723 30.2301 13.9097 30.2294 9.74642C30.2294 9.11879 30.0565 8.94648 29.4289 8.94648C23.5406 8.94648 17.6517 8.94648 11.7634 8.94648C11.1213 8.94648 10.9452 9.12257 10.9452 9.76529C10.9452 19.2728 10.9452 28.7797 10.9452 38.2873C10.9452 38.9375 11.1194 39.1155 11.7584 39.1155C17.4165 39.1155 23.0752 39.1155 28.7333 39.1155C28.8195 39.1155 28.905 39.1048 29.0691 39.0935C28.9276 39.013 28.8572 38.9727 28.7861 38.9331C27.9692 38.474 27.2278 37.9143 26.5964 37.2213C26.4322 37.0408 26.2668 36.9779 26.0285 36.9779C22.0539 36.9842 18.0793 36.9829 14.1048 36.9817C13.1293 36.9817 12.6181 36.4685 12.6168 35.4906C12.6149 34.058 12.6149 32.6247 12.6168 31.1921C12.6181 30.2111 13.1212 29.713 14.1085 29.713C17.3611 29.7124 20.6144 29.713 23.867 29.713C23.9896 29.713 24.1123 29.713 24.206 29.713C24.399 29.008 24.582 28.342 24.7694 27.6578H24.3732C20.9219 27.6578 17.4699 27.659 14.0186 27.6565C13.1545 27.6565 12.6225 27.1346 12.6187 26.278C12.6124 24.7718 12.6187 23.2656 12.6155 21.7594C12.6149 21.3739 12.7325 21.0425 13.008 20.7689C13.3212 20.4583 13.7117 20.3897 14.1331 20.3904C16.9882 20.3935 19.844 20.3922 22.6991 20.3922C24.1424 20.3922 25.5857 20.391 27.029 20.3922C28.0692 20.3935 28.5717 20.8954 28.5723 21.928C28.5723 22.367 28.5723 22.8053 28.5723 23.277L28.5736 23.2776ZM20.6062 21.3488C18.4315 21.3488 16.2568 21.3482 14.0827 21.3494C13.6746 21.3494 13.5689 21.44 13.5683 21.8022C13.5652 23.287 13.5652 24.7712 13.5683 26.256C13.5689 26.595 13.6821 26.7107 14.0186 26.7107C17.6988 26.7126 21.3785 26.7138 25.0587 26.7044C25.165 26.7044 25.3159 26.617 25.3707 26.5252C25.926 25.602 26.6133 24.7976 27.4372 24.1033C27.5384 24.0184 27.6139 23.8467 27.6183 23.7128C27.6378 23.1172 27.6271 22.521 27.6265 21.9255C27.6258 21.4356 27.5378 21.3488 27.036 21.3488C24.8927 21.3488 22.7494 21.3488 20.6062 21.3488ZM24.1349 30.6588H23.8355C20.593 30.6588 17.3498 30.6588 14.1073 30.6588C13.6507 30.6588 13.5671 30.745 13.5664 31.2154C13.5658 32.638 13.5658 34.0605 13.5664 35.483C13.5664 35.9434 13.652 36.0283 14.1198 36.0289C17.8542 36.0295 21.5885 36.0289 25.3229 36.0289C25.4103 36.0289 25.4971 36.0151 25.5977 36.0069C24.3135 33.4146 24.2808 33.2945 24.1349 30.6595V30.6588Z" fill="#FFCD2C"/>
<path d="M33.1248 37.8413C29.4087 37.8545 26.3938 34.8353 26.3674 31.0745C26.3416 27.3867 29.3684 24.3001 33.0323 24.2775C36.8434 24.2542 39.9105 27.2647 39.9312 31.0481C39.9513 34.7818 36.9 37.8275 33.1248 37.8413ZM33.1726 25.2334C29.9199 25.2359 27.3119 27.8112 27.3157 31.0173C27.3195 34.2932 29.9074 36.8974 33.1531 36.8917C36.4025 36.8861 38.9703 34.3082 38.9816 31.0405C38.9923 27.8609 36.3616 25.2309 33.1719 25.2334H33.1726Z" fill="#FFCD2C"/>
<path d="M20.5777 18.3515C18.4131 18.3515 16.2491 18.3522 14.0845 18.3515C13.1474 18.3515 12.6217 17.8333 12.6198 16.9032C12.6166 15.4392 12.616 13.9757 12.6198 12.5117C12.6223 11.5998 13.1506 11.0791 14.0681 11.0791C18.4181 11.0778 22.7675 11.0778 27.1175 11.0791C28.0426 11.0791 28.5734 11.6143 28.5741 12.5431C28.5759 13.9965 28.5759 15.4498 28.5741 16.9032C28.5728 17.8101 28.0345 18.3509 27.1333 18.3515C24.9479 18.3534 22.7625 18.3515 20.5771 18.3515H20.5777ZM20.6098 17.4069C22.7644 17.4069 24.919 17.4069 27.0735 17.4069C27.5156 17.4069 27.6269 17.2937 27.6276 16.8479C27.6288 15.4153 27.6295 13.982 27.6276 12.5494C27.6276 12.145 27.5081 12.0262 27.1031 12.0262C22.7625 12.0249 18.4219 12.0249 14.0813 12.0262C13.6732 12.0262 13.5688 12.135 13.5688 12.5519C13.5675 13.9638 13.5682 15.3756 13.5688 16.7881C13.5688 17.3315 13.6436 17.4082 14.1782 17.4082C16.3221 17.4082 18.4666 17.4082 20.6104 17.4082L20.6098 17.4069Z" fill="#FFCD2C"/>
<path d="M20.5865 22.37C22.331 22.37 24.0762 22.37 25.8207 22.37C25.9251 22.37 26.0333 22.3587 26.1333 22.3813C26.3741 22.4361 26.5175 22.5895 26.5156 22.8455C26.5144 23.1008 26.3691 23.2517 26.1282 23.3058C26.0383 23.3259 25.9408 23.3152 25.8471 23.3152C22.3467 23.3152 18.847 23.3152 15.3466 23.3152C15.2529 23.3152 15.1566 23.3234 15.0648 23.3071C14.817 23.2624 14.6692 23.1014 14.6642 22.8561C14.6586 22.5952 14.8076 22.4247 15.0699 22.3788C15.1717 22.3612 15.278 22.37 15.3824 22.37C17.1169 22.37 18.8514 22.37 20.5858 22.37H20.5865Z" fill="#FFCD2C"/>
<path d="M16.7065 24.744C17.1976 24.744 17.6888 24.7389 18.1793 24.7458C18.5126 24.7509 18.7258 24.949 18.7177 25.2257C18.7101 25.493 18.5038 25.6879 18.1888 25.6898C17.1857 25.6961 16.1832 25.6967 15.1802 25.6898C14.8682 25.6879 14.6601 25.486 14.6563 25.22C14.6525 24.9439 14.8663 24.7502 15.2015 24.7458C15.7028 24.7396 16.2046 24.744 16.7058 24.7446L16.7065 24.744Z" fill="#FFCD2C"/>
<path d="M19.0434 32.6325C17.8315 32.6325 16.6196 32.6325 15.4078 32.6325C15.2933 32.6325 15.177 32.6344 15.0638 32.6181C14.8091 32.581 14.6732 32.4124 14.6644 32.1697C14.6563 31.9382 14.7833 31.7703 15.0147 31.7118C15.1242 31.6842 15.2418 31.6817 15.3556 31.6817C17.8108 31.6798 20.2653 31.6804 22.7205 31.6804C22.7834 31.6804 22.8463 31.6779 22.9085 31.6823C23.2179 31.7062 23.4248 31.9011 23.4217 32.1653C23.4186 32.4307 23.2142 32.6269 22.8972 32.6294C21.9155 32.6369 20.9332 32.6332 19.9515 32.6338C19.6484 32.6338 19.3459 32.6338 19.0428 32.6338L19.0434 32.6325Z" fill="#FFCD2C"/>
<path d="M17.0272 34.995C16.4222 34.995 15.8172 34.9982 15.2116 34.9937C14.8739 34.9912 14.6607 34.8076 14.6563 34.5309C14.6519 34.2548 14.8689 34.0517 15.1984 34.0504C16.4191 34.046 17.6398 34.0454 18.8604 34.0504C19.1887 34.0517 19.4057 34.2579 19.3994 34.534C19.3931 34.812 19.1818 34.9912 18.8416 34.9937C18.2366 34.9975 17.6316 34.995 17.026 34.995H17.0272Z" fill="#FFCD2C"/>
<path d="M22.2747 34.9959C21.815 34.9959 21.3553 34.9996 20.8956 34.9946C20.5522 34.9908 20.3509 34.8122 20.3516 34.5248C20.3516 34.2393 20.556 34.0525 20.8962 34.0506C21.8156 34.0456 22.7357 34.0456 23.6551 34.0506C23.9972 34.0525 24.1972 34.2374 24.1972 34.5255C24.1972 34.8166 24.0016 34.9908 23.6551 34.9946C23.1954 34.9996 22.7357 34.9959 22.276 34.9959H22.2747Z" fill="#FFCD2C"/>
<path d="M20.5995 13.0555C22.3151 13.0555 24.0301 13.0555 25.7457 13.0555C25.8608 13.0555 25.9765 13.053 26.0903 13.0662C26.3557 13.0982 26.5085 13.2504 26.5142 13.5215C26.5199 13.7944 26.3633 13.946 26.1061 13.9957C26.0149 14.0133 25.9186 14.0076 25.8243 14.0076C22.3308 14.0076 18.8374 14.0082 15.3439 14.0064C15.22 14.0064 15.0571 14.0252 14.981 13.9579C14.8458 13.8391 14.698 13.6686 14.6754 13.5039C14.6458 13.2856 14.8062 13.1127 15.0464 13.0743C15.1697 13.0548 15.2967 13.0561 15.4219 13.0555C17.1475 13.0542 18.8738 13.0548 20.5995 13.0548V13.0555Z" fill="#FFCD2C"/>
<path d="M17.282 16.3684C16.5927 16.3684 15.9041 16.3715 15.2148 16.3671C14.8733 16.3646 14.662 16.1841 14.6564 15.9081C14.6501 15.6232 14.874 15.4244 15.228 15.4238C16.5959 15.42 17.9631 15.4232 19.3309 15.4219C19.5818 15.4219 19.8183 15.4917 19.8623 15.7552C19.8887 15.9118 19.8177 16.1206 19.7183 16.2502C19.6498 16.3395 19.4567 16.3615 19.3183 16.364C18.6398 16.3747 17.9612 16.369 17.2826 16.369L17.282 16.3684Z" fill="#FFCD2C"/>
<path d="M22.2248 16.3674C21.933 16.3674 21.6405 16.3755 21.3494 16.3648C21.0506 16.3541 20.8639 16.1705 20.8595 15.907C20.855 15.6435 21.0393 15.4353 21.3324 15.4284C21.926 15.4146 22.5203 15.414 23.114 15.4297C23.4058 15.4379 23.5794 15.6504 23.5681 15.9215C23.5574 16.1818 23.3888 16.3516 23.0996 16.3636C22.8084 16.3755 22.5159 16.3661 22.2241 16.3661V16.3674H22.2248Z" fill="#FFCD2C"/>
<path d="M35.4921 34.9573C35.3474 34.9218 35.1981 34.8992 35.059 34.8485C34.6432 34.6971 34.3285 34.4221 34.1189 34.032C34.0882 33.9748 34.0562 33.9553 33.9917 33.9553C32.6663 33.9574 31.3407 33.957 30.0153 33.957H29.9063V33.8624C29.9063 33.3287 29.9071 32.7951 29.9063 32.2616C29.9048 31.4446 30.1936 30.749 30.7794 30.1796C31.0308 29.935 31.3229 29.7496 31.6589 29.6132C31.1241 29.2023 30.8602 28.6693 30.9184 27.9988C30.9598 27.5229 31.1778 27.1307 31.543 26.8239C32.2384 26.2399 33.2947 26.3111 33.9195 26.9543C34.5474 27.6006 34.6604 28.8911 33.6582 29.6155C34.0654 29.783 34.414 30.0282 34.703 30.3554C34.9924 30.6833 35.1948 31.0591 35.3134 31.4874C35.3639 31.4814 35.4126 31.4755 35.4612 31.4695C36.602 31.3287 37.5852 32.3618 37.3845 33.4907C37.2467 34.2661 36.6611 34.8309 35.8807 34.9416C35.862 34.9443 35.844 34.9518 35.8256 34.9573H35.4921ZM34.8433 31.6509C34.8099 31.5545 34.7792 31.4569 34.7427 31.3617C34.3569 30.3564 33.283 29.7609 32.2265 29.9655C31.2592 30.153 30.4899 30.999 30.4239 31.9863C30.3918 32.4675 30.4118 32.9523 30.4085 33.4354C30.4085 33.44 30.4129 33.4448 30.4166 33.4523H33.9193C33.8499 32.6585 34.1657 32.0657 34.8433 31.6512V31.6509ZM33.9078 28.17C33.9071 27.482 33.3423 26.919 32.6544 26.9208C31.9694 26.9227 31.4092 27.483 31.4073 28.1679C31.4054 28.8558 31.9684 29.4207 32.6565 29.4213C33.3446 29.4219 33.9084 28.8581 33.9078 28.17ZM36.909 33.2061C36.9088 32.518 36.3441 31.9548 35.6563 31.9563C34.9713 31.9577 34.4108 32.5176 34.4085 33.2027C34.4062 33.8906 34.9688 34.4557 35.6571 34.4567C36.3452 34.4578 36.9092 33.8941 36.909 33.2061Z" fill="#FFCD2C"/>
<path d="M35.4089 34.0405C35.1932 33.8254 34.9719 33.6045 34.7578 33.3913C34.8674 33.2812 34.9817 33.1664 35.1036 33.0438C35.1955 33.138 35.2991 33.2443 35.4052 33.3533C35.6842 33.0732 35.954 32.8028 36.2169 32.5391C36.3397 32.6614 36.4545 32.7761 36.565 32.8863C36.186 33.2647 35.7973 33.6525 35.4089 34.0405Z" fill="#FFCD2C"/>
</svg>
