<svg width="61" height="18" viewBox="0 0 61 18" fill="none" xmlns="http://www.w3.org/2000/svg">
<g clip-path="url(#clip0_2010_27879)">
<path d="M35.4079 0L32.7491 4.78692H27.8906V0H35.4079Z" fill="#FFCD2C"/>
<path d="M60.482 9.01179C60.4846 10.4857 60.1229 11.9372 59.4293 13.2366C58.6573 14.6847 57.5073 15.895 56.1023 16.7382C54.6973 17.5814 53.0902 18.0257 51.4528 18.0236H47.9202C47.9114 17.7683 47.8782 17.5145 47.8213 17.2655C47.6205 16.3801 47.1342 15.5858 46.4376 15.0056C45.7411 14.4254 44.8733 14.0917 43.9685 14.0561H43.806C42.743 14.0577 41.7219 14.4716 40.9563 15.2111C40.1907 15.9507 39.7401 16.9584 39.6988 18.0236H27.8906V17.9834L30.5259 13.2366H51.4528C52.5702 13.2366 53.6418 12.7915 54.4319 11.9992C55.2221 11.2069 55.6659 10.1323 55.6659 9.01179C55.6659 7.89128 55.2221 6.81667 54.4319 6.02436C53.6418 5.23204 52.5702 4.78693 51.4528 4.78693H34.3175L36.9764 7.49706e-06H51.4528C53.0902 -0.00210485 54.6973 0.442197 56.1023 1.28538C57.5073 2.12856 58.6573 3.3389 59.4293 4.78693C60.1221 6.08669 60.4837 7.53802 60.482 9.01179V9.01179Z" fill="white"/>
<path d="M9.47923 11.3804L8.46421 13.2366L5.84776 18.0235H0.405273L3.02172 13.2366L6.73561 6.43994L9.47923 11.3804Z" fill="#FFCD2C"/>
<path d="M26.5191 0V17.6245L26.5167 18.0212L26.2953 18.0236H21.7431V4.78692H14.4801L13.776 3.51639L12.9494 2.03332L11.8213 0H26.5191Z" fill="white"/>
<path d="M20.2543 18.0236H14.7929L12.1388 13.2367L10.2901 9.89509L7.54883 4.94759L10.2524 0.00244141L11.7408 2.68283L12.9112 4.787L12.996 4.9405L14.5504 7.73661L14.5551 7.73425L17.6001 13.2367L20.2543 18.0236Z" fill="white"/>
<path d="M46.5426 17.7428H41.1426C41.1867 17.046 41.4903 16.3924 41.9918 15.9148C42.4933 15.4372 43.155 15.1714 43.8426 15.1714C44.5301 15.1714 45.1919 15.4372 45.6934 15.9148C46.1949 16.3924 46.4985 17.046 46.5426 17.7428Z" fill="#FFCD2C"/>
<path d="M58.6756 0.0141602V0.198363H58.2046V1.75464H57.9691V0.198363H57.498V0.0141602H58.6756Z" fill="white"/>
<path d="M60.7149 0.0257203V1.7544H60.4794V0.457889L59.9071 1.74731H59.747L59.1818 0.457889V1.74967H58.9463V0.0209961H59.1818L59.82 1.44975L60.4582 0.0209961L60.7149 0.0257203Z" fill="white"/>
</g>
<defs>
<clipPath id="clip0_2010_27879">
<rect width="60.9429" height="18" fill="white"/>
</clipPath>
</defs>
</svg>
