<svg width="48" height="48" viewBox="0 0 48 48" fill="none" xmlns="http://www.w3.org/2000/svg">
<circle opacity="0.2" cx="24" cy="24" r="24" fill="#FFCD2C"/>
<path fill-rule="evenodd" clip-rule="evenodd" d="M23.108 12.0788C20.488 12.3745 18.0199 13.5147 15.9444 15.3882L15.4942 15.7946L15.493 15.1466C15.4916 14.3991 15.4085 14.1367 15.1049 13.9201C14.8349 13.7275 14.3833 13.7349 14.1195 13.9361C13.7455 14.2214 13.7417 14.2465 13.7593 16.3493C13.7812 18.9765 13.5835 18.783 16.2453 18.783C18.3794 18.783 18.4111 18.7771 18.6598 18.3347C19.0723 17.6008 18.5808 17.0813 17.4317 17.0367L16.7222 17.0092L17.2707 16.5285C20.6909 13.5307 25.3467 12.9007 29.3377 14.8955C32.8088 16.6305 35.0222 20.0323 35.2477 23.9785C35.3102 25.0734 35.5871 25.459 36.2469 25.3705C36.9373 25.2779 37.1074 24.7497 36.9407 23.2155C36.1918 16.3187 29.9641 11.3049 23.108 12.0788ZM24.044 15.7293C23.2935 15.8552 22.9156 16.2028 22.2151 17.4114C21.1494 19.2503 21.0142 20.709 21.7504 22.4246C22.0223 23.0581 21.9971 23.1067 21.3614 23.1763C19.2655 23.4056 17.7877 24.6325 16.6814 27.0618C16.3787 27.7266 16.585 28.7043 17.1422 29.2443C17.355 29.4505 23.4853 33.0435 23.891 33.1998C25.0425 33.6435 25.8842 33.1825 26.7862 31.6144C27.8513 29.7627 27.9848 28.3176 27.2491 26.6031C27.0426 26.122 27.0418 25.9494 27.246 25.9103C27.3115 25.8978 27.6131 25.8498 27.9163 25.8038C29.8796 25.5059 31.2517 24.3114 32.3136 21.9759C32.6208 21.3003 32.4187 20.3289 31.8572 19.7825C31.6097 19.5416 25.5662 16.01 25.1001 15.8339C24.7822 15.7137 24.3764 15.6736 24.044 15.7293ZM27.4896 19.1719C30.7241 21.0367 30.7217 21.0351 30.7217 21.1988C30.7217 21.3777 29.8955 22.7764 29.6097 23.0814C29.0629 23.6649 28.2576 24.0392 27.346 24.1338C25.733 24.301 24.9058 25.6472 25.5506 27.0555C25.9449 27.9168 26.0506 28.8139 25.8478 29.577C25.723 30.0463 24.8593 31.5444 24.6888 31.5872C24.5747 31.6158 18.6709 28.2807 18.3732 28.0192C18.2148 27.8802 18.2584 27.7459 18.728 26.9263C19.4991 25.5804 20.2844 25.036 21.661 24.8932C23.2558 24.7277 24.088 23.3721 23.452 21.9759C23.0374 21.0657 22.9326 20.1561 23.1566 19.4115C23.2574 19.0764 24.0664 17.6092 24.2179 17.4868C24.3625 17.3699 24.377 17.3773 27.4896 19.1719ZM12.547 23.7019C12.0207 23.9117 11.9152 24.3596 12.0581 25.777C13.085 35.9596 25.2899 40.6199 32.9322 33.7476L33.478 33.2568L33.5053 33.9475C33.544 34.9281 33.8324 35.3155 34.4737 35.2489C35.1949 35.174 35.2592 34.9581 35.2402 32.6784C35.2183 30.0512 35.4158 30.2446 32.755 30.2446C30.3953 30.2446 30.2578 30.2918 30.2578 31.1003C30.2578 31.756 30.5451 31.9513 31.5677 31.991L32.2772 32.0185L31.7287 32.4992C24.8706 38.5103 14.2588 34.1374 13.753 25.0919C13.6851 23.8771 13.2796 23.4098 12.547 23.7019Z" fill="#FFCD2C"/>
</svg>
