<svg width="48" height="48" viewBox="0 0 48 48" fill="none" xmlns="http://www.w3.org/2000/svg">
<circle opacity="0.2" cx="24" cy="24" r="24" fill="#FFCD2C"/>
<path fill-rule="evenodd" clip-rule="evenodd" d="M19.2608 14.0772C19.0223 14.1926 18.9657 14.4312 18.9657 15.32V16.1621H15.142C10.7602 16.1621 10.6844 16.1693 9.63486 16.6818C7.56254 17.6938 6.58257 20.3013 7.16693 23.2487C7.49376 24.8974 9.00033 26.5074 10.5039 26.8147L10.732 26.8614L10.1334 27.4628L9.53478 28.0642H9.08006C8.19484 28.0642 8.14561 28.1497 8.14561 29.6872C8.14561 31.384 8.05986 31.3103 10.0312 31.3103H11.4371L11.5453 31.6991C12.3828 34.7083 16.8925 34.7083 17.7301 31.6991L17.8383 31.3103H18.4247H19.0112L19.1194 31.6991C19.4336 32.8281 20.5003 33.7551 21.7215 33.9604C23.2564 34.2184 24.8899 33.1874 25.3041 31.6991L25.4123 31.3103H29.7858H34.1593L34.2675 31.6991C35.1051 34.7083 39.6148 34.7083 40.4523 31.6991L40.5605 31.3103H40.8844C41.7204 31.3103 41.6879 31.4741 41.6884 27.2664L41.6889 23.7024L41.0388 20.9981C40.0743 16.9865 40.4046 17.2283 35.93 17.2583C32.3751 17.2821 32.1109 17.3571 31.5988 18.4885L31.4427 18.8333L31.4239 23.4488L31.4053 28.0642H29.2404H27.0755L27.0951 27.4793L27.1146 26.8942L27.5204 26.7826C29.0996 26.3482 30.4394 24.8887 30.7645 23.2487C31.5587 19.2427 29.503 16.1621 26.0355 16.1621H25.4578V15.32C25.4578 14.4126 25.4019 14.1911 25.1429 14.0731C24.9233 13.9731 19.468 13.9768 19.2608 14.0772ZM24.3758 15.6211V16.1621H22.2118H20.0477V15.6211V15.0801H22.2118H24.3758V15.6211ZM25.9988 21.5722V25.9002H18.9657H11.9326V21.5722V17.2441H18.9657H25.9988V21.5722ZM10.8506 21.5722C10.8506 25.4183 10.8414 25.765 10.7394 25.765C10.4562 25.765 9.60355 25.2642 9.20341 24.8628C8.36499 24.0219 8.14764 23.3443 8.14764 21.5722C8.14764 19.4194 8.68445 18.3369 10.104 17.6267C10.9379 17.2094 10.8506 16.748 10.8506 21.5722ZM27.8275 17.6267C29.247 18.3369 29.7838 19.4194 29.7838 21.5722C29.7838 23.7249 29.247 24.8074 27.8275 25.5176C26.9935 25.9349 27.0808 26.3963 27.0808 21.5722C27.0808 16.748 26.9935 17.2094 27.8275 17.6267ZM39.0441 18.4117C39.2755 18.5306 39.4393 18.7888 39.49 19.1148L39.5338 19.3962L38.1256 19.4191C36.7967 19.4407 36.6987 19.4511 36.3846 19.6058C34.7968 20.3873 34.7968 22.757 36.3846 23.5385C36.7098 23.6986 36.7626 23.7028 38.6617 23.7239L40.606 23.7454L40.6017 27.0038L40.5974 30.2621L40.4495 29.8208C39.4389 26.8051 35.1085 26.8182 34.2675 29.8394L34.1593 30.2282H33.324H32.4886L32.5066 24.5864C32.527 18.2356 32.4846 18.7261 33.0367 18.4446C33.3339 18.293 38.7554 18.2633 39.0441 18.4117ZM40.0443 21.4369C40.1657 21.939 40.2814 22.4183 40.3015 22.502L40.338 22.6542L38.663 22.6539C36.5491 22.6536 36.2784 22.5308 36.2784 21.5722C36.2784 20.6372 36.5838 20.4842 38.4058 20.5066L39.8237 20.524L40.0443 21.4369ZM25.9988 27.8244C25.9988 29.2333 25.8048 29.1462 28.9437 29.1462H31.4089V29.6872V30.2282H28.4106H25.4123L25.3041 29.8394C24.4662 26.8288 19.9573 26.8288 19.1194 29.8394L19.0112 30.2282H18.4247H17.8383L17.7301 29.8394C16.8921 26.8288 12.3832 26.8288 11.5453 29.8394L11.4371 30.2282H10.3324H9.22762V29.6872V29.1462H9.53532C9.97982 29.1462 10.1031 29.0583 11.1879 27.9674L12.1676 26.9822H19.0832H25.9988V27.8244ZM15.556 28.8107C16.9027 29.4627 17.2119 31.2418 16.161 32.2926C14.8784 33.5752 12.6553 32.7769 12.4919 30.9752C12.342 29.3213 14.0778 28.0951 15.556 28.8107ZM23.13 28.8107C24.4767 29.4627 24.7859 31.2418 23.7351 32.2926C22.4525 33.5752 20.2294 32.7769 20.066 30.9752C19.9161 29.3213 21.6519 28.0951 23.13 28.8107ZM38.2782 28.8107C39.6249 29.4627 39.9341 31.2418 38.8833 32.2926C37.6007 33.5752 35.3775 32.7769 35.2142 30.9752C35.0642 29.3213 36.8001 28.0951 38.2782 28.8107Z" fill="#FFCD2C"/>
</svg>
