<svg width="48" height="48" viewBox="0 0 48 48" fill="none" xmlns="http://www.w3.org/2000/svg">
<circle opacity="0.2" cx="24" cy="24" r="24" fill="#FFCD2C"/>
<path fill-rule="evenodd" clip-rule="evenodd" d="M13.0495 14.1359C12.5985 14.3587 12.4793 14.6249 12.4511 15.4721L12.4261 16.2248L11.5224 16.2666C5.62103 16.5399 3.08668 23.889 7.61376 27.6009L8.06785 27.9732L7.03657 28.0104C6.22594 28.0397 5.96301 28.0755 5.80788 28.1775C4.38892 29.111 4.95393 31.3523 6.61011 31.3595L6.98478 31.3611L7.07104 31.7733C7.95723 36.0076 14.3947 36.0076 15.2809 31.7733L15.3672 31.3611H16.1676H16.9682L17.0133 31.5659C18.0222 36.1447 24.3509 36.1447 25.3255 31.5659C25.3686 31.3637 25.3765 31.3611 25.9491 31.3611C27.226 31.3611 27.2446 30.3139 25.9687 30.2558L25.3678 30.2285L25.2891 29.92C25.2459 29.7502 25.1786 29.5142 25.1398 29.3955C25.1009 29.2767 25.0691 29.1511 25.0691 29.1162C25.0691 29.0814 26.4566 29.0529 28.1523 29.0529C29.8481 29.0529 31.2356 29.0804 31.2356 29.1141C31.2356 29.1477 31.1883 29.3236 31.1303 29.505C31.0724 29.6863 31.005 29.9269 30.9803 30.0395L30.9356 30.2442H29.7146C28.172 30.2442 27.8072 30.41 28.034 31.0078C28.1546 31.3257 28.318 31.3611 29.6631 31.3611H30.9236L31.013 31.752C31.982 35.9904 38.2548 36.0534 39.2094 31.8343L39.308 31.3984L40.6396 31.3611C42.1138 31.3199 42.2454 31.2839 42.6619 30.8085C43.453 29.9055 42.9589 28.2181 41.8505 28.0378L41.5997 27.997V24.6716C41.5997 21.6956 41.5866 21.3223 41.4747 21.1177C41.2707 20.7446 37.2725 16.5983 36.9383 16.4134C36.6393 16.2478 36.6022 16.2458 33.7837 16.2458H30.9316L30.7493 16.4286C30.5808 16.5974 30.5669 16.6662 30.5669 17.3317V18.0519L30.3255 17.8534C28.9345 16.7092 27.5817 16.2458 25.6321 16.2458C24.5109 16.2458 24.3262 16.3237 24.3262 16.7957C24.3262 17.2633 24.4784 17.3198 25.8754 17.37C27.9083 17.4429 29.2092 18.0402 30.2294 19.369L30.5669 19.8086V22.6489V25.4893L30.3466 25.8101C29.322 27.3026 27.675 28.0104 25.2269 28.0104H24.281L24.025 27.7446C22.6333 26.2997 19.9418 26.2576 18.4137 27.6568L18.0274 28.0104H16.1924H14.3575L13.974 27.6719C12.7316 26.5751 10.9404 26.3152 9.39937 27.0083C8.9007 27.2326 8.88681 27.2291 8.29289 26.7297C5.30936 24.2213 5.99555 19.4232 9.56846 17.81C10.5625 17.3613 10.5376 17.3627 16.9199 17.3627C23.501 17.3627 23.1374 17.3954 23.1374 16.8043C23.1374 16.2588 23.0718 16.2458 20.3042 16.2458H17.8625V15.5185C17.8625 14.6844 17.7173 14.36 17.2429 14.1344C16.8643 13.9544 13.4146 13.9555 13.0495 14.1359ZM16.7049 15.0997C16.7973 15.1353 16.8224 15.2621 16.8224 15.6954V16.2458H15.1508H13.4791V15.7395C13.4791 15.445 13.5164 15.1958 13.5683 15.1438C13.6624 15.0495 16.4715 15.01 16.7049 15.0997ZM36.8005 17.735L37.1137 18.1073H35.7696C33.5063 18.1073 33.3191 18.2865 33.3191 20.4528C33.3191 21.888 33.3955 22.1859 33.8458 22.5078L34.0959 22.6866L37.2906 22.7238L40.4853 22.7611L40.5077 23.152L40.5302 23.5429H40.022C39.0851 23.5429 38.4538 24.0696 38.3843 24.9094C38.2976 25.9568 39.0189 26.6702 40.1645 26.6702H40.5224V27.251C40.5224 28.0253 40.5461 28.0104 39.3112 28.0104H38.2783L37.9067 27.6756C36.3518 26.2745 33.9215 26.2766 32.3444 27.6803C31.6224 28.323 31.6814 28.7668 31.6814 22.6866V17.3627H34.0843H36.4873L36.8005 17.735ZM13.6649 19.2953C13.2095 19.484 12.0041 21.5598 11.7729 22.5535C11.3921 24.1898 13.2693 25.6822 14.8255 24.9803C16.1162 24.3983 16.4874 23.0802 15.7758 21.6057C14.8472 19.6817 14.2663 19.0459 13.6649 19.2953ZM39.3523 20.3854C39.9551 21.0177 40.4481 21.5678 40.4481 21.6081C40.4481 21.6882 34.7534 21.7153 34.5478 21.6362C34.4256 21.5892 34.3624 19.3915 34.4798 19.2739C34.507 19.2466 35.3679 19.2268 36.3929 19.2301L38.2565 19.2359L39.3523 20.3854ZM20.7654 19.4949C20.6807 19.6028 20.6114 19.749 20.6114 19.8199C20.6114 19.8908 20.6807 20.037 20.7654 20.1449L20.9194 20.3411H22.6174H24.3154L24.4693 20.1449C24.6636 19.8974 24.6636 19.7424 24.4693 19.4949L24.3154 19.2987H22.6174H20.9194L20.7654 19.4949ZM14.5834 21.6814C15.3474 23.1503 15.1152 24.0269 13.962 24.0269C12.6182 24.0269 12.5232 22.8717 13.7112 20.9795L13.9415 20.6126L14.0785 20.7933C14.1539 20.8927 14.3811 21.2923 14.5834 21.6814ZM20.7654 21.8776C20.6807 21.9855 20.6114 22.1317 20.6114 22.2026C20.6114 22.2735 20.6807 22.4197 20.7654 22.5276L20.9194 22.7238H22.6174H24.3154L24.4693 22.5276C24.6636 22.2801 24.6636 22.1251 24.4693 21.8776L24.3154 21.6814H22.6174H20.9194L20.7654 21.8776ZM33.7616 23.819C33.3792 23.96 33.2589 24.4538 33.5387 24.7342C33.9416 25.1379 35.0989 24.8508 35.0989 24.347C35.0989 23.9025 34.3439 23.6045 33.7616 23.819ZM20.8026 24.181C20.6017 24.3823 20.5771 24.6526 20.7397 24.871L20.8874 25.0693L22.6003 25.0893L24.3132 25.1092L24.4683 24.9117C24.6636 24.6628 24.6638 24.5081 24.4693 24.2603L24.3154 24.0641H22.6173C21.1733 24.0641 20.9018 24.0816 20.8026 24.181ZM40.5074 25.0879L40.5295 25.5533H40.1289C39.6423 25.5533 39.4593 25.3998 39.4957 25.0221C39.5248 24.719 39.7622 24.5753 40.1881 24.6032L40.4853 24.6225L40.5074 25.0879ZM30.5669 27.6382V28.0104L30.1397 28.0096L29.7125 28.0088L30.1212 27.6405C30.3459 27.438 30.5382 27.2708 30.5484 27.2691C30.5585 27.2673 30.5669 27.4334 30.5669 27.6382ZM12.2602 27.9169C14.4115 28.7407 14.9752 31.4582 13.3225 33.038C11.5886 34.6956 8.67024 33.8313 8.13435 31.5015C7.59081 29.1385 9.99536 27.0494 12.2602 27.9169ZM22.4293 27.9984C24.812 29.1159 24.9002 32.4158 22.5782 33.5659C20.3078 34.6906 17.7578 32.8767 18.0985 30.3794C18.3724 28.3727 20.6073 27.144 22.4293 27.9984ZM35.879 27.8138C39.4305 28.7646 38.7385 33.9202 35.062 33.901C33.6036 33.8933 32.3862 32.8834 32.0839 31.4304C31.6269 29.2337 33.7226 27.2365 35.879 27.8138ZM10.6612 29.0652C9.70843 29.3394 9.15018 30.3666 9.42871 31.3331C9.8071 32.6461 11.4589 33.0692 12.4504 32.1071C13.7977 30.7998 12.471 28.5442 10.6612 29.0652ZM20.6853 29.0436C18.6377 29.7165 19.0294 32.5897 21.1686 32.5897C23.5135 32.5897 23.6253 29.162 21.2854 29.0094C21.0578 28.9945 20.7877 29.0099 20.6853 29.0436ZM34.6527 29.0436C32.6889 29.6889 32.9597 32.4841 34.9985 32.6142C37.0281 32.7437 37.7141 30.0964 35.8952 29.1537C35.6327 29.0177 34.9229 28.9547 34.6527 29.0436ZM7.25054 29.0899C7.27089 29.1103 7.21792 29.3781 7.13293 29.6851L6.97832 30.2432L6.68701 30.2437C6.05706 30.2448 5.84785 29.3659 6.42319 29.1358C6.61658 29.0584 7.18753 29.0267 7.25054 29.0899ZM17.2682 29.1162C17.2682 29.1511 17.2364 29.2767 17.1975 29.3955C17.1586 29.5142 17.0904 29.7538 17.046 29.9278L16.9653 30.2442L16.1694 30.2437L15.3736 30.2432L15.219 29.6851C15.134 29.3781 15.0811 29.1103 15.1014 29.0899C15.1664 29.0248 17.2682 29.0504 17.2682 29.1162ZM41.612 29.132C41.8809 29.2345 41.9315 29.3229 41.9329 29.6929C41.9349 30.2178 41.844 30.2514 40.4854 30.2276L39.3128 30.207L39.2124 29.8347C39.1571 29.6299 39.0908 29.3702 39.0649 29.2576L39.018 29.0529H40.2111C40.8736 29.0529 41.4967 29.0881 41.612 29.132ZM11.5367 30.2014C11.8965 30.3879 12.0245 30.8791 11.7978 31.2035C11.272 31.9558 10.0942 31.276 10.5367 30.4758C10.7315 30.1235 11.1596 30.006 11.5367 30.2014ZM21.6573 30.313C22.2323 30.8893 21.6326 31.7963 20.8838 31.4828C20.1784 31.1874 20.4026 30.0953 21.1686 30.0953C21.3696 30.0953 21.4965 30.1518 21.6573 30.313ZM35.6247 30.313C36.1971 30.8866 35.5772 31.7868 34.8263 31.4724C34.3529 31.2741 34.2574 30.6514 34.6469 30.3026C34.967 30.016 35.3323 30.0199 35.6247 30.313Z" fill="#FFCD2C"/>
</svg>
