<svg width="48" height="48" viewBox="0 0 48 48" fill="none" xmlns="http://www.w3.org/2000/svg">
<circle opacity="0.2" cx="24" cy="24" r="24" fill="#FFCD2C"/>
<path d="M28.8752 14.1744C29.2162 14.1826 29.5579 14.1901 29.8989 14.1947V13.5118C29.5974 13.5043 29.2958 13.4975 28.9951 13.4923C28.7785 13.4885 28.6593 13.5944 28.6564 13.8221C28.6534 14.0061 28.7085 14.1346 28.876 14.1744H28.8752Z" fill="#FFCD2C"/>
<path d="M36.8241 19.309C36.7943 19.2992 36.763 19.2917 36.731 19.2864C36.6655 19.2752 36.4615 19.2504 36.3104 19.2504C36.297 19.2774 36.2821 19.3052 36.265 19.3315C36.2255 19.3916 36.1809 19.4434 36.131 19.4893C36.1943 19.6981 36.2575 19.9062 36.3179 20.1158C36.3923 20.3757 36.4184 20.6874 36.1101 20.7941C35.3746 21.0495 34.622 21.2568 33.9073 21.4739C33.9073 21.3072 33.9073 21.1419 33.9058 20.9766H33.1026C33.0966 21.1081 33.0914 21.2395 33.0854 21.371C33.0847 21.3913 33.0668 21.4108 33.0571 21.4296C31.0017 21.6647 29.6699 23.0995 29.3788 24.9354C24.7535 24.7717 20.1267 24.6087 15.4389 24.4426C15.2997 23.551 15.0302 22.6811 14.3646 21.9735C13.6976 21.2651 12.8862 20.8677 11.9415 20.6867C11.9824 19.5328 12.0233 18.3925 12.0628 17.2838C12.4842 17.1651 12.8891 17.0839 13.2696 16.939C14.4622 16.483 15.2386 15.6214 15.6124 14.3916C15.6615 14.2301 15.6808 14.0574 15.7501 13.9064C15.7851 13.829 15.9027 13.7374 15.9794 13.7404C17.711 13.8027 19.4418 13.8808 21.1734 13.9484C22.608 14.0048 24.0433 14.0544 25.4786 14.1017C25.935 14.1167 26.3928 14.1084 26.8491 14.1205C27.0896 14.1265 27.269 14.0776 27.2913 13.7892C27.3159 13.4759 27.1283 13.4136 26.8767 13.4038C25.8962 13.3663 24.9165 13.3242 23.9182 13.2265C24.3388 13.1026 24.7602 12.9794 25.1808 12.8555C26.13 12.576 27.0784 12.2928 28.0291 12.0156C27.8147 11.8526 27.6353 11.6453 27.5072 11.3906C27.3963 11.4222 27.2846 11.4537 27.1737 11.486C26.3913 11.7144 25.6126 11.957 24.8324 12.1914C24.0187 12.4355 23.2058 12.6857 22.3884 12.9178C21.9931 13.0305 21.5873 13.186 21.1861 13.1852C19.9004 13.1837 18.6155 13.1251 17.3298 13.0763C15.8134 13.0185 14.2976 12.9464 12.7819 12.884C12.2169 12.8607 11.7136 13.1244 11.5499 13.5871C11.4598 13.841 11.4628 14.1325 11.4471 14.4082C11.401 15.2277 11.3578 16.0473 11.3295 16.8676C11.2886 18.0357 11.2647 19.2038 11.229 20.3719C11.1933 21.5415 11.1389 22.7111 11.1203 23.8807C11.1084 24.5914 11.6236 25.0068 12.1894 25.0631C12.9413 25.1375 13.7043 25.0939 14.4599 25.1428C14.6453 25.1548 14.9371 25.0226 15.0309 25.3463C15.1128 25.6288 15.2036 25.9097 15.2617 26.1974C15.4143 26.9531 16.0471 27.3798 16.7789 27.1928C17.2449 27.0741 17.708 26.9441 18.1696 26.8104C19.3599 26.4641 20.5481 26.111 21.7385 25.7647C22.1256 25.6521 22.5164 25.4605 22.905 25.4598C24.1163 25.4583 25.3275 25.5281 26.5387 25.5754C27.5437 25.6153 28.5487 25.6671 29.5537 25.7054C30.3734 25.7362 31.193 25.7505 32.0119 25.7805C32.5598 25.8008 33.0936 25.8106 33.4792 25.3058C33.7048 25.0105 33.7331 24.6748 33.7353 24.3292C33.7398 23.6539 33.7368 22.9786 33.7368 22.2777C34.5781 22.0373 35.3515 21.8165 36.125 21.5964C36.7757 21.4108 37.2395 20.7918 37.0563 20.1466C36.9774 19.8679 36.9 19.5892 36.8226 19.3097L36.8241 19.309ZM12.0725 16.1968C12.1119 15.5117 12.1432 14.8251 12.1797 14.14C12.1983 13.7862 12.3747 13.6299 12.7403 13.6307C13.4758 13.6322 14.2105 13.6307 15.0108 13.6307C14.9565 14.3729 14.6602 14.8965 14.2761 15.369C13.7892 15.9684 13.1229 16.2809 12.3904 16.4574C12.1923 16.5055 12.0591 16.4432 12.0732 16.1968H12.0725ZM14.6416 24.3683C14.1867 24.3683 13.7334 24.372 13.28 24.3668C12.9755 24.3638 12.671 24.3435 12.3665 24.3412C12.0688 24.3397 11.8372 24.1737 11.8521 23.75C11.8752 23.0747 11.8938 22.3994 11.9027 21.7241C11.905 21.522 11.9809 21.4228 12.1737 21.4769C13.4899 21.845 14.5046 22.8869 14.6602 24.3059C14.6624 24.327 14.6475 24.3495 14.6423 24.3675L14.6416 24.3683ZM16.8035 26.4311C16.2928 26.579 16.0702 26.4543 15.9459 25.9495C15.8871 25.7122 15.8193 25.4763 15.7426 25.1923C17.3015 25.2472 18.8128 25.2998 20.3247 25.3523C20.3255 25.3719 20.327 25.3906 20.3277 25.4102C19.153 25.7505 17.9782 26.0893 16.8035 26.4303V26.4311ZM33.0006 24.4689C32.9834 24.9212 32.8323 25.0361 32.3789 25.0271C31.6784 25.0135 30.9786 24.982 30.2788 24.9557C30.2379 24.9542 30.1984 24.9302 30.1605 24.9174C30.3473 23.412 31.7119 22.2529 33.008 22.2251C33.008 22.9883 33.0289 23.7298 33.0006 24.4689Z" fill="#FFCD2C"/>
<path d="M17.7705 19.2638C17.8732 17.696 18.4524 16.4228 19.7076 15.474C20.8391 14.6184 22.0943 14.3239 23.4559 14.5831C25.1287 14.9008 26.3608 15.8841 27.004 17.4594C27.8497 19.5297 27.3129 21.7337 25.5285 23.149C24.2033 24.1991 22.6913 24.4162 21.0811 23.9385C20.857 23.8716 20.6367 23.7559 20.7349 23.4577C20.8265 23.1783 21.0178 23.1414 21.2985 23.2278C22.6608 23.6485 23.9316 23.4592 25.0736 22.575C26.0719 21.8028 26.5938 20.7557 26.6496 19.5072C26.733 17.6374 25.4912 15.8218 23.5415 15.3493C21.4883 14.8513 19.4493 15.9548 18.7435 17.9642C18.3169 19.1796 18.445 20.3785 19.1299 21.4888C19.2631 21.7044 19.4403 21.8922 19.5952 22.095C19.7388 22.2821 19.7485 22.4744 19.5743 22.6411C19.3971 22.8102 19.208 22.7929 19.045 22.6104C18.3832 21.8704 17.973 21.0081 17.836 20.0187C17.8003 19.7603 17.7899 19.4989 17.7705 19.2645V19.2638Z" fill="#FFCD2C"/>
<path d="M22.0661 22.0382C21.6894 21.8436 21.3618 21.7084 21.0782 21.5086C20.9784 21.4379 20.9151 21.1758 20.9665 21.0601C21.0365 20.9008 21.2129 20.7664 21.443 20.9046C21.6395 21.0233 21.8531 21.1134 22.1085 21.2411C22.1331 20.7611 22.1539 20.3495 22.1755 19.9378C22.1807 19.8394 22.1949 19.741 22.1874 19.6433C22.1725 19.4458 22.2016 19.2723 21.9469 19.1325C21.1965 18.7201 20.9658 18.0809 21.2583 17.3807C21.4422 16.9405 21.7839 16.6731 22.2507 16.5559C22.3251 16.3005 22.1777 15.8881 22.6616 15.8986C23.1113 15.9084 22.978 16.2802 23.0279 16.5169C23.2736 16.6416 23.517 16.749 23.7426 16.885C23.957 17.0142 24.0217 17.2245 23.8647 17.4303C23.721 17.6189 23.5282 17.6782 23.3205 17.4807C23.2438 17.4085 23.1321 17.374 22.9855 17.2951V18.7299C23.319 19.0221 23.6458 19.2828 23.9428 19.5742C24.4476 20.0685 24.1297 21.2915 23.4024 21.7099C23.2959 21.7715 23.1827 21.8293 23.0651 21.8631C22.8783 21.9172 22.7912 22.0013 22.8135 22.2222C22.8388 22.4738 22.6974 22.6399 22.4301 22.6256C22.1978 22.6128 22.0601 22.4964 22.0884 22.2312C22.0988 22.1358 22.0631 22.0359 22.0638 22.0382H22.0661ZM22.8686 21.0984C23.2311 20.9985 23.4411 20.6995 23.4359 20.2789C23.4314 19.9326 23.2624 19.7252 22.8686 19.6186V21.0992V21.0984ZM22.1993 18.4437C22.2179 18.0531 22.2343 17.7053 22.2514 17.3327C21.7541 17.7008 21.7348 18.0395 22.1993 18.4437Z" fill="#FFCD2C"/>
<path d="M14.8316 19.3895C14.4988 19.3895 14.1653 19.3767 13.834 19.394C13.5772 19.4075 13.4767 19.2182 13.4506 19.0477C13.4245 18.8779 13.5154 18.6916 13.761 18.6954C14.198 18.7014 14.635 18.6916 15.072 18.7044C15.3743 18.7134 15.6802 18.7277 15.9758 18.7855C16.0852 18.8065 16.2594 18.9756 16.246 19.0477C16.2215 19.1844 16.0927 19.3955 15.9892 19.4075C15.6073 19.4503 15.2187 19.4248 14.8316 19.4248C14.8316 19.4135 14.8316 19.4015 14.8316 19.3902V19.3895Z" fill="#FFCD2C"/>
<path d="M29.8155 20.0164V19.2314C29.651 19.2262 29.4872 19.2202 29.3227 19.2119C29.0554 19.1984 28.9556 19.3291 28.9311 19.5567C28.9028 19.8144 29.0569 19.927 29.2877 19.9458C29.4336 19.9578 29.581 19.9481 29.7276 19.9481V20.0157C29.7567 20.0157 29.7865 20.0157 29.8155 20.0157V20.0164Z" fill="#FFCD2C"/>
<path d="M24.7277 39.0017C23.1722 38.5796 21.6161 38.1581 20.0605 37.7336C19.5061 37.5825 18.9534 37.4247 18.4007 37.2675C17.9665 37.1443 17.5518 37.1926 17.1544 37.403C16.993 37.4885 16.8391 37.5918 16.6716 37.663C16.3772 37.788 16.1674 37.9335 16.1944 38.3215C16.2128 38.5809 16.0067 38.7412 15.7424 38.7356C14.5371 38.7115 13.3318 38.6836 12.1271 38.6428C11.7836 38.631 11.6303 38.4379 11.6401 38.074C11.6984 35.8997 11.7603 33.7253 11.8204 31.551C11.8327 31.0998 11.8407 30.648 11.8548 30.1968C11.867 29.7902 12.0308 29.6317 12.435 29.641C13.5581 29.667 14.6806 29.6942 15.8037 29.7252C16.3054 29.7388 16.4453 29.9003 16.4263 30.4116C16.4195 30.5849 16.4251 30.7588 16.4251 30.9358C16.8182 30.7959 17.204 30.6325 17.604 30.5211C19.043 30.1213 20.4574 30.224 21.7823 30.916C22.6349 31.361 23.5059 31.5838 24.4579 31.5789C25.2976 31.5746 26.1373 31.6259 26.9776 31.6402C28.0964 31.6593 28.96 32.131 29.5587 33.0885C29.5777 33.1188 29.6004 33.1473 29.6342 33.1943C29.8813 33.0779 30.1279 32.9634 30.3727 32.8471C31.3541 32.3798 32.3306 31.9014 33.3175 31.4458C34.3547 30.9674 35.5723 31.3239 36.1998 32.2678C36.4506 32.6453 36.4083 32.878 36.0348 33.1219C33.3764 34.858 30.7198 36.5978 28.0553 38.3246C27.4781 38.6985 26.812 38.8402 26.1416 38.9454C26.0526 38.9597 25.9655 38.9826 25.8772 39.0017H24.7265H24.7277ZM16.276 36.8188C16.4269 36.7402 16.5477 36.6801 16.6655 36.6145C17.3138 36.2543 17.9922 36.1844 18.7031 36.3886C19.6146 36.6504 20.5267 36.9122 21.4413 37.1623C22.5226 37.4581 23.5954 37.8066 24.6946 38.0127C25.7183 38.2052 26.7556 38.0535 27.6511 37.4804C30.1169 35.9021 32.5587 34.2861 35.0092 32.6843C35.0742 32.6416 35.1343 32.5908 35.1993 32.5419C34.7694 32.1279 34.1952 32.0511 33.6137 32.3272C32.4753 32.8681 31.3424 33.4196 30.1997 33.9513C29.9905 34.0484 29.9224 34.1437 29.9629 34.3814C30.0427 34.8487 29.9016 35.1606 29.2919 35.1371C27.6677 35.0752 26.0428 35.0443 24.418 34.9991C24.2628 34.9948 24.1058 34.9935 23.9543 34.9657C23.7144 34.9217 23.5961 34.7528 23.5875 34.5163C23.5789 34.2867 23.7561 34.0967 23.9898 34.0701C24.08 34.0596 24.172 34.0658 24.2634 34.0682C25.7331 34.1072 27.2027 34.1475 28.6718 34.1871C28.7766 34.1902 28.8821 34.1871 28.9919 34.1871C28.8447 33.3224 28.0719 32.6311 27.2107 32.584C26.682 32.5556 26.152 32.5463 25.6227 32.5302C24.9565 32.5098 24.2898 32.4968 23.6237 32.4708C22.7993 32.4386 22.0835 32.0759 21.3517 31.7318C19.733 30.9711 18.1345 31.0608 16.5796 31.9533C16.4355 32.0363 16.3766 32.1316 16.3729 32.2993C16.3453 33.5613 16.3073 34.8239 16.2754 36.086C16.2699 36.3143 16.2748 36.5427 16.2748 36.8169L16.276 36.8188ZM12.7693 30.6301C12.7055 32.9659 12.6399 35.3401 12.5737 37.7558H15.3044C15.3682 35.4002 15.4326 33.0383 15.4982 30.6301H12.7693Z" fill="#FFCD2C"/>
<path d="M29.5851 11.9593C29.3322 11.9637 29.1227 11.9064 29.0292 11.6458C28.9395 11.3959 29.0687 11.227 29.2488 11.073C30.3605 10.1212 31.4697 9.1663 32.5814 8.21451C32.9189 7.92592 33.0933 7.92842 33.4365 8.22262C34.5325 9.16319 35.626 10.1063 36.7238 11.045C36.9196 11.2126 37.0701 11.3909 36.966 11.6627C36.8612 11.9369 36.6253 11.9643 36.3688 11.9593C35.9666 11.9519 35.5645 11.9575 35.1391 11.9575V12.3352C35.1391 14.3497 35.1391 16.3649 35.1391 18.3794C35.1391 18.85 34.9923 18.9971 34.5155 18.9984C33.5211 19.0008 32.5268 19.0002 31.5324 18.9984C30.9979 18.9977 30.8605 18.8619 30.8605 18.3377C30.8605 16.3325 30.8605 14.3273 30.8605 12.3221C30.8605 12.2105 30.8605 12.0983 30.8605 11.9575C30.4119 11.9575 29.9991 11.9525 29.5863 11.9593H29.5851ZM34.2112 18.0603V17.7337C34.2112 15.7472 34.2112 13.7601 34.2112 11.7736C34.2112 11.1547 34.3279 11.0387 34.9522 11.0325C35.0356 11.0319 35.1184 11.0256 35.2684 11.0188C34.4904 10.3493 33.7577 9.71855 33.0029 9.06907C32.2614 9.70547 31.5255 10.3369 30.7143 11.0331C30.9176 11.0331 31.0424 11.0294 31.1673 11.0337C31.6466 11.0506 31.7859 11.1902 31.7859 11.662C31.7865 13.6778 31.7859 15.693 31.7859 17.7087V18.0609H34.2106L34.2112 18.0603Z" fill="#FFCD2C"/>
</svg>
