<svg width="48" height="48" viewBox="0 0 48 48" fill="none" xmlns="http://www.w3.org/2000/svg">
<circle opacity="0.2" cx="24" cy="24" r="24" fill="#FFCD2C"/>
<path d="M36.0182 28.7784C36.0182 29.6081 36.022 30.4074 36.0167 31.2075C36.0137 31.6167 35.9797 32.0137 35.7104 32.3631C35.2499 32.9605 34.6124 32.9492 33.9574 32.9258C32.9788 32.8902 31.9995 32.8736 31.0209 32.8365C29.82 32.7911 28.6198 32.7299 27.4188 32.683C25.9721 32.6263 24.5247 32.5438 23.0779 32.5454C22.6128 32.5454 22.147 32.7722 21.6842 32.9061C20.2624 33.3167 18.8429 33.7342 17.4211 34.1441C16.8698 34.3029 16.3162 34.4564 15.7604 34.5971C14.8862 34.8179 14.1307 34.3135 13.9477 33.4181C13.8781 33.0778 13.7692 32.745 13.6716 32.4107C13.5597 32.0273 13.2111 32.1839 12.9895 32.1695C12.0873 32.1113 11.1752 32.1635 10.2775 32.075C9.60145 32.0092 8.98661 31.5169 9.00022 30.6759C9.02291 29.2912 9.08795 27.9065 9.1303 26.5218C9.17265 25.1393 9.20214 23.7561 9.25054 22.3737C9.28457 21.4027 9.336 20.4324 9.39121 19.4629C9.40936 19.1362 9.40633 18.7913 9.51372 18.4911C9.70959 17.9443 10.3101 17.632 10.9854 17.6592C12.7966 17.7326 14.6071 17.818 16.4183 17.8868C17.9535 17.9443 19.4887 18.0139 21.0247 18.0162C21.5034 18.0162 21.9882 17.8324 22.4608 17.6993C23.4372 17.4248 24.4082 17.1283 25.38 16.8387C26.3124 16.5611 27.2426 16.2745 28.1766 16.0038C29.1144 15.7323 30.0567 15.4789 30.9952 15.212C31.9201 14.9488 32.8412 14.672 33.7661 14.4111C34.2796 14.2659 34.7939 14.1177 35.3164 14.0125C35.7914 13.9165 36.537 14.3884 36.6845 14.8747C37.0052 15.9357 37.2956 17.0058 37.6117 18.0683C37.8885 19.0001 38.1963 19.9227 38.4678 20.8559C38.8119 22.0372 39.134 23.2245 39.466 24.4088C39.6384 25.0251 39.8086 25.6423 39.9848 26.2578C40.2041 27.0224 39.6498 27.7545 38.8724 27.9738C37.949 28.2347 37.0248 28.4964 36.0198 28.7807L36.0182 28.7784ZM30.8099 31.9245C31.157 29.7517 32.7482 28.0532 35.2038 27.7741C35.2151 27.7515 35.2363 27.7288 35.237 27.7046C35.2922 26.4575 35.3459 25.2104 35.3996 23.9626C35.4095 23.735 35.3028 23.6503 35.0737 23.6079C33.8501 23.3826 32.882 22.7458 32.1455 21.7453C31.6025 21.0072 31.3378 20.167 31.2379 19.2761C30.9067 19.2481 30.6072 19.2179 30.3077 19.1989C30.0302 19.1816 29.9425 19.0174 29.9463 18.7671C29.95 18.4979 30.0922 18.3724 30.3516 18.3769C31.0292 18.389 31.7076 18.4056 32.3852 18.4238C33.1724 18.445 33.9597 18.4805 34.7477 18.4888C35.7558 18.5002 36.4077 19.0961 36.3881 19.962C36.3517 21.56 36.264 23.1564 36.2232 24.7544C36.1975 25.7655 36.2186 26.7774 36.2186 27.8263C37.0732 27.5692 37.9709 27.3234 38.8504 27.0209C39.218 26.8946 39.1877 26.5256 39.0985 26.2178C38.8534 25.3738 38.5744 24.5404 38.3331 23.6956C37.9331 22.2973 37.5587 20.8914 37.1609 19.4924C36.7957 18.2075 36.4024 16.9309 36.0424 15.6445C35.8511 14.9609 35.6492 14.8119 34.9557 14.9768C34.7228 15.032 34.5012 15.1348 34.2705 15.1999C32.8578 15.5977 31.4421 15.9849 30.031 16.3879C28.6168 16.7918 27.2071 17.21 25.7959 17.6222C25.293 17.7689 24.7901 17.9148 24.2879 18.0615C25.4806 18.1772 26.6512 18.2272 27.8219 18.2718C28.1229 18.2831 28.346 18.3572 28.3173 18.7286C28.2908 19.0704 28.0768 19.1279 27.7887 19.1211C27.2426 19.1067 26.6966 19.1165 26.1514 19.0991C24.4369 19.0432 22.7225 18.9842 21.0088 18.9176C18.9405 18.8375 16.8729 18.7452 14.8045 18.6711C14.7122 18.6681 14.5731 18.7762 14.5307 18.8677C14.4483 19.0462 14.4248 19.2511 14.3659 19.4417C13.9197 20.8975 12.9925 21.9177 11.5677 22.4577C11.1132 22.6301 10.63 22.7261 10.1263 22.866C10.0794 24.1789 10.031 25.5288 9.98184 26.8946C11.1102 27.1086 12.0797 27.579 12.8768 28.4177C13.6716 29.2549 13.9938 30.2849 14.1602 31.3406C19.7595 31.5365 25.2862 31.7301 30.8114 31.9237L30.8099 31.9245ZM13.2058 31.2537C13.2126 31.2317 13.23 31.2045 13.2277 31.1803C13.0417 29.5007 11.8301 28.2665 10.2579 27.8316C10.028 27.7681 9.93722 27.8853 9.9342 28.1243C9.92361 28.9236 9.90168 29.723 9.8737 30.5224C9.8563 31.0245 10.1331 31.2204 10.4885 31.2227C10.8523 31.2249 11.2161 31.2491 11.5798 31.2529C12.1213 31.2582 12.6628 31.2544 13.2058 31.2544V31.2537ZM35.5252 22.7413C35.5252 21.8625 35.5085 21.0109 35.532 20.1601C35.5441 19.7283 35.3769 19.4077 34.9807 19.3978C34.0497 19.3744 33.118 19.3903 32.181 19.3903C32.0834 20.8438 33.8175 22.7337 35.5252 22.7413ZM35.1455 28.7172C33.5975 28.7497 31.9677 30.1223 31.7439 31.9041C31.7885 31.9192 31.8361 31.9479 31.8853 31.9494C32.7217 31.9804 33.5574 32.0175 34.3938 32.0334C34.9353 32.044 35.1153 31.9078 35.1364 31.3724C35.1705 30.4974 35.1455 29.6202 35.1455 28.7164V28.7172ZM13.6467 18.5433C12.6915 18.5433 11.8127 18.5448 10.9347 18.5433C10.4984 18.5425 10.2874 18.727 10.2647 19.146C10.2216 19.9575 10.1838 20.7697 10.1369 21.5812C10.1202 21.8731 10.2791 21.9464 10.5158 21.8897C11.3915 21.681 12.1871 21.3112 12.7686 20.601C13.2269 20.0422 13.5809 19.4213 13.6459 18.5433H13.6467ZM14.5209 32.23C14.6124 32.5658 14.6933 32.8448 14.7637 33.1262C14.9126 33.7236 15.1781 33.8718 15.7884 33.6964C17.1912 33.2925 18.5948 32.891 19.9977 32.4886C19.9962 32.466 19.9954 32.4425 19.9939 32.4198C18.188 32.3571 16.3828 32.2943 14.5209 32.23Z" fill="#FFCD2C"/>
<path d="M16.9443 25.2196C17.0676 23.3637 17.7588 21.8565 19.2577 20.7327C20.6099 19.7193 22.1088 19.3714 23.7355 19.6777C25.7335 20.0536 27.2052 21.2182 27.9736 23.0831C28.9839 25.5342 28.3426 28.1433 26.2107 29.8184C24.6279 31.0616 22.8212 31.3188 20.898 30.7531C20.6303 30.6744 20.3672 30.5368 20.4844 30.1836C20.594 29.8532 20.8224 29.8085 21.1574 29.9114C22.7849 30.4098 24.3027 30.1851 25.667 29.1385C26.8589 28.2242 27.4835 26.9847 27.5493 25.5069C27.6491 23.2934 26.1654 21.1449 23.8369 20.5852C21.3843 19.9961 18.9484 21.3022 18.1059 23.6806C17.5962 25.1197 17.7497 26.5392 18.5673 27.8536C18.7261 28.1092 18.9378 28.3316 19.1231 28.5713C19.2948 28.7929 19.3061 29.0205 19.0982 29.2171C18.8864 29.4168 18.6603 29.3964 18.4659 29.1808C17.6749 28.3043 17.1848 27.2841 17.0222 26.1127C16.9799 25.8072 16.9678 25.4971 16.9443 25.2203V25.2196Z" fill="#FFCD2C"/>
<path d="M22.075 28.4944C21.6257 28.2638 21.2332 28.1042 20.8952 27.8675C20.7757 27.7843 20.7008 27.4742 20.7621 27.3366C20.846 27.1475 21.057 26.9887 21.3316 27.1528C21.5667 27.2935 21.8216 27.4001 22.1271 27.5514C22.1566 26.9834 22.1816 26.4956 22.2065 26.0079C22.2126 25.8914 22.23 25.7742 22.2209 25.6592C22.2028 25.4255 22.2375 25.2206 21.9343 25.055C21.0381 24.5664 20.7621 23.8094 21.1122 22.9813C21.3323 22.4603 21.7399 22.1442 22.2973 22.005C22.3865 21.7033 22.2103 21.214 22.7889 21.2268C23.3266 21.2389 23.1662 21.6783 23.2267 21.9581C23.5202 22.1063 23.8106 22.2326 24.0805 22.3945C24.3369 22.548 24.4141 22.7968 24.2265 23.0396C24.0548 23.2627 23.8249 23.333 23.5761 23.0985C23.4846 23.0131 23.3508 22.9723 23.1761 22.8792V24.5785C23.5746 24.9241 23.9648 25.2335 24.3203 25.5783C24.923 26.1629 24.5434 27.6111 23.6744 28.1065C23.5466 28.1791 23.412 28.2471 23.2721 28.288C23.049 28.3523 22.9446 28.4513 22.9711 28.713C23.0014 29.011 22.832 29.2068 22.5136 29.1902C22.236 29.1758 22.0719 29.0374 22.1052 28.7228C22.1173 28.6101 22.075 28.4914 22.0757 28.4944H22.075ZM23.0339 27.382C23.4672 27.264 23.7175 26.9101 23.7115 26.4117C23.7062 26.0018 23.5043 25.756 23.0339 25.6297V27.382ZM22.2345 24.239C22.2565 23.7769 22.2761 23.3647 22.2973 22.9239C21.7036 23.3595 21.6802 23.761 22.2345 24.239Z" fill="#FFCD2C"/>
<path d="M13.4328 25.3619C13.035 25.3619 12.6373 25.3468 12.241 25.3665C11.9339 25.3823 11.8144 25.1585 11.7834 24.9566C11.7524 24.7562 11.8606 24.5353 12.154 24.5391C12.6758 24.5467 13.1984 24.5346 13.7202 24.5497C14.0809 24.5603 14.4462 24.5769 14.7994 24.645C14.9302 24.6699 15.1382 24.8696 15.1223 24.9558C15.0928 25.1176 14.9393 25.368 14.8153 25.3816C14.3592 25.433 13.8942 25.402 13.4328 25.402C13.4328 25.3884 13.4328 25.3748 13.4328 25.3612V25.3619Z" fill="#FFCD2C"/>
<path d="M31.2277 26.0215C31.0523 26.0215 30.8761 26.0329 30.7021 26.0185C30.4268 25.9958 30.2431 25.8627 30.2763 25.5579C30.3058 25.2887 30.4253 25.1337 30.7445 25.1496C31.5272 25.1881 32.3114 25.1942 33.0949 25.2123C33.4299 25.2199 33.5986 25.4369 33.5804 25.7235C33.5638 25.9905 33.3384 26.1077 33.0586 26.1047C32.4483 26.0971 31.838 26.1024 31.2277 26.1024C31.2277 26.076 31.2277 26.0487 31.2277 26.0223V26.0215Z" fill="#FFCD2C"/>
</svg>
