<svg width="48" height="48" viewBox="0 0 48 48" fill="none" xmlns="http://www.w3.org/2000/svg">
<circle opacity="0.2" cx="24" cy="24" r="24" fill="#FFCD2C"/>
<g clip-path="url(#clip0_1931_26372)">
<path d="M22.8459 10.0005H35.6408C35.8749 10.1384 36.0005 10.3236 36 10.6151C35.9949 18.8712 35.9964 27.1278 35.9954 35.3839C35.9954 35.8143 35.8092 35.9959 35.3712 35.9959C30.3211 35.9964 25.271 35.9959 20.2203 35.9969C19.5396 35.9969 18.9454 35.7767 18.4347 35.327C18.2587 35.1718 18.0801 35.0197 17.8904 34.8554C17.8461 34.9546 17.8146 35.0319 17.7779 35.1072C17.5032 35.6653 17.0525 35.9847 16.4334 35.9903C14.7841 36.0056 13.1343 36.001 11.485 35.9924C10.8526 35.9893 10.3113 35.5834 10.0936 34.9876C10.0621 34.9012 10.031 34.8136 10 34.7272C10 31.7994 10 28.8712 10 25.9435C10.2793 24.955 10.9747 24.6442 11.865 24.6651C13.3021 24.6991 14.7403 24.6844 16.178 24.6691C16.7747 24.663 17.2738 24.8299 17.7042 25.3966C17.7642 25.2949 17.7983 25.1997 17.8624 25.1346C18.4327 24.5567 19.0004 23.9757 19.5875 23.4151C19.765 23.2457 19.7991 23.1002 19.736 22.8672C18.9368 19.9171 18.1483 16.9645 17.3582 14.0118C17.2326 13.5423 17.3542 13.3347 17.8242 13.209C18.86 12.9323 19.8968 12.6576 20.9325 12.3808C21.4509 12.2425 21.9688 12.1005 22.4908 11.9591C22.4908 11.5175 22.506 11.1029 22.4857 10.6903C22.4704 10.377 22.5717 10.1496 22.8464 10L22.8459 10.0005ZM27.3384 13.7666C27.0968 14.6309 26.5855 15.2231 25.7522 15.5044C25.564 15.568 25.5101 15.6479 25.5106 15.8402C25.5167 18.8778 25.5146 21.9149 25.5157 24.9525C25.5157 25.041 25.5243 25.13 25.5289 25.2145H28.1992C27.0174 24.4143 26.5998 23.4767 26.905 22.3529C27.1777 21.3492 28.0796 20.6258 29.1266 20.5703C30.1527 20.5159 31.1188 21.1396 31.5003 22.1072C31.7338 22.6993 31.7338 23.2951 31.5024 23.8882C31.2724 24.4758 30.8537 24.897 30.3058 25.216C31.0058 25.2125 31.6997 25.1814 32.2314 25.7395C32.7604 26.2955 32.8601 26.9416 32.6022 27.6635C32.7325 27.6732 32.8388 27.6808 32.9721 27.6905C32.9721 27.5719 32.9721 27.4722 32.9721 27.3725C32.9721 25.6296 32.9721 23.8867 32.9721 22.1438C32.9721 21.6656 33.1522 21.4189 33.492 21.4265C33.8232 21.4341 33.987 21.6687 33.987 22.1403C33.987 24.1202 33.9844 26.1002 33.9926 28.0796C33.9931 28.2384 34.0394 28.4134 34.1147 28.5533C34.5969 29.4496 34.2312 30.5546 33.3022 30.9712C33.2285 31.0043 33.1552 31.0379 33.0825 31.0704C33.5983 32.3194 32.7645 33.5886 31.3701 33.579C31.5568 34.0404 31.5517 34.5028 31.3691 34.9647H34.9632V11.0368H23.5204V25.2135H24.4992C24.4992 25.0858 24.4992 24.9769 24.4992 24.868C24.4992 21.7119 24.4992 18.5563 24.4992 15.4001C24.4992 15.307 24.4962 15.2134 24.5033 15.1208C24.5267 14.8146 24.6966 14.6457 25.0034 14.6192C25.8214 14.5475 26.2752 14.1059 26.3683 13.2915C26.413 12.8967 26.5825 12.7425 26.9849 12.7425C28.4907 12.741 29.997 12.741 31.5029 12.7425C31.9042 12.7425 32.0726 12.8962 32.1184 13.292C32.2125 14.1075 32.6643 14.547 33.4838 14.6192C33.7809 14.6457 33.9717 14.808 33.9773 15.0964C33.9905 15.7898 33.9849 16.4837 33.9809 17.1776C33.9799 17.3816 33.874 17.5302 33.6878 17.6156C33.3434 17.7739 32.9899 17.5368 32.9766 17.1232C32.9629 16.6923 32.9654 16.2599 32.9756 15.829C32.9797 15.6509 32.9314 15.5706 32.7477 15.5095C31.9851 15.2562 31.4718 14.7388 31.2144 13.9732C31.191 13.9035 31.1661 13.8348 31.1422 13.7666H27.3389H27.3384ZM20.1435 24.3237C20.1008 24.3491 20.0764 24.3578 20.0596 24.3746C19.3769 25.0558 18.6921 25.7359 18.0165 26.4237C17.956 26.4853 17.9249 26.6018 17.9249 26.6928C17.9199 28.9099 17.9188 31.1269 17.9275 33.3439C17.9275 33.4508 17.9967 33.5835 18.076 33.6583C18.3843 33.9478 18.7175 34.2103 19.0268 34.4982C19.3941 34.8396 19.8169 34.9856 20.318 34.9846C23.4065 34.9769 26.495 34.981 29.5834 34.981C29.6511 34.981 29.7188 34.9831 29.7864 34.9795C30.1954 34.9591 30.4981 34.6524 30.4941 34.2632C30.49 33.8837 30.1944 33.5841 29.7986 33.5612C29.7228 33.5566 29.6465 33.5591 29.5702 33.5591C28.3772 33.5591 27.1838 33.5571 25.9908 33.5607C25.7502 33.5617 25.5553 33.492 25.4439 33.2692C25.2628 32.9054 25.5355 32.5447 25.9944 32.5442C27.7627 32.5427 29.5315 32.5437 31.2999 32.5432C31.393 32.5432 31.4866 32.5473 31.5787 32.5381C31.9434 32.5005 32.2212 32.1998 32.2268 31.8417C32.2324 31.4759 31.947 31.1625 31.571 31.1264C31.4871 31.1183 31.4021 31.1218 31.3172 31.1218C29.5911 31.1218 27.865 31.1218 26.1383 31.1218C26.0793 31.1218 26.0198 31.1228 25.9608 31.1218C25.6194 31.1147 25.3854 30.9046 25.3895 30.609C25.3931 30.314 25.626 30.1079 25.972 30.1079C28.1127 30.1064 30.2534 30.1069 32.3947 30.1069C32.4878 30.1069 32.5814 30.111 32.6734 30.1008C32.9883 30.0662 33.2468 29.8241 33.2992 29.5224C33.3516 29.2197 33.2137 28.9058 32.9329 28.7812C32.7849 28.7155 32.6078 28.6896 32.4435 28.6891C30.3363 28.6835 28.2297 28.685 26.1226 28.685C26.0381 28.685 25.9527 28.6891 25.8687 28.682C25.5955 28.6575 25.3915 28.4429 25.389 28.1819C25.3864 27.9224 25.5889 27.7017 25.8606 27.6737C25.9359 27.666 26.0127 27.6696 26.089 27.6696C27.6884 27.6696 29.2874 27.6696 30.8868 27.6696C31.394 27.6696 31.7267 27.3827 31.7231 26.9538C31.7196 26.5255 31.3889 26.2497 30.8766 26.2482C30.606 26.2472 30.3348 26.2482 30.0642 26.2482C27.0942 26.2482 24.1243 26.2482 21.1538 26.2482C20.755 26.2482 20.607 26.1312 20.5083 25.7476C20.3872 25.2771 20.2661 24.8065 20.142 24.3242L20.1435 24.3237ZM13.4527 25.6907C12.7822 25.6907 12.1484 25.683 11.515 25.6937C11.2062 25.6988 11.0175 25.917 11.0169 26.2492C11.0149 28.9735 11.0144 31.6977 11.0169 34.4219C11.0169 34.7745 11.2174 34.9785 11.5669 34.979C13.1658 34.9825 14.7647 34.9825 16.3637 34.979C16.6994 34.978 16.9029 34.774 16.9034 34.4377C16.9065 31.7048 16.9065 28.9725 16.9034 26.2396C16.9034 25.8911 16.6984 25.6957 16.3453 25.6907C16.007 25.6856 15.6687 25.6896 15.3299 25.6896C15.0461 25.6896 14.7622 25.6896 14.4681 25.6896V26.0045C14.4681 27.781 14.4681 29.558 14.4681 31.3345C14.4681 31.4189 14.4727 31.5044 14.4631 31.5878C14.432 31.8513 14.2265 32.0365 13.9681 32.0401C13.6984 32.0436 13.4858 31.8539 13.4568 31.5781C13.4481 31.4942 13.4527 31.4093 13.4527 31.3243C13.4527 29.5478 13.4527 27.7708 13.4527 25.9944V25.6907ZM22.4379 25.2252C22.4089 25.1117 22.3875 25.0222 22.3636 24.9332C21.7455 22.6413 21.1264 20.35 20.5088 18.0582C20.3816 17.5866 20.4701 17.4208 20.9295 17.2478C21.5486 17.0148 21.9134 16.4074 21.8233 15.7598C21.745 15.1972 21.8065 15.101 22.332 14.9296C22.3916 14.9102 22.4811 14.8477 22.4821 14.8039C22.4923 14.2158 22.4887 13.6277 22.4887 13.0127C21.1187 13.38 19.7843 13.7376 18.425 14.1024C19.4308 17.8268 20.4289 21.5247 21.428 25.2252H22.4379ZM29.2441 24.4148C30.0194 24.4138 30.664 23.7651 30.6594 22.9908C30.6548 22.2247 30.0209 21.5893 29.2548 21.5822C28.4795 21.5751 27.8304 22.2166 27.8273 22.9929C27.8243 23.7682 28.4693 24.4153 29.2441 24.4143V24.4148ZM22.446 21.34C22.4552 21.34 22.4638 21.3395 22.473 21.339V17.345C22.212 17.5648 21.9403 17.7861 21.6793 18.0196C21.632 18.0618 21.5944 18.162 21.6097 18.22C21.8833 19.2614 22.1657 20.3002 22.4465 21.34H22.446Z" fill="#FFCD2C"/>
<path d="M33.47 19.1411C33.7452 19.135 33.9731 19.3523 33.9813 19.6295C33.9899 19.919 33.7646 20.154 33.4792 20.153C33.206 20.152 32.9806 19.9266 32.9776 19.6514C32.975 19.3767 33.1963 19.1472 33.47 19.1406V19.1411Z" fill="#FFCD2C"/>
<path d="M14.4665 33.4481C14.4726 33.7274 14.2381 33.966 13.9593 33.965C13.6897 33.964 13.4613 33.7401 13.4552 33.47C13.4491 33.1907 13.6831 32.9521 13.9624 32.9531C14.2325 32.9541 14.4604 33.178 14.4665 33.4476V33.4481Z" fill="#FFCD2C"/>
</g>
<defs>
<clipPath id="clip0_1931_26372">
<rect width="26" height="26" fill="white" transform="translate(10 10)"/>
</clipPath>
</defs>
</svg>
