<svg width="16" height="16" viewBox="0 0 16 16" fill="none" xmlns="http://www.w3.org/2000/svg">
<path d="M12.1994 5.7265L12.806 5.1265C12.9316 5.00097 13.0021 4.8307 13.0021 4.65317C13.0021 4.47564 12.9316 4.30537 12.806 4.17984C12.6805 4.0543 12.5102 3.98378 12.3327 3.98378C12.1552 3.98378 11.9849 4.0543 11.8594 4.17984L11.2594 4.7865C10.3251 4.06374 9.17726 3.67159 7.99603 3.67159C6.8148 3.67159 5.667 4.06374 4.7327 4.7865L4.12603 4.17317C3.99961 4.04763 3.8285 3.97746 3.65034 3.97809C3.47218 3.97871 3.30157 4.05008 3.17603 4.1765C3.0505 4.30292 2.98032 4.47403 2.98095 4.65219C2.98157 4.83035 3.05295 5.00097 3.17937 5.1265L3.7927 5.73317C3.06138 6.66487 2.66456 7.8154 2.66603 8.99984C2.66386 9.85012 2.86501 10.6886 3.25272 11.4453C3.64042 12.2021 4.20344 12.8552 4.89483 13.3501C5.58621 13.8451 6.38591 14.1675 7.22724 14.2906C8.06857 14.4137 8.92713 14.3339 9.73133 14.0578C10.5355 13.7816 11.2621 13.3172 11.8503 12.7033C12.4386 12.0893 12.8715 11.3436 13.113 10.5284C13.3545 9.71309 13.3976 8.8519 13.2387 8.0166C13.0798 7.1813 12.7234 6.39611 12.1994 5.7265V5.7265ZM7.99937 12.9998C7.20824 12.9998 6.43488 12.7652 5.77709 12.3257C5.11929 11.8862 4.6066 11.2615 4.30385 10.5306C4.0011 9.79967 3.92188 8.9954 4.07623 8.21948C4.23057 7.44355 4.61153 6.73082 5.17094 6.17141C5.73035 5.612 6.44308 5.23104 7.21901 5.0767C7.99493 4.92236 8.7992 5.00157 9.5301 5.30432C10.261 5.60707 10.8857 6.11976 11.3252 6.77756C11.7648 7.43535 11.9994 8.20871 11.9994 8.99984C11.9994 10.0607 11.5779 11.0781 10.8278 11.8283C10.0776 12.5784 9.06023 12.9998 7.99937 12.9998ZM6.66603 2.99984H9.3327C9.50951 2.99984 9.67908 2.9296 9.8041 2.80457C9.92913 2.67955 9.99937 2.50998 9.99937 2.33317C9.99937 2.15636 9.92913 1.98679 9.8041 1.86177C9.67908 1.73674 9.50951 1.6665 9.3327 1.6665H6.66603C6.48922 1.6665 6.31965 1.73674 6.19463 1.86177C6.0696 1.98679 5.99937 2.15636 5.99937 2.33317C5.99937 2.50998 6.0696 2.67955 6.19463 2.80457C6.31965 2.9296 6.48922 2.99984 6.66603 2.99984V2.99984ZM8.66603 6.99984C8.66603 6.82303 8.5958 6.65346 8.47077 6.52843C8.34575 6.40341 8.17618 6.33317 7.99937 6.33317C7.82256 6.33317 7.65299 6.40341 7.52796 6.52843C7.40294 6.65346 7.3327 6.82303 7.3327 6.99984V8.25984C7.18175 8.39485 7.07535 8.57252 7.02758 8.76933C6.97981 8.96615 6.99293 9.17282 7.06519 9.36201C7.13746 9.55121 7.26547 9.714 7.43228 9.82885C7.59909 9.9437 7.79684 10.0052 7.99937 10.0052C8.20189 10.0052 8.39964 9.9437 8.56646 9.82885C8.73327 9.714 8.86127 9.55121 8.93354 9.36201C9.0058 9.17282 9.01892 8.96615 8.97115 8.76933C8.92339 8.57252 8.81699 8.39485 8.66603 8.25984V6.99984Z" fill="#151929"/>
</svg>
