<svg width="48" height="48" viewBox="0 0 48 48" fill="none" xmlns="http://www.w3.org/2000/svg">
<circle opacity="0.2" cx="24" cy="24" r="24" fill="#FFCD2C"/>
<g clip-path="url(#clip0_1758_22317)">
<path d="M38.4174 30.9662C37.7438 30.8787 37.0369 30.9477 36.3733 30.9477C35.2624 30.9477 34.1515 30.9477 33.0413 30.9477C32.6082 30.9477 32.175 30.9477 31.7419 30.9477C31.0499 30.9477 30.3301 31.0139 29.6794 31.2642C29.4525 31.3517 29.2363 31.4804 29.0791 31.666C28.7022 32.1113 28.8238 32.8275 28.8309 33.3694C28.8451 34.3943 29.4561 34.9895 30.4823 34.9938C31.3927 34.9981 32.3038 34.9945 33.2141 34.9945C34.9765 34.9945 36.7382 34.9981 38.5006 34.9931C39.3263 34.991 40.0005 34.5166 40.0688 33.7926C40.1157 33.2883 40.184 32.7734 40.1022 32.2684C40.0204 31.7635 39.8014 31.4214 39.3135 31.2059C39.0269 31.0793 38.726 31.006 38.4181 30.9662H38.4174ZM38.9707 33.4348C38.9714 33.7136 38.8249 33.8452 38.5561 33.8566C38.4849 33.8594 38.4138 33.858 38.3434 33.858C35.7645 33.858 33.1857 33.858 30.6068 33.858C30.0478 33.858 29.9667 33.7776 29.9653 33.2279C29.9646 33.0152 29.9617 32.8018 29.966 32.5892C29.9752 32.1909 30.0762 32.0864 30.4774 32.0857C31.8144 32.0821 33.1508 32.0842 34.4879 32.0842C35.7894 32.0842 37.0902 32.0828 38.3918 32.0842C38.9053 32.0842 38.9693 32.1497 38.9721 32.6546C38.9735 32.9149 38.9707 33.1752 38.9721 33.4355L38.9707 33.4348Z" fill="#FFCD2C"/>
<path d="M22.1936 25.1172C23.3635 25.1172 24.4865 25.1137 25.6088 25.1201C25.8435 25.1215 26.0868 25.125 26.3115 25.1841C26.9367 25.3469 27.3826 25.9124 27.3812 26.5688C27.3798 27.2338 27.5177 27.923 27.1209 28.541C27.0967 28.5794 27.1401 28.6683 27.1635 28.7288C27.5248 29.6633 27.5 30.5872 27.1152 31.5288C27.5256 32.2735 27.4615 33.1077 27.3093 33.9164C27.1778 34.6141 26.5619 34.9939 25.7546 34.9967C24.158 35.0031 22.5613 34.9988 20.9646 34.9988C19.912 34.9988 18.8594 35.0017 17.8068 34.9981C16.7172 34.9939 16.1106 34.3929 16.107 33.309C16.1049 32.6981 16.0309 32.0715 16.3858 31.563C16.2635 31.1576 16.149 30.7799 16.0153 30.3375C15.5259 30.3375 14.9612 30.3809 14.4044 30.3304C11.238 30.0438 8.51052 27.4116 8.0781 24.2616C7.83913 22.522 8.15207 20.899 9.06456 19.3955C9.33055 18.9574 9.6314 18.8287 9.95002 19.0122C10.2694 19.1964 10.3014 19.5306 10.046 19.9709C8.93583 21.8862 8.76656 23.8548 9.77293 25.8583C10.9151 28.1313 13.4385 29.526 15.836 29.2501C18.3829 28.9571 20.4739 27.1463 21.1012 24.6912C22.0869 20.8336 19.1937 17.0691 15.2279 17.0677C13.8361 17.0677 12.5801 17.5015 11.4813 18.3664C11.248 18.5499 10.9777 18.6622 10.7423 18.4553C10.5994 18.3294 10.4998 18.0776 10.5048 17.8856C10.5083 17.7362 10.6776 17.5591 10.817 17.4496C13.2885 15.503 16.6369 15.4106 19.2449 17.2071C21.8266 18.9858 22.934 21.8371 22.2291 24.8932C22.2163 24.9487 22.2106 25.0056 22.1929 25.1165L22.1936 25.1172ZM21.7384 32.0821C20.4148 32.0821 19.092 32.08 17.7684 32.0836C17.3502 32.0843 17.2492 32.1917 17.2435 32.6099C17.2407 32.8104 17.2428 33.0117 17.2435 33.2123C17.2442 33.7784 17.3282 33.8623 17.9028 33.8623C20.4191 33.8623 22.9361 33.8623 25.4524 33.8623C25.5825 33.8623 25.7127 33.8673 25.8421 33.8588C26.106 33.8417 26.2567 33.7115 26.2532 33.432C26.2503 33.1724 26.2539 32.9121 26.2532 32.6518C26.2518 32.1554 26.1799 32.0829 25.6728 32.0821C24.3614 32.0807 23.0499 32.0821 21.7384 32.0821ZM21.7562 30.9456C23.0805 30.9456 24.4047 30.9478 25.729 30.9442C26.1501 30.9435 26.2496 30.8382 26.2532 30.4193C26.2553 30.1711 26.256 29.9229 26.2532 29.6747C26.2482 29.2643 26.1629 29.1733 25.7489 29.1726C23.6565 29.1697 21.5634 29.1697 19.471 29.1747C19.3473 29.1747 19.2143 29.2067 19.1012 29.2586C18.5443 29.514 17.9896 29.7735 17.4434 30.0495C17.3538 30.095 17.2577 30.2223 17.2492 30.3198C17.2065 30.7998 17.3459 30.9442 17.8189 30.9449C19.1311 30.9463 20.4433 30.9449 21.7562 30.9449V30.9456ZM20.6446 28.0346C21.407 28.0346 22.1594 28.0346 22.9119 28.0346C23.8464 28.0346 24.781 28.0375 25.7155 28.0332C26.1529 28.0311 26.2503 27.9265 26.2532 27.4841C26.2546 27.2238 26.2489 26.9635 26.2546 26.7032C26.261 26.4116 26.1266 26.2573 25.8322 26.2573C24.5427 26.2573 23.2533 26.2559 21.9639 26.2658C21.8671 26.2665 21.732 26.3291 21.6808 26.4067C21.3359 26.9258 21.0087 27.4571 20.6446 28.0339V28.0346Z" fill="#FFCD2C"/>
<path d="M31.5791 22.8536C31.5791 22.6559 31.5791 22.4994 31.5791 22.343C31.5791 19.5372 31.5791 16.7322 31.5791 13.9265C31.5791 13.1925 31.7704 13.0026 32.5129 13.0019C33.8955 12.9997 35.2774 12.999 36.66 13.0019C37.3235 13.0033 37.5269 13.2096 37.5269 13.8674C37.5284 16.6867 37.5269 19.5052 37.5269 22.3245V22.8529C38.118 22.8529 38.677 22.8607 39.236 22.8501C39.5923 22.8437 39.9202 22.8814 40.066 23.2654C40.2104 23.6459 40.0013 23.8955 39.7289 24.1295C38.2026 25.4424 36.6827 26.7625 35.1593 28.0782C34.6828 28.49 34.4396 28.4936 33.9709 28.0896C32.4254 26.7582 30.8842 25.4218 29.3387 24.0904C29.0891 23.8749 28.9092 23.6388 29.0336 23.2889C29.1638 22.924 29.4547 22.8437 29.8067 22.8501C30.3807 22.86 30.9546 22.8529 31.5776 22.8529L31.5791 22.8536ZM32.8685 14.3148V14.8069C32.8685 17.6269 32.8685 20.4469 32.8685 23.2668C32.8685 23.9261 32.675 24.1224 32.0086 24.1452C31.8351 24.1516 31.6616 24.1459 31.3792 24.1459C32.5072 25.1203 33.5299 26.0036 34.5612 26.894C35.6102 25.9858 36.6287 25.1032 37.7104 24.1665C37.5021 24.1573 37.3861 24.148 37.2702 24.1473C36.4018 24.1388 36.2396 23.9766 36.2396 23.1111C36.2396 20.3317 36.2396 17.5515 36.2396 14.7721V14.3148H32.8692H32.8685Z" fill="#FFCD2C"/>
<path d="M15.8212 19.8988C16.0851 19.8988 16.3425 19.8953 16.5993 19.8996C17.0118 19.9067 17.2749 20.1286 17.2785 20.465C17.282 20.8056 17.0239 21.0297 16.6099 21.0332C16.1014 21.0375 15.5929 21.029 15.0844 21.0361C14.5453 21.0432 14.275 21.3369 14.2786 21.8938C14.2821 22.445 14.5595 22.7302 15.095 22.7359C15.2608 22.7373 15.4265 22.7309 15.5915 22.7444C16.4613 22.8155 17.1263 23.4428 17.2351 24.2892C17.3574 25.2436 16.9222 26.0252 16.0694 26.3204C15.8489 26.3965 15.7664 26.489 15.7842 26.7173C15.7984 26.8915 15.7757 27.0714 15.7487 27.2457C15.7031 27.5444 15.5225 27.7066 15.2167 27.708C14.8931 27.7087 14.7081 27.5359 14.6712 27.2201C14.6427 26.9747 14.6377 26.7265 14.6192 26.4306C14.3404 26.4306 14.0609 26.4356 13.7821 26.4292C13.4066 26.4214 13.1741 26.2159 13.1613 25.8915C13.1477 25.5516 13.3853 25.3062 13.7672 25.2984C14.2992 25.287 14.8312 25.2984 15.3632 25.2941C15.8475 25.2899 16.1178 25.0409 16.1256 24.6021C16.1334 24.1526 15.8511 23.8866 15.3575 23.8717C15.0979 23.8639 14.8326 23.8809 14.5808 23.8304C13.7459 23.6633 13.2189 22.9734 13.1485 21.9948C13.0844 21.1143 13.5482 20.3 14.312 20.0382C14.5915 19.9422 14.6825 19.8142 14.6477 19.5361C14.6292 19.3868 14.6512 19.2282 14.6783 19.0781C14.7316 18.7801 14.9236 18.6215 15.2231 18.6251C15.5033 18.6286 15.7003 18.7744 15.7437 19.0603C15.7842 19.3256 15.7935 19.5952 15.8191 19.8988H15.8212Z" fill="#FFCD2C"/>
</g>
<defs>
<clipPath id="clip0_1758_22317">
<rect width="32.1398" height="22" fill="white" transform="translate(8 13)"/>
</clipPath>
</defs>
</svg>
