<svg width="48" height="48" viewBox="0 0 48 48" fill="none" xmlns="http://www.w3.org/2000/svg">
<circle opacity="0.2" cx="24" cy="24" r="24" fill="#FFCD2C"/>
<path d="M40.0216 15.448C39.8431 15.73 39.5825 15.8113 39.2578 15.8106C36.0985 15.8044 32.9392 15.8072 29.7799 15.8065C29.1822 15.8065 29.0106 15.6335 29.0106 15.0372C29.0092 13.1566 29.0099 11.2761 29.0106 9.39551C29.0106 8.90813 29.1091 8.77302 29.5676 8.61998C31.0531 8.12434 32.5394 7.63007 34.0249 7.13373C34.1352 7.0972 34.24 7.04481 34.3469 7C34.4758 7 34.6047 7 34.7336 7C34.8266 7.04412 34.9163 7.0972 35.0135 7.13029C36.4742 7.62042 37.9384 8.10021 39.395 8.60413C39.6225 8.68272 39.8141 8.86539 40.0223 8.99982V15.448H40.0216ZM38.9069 9.60714C38.8656 9.58784 38.8284 9.56716 38.7884 9.55337C37.4255 9.09771 36.064 8.63929 34.6984 8.19396C34.5785 8.15467 34.422 8.17328 34.2979 8.21326C32.993 8.63929 31.6935 9.08047 30.3879 9.50443C30.1832 9.57129 30.1032 9.65608 30.1053 9.88357C30.117 11.3871 30.1108 12.8912 30.1122 14.3954C30.1122 14.4878 30.1259 14.5801 30.1335 14.6815H31.2144C31.2144 14.5353 31.2144 14.4099 31.2144 14.2837C31.2144 13.1883 31.2117 12.0923 31.2158 10.9969C31.2179 10.4881 31.4123 10.2986 31.9224 10.2979C33.652 10.2958 35.3816 10.2958 37.1105 10.2979C37.6337 10.2979 37.8226 10.493 37.8233 11.0251C37.8247 12.1316 37.8233 13.238 37.8233 14.3444C37.8233 14.4574 37.8233 14.5705 37.8233 14.6815H38.9069V9.60714ZM36.7038 14.6815V11.416H32.3401V14.6815H36.7038Z" fill="#FFCD2C"/>
<path d="M40.0204 26.9908C39.8411 27.2907 39.5723 27.372 39.2324 27.3706C36.0841 27.3624 32.9352 27.3658 29.7869 27.3658C29.1906 27.3658 29.0093 27.1886 29.0086 26.6034C29.0072 24.7228 29.0079 22.8423 29.0086 20.9617C29.0086 20.4585 29.1044 20.3296 29.5856 20.1689C31.1215 19.6574 32.6553 19.1391 34.196 18.6427C34.3938 18.5793 34.6475 18.5765 34.8454 18.64C36.3971 19.1397 37.9447 19.654 39.4847 20.1876C39.6874 20.2579 39.8425 20.4633 40.0197 20.606V26.9908H40.0204ZM31.2132 26.2518C31.2132 26.0953 31.2132 25.9685 31.2132 25.8417C31.2132 24.7463 31.2104 23.6502 31.2145 22.5548C31.2166 22.044 31.4069 21.8551 31.9198 21.8544C33.6493 21.8517 35.3782 21.8517 37.1078 21.8544C37.6338 21.8551 37.8213 22.0488 37.822 22.5796C37.8234 23.686 37.822 24.7925 37.8234 25.8989C37.8234 26.0126 37.833 26.1264 37.8386 26.2484H38.9009C38.9091 26.1822 38.9208 26.1312 38.9208 26.0802C38.9222 24.5119 38.916 22.9436 38.9284 21.3753C38.9298 21.152 38.8112 21.1127 38.6513 21.0596C37.3588 20.6315 36.069 20.1945 34.773 19.7767C34.6151 19.7257 34.4111 19.7305 34.2525 19.7822C32.9676 20.1979 31.6902 20.635 30.4066 21.0541C30.195 21.123 30.1019 21.2092 30.104 21.4525C30.1171 22.9457 30.1102 24.4388 30.1116 25.9313C30.1116 26.0347 30.1233 26.1374 30.1309 26.2518H31.2139H31.2132ZM32.3389 26.2353H36.7073V22.976H32.3389V26.2353Z" fill="#FFCD2C"/>
<path d="M40.0199 39.6303C39.8586 39.926 39.6118 40.0232 39.2761 40.0225C36.1064 40.0136 32.9368 40.0177 29.7671 40.017C29.1888 40.017 29.0088 39.8426 29.0088 39.2725C29.0075 37.3816 29.0075 35.4907 29.0088 33.5991C29.0088 33.1159 29.104 32.9904 29.5741 32.8339C31.11 32.3217 32.6438 31.8027 34.1852 31.3077C34.3927 31.2408 34.6574 31.2415 34.8649 31.3077C36.3967 31.7978 37.9229 32.3045 39.4429 32.8298C39.658 32.9042 39.829 33.1042 40.0206 33.2455V39.6303H40.0199ZM38.8921 38.9106C38.9059 38.8506 38.919 38.821 38.919 38.7907C38.9204 37.2003 38.9156 35.6107 38.928 34.0203C38.93 33.7873 38.7867 33.7618 38.6378 33.7115C37.3466 33.2799 36.0554 32.8457 34.7601 32.4245C34.6202 32.379 34.441 32.3755 34.3017 32.421C32.9961 32.8443 31.6973 33.2882 30.3917 33.7108C30.1649 33.7846 30.1035 33.8949 30.1049 34.1223C30.1146 35.6051 30.1097 37.0873 30.1104 38.5701C30.1104 38.6748 30.1194 38.7796 30.1249 38.8954H31.2127C31.2127 38.7452 31.2127 38.6169 31.2127 38.4887C31.2127 37.4037 31.2106 36.3186 31.2134 35.2336C31.2148 34.6938 31.3906 34.5194 31.9296 34.5187C33.6489 34.5173 35.3675 34.5173 37.0867 34.5187C37.6437 34.5187 37.8216 34.6959 37.8222 35.2474C37.8236 36.3538 37.8222 37.4609 37.8222 38.5673C37.8222 38.6797 37.8222 38.792 37.8222 38.9092H38.8921V38.9106ZM36.7014 38.9044V35.6403H32.3405V38.9044H36.7014Z" fill="#FFCD2C"/>
<path d="M9.19846 24.063C8.6711 24.063 8.18855 24.0664 7.70601 24.0623C7.1883 24.0575 7.0008 23.872 7.0008 23.364C6.99942 19.7959 7.00011 16.2271 7.0008 12.659C7.0008 12.1434 7.18279 11.9607 7.69704 11.9593C8.35262 11.9572 9.0082 11.9552 9.66377 11.96C10.1008 11.9634 10.2938 12.1537 10.2952 12.5901C10.2994 13.7075 10.2966 14.8243 10.2966 16.0203C10.6689 15.8328 11.0039 15.677 11.3217 15.4916C11.3823 15.4564 11.3927 15.302 11.3934 15.2027C11.3989 14.3645 11.3947 13.5262 11.3968 12.6879C11.3982 12.1344 11.576 11.9607 12.1351 11.9593C12.7583 11.9579 13.3822 11.9572 14.0053 11.9593C14.521 11.9614 14.6995 12.1372 14.7016 12.659C14.7057 13.6372 14.703 14.6154 14.703 15.5929C14.703 15.7087 14.703 15.8238 14.703 16.0161C15.0759 15.8293 15.4027 15.6818 15.7094 15.4998C15.779 15.4585 15.8025 15.2965 15.8032 15.1903C15.8107 14.352 15.8052 13.5138 15.808 12.6755C15.8101 12.1309 15.981 11.9607 16.5194 11.9593C17.1426 11.9579 17.7664 11.9579 18.3896 11.9593C18.9259 11.9607 19.11 12.1406 19.1114 12.6721C19.1141 13.6503 19.1121 14.6285 19.1121 15.606C19.1121 15.7204 19.1121 15.8348 19.1121 16.0134C19.5546 15.7914 19.9434 15.595 20.3336 15.4012C20.9478 15.0966 21.3111 15.3227 21.3111 16.0099C21.3125 17.7837 21.3063 19.5567 21.3201 21.3304C21.3215 21.5 21.4028 21.7082 21.5186 21.8302C22.6126 22.9841 22.3831 22.4285 22.4086 24.0058C22.4168 24.5324 22.4127 25.0591 22.4086 25.5858C22.4058 26.0545 22.2087 26.2751 21.7461 26.26C21.3993 26.2482 21.1925 26.3282 20.9809 26.6543C20.3205 27.6711 18.8129 27.5787 18.2269 26.5109C18.1222 26.3206 18.0139 26.2586 17.8057 26.2627C17.1826 26.2758 16.5587 26.262 15.9355 26.2731C15.8369 26.2751 15.6977 26.3275 15.6494 26.4027C14.9622 27.467 14.1756 27.6421 13.0416 26.9569C12.6501 27.2478 12.2151 27.425 11.7043 27.3395C11.1576 27.2478 10.7467 26.9617 10.4993 26.4709C10.4165 26.3068 10.3235 26.2496 10.1539 26.2655C10.0477 26.2758 9.93883 26.271 9.83198 26.2662C9.40458 26.2482 9.2026 26.0483 9.19777 25.6216C9.19157 25.1184 9.19639 24.6152 9.19639 24.0623L9.19846 24.063ZM9.19846 22.9421C9.19846 22.8221 9.19846 22.7174 9.19846 22.6126C9.19846 21.8708 9.19708 21.1298 9.19846 20.388C9.19984 19.8393 9.38458 19.6546 9.93676 19.6532C11.1507 19.6511 12.3654 19.6532 13.5793 19.6532C14.8257 19.6532 16.072 19.6511 17.3184 19.6546C17.8044 19.6559 18.0008 19.8565 18.0112 20.3398C18.0139 20.4659 18.0112 20.5914 18.0112 20.7313H20.1971V16.7207C20.0661 16.78 19.9607 16.8227 19.8593 16.873C18.8418 17.3811 17.8257 17.8905 16.8076 18.3986C16.1527 18.7253 15.8087 18.5082 15.8066 17.7678C15.8052 17.4293 15.8066 17.0915 15.8066 16.7124C15.6446 16.7862 15.5378 16.8317 15.4351 16.8827C14.4079 17.3949 13.3822 17.9105 12.3536 18.4213C11.7732 18.7095 11.403 18.484 11.3975 17.8416C11.3941 17.481 11.3975 17.1198 11.3975 16.7193C11.2465 16.7868 11.1404 16.8296 11.0377 16.8806C10.1449 17.3259 9.25774 17.7823 8.35745 18.2131C8.14306 18.3158 8.09342 18.4399 8.0948 18.6564C8.10307 19.9779 8.09894 21.2994 8.09894 22.6215V22.9421H9.19777H9.19846ZM13.0437 24.4759C13.9729 23.8651 14.9408 23.9389 15.4495 24.7324C15.6949 25.1156 15.9548 25.217 16.3512 25.168C16.436 25.1577 16.5242 25.157 16.6083 25.168C16.8524 25.2011 16.9179 25.0984 16.9158 24.8599C16.9054 23.5825 16.911 22.3051 16.9096 21.0271C16.9096 20.945 16.8923 20.863 16.8827 20.7823H10.3249V25.1329C10.6199 24.6538 10.9673 24.2608 11.523 24.1209C12.0793 23.981 12.5859 24.0995 13.043 24.4745L13.0437 24.4759ZM21.2518 25.1887C21.287 25.1094 21.307 25.0832 21.3097 25.0557C21.4044 23.9031 21.0452 22.9214 20.2323 22.1107C20.1792 22.0577 20.1296 21.9997 20.071 21.9536C20.022 21.915 19.9627 21.8646 19.9076 21.8639C19.2872 21.8577 18.6674 21.8598 18.0512 21.8598V25.1267C18.4144 24.4649 18.9211 24.0651 19.6801 24.0685C20.4356 24.072 20.9154 24.5104 21.2525 25.188L21.2518 25.1887ZM8.11341 17.1067C8.40984 16.9599 8.66145 16.8199 8.92547 16.709C9.13021 16.6235 9.20742 16.5077 9.20397 16.276C9.18881 15.3096 9.19777 14.3424 9.19777 13.3759V13.0767H8.11341V17.1067ZM12.5163 17.1067C12.8369 16.9475 13.0995 16.8034 13.3739 16.6855C13.5476 16.6104 13.6062 16.507 13.6048 16.3188C13.5959 15.3089 13.6014 14.2983 13.5993 13.2884C13.5993 13.2181 13.5814 13.1471 13.5717 13.0761H12.5163V17.1067V17.1067ZM16.931 13.0747V17.1012C17.2432 16.9468 17.5128 16.7993 17.794 16.6779C17.9726 16.6014 18.0181 16.487 18.016 16.3036C18.007 15.5626 18.0125 14.8215 18.0125 14.0811C18.0125 13.7509 18.0125 13.4214 18.0125 13.0747H16.931ZM12.4936 25.7147C12.4956 25.401 12.262 25.168 11.9469 25.1708C11.6533 25.1728 11.414 25.4031 11.403 25.6926C11.392 25.9863 11.645 26.2538 11.9414 26.2607C12.242 26.2675 12.4922 26.0208 12.4936 25.714V25.7147ZM19.6518 25.1708C19.3382 25.1742 19.1093 25.4121 19.1169 25.7264C19.1238 26.018 19.3602 26.2551 19.6498 26.26C19.9455 26.2655 20.2075 26.0083 20.2088 25.7126C20.2102 25.4114 19.9593 25.1673 19.6518 25.1708ZM14.1404 26.2607C14.4403 26.2696 14.6926 26.0228 14.6954 25.7174C14.6988 25.4183 14.4796 25.1846 14.1832 25.1715C13.8737 25.157 13.62 25.3859 13.6076 25.6906C13.5952 25.9904 13.8385 26.2517 14.1398 26.2607H14.1404Z" fill="#FFCD2C"/>
<path d="M27.8898 11.3966V12.4878H24.6354V22.9481H27.8891V24.049H24.6292V36.1437H27.8815V37.2605C27.5782 37.2605 27.2804 37.2605 26.9833 37.2605C26.0589 37.2605 25.1345 37.2626 24.2107 37.2598C23.6937 37.2584 23.5117 37.0771 23.5117 36.5629C23.5117 28.4057 23.5117 20.2479 23.5117 12.0908C23.5117 11.6551 23.6875 11.4069 24.0604 11.4028C25.3268 11.3883 26.5924 11.3973 27.8905 11.3973L27.8898 11.3966Z" fill="#FFCD2C"/>
</svg>
