<svg width="48" height="48" viewBox="0 0 48 48" fill="none" xmlns="http://www.w3.org/2000/svg">
<circle opacity="0.2" cx="24" cy="24" r="24" fill="#FFCD2C"/>
<g clip-path="url(#clip0_1758_22309)">
<path d="M9.55669 37.0002C9.50363 36.9795 9.45197 36.9532 9.39682 36.938C8.5374 36.7033 8.02008 36.0676 8.00751 35.1847C7.99355 34.1975 8.00333 33.2104 8.00333 32.2232C8.00333 25.5197 8.00333 18.8154 8.00542 12.1118C8.00542 11.8606 8.00402 11.6017 8.06197 11.3601C8.25466 10.56 8.96536 10.0064 9.8164 10.005C14.3564 9.99879 18.8964 9.99741 23.4357 10.0064C24.4334 10.0085 25.2286 10.774 25.2321 11.7432C25.2439 15.29 25.239 18.8375 25.2369 22.3843C25.2369 22.7626 25.0107 23.0063 24.6882 23.0076C24.3594 23.009 24.1269 22.7508 24.1262 22.3539C24.1227 20.4942 24.1241 18.6345 24.1241 16.7749C24.1241 15.1678 24.1255 13.5608 24.1234 11.9537C24.1227 11.3435 23.8763 11.1033 23.2514 11.1033C18.828 11.1019 14.4039 11.1019 9.98046 11.1033C9.36261 11.1033 9.11826 11.3449 9.11826 11.9627C9.11686 19.6534 9.11686 27.3448 9.11826 35.0356C9.11826 35.6472 9.36819 35.8909 9.98674 35.8909C14.4102 35.8922 18.8343 35.8922 23.2577 35.8909C23.8707 35.8909 24.1199 35.6396 24.1234 35.0314C24.1255 34.6662 24.1234 34.3004 24.1234 33.9518C23.583 33.8862 23.0594 33.8696 22.5596 33.755C20.1559 33.2028 18.4545 30.9061 18.6214 28.4776C18.7917 26.0091 20.7779 24.0003 23.2675 23.7608C24.1192 23.6786 24.9305 23.798 25.7187 24.1197C25.8318 24.166 25.9623 24.1888 26.0852 24.1894C27.1882 24.1943 28.2913 24.1894 29.3944 24.1908C30.3299 24.1922 30.8947 24.7438 30.887 25.6674C30.8828 26.1589 30.9052 26.6635 30.7983 27.1364C30.7299 27.4387 30.7648 27.6734 30.8151 27.964C30.9442 28.7068 31.0043 29.4662 30.7194 30.202C30.688 30.2835 30.6915 30.3953 30.7194 30.4795C31.0001 31.3113 30.9736 32.1411 30.7285 32.9743C30.7027 33.0613 30.6873 33.171 30.7187 33.2504C31.0099 33.9863 30.947 34.7484 30.8235 35.4891C30.7229 36.0938 30.1498 36.4583 29.4754 36.4617C28.0239 36.4693 26.5725 36.4679 25.1217 36.461C24.8697 36.4597 24.6631 36.5059 24.448 36.6578C24.2288 36.8131 23.951 36.8883 23.6982 36.9981H9.55669V37.0002ZM23.7667 32.7927C25.9253 32.7927 27.7886 30.9724 27.7942 28.8587C27.7998 26.716 25.9079 24.8135 23.775 24.819C21.5487 24.8245 19.7265 26.6407 19.7356 28.8463C19.7447 31.0235 21.5522 32.7934 23.7667 32.7927ZM25.2537 33.6826V35.3172C25.2879 35.3345 25.3075 35.3531 25.327 35.3531C26.7072 35.3572 28.0875 35.36 29.4677 35.3628C29.6869 35.3628 29.7797 35.2468 29.779 35.0383C29.7777 34.6945 29.777 34.3501 29.779 34.0063C29.7804 33.7716 29.6569 33.6812 29.4307 33.6819C28.0512 33.6839 26.6716 33.6832 25.2544 33.6832L25.2537 33.6826ZM27.33 32.5836C28.0135 32.5836 28.7088 32.5815 29.4034 32.585C29.6646 32.5863 29.786 32.4704 29.7804 32.2094C29.7735 31.8884 29.7811 31.5675 29.777 31.2472C29.7756 31.1691 29.7693 31.0815 29.7323 31.0159C29.6317 30.8371 28.5147 30.804 28.3967 30.9786C28.04 31.5053 27.6923 32.0382 27.33 32.585V32.5836ZM27.5618 25.2946C27.8752 25.8234 28.1775 26.3315 28.4791 26.8402C28.6543 27.1357 28.9399 26.9686 29.1696 26.9797C29.3581 26.9886 29.5549 26.9024 29.7414 26.8382C29.7728 26.8271 29.7763 26.7118 29.777 26.6442C29.7804 26.3121 29.7756 25.9794 29.7797 25.6474C29.7825 25.4037 29.6687 25.2919 29.4209 25.2939C28.7954 25.2981 28.1705 25.2953 27.5618 25.2953V25.2946ZM28.8407 28.1256V29.7409C29.6953 29.8983 29.779 29.8348 29.779 29.0071V28.8704C29.779 28.0393 29.7511 28.0158 28.8407 28.1256Z" fill="#FFCD2C"/>
<path d="M39.9997 35.3436C39.6025 36.2672 39.2967 36.4681 38.2851 36.4681C36.7184 36.4681 35.1504 36.4322 33.5852 36.4798C32.3942 36.5157 31.8077 35.7433 31.8964 34.8314C31.9501 34.2784 31.8105 33.7041 32.117 33.1829C32.1393 33.1443 32.124 33.0731 32.1058 33.0248C31.7812 32.1537 31.7972 31.2846 32.1044 30.4127C32.1268 30.3492 32.1065 30.2615 32.0828 30.1932C31.7938 29.3524 31.8147 28.5123 32.073 27.6687C32.0995 27.5831 32.1051 27.4761 32.0772 27.3926C31.7986 26.5497 31.8105 25.711 32.0772 24.8682C32.1037 24.7832 32.1009 24.6749 32.0737 24.5893C31.8056 23.7457 31.8042 22.907 32.0842 22.0662C32.1093 21.991 32.1128 21.8929 32.087 21.8191C31.7903 20.9665 31.807 20.1175 32.087 19.2649C32.1114 19.1897 32.1086 19.0917 32.0828 19.0157C31.7952 18.1742 31.8126 17.3355 32.0751 16.4927C32.0988 16.416 32.1156 16.3146 32.0856 16.2469C31.77 15.5276 31.8699 14.7752 31.9529 14.0428C32.0186 13.4657 32.6008 13.0301 33.1942 13.0259C35.0275 13.0149 36.8616 13.0087 38.6949 13.0287C39.4091 13.0363 39.7812 13.5119 39.9997 14.1304V15.7147C39.9166 15.9349 39.8342 16.1551 39.7498 16.3794C39.8294 16.5617 39.9145 16.7584 39.9997 16.9545V18.5387C39.7854 18.9287 39.6834 19.3195 39.9997 19.7095V21.2937C39.7972 21.7072 39.6876 22.12 39.9997 22.5335V24.1178C39.8112 24.5078 39.6639 24.8985 39.9997 25.2886V26.8728C39.8168 27.2863 39.6681 27.6991 39.9997 28.1126V29.6969C39.8294 30.0869 39.6458 30.4776 39.9997 30.8676V32.5209C39.7198 32.9344 39.777 33.3472 39.9997 33.7607V35.345V35.3436ZM35.9442 18.6043C36.7911 18.6043 37.6379 18.6009 38.4847 18.6064C38.764 18.6084 38.889 18.489 38.882 18.2129C38.8743 17.8919 38.8792 17.5709 38.8806 17.2492C38.8813 17.0221 38.764 16.9096 38.5406 16.9048C38.3318 16.8999 38.1231 16.9027 37.9144 16.9027C36.4406 16.9027 34.9675 16.9013 33.4937 16.9027C33.0665 16.9027 33.0197 16.9538 33.0169 17.3825C33.0155 17.6234 33.0155 17.8643 33.0169 18.1052C33.019 18.5677 33.0525 18.6029 33.5077 18.6036C34.3196 18.605 35.1323 18.6036 35.9442 18.6036V18.6043ZM35.9589 30.8752C35.112 30.8752 34.2652 30.8787 33.4183 30.8731C33.1454 30.8711 33.0057 30.9719 33.0148 31.257C33.0246 31.5662 33.0246 31.8762 33.0148 32.1861C33.0057 32.4657 33.1314 32.5789 33.41 32.5782C35.1036 32.5741 36.7973 32.5747 38.491 32.5782C38.7724 32.5782 38.8911 32.4512 38.8827 32.1785C38.8743 31.892 38.8694 31.6042 38.8841 31.3184C38.9015 30.9898 38.7563 30.8676 38.4303 30.8724C37.6072 30.8842 36.7834 30.8766 35.9596 30.8766L35.9589 30.8752ZM35.9372 26.986C36.7722 26.986 37.6079 26.9805 38.4429 26.9888C38.7465 26.9915 38.8987 26.8832 38.8841 26.5656C38.8708 26.2798 38.8736 25.992 38.8841 25.7055C38.8946 25.4197 38.7835 25.2851 38.4785 25.2865C36.7848 25.2927 35.0911 25.2913 33.3981 25.2872C33.1363 25.2872 33.0106 25.39 33.0169 25.6544C33.0232 25.9526 33.0323 26.2515 33.0141 26.5484C32.9939 26.8825 33.144 26.9936 33.4672 26.9895C34.2903 26.9777 35.1141 26.9853 35.9379 26.9853L35.9372 26.986ZM35.9149 24.1875C36.7617 24.1875 37.6086 24.1799 38.4547 24.1917C38.7724 24.1958 38.8973 24.0674 38.8841 23.7609C38.8715 23.4751 38.8722 23.1873 38.8841 22.9008C38.8966 22.6019 38.7535 22.4804 38.4652 22.4928C38.3842 22.4963 38.3025 22.4928 38.2215 22.4928C36.8295 22.4928 35.4381 22.49 34.046 22.4935C32.85 22.4963 33.0323 22.3761 33.0169 23.5262C33.0155 23.6063 33.0225 23.687 33.0155 23.7671C32.9883 24.0784 33.1293 24.1965 33.4442 24.1917C34.2673 24.1792 35.0911 24.1875 35.9142 24.1875H35.9149ZM35.9233 33.6772C35.1002 33.6772 34.277 33.6875 33.4539 33.6723C33.116 33.6661 32.9939 33.798 33.0134 34.1203C33.0309 34.4061 33.0239 34.6933 33.0155 34.9798C33.0078 35.2345 33.1042 35.3622 33.3778 35.3615C35.0932 35.3574 36.8092 35.3581 38.5252 35.3601C38.7731 35.3601 38.8848 35.2449 38.882 35.0026C38.8785 34.7043 38.868 34.4061 38.8848 34.1086C38.9036 33.7738 38.7493 33.6675 38.4275 33.6723C37.5932 33.6855 36.7582 33.6765 35.9233 33.6765V33.6772ZM35.9526 21.3911C36.7757 21.3911 37.5988 21.3931 38.4219 21.3904C38.8247 21.389 38.8778 21.3317 38.8806 20.9272C38.8827 20.6518 38.875 20.377 38.8827 20.1016C38.8904 19.8324 38.7849 19.7019 38.4959 19.7033C36.7917 19.7088 35.0876 19.7088 33.3827 19.7033C33.1105 19.7026 33.0092 19.8255 33.0155 20.0809C33.0232 20.3784 33.0302 20.6773 33.0134 20.9748C32.9953 21.2937 33.1405 21.3987 33.4484 21.3945C34.2833 21.3835 35.1176 21.3911 35.9526 21.3911ZM35.924 29.7721C36.782 29.7721 37.64 29.7686 38.4973 29.7742C38.7577 29.7762 38.8897 29.672 38.8813 29.409C38.8778 29.3061 38.8813 29.2026 38.8813 29.0997C38.8736 27.9669 39.016 28.0919 37.8634 28.0891C36.391 28.0857 34.9186 28.0912 33.4463 28.0857C33.1684 28.0843 32.9994 28.1561 33.0141 28.4709C33.0281 28.7567 33.0302 29.0445 33.0134 29.3303C32.9946 29.6527 33.116 29.7845 33.4546 29.7776C34.2777 29.7617 35.1009 29.7721 35.924 29.7721ZM35.9798 14.1208C35.1218 14.1208 34.2645 14.127 33.4065 14.1173C33.1216 14.1139 33.0057 14.2271 33.0155 14.5053C33.0267 14.8256 33.0218 15.1472 33.0176 15.4675C33.0148 15.6988 33.1265 15.7996 33.3569 15.7996C35.0841 15.7975 36.8113 15.7982 38.5385 15.7996C38.7682 15.7996 38.8813 15.6919 38.8813 15.4648C38.8813 15.1555 38.8708 14.8456 38.8848 14.5363C38.8987 14.2222 38.7605 14.1111 38.4491 14.1159C37.626 14.1283 36.8029 14.1201 35.9798 14.1201V14.1208Z" fill="#FFCD2C"/>
<path d="M16.7281 12.7506C18.1558 12.7506 19.5835 12.7492 21.0112 12.7506C21.9202 12.7513 22.4284 13.2552 22.4319 14.1609C22.4354 15.0562 22.4354 15.9509 22.4319 16.8462C22.4284 17.7408 21.909 18.2558 21.0035 18.2565C18.1369 18.2593 15.2697 18.2593 12.4031 18.2565C11.506 18.2558 10.9964 17.7574 10.9901 16.8731C10.9831 15.9668 10.9845 15.0597 10.9901 14.1533C10.9957 13.2373 11.4899 12.752 12.4122 12.7506C13.8518 12.7492 15.2906 12.7506 16.7302 12.7506H16.7281ZM16.7379 13.8523C15.322 13.8523 13.9062 13.8606 12.4904 13.8461C12.179 13.8427 12.091 13.9462 12.0959 14.2417C12.1113 15.0908 12.1099 15.9398 12.0959 16.7889C12.091 17.0775 12.1993 17.1617 12.4841 17.161C15.3039 17.1527 18.1244 17.1527 20.9442 17.161C21.2388 17.1617 21.3261 17.0554 21.3219 16.7772C21.3093 15.9516 21.303 15.1246 21.324 14.299C21.3323 13.9621 21.2451 13.8392 20.8799 13.8448C19.499 13.8655 18.1181 13.853 16.7372 13.853L16.7379 13.8523Z" fill="#FFCD2C"/>
<path d="M12.1455 19.7784C12.8241 19.7169 13.4127 19.8992 13.6905 20.5329C13.99 21.217 13.9816 21.9308 13.5998 22.6128C13.1481 23.4184 11.1214 23.4349 10.6229 22.5921C10.3031 22.0516 10.2808 20.867 10.6487 20.3562C11.0215 19.8391 11.5563 19.7225 12.1455 19.7784ZM11.5032 21.4772C11.5032 22.0792 11.5263 22.1026 12.1155 22.1026C12.7117 22.1026 12.7508 22.0647 12.7508 21.491C12.7508 20.8953 12.7292 20.8732 12.1302 20.8732C11.5081 20.8732 11.5032 20.878 11.5025 21.4765L11.5032 21.4772Z" fill="#FFCD2C"/>
<path d="M16.7174 23.238C15.7602 23.238 15.1989 22.9363 15.0558 22.2205C14.9657 21.7725 14.9706 21.2796 15.0572 20.8302C15.1689 20.2517 15.6066 19.9238 16.2021 19.8306C16.3048 19.8148 16.4095 19.812 16.5135 19.8051C18.2323 19.6967 18.603 20.6714 18.4397 22.0258C18.3517 22.7555 17.7799 23.2214 17.0301 23.2373C16.9261 23.2394 16.8214 23.2373 16.7174 23.2373V23.238ZM16.7271 22.1363C17.3206 22.1363 17.3471 22.1114 17.3478 21.5543C17.3478 20.9441 17.3122 20.9068 16.7125 20.9068C16.1253 20.9068 16.0995 20.9331 16.0995 21.5336C16.0995 22.1335 16.1023 22.1363 16.7264 22.1363H16.7271Z" fill="#FFCD2C"/>
<path d="M21.3107 19.7732C21.7623 19.7394 22.1708 19.8146 22.5575 20.0873C23.2389 20.567 23.2347 22.3681 22.5673 22.8671C21.9781 23.3083 20.7144 23.311 20.1036 22.8968C19.4019 22.4219 19.4054 20.5546 20.0687 20.0928C20.4554 19.8229 20.861 19.738 21.3113 19.7739L21.3107 19.7732ZM20.6984 21.4527C20.6984 22.0816 20.713 22.0981 21.2897 22.0988C21.9048 22.0995 21.9453 22.0629 21.946 21.5079C21.946 20.8908 21.9278 20.8701 21.3463 20.8701C20.7047 20.8701 20.6984 20.8749 20.6984 21.4534V21.4527Z" fill="#FFCD2C"/>
<path d="M16.7171 33.3576C15.7662 33.3576 15.1986 33.0504 15.0555 32.3352C14.9654 31.8872 14.9738 31.3957 15.0569 30.9449C15.1581 30.3948 15.5693 30.0462 16.1355 29.9647C16.4979 29.9122 16.8769 29.9081 17.2407 29.9516C17.8872 30.0282 18.3444 30.4769 18.4303 31.1155C18.4771 31.4634 18.4813 31.8285 18.4296 32.1751C18.3102 32.9779 17.7343 33.3583 16.7178 33.3583L16.7171 33.3576ZM16.7247 32.2524C17.3161 32.2524 17.3475 32.2234 17.3482 31.6711C17.3482 31.0519 17.3175 31.0195 16.715 31.0195C16.1243 31.0195 16.1006 31.0437 16.1006 31.6463C16.1006 32.2489 16.1041 32.2524 16.7254 32.2524H16.7247Z" fill="#FFCD2C"/>
<path d="M10.3876 31.5175C10.3395 31.0453 10.4442 30.5414 10.9064 30.2031C11.5647 29.7206 12.3215 29.7717 13.028 30.0243C13.6989 30.2639 13.8972 30.8644 13.8644 31.5375C13.8525 31.777 13.8574 32.0214 13.8071 32.2533C13.6864 32.8118 13.2242 33.2225 12.6496 33.2888C12.3746 33.3206 12.0939 33.3261 11.8174 33.313C10.9308 33.2709 10.3946 32.7069 10.3876 31.8288C10.3876 31.7487 10.3876 31.6687 10.3876 31.5175ZM12.1295 30.9846C11.5221 30.9846 11.5026 31.0025 11.5026 31.5568C11.5026 32.1926 11.5249 32.2168 12.1155 32.2174C12.7104 32.2174 12.7508 32.1795 12.7508 31.6051C12.7508 31.0101 12.7257 30.9852 12.1302 30.9846H12.1295Z" fill="#FFCD2C"/>
<path d="M12.1952 24.8059C12.6141 24.7673 13.0693 24.8439 13.4379 25.2056C13.8819 25.6419 14.0404 26.7063 13.743 27.3773C13.4547 28.0283 12.9115 28.2644 12.226 28.2409C11.9725 28.2319 11.7135 28.2367 11.4671 28.1864C10.8576 28.0614 10.4185 27.5285 10.3919 26.9134C10.3822 26.696 10.3864 26.4785 10.3885 26.2604C10.3975 25.3796 10.9798 24.8128 11.8783 24.8059C11.9593 24.8059 12.0403 24.8059 12.1952 24.8059ZM11.5027 26.502C11.5027 27.1178 11.5236 27.1398 12.1052 27.1398C12.7077 27.1398 12.7503 27.1005 12.7503 26.5351C12.7503 25.9263 12.7328 25.9076 12.1394 25.9076C11.5062 25.9076 11.5027 25.9111 11.5027 26.502Z" fill="#FFCD2C"/>
<path d="M16.6962 28.2718C15.7572 28.2745 15.1868 27.9535 15.0479 27.2349C14.9634 26.7966 14.9725 26.3175 15.0514 25.8764C15.1575 25.2827 15.6776 24.8996 16.2927 24.8575C16.558 24.8396 16.8261 24.8402 17.0913 24.8534C17.8097 24.8893 18.3424 25.3511 18.436 26.0545C18.4793 26.3803 18.48 26.7206 18.4402 27.0472C18.3529 27.7637 17.8083 28.2352 17.0781 28.2704C16.951 28.2766 16.8233 28.2711 16.6962 28.2711V28.2718ZM16.6948 27.1735C17.3196 27.1735 17.3476 27.1486 17.3483 26.5874C17.3483 25.9793 17.321 25.9503 16.7458 25.9496C16.123 25.9496 16.1014 25.9682 16.1007 26.5025C16.0993 27.1673 16.1049 27.1728 16.6955 27.1735H16.6948Z" fill="#FFCD2C"/>
<path d="M24.3373 26.4341C24.4986 26.4341 24.6249 26.4272 24.7513 26.4355C25.115 26.4589 25.3384 26.6743 25.3342 26.9884C25.33 27.3011 25.1045 27.5151 24.7366 27.5296C24.412 27.5427 24.0867 27.531 23.7613 27.5344C23.3815 27.5393 23.2859 27.6332 23.2782 27.959C23.2705 28.2931 23.4821 28.3808 23.7529 28.3621C24.6207 28.3021 25.1004 28.8233 25.2595 29.372C25.4522 30.0382 25.1939 30.7313 24.5977 31.0219C24.375 31.1303 24.3045 31.2497 24.3045 31.4865C24.3045 31.8468 24.0706 32.0663 23.7509 32.067C23.4297 32.067 23.2231 31.8509 23.1993 31.4878C23.1944 31.4098 23.1916 31.3311 23.1854 31.2069C23.0234 31.2069 22.8761 31.2165 22.7302 31.2048C22.3811 31.1765 22.1521 30.9349 22.1682 30.625C22.1835 30.3247 22.4097 30.1183 22.7504 30.11C23.0639 30.1017 23.3773 30.1072 23.6908 30.1079C23.9296 30.1079 24.1935 30.119 24.2053 29.7945C24.2179 29.4611 23.9547 29.468 23.7139 29.4625C22.5193 29.4383 21.8058 28.3538 22.3127 27.2763C22.4439 26.9974 22.756 26.8034 22.9759 26.5625C23.0639 26.4665 23.1972 26.3416 23.1882 26.2408C23.1484 25.808 23.487 25.5505 23.7613 25.5629C24.0985 25.5774 24.287 25.7942 24.3156 26.2222C24.3191 26.2781 24.3268 26.334 24.3366 26.4348L24.3373 26.4341Z" fill="#FFCD2C"/>
</g>
<defs>
<clipPath id="clip0_1758_22309">
<rect width="32" height="27" fill="white" transform="translate(8 10)"/>
</clipPath>
</defs>
</svg>
