<svg width="48" height="48" viewBox="0 0 48 48" fill="none" xmlns="http://www.w3.org/2000/svg">
<circle opacity="0.2" cx="24" cy="24" r="24" fill="#FFCD2C"/>
<path fill-rule="evenodd" clip-rule="evenodd" d="M16.2795 9.65517C15.3521 9.837 14.5597 10.7015 14.4172 11.6869C14.3878 11.8906 14.3654 16.6378 14.3647 22.8328L14.3636 33.6238L14.1807 33.6244C13.5177 33.6266 12.6104 34.217 12.2826 34.8595C12.0313 35.352 12.0012 35.5607 12.0006 36.8166L12 38.0116L12.1642 38.1954L12.3284 38.3792L22.6457 38.3957C29.7386 38.4071 33.027 38.3938 33.1679 38.3531C33.5536 38.2417 33.5821 38.1372 33.5821 36.8316C33.5821 35.5732 33.5429 35.3256 33.2652 34.8279C32.9294 34.2261 32.161 33.7082 31.5032 33.6403L31.1903 33.608V31.196V28.784L31.4576 28.7844C31.8401 28.7848 32.1243 28.8781 32.257 29.0468C32.3587 29.176 32.3721 29.2733 32.3721 29.8786C32.3721 30.9997 32.4917 31.4228 32.9334 31.8645C33.3128 32.2438 33.6063 32.3577 34.2011 32.3565C34.639 32.3555 34.7457 32.3353 34.989 32.2066C35.3256 32.0285 35.632 31.7185 35.8131 31.3727L35.9457 31.1195L35.9604 22.3763C35.9749 13.7944 35.9732 13.6298 35.8655 13.4564C35.8052 13.3593 35.2011 12.729 34.5229 12.0558C33.2796 10.8214 33.2444 10.7951 32.8786 10.8263C32.6974 10.8417 32.4383 11.1009 32.4229 11.282C32.3921 11.6435 32.423 11.6865 33.4817 12.7545L34.535 13.8171L33.5097 14.8435C32.7614 15.5926 32.4694 15.9227 32.4283 16.0658C32.3583 16.3098 32.3566 17.8276 32.4257 18.3057C32.5771 19.3527 33.3841 20.1821 34.4181 20.3535L34.792 20.4155V25.5592C34.792 31.2221 34.8098 30.9357 34.4466 31.1235C34.2069 31.2474 33.9358 31.1883 33.7543 30.9726C33.6168 30.8092 33.6102 30.7697 33.6102 30.1099C33.6102 29.0104 33.4898 28.5955 33.0342 28.126C32.7019 27.7836 32.3405 27.6436 31.7109 27.6136L31.1903 27.5888V19.7244C31.1903 14.6926 31.1699 11.751 31.1337 11.557C30.9565 10.6075 30.1791 9.83176 29.2229 9.65044C28.85 9.5797 16.6417 9.5842 16.2795 9.65517ZM29.0584 10.8384C29.4801 10.9289 29.8595 11.3129 29.9471 11.7379C29.9921 11.9563 30.0056 15.0742 29.995 22.8187L29.9804 33.5957L22.7906 33.61L15.6009 33.6242L15.6154 22.5987L15.6298 11.5731L15.7995 11.3318C15.9807 11.0738 16.2334 10.898 16.5213 10.8294C16.8228 10.7576 28.7212 10.7661 29.0584 10.8384ZM16.9954 12.1778L16.8116 12.342V16.2062V20.0704L16.9954 20.2346L17.1792 20.3988H22.7534C26.748 20.3988 28.3624 20.381 28.4505 20.3359C28.5181 20.3014 28.6172 20.2191 28.6707 20.153C28.7607 20.042 28.768 19.7466 28.7692 16.1965L28.7704 12.3599L28.5972 12.1868L28.4241 12.0136H22.8017H17.1792L16.9954 12.1778ZM27.5886 16.2062V19.217H22.777H17.9653V16.2062V13.1954H22.777H27.5886V16.2062ZM34.792 17.2459V19.2142L34.6091 19.1804C34.3048 19.1242 33.9906 18.9211 33.8096 18.6637L33.6383 18.4199L33.6205 17.4303L33.6027 16.4407L34.1823 15.8592C34.501 15.5393 34.7686 15.2776 34.7769 15.2776C34.7852 15.2776 34.792 16.1634 34.792 17.2459ZM31.5435 34.8653C31.8202 34.9421 32.1383 35.2249 32.2672 35.5086C32.3495 35.6899 32.3699 35.8806 32.3709 36.4798L32.3721 37.2255H22.777H13.1818L13.183 36.508C13.1841 35.9086 13.2031 35.7489 13.2987 35.5382C13.4531 35.1977 13.5544 35.0943 13.8853 34.9389L14.1666 34.8067L22.7488 34.8064C28.5655 34.8063 31.3995 34.8252 31.5435 34.8653Z" fill="#FFCD2C"/>
</svg>
