<svg width="48" height="48" viewBox="0 0 48 48" fill="none" xmlns="http://www.w3.org/2000/svg">
<circle opacity="0.2" cx="24" cy="24" r="24" fill="#FFCD2C"/>
<g clip-path="url(#clip0_1945_26357)">
<path d="M38.1587 33.8657C37.4687 33.7761 36.7445 33.8468 36.0648 33.8468C34.9268 33.8468 33.7887 33.8468 32.6515 33.8468C32.2078 33.8468 31.7641 33.8468 31.3204 33.8468C30.6115 33.8468 29.8742 33.9145 29.2075 34.171C28.9751 34.2606 28.7536 34.3925 28.5926 34.5826C28.2065 35.0387 28.331 35.7724 28.3383 36.3276C28.3529 37.3774 28.9787 37.9872 30.0301 37.9916C30.9626 37.996 31.8959 37.9923 32.8285 37.9923C34.6339 37.9923 36.4385 37.996 38.2439 37.9909C39.0898 37.9887 39.7805 37.5027 39.8504 36.7611C39.8985 36.2445 39.9685 35.717 39.8847 35.1997C39.8009 34.6824 39.5765 34.332 39.0767 34.1113C38.7831 33.9816 38.4749 33.9065 38.1594 33.8657H38.1587ZM38.7255 36.3946C38.7263 36.6802 38.5762 36.815 38.3008 36.8266C38.2279 36.8295 38.1551 36.8281 38.0829 36.8281C35.4411 36.8281 32.7994 36.8281 30.1576 36.8281C29.5849 36.8281 29.5019 36.7458 29.5004 36.1826C29.4997 35.9647 29.4968 35.7462 29.5011 35.5283C29.5106 35.1203 29.6141 35.0132 30.025 35.0125C31.3947 35.0088 32.7637 35.011 34.1334 35.011C35.4666 35.011 36.7992 35.0096 38.1325 35.011C38.6585 35.011 38.7241 35.0781 38.727 35.5953C38.7284 35.862 38.7255 36.1287 38.727 36.3953L38.7255 36.3946Z" fill="#FFCD2C"/>
<path d="M38.1587 30.9829C37.4687 30.8933 36.7445 30.964 36.0648 30.964C34.9268 30.964 33.7887 30.964 32.6515 30.964C32.2078 30.964 31.7641 30.964 31.3204 30.964C30.6115 30.964 29.8742 31.0317 29.2075 31.2882C28.9751 31.3778 28.7536 31.5097 28.5926 31.6998C28.2065 32.1559 28.331 32.8896 28.3383 33.4447C28.3529 34.4946 28.9787 35.1044 30.0301 35.1088C30.9626 35.1132 31.8959 35.1095 32.8285 35.1095C34.6339 35.1095 36.4385 35.1132 38.2439 35.1081C39.0898 35.1059 39.7805 34.6199 39.8504 33.8782C39.8985 33.3617 39.9685 32.8342 39.8847 32.3169C39.8009 31.7996 39.5765 31.4492 39.0767 31.2284C38.7831 31.0988 38.4749 31.0237 38.1594 30.9829H38.1587ZM38.7255 33.5118C38.7263 33.7974 38.5762 33.9322 38.3008 33.9438C38.2279 33.9467 38.1551 33.9453 38.0829 33.9453C35.4411 33.9453 32.7994 33.9453 30.1576 33.9453C29.5849 33.9453 29.5019 33.8629 29.5004 33.2998C29.4997 33.0819 29.4968 32.8633 29.5011 32.6455C29.5106 32.2375 29.6141 32.1304 30.025 32.1297C31.3947 32.126 32.7637 32.1282 34.1334 32.1282C35.4666 32.1282 36.7992 32.1268 38.1325 32.1282C38.6585 32.1282 38.7241 32.1952 38.727 32.7125C38.7284 32.9792 38.7255 33.2458 38.727 33.5125L38.7255 33.5118Z" fill="#FFCD2C"/>
<path d="M21.5389 27.8728C22.7374 27.8728 23.8878 27.8692 25.0375 27.8758C25.2779 27.8772 25.5271 27.8809 25.7573 27.9413C26.3977 28.1082 26.8545 28.6874 26.8531 29.3598C26.8516 30.0411 26.993 30.747 26.5864 31.3802C26.5616 31.4195 26.6061 31.5106 26.6301 31.5725C27.0002 32.5298 26.9747 33.4763 26.5806 34.4409C27.001 35.2037 26.9354 36.0583 26.7795 36.8867C26.6447 37.6014 26.0138 37.9905 25.1868 37.9934C23.5512 37.9999 21.9156 37.9956 20.2799 37.9956C19.2016 37.9956 18.1234 37.9985 17.0451 37.9948C15.9289 37.9905 15.3075 37.3748 15.3038 36.2645C15.3016 35.6386 15.2259 34.9968 15.5894 34.4758C15.4641 34.0606 15.3468 33.6737 15.2098 33.2205C14.7086 33.2205 14.1301 33.265 13.5596 33.2132C10.316 32.9189 7.52198 30.2225 7.07901 26.9964C6.83421 25.2143 7.15478 23.5517 8.08953 22.0115C8.36202 21.5627 8.6702 21.4308 8.9966 21.6188C9.32373 21.8075 9.35651 22.1499 9.09496 22.6009C7.95766 24.563 7.78426 26.5796 8.81519 28.632C9.98527 30.9605 12.5702 32.3892 15.0262 32.1065C17.6352 31.8064 19.7772 29.9514 20.4198 27.4364C21.4296 23.4847 18.4658 19.6284 14.4033 19.6269C12.9775 19.6269 11.6908 20.0713 10.5652 20.9573C10.3262 21.1452 10.0494 21.2604 9.80822 21.0483C9.66178 20.9194 9.55978 20.6615 9.56488 20.4648C9.56852 20.3118 9.74192 20.1303 9.88472 20.0181C12.4165 18.0241 15.8466 17.9293 18.5183 19.7697C21.163 21.5919 22.2973 24.5127 21.5753 27.6433C21.5622 27.7002 21.5564 27.7585 21.5382 27.8721L21.5389 27.8728ZM21.0726 35.0077C19.7167 35.0077 18.3616 35.0055 17.0057 35.0092C16.5773 35.0099 16.4739 35.1199 16.4681 35.5483C16.4651 35.7538 16.4673 35.9599 16.4681 36.1654C16.4688 36.7453 16.5548 36.8313 17.1434 36.8313C19.7211 36.8313 22.2995 36.8313 24.8772 36.8313C25.0105 36.8313 25.1439 36.8364 25.2764 36.8277C25.5467 36.8102 25.7012 36.6769 25.6976 36.3905C25.6946 36.1246 25.6983 35.8579 25.6976 35.5913C25.6961 35.0827 25.6225 35.0084 25.1031 35.0077C23.7596 35.0062 22.4161 35.0077 21.0726 35.0077ZM21.0908 33.8434C22.4474 33.8434 23.804 33.8456 25.1606 33.842C25.5919 33.8413 25.6939 33.7334 25.6976 33.3043C25.6997 33.05 25.7005 32.7958 25.6976 32.5415C25.6925 32.1211 25.605 32.0279 25.181 32.0271C23.0376 32.0242 20.8934 32.0242 18.7499 32.0293C18.6232 32.0293 18.4869 32.0621 18.3711 32.1153C17.8006 32.3768 17.2323 32.6428 16.6728 32.9255C16.581 32.9721 16.4826 33.1025 16.4739 33.2023C16.4302 33.6941 16.573 33.842 17.0575 33.8427C18.4017 33.8442 19.7459 33.8427 21.0908 33.8427V33.8434ZM19.9521 30.8614C20.7331 30.8614 21.5039 30.8614 22.2747 30.8614C23.2321 30.8614 24.1894 30.8643 25.1468 30.86C25.5948 30.8578 25.6946 30.7507 25.6976 30.2975C25.699 30.0309 25.6932 29.7642 25.699 29.4975C25.7056 29.1988 25.5679 29.0407 25.2662 29.0407C23.9454 29.0407 22.6245 29.0393 21.3036 29.0495C21.2045 29.0502 21.0661 29.1143 21.0136 29.1937C20.6602 29.7256 20.3251 30.2698 19.9521 30.8607V30.8614Z" fill="#FFCD2C"/>
<path d="M15.0106 22.5315C15.2809 22.5315 15.5446 22.5278 15.8076 22.5322C16.2302 22.5395 16.4998 22.7668 16.5034 23.1114C16.5071 23.4604 16.2426 23.6899 15.8186 23.6936C15.2976 23.6979 14.7767 23.6892 14.2558 23.6965C13.7035 23.7038 13.4267 24.0047 13.4303 24.5751C13.434 25.1398 13.7181 25.4319 14.2667 25.4377C14.4365 25.4392 14.6062 25.4326 14.7753 25.4465C15.6663 25.5193 16.3475 26.1619 16.459 27.0289C16.5843 28.0067 16.1384 28.8074 15.2648 29.1097C15.039 29.1877 14.9545 29.2824 14.9727 29.5163C14.9873 29.6948 14.9639 29.8791 14.9363 30.0576C14.8896 30.3636 14.7046 30.5297 14.3913 30.5312C14.0598 30.5319 13.8704 30.3548 13.8325 30.0314C13.8033 29.78 13.7982 29.5257 13.7793 29.2227C13.4937 29.2227 13.2074 29.2278 12.9218 29.2212C12.5371 29.2132 12.2988 29.0026 12.2857 28.6704C12.2719 28.3221 12.5152 28.0708 12.9065 28.0628C13.4514 28.0511 13.9964 28.0628 14.5414 28.0584C15.0375 28.054 15.3144 27.799 15.3224 27.3495C15.3304 26.8891 15.0412 26.6166 14.5356 26.6013C14.2696 26.5933 13.9979 26.6107 13.74 26.559C12.8846 26.3878 12.3447 25.6811 12.2726 24.6786C12.207 23.7766 12.6821 22.9424 13.4646 22.6743C13.7509 22.5759 13.8441 22.4448 13.8084 22.1599C13.7895 22.0069 13.8121 21.8444 13.8398 21.6907C13.8944 21.3854 14.0911 21.223 14.3979 21.2266C14.6849 21.2303 14.8867 21.3796 14.9312 21.6725C14.9727 21.9443 14.9822 22.2204 15.0084 22.5315H15.0106Z" fill="#FFCD2C"/>
<path d="M25.6209 22.816C25.4096 22.5217 25.2318 22.1931 24.979 21.9403C24.5768 21.5381 24.0865 21.5009 23.6734 21.9067C23.2581 22.3147 23.2909 22.7992 23.6894 23.2145C24.4697 24.0269 25.2602 24.8305 26.0668 25.6166C26.485 26.0246 26.9629 26.0049 27.376 25.6057C28.1862 24.8232 28.9832 24.0261 29.7642 23.2145C30.1606 22.8029 30.1912 22.3075 29.7781 21.9038C29.3679 21.5024 28.8849 21.541 28.471 21.9417C28.2787 22.1275 28.133 22.3614 27.8969 22.6608C27.7957 22.4248 27.733 22.3475 27.733 22.2696C27.7286 19.8427 27.7075 17.4151 27.741 14.989C27.7563 13.8728 28.5483 13.0321 29.6142 12.8587C30.6597 12.6882 31.7139 13.2812 32.0651 14.2968C32.1896 14.6568 32.2151 15.064 32.2181 15.4502C32.2334 17.4115 32.1984 19.3735 32.2341 21.3341C32.272 23.3938 33.5994 24.9806 35.5338 25.3696C37.38 25.7405 39.2364 24.8181 39.9992 23.0776C40.2287 22.5537 40.378 21.949 40.3846 21.38C40.4217 18.3156 40.405 15.2513 40.4006 12.1862C40.3999 11.4263 40.0691 11.0241 39.4812 11.0292C38.8976 11.0343 38.5938 11.4205 38.5916 12.2088C38.5857 15.1755 38.5959 18.1415 38.585 21.1082C38.5799 22.5537 37.7756 23.511 36.5297 23.605C35.1622 23.7085 34.0898 22.7628 34.0745 21.3822C34.0511 19.2985 34.0985 17.214 34.0584 15.1311C34.0001 12.1053 31.0968 10.1666 28.4026 11.3534C26.697 12.1046 25.9203 13.4962 25.9108 15.3314C25.8992 17.5623 25.9079 19.7932 25.9079 22.024C25.9079 22.2186 25.9079 22.4131 25.9079 22.6076C25.8118 22.6768 25.7156 22.7453 25.6201 22.8145L25.6209 22.816Z" fill="#FFCD2C"/>
</g>
<defs>
<clipPath id="clip0_1945_26357">
<rect width="33.4085" height="27" fill="white" transform="translate(7 11)"/>
</clipPath>
</defs>
</svg>
