<svg width="48" height="48" viewBox="0 0 48 48" fill="none" xmlns="http://www.w3.org/2000/svg">
<circle opacity="0.2" cx="24" cy="24" r="24" fill="#FFCD2C"/>
<g clip-path="url(#clip0_1753_22166)">
<path d="M13.8952 13.1628C18.2187 13.1868 22.5422 13.1737 26.8652 13.1742C26.9875 13.1742 27.1104 13.1719 27.2321 13.1839C27.6908 13.2283 28.0577 13.5776 28.1574 14.0379H29.0402C28.8403 12.9828 28.0277 12.2918 26.7378 12.3049C22.4618 12.3487 18.1853 12.3203 13.9088 12.3225C13.693 12.3225 13.4716 12.3214 13.2627 12.3675C12.3238 12.5743 11.723 13.3611 11.7224 14.3734C11.7207 19.8117 11.7218 25.2506 11.7218 30.6888C11.7218 32.243 11.7235 33.7965 11.7207 35.3506C11.7196 35.7705 11.8192 36.1573 12.0548 36.5043C12.2083 36.7304 12.4387 36.7863 12.642 36.6609C12.8442 36.5362 12.8725 36.3151 12.7836 36.0633C12.6856 35.7847 12.5786 35.4879 12.5781 35.1991C12.5667 28.3013 12.5769 21.404 12.5588 14.5062C12.5571 13.7519 12.9948 13.1583 13.8946 13.1634L13.8952 13.1628Z" fill="#FFCD2C"/>
<path d="M12.1237 11.4597C16.4472 11.4836 20.7707 11.4705 25.0937 11.4711C25.216 11.4711 25.3389 11.4688 25.4606 11.4808C25.9193 11.5252 26.2863 11.8744 26.3859 12.3347H27.2687C27.0689 11.2797 26.2562 10.5886 24.9663 10.6017C20.6903 10.6456 16.4138 10.6171 12.1373 10.6194C11.9216 10.6194 11.7002 10.6183 11.4912 10.6644C10.5523 10.8712 9.95149 11.658 9.95093 12.6703C9.94923 18.1086 9.95036 23.5474 9.95036 28.9857C9.95036 30.5398 9.95206 32.0934 9.94923 33.6475C9.9481 34.0674 10.0478 34.4542 10.2833 34.8011C10.4368 35.0273 10.6673 35.0831 10.8706 34.9578C11.0727 34.833 11.101 34.612 11.0121 34.3602C10.9142 34.0816 10.8071 33.7848 10.8066 33.496C10.7952 26.5981 10.8054 19.7009 10.7873 12.803C10.7856 12.0488 11.2233 11.4551 12.1232 11.4603L12.1237 11.4597Z" fill="#FFCD2C"/>
<path d="M40.3068 16.3012V15.7326C40.1307 15.2296 39.7666 14.9128 39.3011 14.6878C39.0984 14.5898 38.9093 14.4622 38.7128 14.3505C37.8928 13.8828 37.2087 14.0691 36.7359 14.8917C35.6249 16.8258 34.5155 18.7605 33.4045 20.6946C33.3524 20.7852 33.2946 20.8718 33.2391 20.9601C33.1927 19.1422 33.1933 17.3522 33.1921 15.5617C33.1921 14.5009 32.6276 13.9386 31.5647 13.9381C30.8897 13.9381 30.2152 13.9381 29.5402 13.9375C29.5334 13.9386 29.5266 13.9398 29.5187 13.9398H27.7332C27.727 13.9398 27.7219 13.9386 27.7163 13.9381H27.4728C23.3565 13.9381 19.2403 13.9381 15.124 13.9381C14.1075 13.9381 13.5254 14.522 13.5248 15.54C13.5243 22.8258 13.5243 30.1122 13.5248 37.398C13.5248 38.4149 14.1064 38.9971 15.1229 38.9971C20.614 38.9983 26.1058 38.9983 31.5969 38.9971C32.6242 38.9971 33.1904 38.4297 33.191 37.402C33.1921 35.5357 33.191 33.6688 33.191 31.8025C33.191 31.717 33.2199 31.6076 33.1785 31.5518C33.0806 31.4191 32.9679 31.259 32.8258 31.2072C32.6315 31.1365 32.4543 31.255 32.3858 31.4612C32.3484 31.5746 32.345 31.7028 32.345 31.8241C32.3427 33.662 32.3433 35.5004 32.3433 37.3382C32.3433 37.9751 32.174 38.1449 31.5397 38.1449C26.7077 38.1449 21.8757 38.1449 17.0437 38.1449H16.705V37.7244C16.705 31.3576 16.705 24.9901 16.705 18.6232C16.705 18.5002 16.7079 18.376 16.6903 18.2546C16.6592 18.0364 16.5125 17.9157 16.3058 17.9048C16.0844 17.8934 15.9236 18.0114 15.88 18.2381C15.8551 18.3669 15.859 18.5019 15.859 18.634C15.8579 25.0009 15.8585 31.3678 15.8585 37.7353V38.1369C15.5068 38.1369 15.1903 38.1785 14.8924 38.1209C14.7202 38.0879 14.5492 37.917 14.4337 37.7649C14.3607 37.6686 14.3754 37.4931 14.3754 37.353C14.3731 30.0951 14.3731 22.8378 14.3737 15.5799C14.3737 15.4854 14.368 15.3885 14.3867 15.2968C14.4405 15.0319 14.5906 14.8336 14.8675 14.8114C15.1835 14.7863 15.5034 14.8057 15.8585 14.8057C15.8585 14.9134 15.8585 15.0051 15.8585 15.0968C15.8585 15.4854 15.8528 15.8739 15.8619 16.2624C15.8687 16.5518 16.0414 16.7364 16.2803 16.7387C16.5199 16.741 16.6914 16.5564 16.7028 16.2693C16.7107 16.0613 16.7056 15.8522 16.7056 15.6437C16.7056 15.3646 16.7056 15.0849 16.7056 14.8057C16.8149 14.7983 16.871 14.7909 16.927 14.7909C21.8344 14.7909 26.7417 14.7898 31.649 14.7915C32.1309 14.7915 32.3427 15.0057 32.3433 15.4831C32.345 17.7664 32.3456 20.0497 32.3399 22.3331C32.3399 22.4578 32.3042 22.5974 32.2425 22.7056C31.076 24.7497 29.9015 26.7886 28.7356 28.8327C28.6478 28.9865 28.5487 29.0349 28.3782 29.0338C27.2106 29.0269 26.0423 29.0304 24.8741 29.0304C22.9901 29.0304 21.1067 29.0292 19.2227 29.0315C18.9294 29.0315 18.7493 29.1899 18.7391 29.436C18.7283 29.6889 18.9209 29.8689 19.2182 29.8821C19.2935 29.8855 19.3688 29.8832 19.4441 29.8832C22.2511 29.8832 25.0582 29.8832 27.8646 29.8832H28.1772C28.1483 30.3589 28.1211 30.8084 28.0923 31.2949H27.7797C24.9636 31.2949 22.1469 31.2949 19.3309 31.2949C18.8535 31.2949 18.7334 31.4168 18.7334 31.9039C18.7323 32.9555 18.7317 34.0072 18.7334 35.0588C18.7346 35.5043 18.8659 35.6359 19.3054 35.6359C22.7902 35.6365 26.2757 35.6365 29.7605 35.6359C30.1841 35.6359 30.3121 35.5061 30.3132 35.0754C30.3149 34.2795 30.3087 33.4836 30.32 32.6878C30.3217 32.5887 30.3845 32.4394 30.4621 32.4001C31.1371 32.0611 31.6066 31.5313 31.978 30.8813C34.272 26.8695 36.5762 22.8629 38.877 18.8551C38.9279 18.7668 38.9817 18.6802 39.0469 18.5708C39.099 18.638 39.146 18.6836 39.1748 18.7383C39.4115 19.1798 39.3679 19.6071 39.1222 20.0332C38.4138 21.2609 37.7099 22.4914 37.006 23.7225C36.8395 24.0136 36.8763 24.2637 37.096 24.3953C37.3186 24.5287 37.5677 24.4432 37.7286 24.164C38.4551 22.9027 39.1862 21.6443 39.8997 20.3756C40.3623 19.5535 40.2542 18.6329 39.6284 17.9253C39.5163 17.7989 39.5225 17.7197 39.5995 17.5852C39.843 17.162 40.0707 16.729 40.3046 16.3L40.3068 16.3012ZM24.0842 34.7672H19.6021V32.1642H24.0842V34.7672ZM29.4536 34.7603H24.9659V32.1682H28.2282C28.2401 32.3255 28.2791 32.4787 28.257 32.6228C28.2134 32.906 28.0266 33.0387 27.7281 33.0393C27.389 33.0393 27.0503 33.0342 26.7111 33.0416C26.4116 33.0484 26.24 33.2022 26.2321 33.4512C26.2236 33.7121 26.3997 33.8836 26.7106 33.8887C27.2094 33.8967 27.7083 33.8858 28.2072 33.8933C28.4864 33.8972 28.6297 33.7349 28.7463 33.511C28.8981 33.2193 29.0419 32.9105 29.453 32.8963L29.4536 34.7603ZM29.0787 32.0828C28.9949 31.3775 28.8556 30.7138 29.0849 30.0085C29.6807 30.3543 30.2605 30.691 30.8557 31.0362C30.3772 31.6031 29.7129 31.7768 29.0787 32.0828ZM31.3189 30.3184C30.7011 29.9595 30.0963 29.6086 29.4734 29.2468C30.6671 27.1669 31.8467 25.112 33.046 23.0224C33.6667 23.383 34.272 23.7351 34.891 24.0945C33.6978 26.1728 32.5188 28.2282 31.3189 30.3184ZM35.3151 23.3534C34.7001 22.9967 34.1016 22.6492 33.473 22.2846C33.6123 22.0397 33.7448 21.8078 33.8864 21.5588C34.5082 21.9195 35.1067 22.267 35.7313 22.6299C35.5847 22.8851 35.4538 23.1124 35.3151 23.3534ZM36.1555 21.8921C35.5241 21.5247 34.9244 21.176 34.3105 20.8188C35.0478 19.5347 35.7744 18.2689 36.5128 16.9831C37.1323 17.3431 37.7308 17.6906 38.3571 18.0541C37.6215 19.3359 36.8961 20.6018 36.1555 21.8921ZM39.4263 16.1291C39.2456 16.537 39.0061 16.9187 38.7847 17.3169C38.155 16.9512 37.5632 16.6076 36.9341 16.2425C37.1651 15.8511 37.3656 15.458 37.6232 15.1071C37.698 15.0051 37.9709 14.9453 38.091 15.0011C38.5055 15.1954 38.9059 15.4301 39.2819 15.6916C39.3866 15.7645 39.4744 16.0209 39.4263 16.1291Z" fill="#FFCD2C"/>
<path d="M20.3216 22.4336C20.3216 21.9077 20.3273 21.4833 20.3154 21.0589C20.3137 20.9957 20.2406 20.9227 20.1834 20.8749C20.1274 20.8282 20.0486 20.8094 19.9818 20.7758C19.4982 20.5331 19.1862 20.1764 19.2123 19.5971C19.2383 19.0234 19.5447 18.632 20.0481 18.4201C20.2757 18.3244 20.3465 18.2116 20.3261 17.986C20.3114 17.8265 20.3165 17.6635 20.3273 17.5034C20.3459 17.234 20.517 17.0619 20.7503 17.0625C20.9858 17.0625 21.1523 17.2345 21.1665 17.5057C21.1761 17.6949 21.1778 17.8851 21.1682 18.0737C21.1608 18.2287 21.2089 18.2976 21.3669 18.3546C21.6387 18.452 21.9032 18.5819 22.1501 18.7323C22.4106 18.8906 22.461 19.1504 22.3132 19.3612C22.1693 19.5657 21.9411 19.5919 21.6891 19.4398C21.5391 19.3492 21.3828 19.2695 21.1716 19.1533C21.1716 19.5595 21.1642 19.9053 21.1789 20.2505C21.1812 20.308 21.2712 20.3764 21.3358 20.4146C21.513 20.5205 21.7078 20.5997 21.8788 20.7148C22.7317 21.289 22.7492 22.368 21.9089 22.9662C21.6976 23.1166 21.4456 23.2089 21.1693 23.3496C21.1693 23.5502 21.175 23.7934 21.1682 24.0367C21.1597 24.3306 21.0011 24.5129 20.7599 24.5198C20.5102 24.5272 20.2961 24.3306 20.3329 24.0321C20.3992 23.4943 20.257 23.1588 19.6925 23.0129C19.475 22.9565 19.2859 22.7475 19.1098 22.58C18.9155 22.3948 18.9235 22.1447 19.0922 21.9732C19.2553 21.8075 19.4937 21.816 19.7021 21.9807C19.881 22.1219 20.0702 22.2507 20.3205 22.4324L20.3216 22.4336ZM21.1959 21.2856V22.3965C21.4666 22.2883 21.6569 22.1419 21.6693 21.861C21.6829 21.5562 21.4632 21.4212 21.1959 21.2856ZM20.3086 19.2399C19.9699 19.5458 19.9847 19.8432 20.3086 19.9526V19.2399Z" fill="#FFCD2C"/>
<path d="M23.7519 26.9853C25.2197 26.9853 26.6875 26.9807 28.1547 26.9921C28.3076 26.9933 28.5013 27.0519 28.6043 27.1556C28.8291 27.3818 28.6729 27.764 28.3501 27.8267C28.2589 27.8444 28.1626 27.837 28.0686 27.837C25.171 27.837 22.2734 27.837 19.3752 27.837C19.3282 27.837 19.2812 27.8381 19.2342 27.837C18.9307 27.8273 18.7387 27.6604 18.7393 27.408C18.7393 27.1545 18.9295 26.9864 19.2359 26.9858C20.741 26.9836 22.2468 26.9847 23.7519 26.9847V26.9853Z" fill="#FFCD2C"/>
<path d="M27.6284 22.4699C28.4371 22.4699 29.2457 22.4665 30.0544 22.4716C30.3817 22.4739 30.5606 22.6482 30.5363 22.9262C30.5147 23.1741 30.3613 23.2982 30.1274 23.3131C29.9026 23.3279 29.6761 23.3216 29.4507 23.3216C28.0968 23.3222 26.7422 23.3216 25.3883 23.3216C25.3039 23.3216 25.2189 23.3245 25.1346 23.3182C24.848 23.2965 24.6685 23.1273 24.6719 22.8864C24.6753 22.6437 24.8571 22.4733 25.1459 22.4716C25.9732 22.4665 26.8011 22.4699 27.6284 22.4693V22.4699Z" fill="#FFCD2C"/>
<path d="M27.6021 21.2204C26.8405 21.2204 26.0789 21.221 25.3172 21.2193C25.2142 21.2193 25.1088 21.2193 25.0086 21.1982C24.7815 21.1515 24.6677 20.9909 24.6773 20.7698C24.6864 20.5624 24.8047 20.4177 25.0216 20.3801C25.0771 20.3705 25.1337 20.3676 25.1898 20.3676C26.798 20.367 28.4057 20.367 30.0139 20.3676C30.0796 20.3676 30.1464 20.3693 30.2104 20.383C30.4222 20.4291 30.5343 20.567 30.5377 20.7835C30.5411 21 30.4341 21.1452 30.2234 21.1942C30.1243 21.2176 30.0184 21.2182 29.9154 21.2182C29.1441 21.2199 28.3734 21.2193 27.6021 21.2193V21.2204Z" fill="#FFCD2C"/>
<path d="M27.2782 19.1177C26.6202 19.1177 25.9616 19.1183 25.3036 19.1172C25.2096 19.1172 25.1144 19.1177 25.0227 19.1012C24.7962 19.0591 24.6739 18.9058 24.6778 18.6836C24.6818 18.4626 24.8052 18.3111 25.0357 18.278C25.128 18.2649 25.2232 18.2661 25.3172 18.2661C26.6337 18.2655 27.9498 18.2655 29.2664 18.2661C29.3604 18.2661 29.4555 18.2643 29.5478 18.2786C29.7743 18.3139 29.9011 18.4558 29.9051 18.6831C29.9091 18.9104 29.7856 19.0568 29.5619 19.1007C29.4708 19.1183 29.3751 19.1177 29.2816 19.1177C28.614 19.1189 27.9464 19.1183 27.2787 19.1183L27.2782 19.1177Z" fill="#FFCD2C"/>
</g>
<defs>
<clipPath id="clip0_1753_22166">
<rect width="32.3077" height="30" fill="white" transform="translate(8 9)"/>
</clipPath>
</defs>
</svg>
