<svg width="48" height="48" viewBox="0 0 48 48" fill="none" xmlns="http://www.w3.org/2000/svg">
<circle opacity="0.2" cx="24" cy="24" r="24" fill="#FFCD2C"/>
<path d="M36.8155 23.5698C36.7704 21.3876 36.167 19.249 35.067 17.3703C35.962 13.0887 31.4349 9.60709 27.536 11.554C23.8605 10.4582 19.5873 11.0409 16.2165 13.6504C15.7889 13.9783 16.3056 14.6154 16.7155 14.3012C17.7507 13.5075 18.8976 12.8921 20.1242 12.4721C21.403 12.0342 22.7423 11.8186 24.1058 11.8301C24.9582 11.8376 25.8054 11.9352 26.631 12.1207C26.3089 12.3707 26.0163 12.6569 25.7594 12.9732C19.3812 11.8836 13.3097 16.8157 13.0187 23.2241C12.6824 23.2077 12.3359 23.2311 12.0108 23.3198C12.124 20.6019 13.1601 17.9679 14.8943 16.0249C15.2474 15.6295 14.6356 15.0834 14.2826 15.4789C12.3339 17.662 11.2075 20.6541 11.1808 23.7065C10.468 24.1992 10 25.0221 10 25.9523V29.9143C10 31.6654 11.491 32.6831 13.1065 32.6424C13.6781 34.2941 16.0878 33.9353 16.1288 32.163V23.5628C16.1471 22.4676 14.9559 21.6892 13.9628 22.1418C14.7971 16.9061 19.8465 13.0219 25.2466 13.7286C24.0875 15.7074 24.4766 18.487 26.1551 20.0821V21.1954C26.2099 21.5251 26.3997 21.651 26.7247 21.5731L27.7228 21.1514C29.6053 22.0334 32.0581 21.583 33.4959 20.1732C33.7433 20.8125 33.9241 21.4718 34.0369 22.1459C33.0429 21.686 31.8433 22.4619 31.8617 23.5627V32.163C31.8499 33.3292 33.1509 34.093 34.1599 33.5186C34.1578 33.8809 34.1512 34.2431 34.137 34.6017C34.0394 35.7764 33.1336 36.7627 31.9785 36.9532C31.6114 36.9893 31.1928 37.0033 30.6809 36.996C30.4974 36.3223 29.8802 35.8256 29.1492 35.8256H26.972C24.8669 35.9125 24.8664 38.9129 26.972 39H29.1491C29.885 39 30.5055 38.4966 30.6844 37.8161C31.1471 37.8223 31.6369 37.8386 32.0963 37.7648C33.6284 37.5197 34.8522 36.2136 34.9765 34.6592C34.9769 34.6537 34.9763 34.6483 34.9765 34.6429C35.005 33.9294 34.9835 33.2088 34.9765 32.5016C36.5613 32.5784 37.9904 31.4235 37.9904 29.7735V25.8115C37.9904 24.8839 37.525 24.0629 36.8155 23.5698V23.5698ZM10.82 29.9143V25.9523C10.82 24.757 11.872 23.9793 13.0017 24.0442V31.8224C11.8714 31.885 10.82 31.1132 10.82 29.9143ZM14.5797 22.8337C14.9817 22.8337 15.3088 23.1608 15.3088 23.5628V32.163C15.2686 33.1305 13.8904 33.1297 13.8506 32.163V23.5628C13.8506 23.1607 14.1777 22.8337 14.5797 22.8337ZM29.1491 38.18H26.972C26.549 38.18 26.2048 37.8358 26.2048 37.4127C26.2048 36.9897 26.5489 36.6455 26.972 36.6455H29.1491C30.1663 36.6875 30.1671 38.1378 29.1491 38.18ZM35.9803 23.1793C35.6548 23.0904 35.3079 23.067 34.9713 23.0834C34.8873 21.8421 34.5964 20.6376 34.1049 19.4962C34.3482 19.1742 34.5557 18.8237 34.7212 18.4507C35.4601 19.9197 35.8901 21.5317 35.9803 23.1793ZM29.8745 20.7867C29.186 20.7867 28.5254 20.6345 27.911 20.3345C27.7985 20.2823 27.6853 20.2792 27.5715 20.3252L26.9752 20.5771V19.9065C26.9752 19.7918 26.9272 19.6823 26.8428 19.6047C23.8573 16.8649 25.8181 11.8275 29.8746 11.8297C35.8169 12.0756 35.8155 20.5415 29.8745 20.7867V20.7867ZM37.1703 29.7735C37.1703 30.9817 36.1036 31.7503 34.967 31.6816C34.9618 31.241 34.9589 30.8003 34.9598 30.3597C34.9598 29.8296 34.1397 29.8296 34.1397 30.3597V32.163C34.1397 32.565 33.8127 32.892 33.4107 32.892C33.0087 32.892 32.6816 32.565 32.6816 32.163V23.5628C32.7205 22.5979 34.0988 22.5935 34.1397 23.5628V28.177C34.1397 28.7071 34.9598 28.7071 34.9598 28.177V23.9034C36.0992 23.8389 37.1703 24.5928 37.1703 25.8115V29.7735Z" fill="#FFCD2C"/>
<path d="M27.7253 34.098C28.0503 34.1759 28.2402 34.05 28.2949 33.7203V32.3815C32.2229 28.5624 29.4822 21.8133 23.9951 21.8203C20.6003 21.8203 17.8383 24.5818 17.8383 27.9761C17.7863 32.38 22.5351 35.4461 26.5234 33.5902L27.7253 34.098ZM26.3346 32.773C22.8675 34.5189 18.6107 31.8622 18.6584 27.976C18.6583 25.0339 21.0525 22.6403 23.9952 22.6403C28.8286 22.6381 31.1641 28.6398 27.6073 31.9035C27.5229 31.9812 27.4749 32.0906 27.4749 32.2053V33.102L26.6741 32.7637C26.565 32.7175 26.4411 32.7209 26.3346 32.773V32.773Z" fill="#FFCD2C"/>
<path d="M22.8986 26.0861H25.092C25.6221 26.0861 25.6221 25.2661 25.092 25.2661H22.8986C22.3684 25.2661 22.3684 26.0861 22.8986 26.0861Z" fill="#FFCD2C"/>
<path d="M25.0919 29.8657H22.8986C22.3684 29.8657 22.3684 30.6858 22.8986 30.6858H25.0919C25.6221 30.6858 25.6221 29.8657 25.0919 29.8657Z" fill="#FFCD2C"/>
<path d="M26.265 27.5659H21.7247C21.1946 27.5659 21.1946 28.3859 21.7247 28.3859H26.265C26.7951 28.3859 26.7951 27.5659 26.265 27.5659Z" fill="#FFCD2C"/>
<path d="M29.9103 13.179C28.9418 13.1605 28.123 13.9613 28.123 14.93C28.123 15.4601 28.9431 15.4601 28.9431 14.93C28.9431 14.4253 29.3874 13.9878 29.8938 13.9989C30.3793 14.0087 30.7793 14.3957 30.8044 14.8799C30.8318 15.4064 30.4023 15.8613 29.8744 15.8613C29.648 15.8613 29.4644 16.0449 29.4644 16.2714V17.6739C29.4644 17.9004 29.648 18.084 29.8744 18.084C30.1009 18.084 30.2844 17.9004 30.2844 17.6739V16.6322C31.0943 16.4358 31.6666 15.6702 31.6233 14.8374C31.576 13.9259 30.8236 13.1974 29.9103 13.179Z" fill="#FFCD2C"/>
<path d="M29.8746 18.6719C29.3469 18.6719 29.3461 19.4919 29.8746 19.4919C30.4022 19.4919 30.4031 18.6719 29.8746 18.6719Z" fill="#FFCD2C"/>
</svg>
