<svg width="48" height="48" viewBox="0 0 48 48" fill="none" xmlns="http://www.w3.org/2000/svg">
<circle opacity="0.2" cx="24" cy="24" r="24" fill="#FFCD2C"/>
<g clip-path="url(#clip0_276_6462)">
<path d="M38.0006 13.5048C38.0006 13.2786 37.8173 13.0952 37.591 13.0952H32.4155C32.1892 13.0952 32.0059 13.2786 32.0059 13.5048V14.8724C32.0059 15.402 32.8251 15.402 32.8251 14.8724V13.9144H37.1814V17.8193H35.65C35.4238 17.8193 35.2404 18.0027 35.2404 18.2289V19.8001H32.8251V17.0545C32.8251 16.5249 32.0059 16.5249 32.0059 17.0545V20.2097C32.0059 20.4359 32.1892 20.6193 32.4155 20.6193H35.65C35.7599 20.6193 35.8661 20.5744 35.9425 20.4964L37.8835 18.5156C37.9579 18.4399 38.0006 18.3347 38.0006 18.2289V13.5048ZM36.0596 18.6386H36.6161L36.0596 19.2064V18.6386Z" fill="#FFCD2C"/>
<path d="M26.7201 15.9832C27.1661 16.1588 27.6539 16.1492 28.0939 15.9568C28.9991 15.5609 29.4174 14.5034 29.0262 13.5995C28.8368 13.1619 28.4882 12.8247 28.0446 12.65C27.5988 12.4746 27.1109 12.4839 26.6708 12.6764C25.7656 13.0723 25.3473 14.1298 25.7385 15.0338C25.9278 15.4713 26.2764 15.8085 26.7201 15.9832ZM26.999 13.427C27.2378 13.3226 27.5026 13.3171 27.7444 13.4123C27.984 13.5066 28.1721 13.6886 28.2744 13.9248C28.4868 14.4158 28.2586 14.9906 27.7656 15.2062C27.5264 15.3108 27.2616 15.3159 27.0202 15.2209C26.7807 15.1266 26.5925 14.9446 26.4903 14.7084C26.2779 14.2175 26.5061 13.6427 26.999 13.427Z" fill="#FFCD2C"/>
<path d="M36.0277 21.1028H26.4141C27.0229 20.2293 27.2401 19.0682 26.9938 18.0241L27.2171 17.7978C27.3367 17.8001 27.4564 17.7962 27.5757 17.7863L28.0729 18.2558C28.2136 18.3716 28.3621 18.3974 28.5182 18.3332L29.4449 17.9279C29.5945 17.8625 29.691 17.7144 29.6904 17.5511L29.6877 16.8634C29.7768 16.782 29.8618 16.6961 29.9421 16.6061L30.6236 16.5846C30.7867 16.5795 30.9314 16.4779 30.9914 16.326L31.3638 15.3858C31.4243 15.2331 31.3877 15.0589 31.2707 14.9435L30.826 14.5047C30.8354 14.3565 30.835 14.2079 30.8249 14.06L31.2523 13.6074C31.3648 13.4883 31.3955 13.3138 31.3305 13.1635L30.9305 12.2391C30.8651 12.0879 30.7158 11.9883 30.5508 11.9921L29.9318 11.9979C29.8315 11.8903 29.7241 11.7892 29.6103 11.6954L29.5941 11.0689C29.5899 10.9042 29.4873 10.7581 29.3339 10.698L28.3958 10.3309C28.2432 10.2712 28.0699 10.3081 27.955 10.4246L27.4745 10.9115C27.3549 10.9092 27.2352 10.9131 27.116 10.923L26.6187 10.4535C26.4992 10.3408 26.324 10.3102 26.1734 10.3761L25.2467 10.7813C25.0971 10.8468 25.0006 10.9949 25.0012 11.1582L25.0039 11.8459C24.9148 11.9273 24.8298 12.0132 24.7496 12.1031L24.068 12.1246C23.9049 12.1297 23.7602 12.2313 23.7002 12.3832L23.3278 13.3233C23.2673 13.4761 23.3039 13.6502 23.4209 13.7657L23.8656 14.2045C23.8562 14.3528 23.8566 14.5014 23.8667 14.6492L23.5252 15.0108C20.2689 14.7161 18.1114 18.42 19.9639 21.1027H12.1716C10.0913 21.1887 10.0912 24.1537 12.1716 24.2397H12.7604L17.276 28.8924C17.6461 29.2737 18.232 28.7011 17.8639 28.3218L13.9021 24.2398H34.2895L29.4697 29.1489C29.051 28.5757 28.0761 28.5989 27.7515 29.2605L26.3874 32.0495C25.4788 31.0949 23.9153 31.8209 23.9221 33.0834H22.4851L19.3922 29.8965C19.0234 29.5165 18.4355 30.087 18.8043 30.4671L21.9022 33.659V35.5117C21.9022 35.6573 21.9795 35.7919 22.1052 35.8653L23.9849 36.9635C24.337 38.1087 25.9419 38.311 26.5701 37.2923C27.0511 37.7207 27.6651 37.9731 28.3135 37.9731C29.2622 37.9731 30.211 37.9683 31.1597 37.9717C31.667 37.9505 32.0757 37.6329 32.219 37.1462C32.3287 36.7176 33.1831 33.3803 33.26 33.0805C33.4392 32.3997 32.9168 31.7114 32.2098 31.7114C31.3593 31.7145 30.5088 31.714 29.6582 31.7143V30.1259C29.6604 30.1239 29.6624 30.1218 29.6645 30.1197L35.4375 24.2398H36.0277C38.1086 24.1536 38.1077 21.1886 36.0277 21.1028ZM22.7215 33.9026H23.922V35.9781L22.7215 35.2766V33.9026ZM25.352 37.1547C25.0152 37.1547 24.7412 36.8807 24.7412 36.544V33.0347C24.7412 32.2492 25.9558 32.2479 25.9558 33.0267V36.5505C25.9559 36.8802 25.6881 37.1547 25.352 37.1547ZM32.2098 32.5307C32.4152 32.5307 32.492 32.7055 32.4663 32.8773C32.3895 33.1771 31.535 36.5145 31.4252 36.9434C31.3867 37.0745 31.2988 37.1445 31.1626 37.1525C30.6653 37.1508 28.7333 37.154 28.3134 37.154C27.6926 37.154 27.2003 36.7968 26.7818 36.3761V33.1076L28.4808 29.6338C28.5739 29.4829 28.839 29.5514 28.839 29.7325V32.1241C28.839 32.3503 29.0223 32.5337 29.2486 32.5337C29.7594 32.5337 32.0371 32.5307 32.2098 32.5307ZM22.5497 19.4307C21.8684 18.8256 22.3467 17.6983 23.251 17.7507C23.7292 17.7803 24.124 18.1785 24.15 18.6572C24.166 18.9526 24.0488 19.2345 23.8282 19.4308C23.5899 19.6427 23.6928 20.0223 23.9578 20.1207C24.4443 20.3015 24.8542 20.6557 25.1097 21.1028H21.2669C21.5211 20.6528 21.9264 20.3041 22.42 20.1207C22.6851 20.0223 22.7879 19.6427 22.5497 19.4307ZM24.6987 14.7431C24.6715 14.5306 24.6712 14.3142 24.6979 14.1C24.7136 13.9737 24.6697 13.8473 24.5791 13.7578L24.1893 13.3731L24.3627 12.9351L24.9576 12.9163C25.0775 12.9126 25.1899 12.8563 25.2648 12.7625C25.3854 12.6113 25.5228 12.4726 25.6729 12.3504C25.7689 12.2723 25.8243 12.1549 25.8239 12.0312L25.8216 11.4243L26.2535 11.2354L26.6916 11.649C26.7822 11.7345 26.9066 11.7742 27.0301 11.7567C27.2213 11.7297 27.4157 11.7233 27.6076 11.7376C27.7278 11.7465 27.8452 11.7023 27.9296 11.6168L28.3486 11.1922L28.7822 11.3619L28.7965 11.9108C28.7998 12.0382 28.8622 12.1568 28.9653 12.2316C29.1391 12.3578 29.2961 12.5052 29.432 12.67C29.5107 12.7653 29.6295 12.8202 29.7518 12.8189L30.2867 12.8139L30.4716 13.2411L30.1015 13.6329C30.0172 13.7222 29.9774 13.8445 29.993 13.9663C30.0202 14.179 30.0206 14.3952 29.9939 14.6092C29.9781 14.7355 30.022 14.862 30.1126 14.9515L30.5024 15.3362L30.329 15.7743L29.7342 15.793C29.6142 15.7968 29.5019 15.853 29.427 15.9468C29.3063 16.0981 29.169 16.2367 29.0188 16.359C28.9229 16.4371 28.8674 16.5544 28.8679 16.6781L28.8702 17.2851L28.4383 17.474L28.0001 17.0603C27.9095 16.9749 27.7848 16.9353 27.6616 16.9526C27.4705 16.9797 27.2761 16.9861 27.0841 16.9718C26.934 16.9609 26.7815 17.0566 26.6873 17.1684C26.2343 16.2571 25.4355 15.5468 24.4638 15.2102C24.5908 15.1025 24.7203 14.9113 24.6987 14.7431ZM23.1889 15.8158C25.6193 15.7939 27.1192 18.5903 25.7654 20.5991C25.5104 20.185 25.1595 19.8392 24.7396 19.5899C24.9059 19.2971 24.9868 18.9599 24.9681 18.6128C24.9192 17.711 24.2027 16.9888 23.3017 16.933C21.9157 16.8405 20.9356 18.3841 21.6391 19.5897C21.2197 19.839 20.8683 20.1851 20.6128 20.5994C19.2583 18.59 20.7592 15.7937 23.1889 15.8158ZM36.0277 23.4205H12.1716C11.1775 23.3793 11.1782 21.9629 12.1716 21.922H36.0278C37.0219 21.9633 37.0212 23.3797 36.0277 23.4205Z" fill="#FFCD2C"/>
<path d="M12.6187 19.2953L14.1033 20.4004C14.3709 20.5996 14.7575 20.4016 14.7575 20.0718V19.2953H15.4991C16.2607 19.2953 16.8802 18.6756 16.8802 17.914V16.8467C17.062 16.8731 17.2442 16.8852 17.4269 16.8828C21.9658 16.6345 21.8756 10.1544 17.3383 10.0269C15.0426 10.0265 13.3759 12.4097 14.1448 14.5686H11.3811C10.6195 14.5686 10 15.1882 10 15.9498V17.9141C10 18.6757 10.6195 19.2953 11.3811 19.2953H12.6187V19.2953ZM17.3488 10.846C18.78 10.8262 19.9671 11.9822 19.9847 13.4212C20.0033 14.8597 18.8511 16.0451 17.4164 16.0636C17.1435 16.0676 16.8767 16.0294 16.623 15.9521C16.6046 15.9447 16.5854 15.9386 16.5657 15.9339C16.1952 15.8114 15.8545 15.6047 15.5668 15.3237C15.4025 15.1633 15.2621 14.9849 15.1473 14.793C15.1401 14.7787 15.132 14.7648 15.1231 14.7515C14.9051 14.3711 14.7862 13.9393 14.7804 13.4885C14.7618 12.05 15.914 10.8646 17.3488 10.846ZM10.8192 17.914V15.9498C10.8192 15.6399 11.0713 15.3878 11.3811 15.3878H14.5555C14.9219 15.9271 15.4649 16.3719 16.061 16.619V17.914C16.061 18.2239 15.8089 18.476 15.4991 18.476H14.3478C14.1216 18.476 13.9382 18.6594 13.9382 18.8856V19.2563L12.9991 18.5571C12.9284 18.5045 12.8426 18.476 12.7544 18.476H11.3811C11.0713 18.476 10.8192 18.2239 10.8192 17.914Z" fill="#FFCD2C"/>
<path d="M17.3795 15.2939C17.3882 15.2939 17.3969 15.2939 17.4057 15.2938C17.9339 15.2869 18.428 15.0741 18.7969 14.6947C19.1661 14.315 18.5787 13.7438 18.2096 14.1236C17.9934 14.3459 17.7041 14.4706 17.3951 14.4746C17.0874 14.4794 16.7936 14.3615 16.5718 14.1448C16.1928 13.7748 15.6205 14.3608 15.9994 14.7308C16.3718 15.0946 16.861 15.2939 17.3795 15.2939Z" fill="#FFCD2C"/>
<path d="M16.384 13.2064C16.9111 13.2064 16.912 12.3872 16.384 12.3872C15.8568 12.3872 15.8559 13.2064 16.384 13.2064Z" fill="#FFCD2C"/>
<path d="M18.3644 13.181C18.8916 13.181 18.8924 12.3618 18.3644 12.3618C17.8373 12.3618 17.8364 13.181 18.3644 13.181Z" fill="#FFCD2C"/>
</g>
<defs>
<clipPath id="clip0_276_6462">
<rect width="28" height="28" fill="white" transform="translate(10 10)"/>
</clipPath>
</defs>
</svg>
