 <svg width="48" height="48" viewBox="0 0 48 48" fill="none" xmlns="http://www.w3.org/2000/svg">
<circle opacity="0.2" cx="24" cy="24" r="24" fill="#FFCD2C"/>
<g clip-path="url(#clip0_276_6443)">
<path d="M37.5785 22.4129L35.4083 20.1352C34.174 18.8397 32.0175 20.5131 33.0345 22.0325C30.9476 22.3088 29.0089 23.2617 27.5053 24.7648C26.6641 25.6057 25.9979 26.5753 25.525 27.6294V15.0264C27.0349 15.886 28.5996 13.8048 27.3302 12.5961L25.0518 10.4267C24.4619 9.86491 23.5379 9.86497 22.9481 10.4266L20.6698 12.5961C19.4009 13.8043 20.9635 15.8846 22.4749 15.0262V16.8434C22.4749 17.3736 23.2952 17.3736 23.2952 16.8434V14.1317C23.2952 13.7781 22.8583 13.5908 22.6022 13.8346L22.2077 14.2102C21.5409 14.8451 20.5821 13.8123 21.2354 13.1902L23.5138 11.0207C23.7864 10.761 24.2135 10.761 24.4861 11.0207L26.7646 13.1902C27.4239 13.8181 26.4493 14.8361 25.7922 14.2102L25.3977 13.8346C25.1417 13.5908 24.7048 13.7781 24.7048 14.1317V36.4801C24.7048 37.3855 23.3026 37.3915 23.3026 36.4801L23.2952 19.0281C23.2952 18.4979 22.4749 18.4979 22.4749 19.0281V27.6504C22.0015 26.5882 21.332 25.6113 20.4853 24.7648C18.9838 23.2638 17.0483 22.3113 14.9646 22.0336C15.9763 20.5227 13.832 18.8334 12.5917 20.1353L10.4215 22.4129C9.85948 23.0027 9.85953 23.9266 10.4215 24.5162L12.5916 26.7939C13.7243 27.9826 15.7414 26.6729 15.1032 25.1525C16.3173 25.4205 17.4378 26.0306 18.3285 26.9211C19.5692 28.1614 20.2524 29.812 20.2524 31.5688V36.4801C20.2524 37.8237 21.9609 38.5105 22.8888 37.5232C23.4762 38.1483 24.5149 38.1523 25.1066 37.5282C26.0357 38.5081 27.7382 37.8212 27.7382 36.4801V32.9725C27.7382 32.4422 26.9179 32.4422 26.9179 32.9725V36.4801C26.9179 37.396 25.5251 37.3817 25.5251 36.4801V31.019C25.6562 28.8737 26.5536 26.8761 28.0853 25.3449C29.643 23.7877 31.711 22.8761 33.9083 22.7781C34.2532 22.7628 34.4251 22.3354 34.1869 22.0855L33.7937 21.6728C33.1714 21.0197 34.1794 20.0346 34.8146 20.7011L36.9847 22.9788C37.2443 23.2512 37.2443 23.678 36.9847 23.9504L34.8146 26.2281C34.1789 26.8954 33.1727 25.9081 33.7937 25.2564L34.1467 24.886C34.3983 24.6219 34.1892 24.1683 33.8233 24.1938C32.0353 24.3095 30.3516 25.0721 29.0821 26.3411C27.8809 27.542 27.1482 29.0652 26.9634 30.7462C26.9054 31.2733 27.7208 31.363 27.7787 30.8359C27.943 29.3424 28.5942 27.9888 29.6621 26.9212C30.5556 26.028 31.6798 25.417 32.8981 25.1503C32.2572 26.6715 34.2749 27.9835 35.4084 26.794L37.5786 24.5163C38.1404 23.9265 38.1404 23.0026 37.5785 22.4129ZM21.7774 37.1845C21.3888 37.1845 21.0726 36.8685 21.0726 36.4801V31.5688C21.1484 27.776 17.9594 24.3798 14.1778 24.1944C13.8219 24.1694 13.6076 24.6282 13.8539 24.8866L14.2061 25.2564C14.8286 25.9095 13.8206 26.8946 13.1854 26.228L11.0152 23.9504C10.7556 23.678 10.7556 23.2512 11.0152 22.9788L13.1854 20.7011C13.8213 20.034 14.8271 21.021 14.2061 21.6728L13.8127 22.0858C13.5746 22.3356 13.7461 22.7627 14.0909 22.7784C16.2848 22.8785 18.3497 23.7899 19.9052 25.3449C21.4809 26.9201 22.3853 28.9888 22.4748 31.2042V36.4801C22.4748 36.8631 22.1706 37.1845 21.7774 37.1845Z" fill="#FFCD2C"/>
<path d="M33.9377 14.7848C33.994 14.7848 34.0509 14.7733 34.1056 14.7487C34.3122 14.6558 34.4042 14.4129 34.3117 14.2062C34.2188 14 33.976 13.9076 33.7692 14.0005C33.5625 14.093 33.4706 14.3358 33.5636 14.5425C33.6314 14.6946 33.7813 14.7848 33.9377 14.7848Z" fill="#FFCD2C"/>
<path d="M28.8054 18.9327C29.0111 19.0504 29.1999 19.0096 29.3719 18.8102C29.495 18.6199 29.4403 18.3661 29.25 18.2431C29.0597 18.1206 28.8054 18.1753 28.6829 18.3656C28.5599 18.5558 28.6146 18.8096 28.8054 18.9327Z" fill="#FFCD2C"/>
<path d="M27.2755 21.4812C27.2263 21.7022 27.3652 21.9215 27.5867 21.9707C27.8016 22.0217 28.0277 21.8822 28.0761 21.66C28.1253 21.4391 27.9864 21.2198 27.7649 21.17C27.544 21.1209 27.3248 21.2603 27.2755 21.4812Z" fill="#FFCD2C"/>
<path d="M31.1739 16.5315C31.2685 16.5315 31.3637 16.4986 31.4407 16.4324C31.613 16.2848 31.6327 16.0256 31.4851 15.8538C31.3374 15.6821 31.0788 15.6624 30.9065 15.8096C30.7348 15.9572 30.7151 16.2164 30.8627 16.3881C30.9436 16.4828 31.0585 16.5315 31.1739 16.5315Z" fill="#FFCD2C"/>
<path d="M16.5593 16.4324C16.7581 16.5771 16.9508 16.5623 17.1374 16.3881C17.285 16.2159 17.2653 15.9572 17.0931 15.8096C16.9214 15.6624 16.6627 15.6821 16.515 15.8538C16.3674 16.0261 16.3871 16.2848 16.5593 16.4324Z" fill="#FFCD2C"/>
<path d="M20.3237 21.9812C20.3538 21.9812 20.3833 21.9779 20.4134 21.9713C20.9394 21.8343 20.7689 21.0701 20.2351 21.1707C20.0137 21.2199 19.8748 21.4392 19.924 21.6601C19.9666 21.851 20.1362 21.9812 20.3237 21.9812Z" fill="#FFCD2C"/>
<path d="M13.8942 14.7487C14.0878 14.8358 14.349 14.7377 14.4367 14.5425C14.5292 14.3358 14.4373 14.093 14.2306 14.0005C14.0238 13.9076 13.781 14 13.6886 14.2062C13.5956 14.4129 13.6875 14.6558 13.8942 14.7487Z" fill="#FFCD2C"/>
<path d="M18.9733 18.9983C19.0493 18.9983 19.1265 18.9769 19.1948 18.9327C19.3857 18.8096 19.4404 18.5558 19.3173 18.3656C19.1948 18.1753 18.9405 18.1206 18.7502 18.2431C18.5599 18.3661 18.5052 18.6199 18.6283 18.8102C18.7065 18.9321 18.8383 18.9983 18.9733 18.9983Z" fill="#FFCD2C"/>
</g>
<defs>
<clipPath id="clip0_276_6443">
<rect width="28" height="28" fill="white" transform="translate(10 10)"/>
</clipPath>
</defs>
</svg>