<svg width="16" height="16" viewBox="0 0 16 16" fill="none" xmlns="http://www.w3.org/2000/svg">
<path d="M8.07339 10.2604L5.48672 12.8471C5.17355 13.1493 4.75529 13.3182 4.32005 13.3182C3.88481 13.3182 3.46656 13.1493 3.15339 12.8471C2.99979 12.6941 2.87792 12.5122 2.79476 12.312C2.7116 12.1118 2.66879 11.8972 2.66879 11.6804C2.66879 11.4636 2.7116 11.2489 2.79476 11.0487C2.87792 10.8485 2.99979 10.6667 3.15339 10.5137L5.74005 7.92705C5.86559 7.80152 5.93612 7.63126 5.93612 7.45372C5.93612 7.27619 5.86559 7.10592 5.74005 6.98039C5.61452 6.85485 5.44425 6.78433 5.26672 6.78433C5.08919 6.78433 4.91892 6.85485 4.79339 6.98039L2.20672 9.57372C1.68562 10.1409 1.4038 10.8875 1.4201 11.6576C1.43641 12.4276 1.74957 13.1616 2.29421 13.7062C2.83884 14.2509 3.57283 14.564 4.34289 14.5803C5.11294 14.5966 5.85952 14.3148 6.42672 13.7937L9.02005 11.2071C9.14559 11.0815 9.21612 10.9113 9.21612 10.7337C9.21612 10.5562 9.14559 10.3859 9.02005 10.2604C8.89452 10.1349 8.72426 10.0643 8.54672 10.0643C8.36919 10.0643 8.19892 10.1349 8.07339 10.2604ZM13.7934 2.20706C13.2326 1.64973 12.474 1.33691 11.6834 1.33691C10.8927 1.33691 10.1342 1.64973 9.57339 2.20706L6.98005 4.79372C6.9179 4.85588 6.86859 4.92967 6.83495 5.01089C6.80131 5.0921 6.78399 5.17915 6.78399 5.26706C6.78399 5.35496 6.80131 5.44201 6.83495 5.52322C6.86859 5.60444 6.9179 5.67823 6.98005 5.74039C7.04221 5.80255 7.11601 5.85185 7.19722 5.88549C7.27844 5.91913 7.36548 5.93645 7.45339 5.93645C7.54129 5.93645 7.62834 5.91913 7.70955 5.88549C7.79077 5.85185 7.86456 5.80255 7.92672 5.74039L10.5134 3.15372C10.8266 2.85147 11.2448 2.68256 11.6801 2.68256C12.1153 2.68256 12.5335 2.85147 12.8467 3.15372C13.0003 3.30671 13.1222 3.48853 13.2054 3.68873C13.2885 3.88894 13.3313 4.1036 13.3313 4.32039C13.3313 4.53718 13.2885 4.75184 13.2054 4.95204C13.1222 5.15225 13.0003 5.33406 12.8467 5.48705L10.2601 8.07372C10.1976 8.1357 10.148 8.20943 10.1141 8.29067C10.0803 8.37191 10.0629 8.45905 10.0629 8.54705C10.0629 8.63506 10.0803 8.7222 10.1141 8.80344C10.148 8.88468 10.1976 8.95841 10.2601 9.02039C10.322 9.08287 10.3958 9.13247 10.477 9.16632C10.5582 9.20016 10.6454 9.21759 10.7334 9.21759C10.8214 9.21759 10.9085 9.20016 10.9898 9.16632C11.071 9.13247 11.1447 9.08287 11.2067 9.02039L13.7934 6.42705C14.3507 5.86624 14.6635 5.1077 14.6635 4.31706C14.6635 3.52641 14.3507 2.76787 13.7934 2.20706ZM5.88672 10.1137C5.94901 10.1755 6.02289 10.2244 6.10412 10.2576C6.18534 10.2907 6.27232 10.3076 6.36005 10.3071C6.44779 10.3076 6.53477 10.2907 6.61599 10.2576C6.69722 10.2244 6.77109 10.1755 6.83339 10.1137L10.1134 6.83372C10.2389 6.70819 10.3094 6.53792 10.3094 6.36039C10.3094 6.18285 10.2389 6.01259 10.1134 5.88705C9.98785 5.76152 9.81759 5.69099 9.64005 5.69099C9.46252 5.69099 9.29226 5.76152 9.16672 5.88705L5.88672 9.16705C5.82423 9.22903 5.77464 9.30276 5.74079 9.384C5.70695 9.46524 5.68952 9.55238 5.68952 9.64039C5.68952 9.7284 5.70695 9.81553 5.74079 9.89677C5.77464 9.97801 5.82423 10.0517 5.88672 10.1137Z" fill="#3AC430"/>
</svg>
