<svg width="48" height="48" viewBox="0 0 48 48" fill="none" xmlns="http://www.w3.org/2000/svg">
<circle opacity="0.2" cx="24" cy="24" r="24" fill="#FFCD2C"/>
<path d="M32.8028 26.1059C31.5591 26.0821 30.5078 27.1104 30.5078 28.3542C30.5078 29.0349 31.5608 29.0349 31.5608 28.3542C31.5608 27.7061 32.1313 27.1444 32.7816 27.1586C33.4049 27.1712 33.9185 27.6681 33.9508 28.2899C33.9859 28.9659 33.4345 29.5501 32.7566 29.5501C32.4659 29.5501 32.2302 29.7858 32.2302 30.0766V31.8775C32.2302 32.1683 32.4659 32.404 32.7566 32.404C33.0474 32.404 33.2831 32.1683 33.2831 31.8775V30.5398C34.3231 30.2876 35.0578 29.3047 35.0023 28.2353C34.9416 27.0649 33.9754 26.1295 32.8028 26.1059Z" fill="#FFCD2C"/>
<path d="M32.7586 33.1562C32.081 33.1562 32.0799 34.2092 32.7586 34.2092C33.436 34.2092 33.4372 33.1562 32.7586 33.1562Z" fill="#FFCD2C"/>
<path d="M42.1362 29.345V30.789C42.1173 30.8588 42.089 30.9273 42.0815 30.9984C41.8972 32.7832 41.235 34.3705 40.1061 35.7622C39.542 36.4571 38.8817 37.0489 38.1352 37.5432C37.878 37.7136 37.5975 37.6627 37.4447 37.435C37.2975 37.2156 37.351 36.959 37.5862 36.7747C37.6604 36.7169 37.7428 36.6703 37.8176 36.6131C40.3476 34.6837 41.518 32.1297 41.1017 28.9734C40.4187 23.7875 35.1184 20.6928 30.2169 22.5467C26.5536 23.9328 24.3827 28.0439 25.2832 31.8908C26.0863 35.322 29.022 37.8212 32.5444 38.0834C33.7103 38.1702 34.8354 37.9985 35.9347 37.6143C36.236 37.5093 36.4881 37.613 36.5875 37.8633C36.6925 38.1275 36.563 38.3847 36.2511 38.5029C36.0467 38.5803 35.8385 38.6589 35.6253 38.7023C34.9725 38.835 34.3166 38.9507 33.6625 39.0733H32.6582C32.0174 38.9595 31.3772 38.8438 30.7357 38.7337C30.681 38.7243 30.615 38.7381 30.5628 38.7614C30.3389 38.8614 30.1181 38.9689 29.8968 39.0733H11.3181C10.2585 38.6815 10 38.3067 10 37.1609C10 27.6628 10 18.164 10 8.66592C10 7.62889 10.6251 7.00063 11.6565 7C17.6196 7 23.5821 7 29.5446 7.00126C29.6798 7.00126 29.8182 7.00503 29.9496 7.03207C30.73 7.19433 31.1803 7.79617 31.181 8.68542C31.1828 12.7336 31.1822 16.7824 31.1822 20.8305C31.1822 20.9638 31.1822 21.0978 31.1822 21.2582C31.3086 21.2462 31.3998 21.2393 31.4904 21.2286C31.9262 21.177 32.3601 21.0934 32.7972 21.0758C36.9114 20.911 40.6231 23.5825 41.7658 27.5395C41.9356 28.1281 42.0154 28.7419 42.1374 29.3444L42.1362 29.345ZM28.5736 22.2776C29.0559 22.06 29.4936 21.8399 29.949 21.6676C30.1779 21.5808 30.2351 21.4669 30.2351 21.2349C30.2282 17.0723 30.2301 12.9097 30.2294 8.74642C30.2294 8.11879 30.0565 7.94648 29.4289 7.94648C23.5406 7.94648 17.6517 7.94648 11.7634 7.94648C11.1213 7.94648 10.9452 8.12257 10.9452 8.76529C10.9452 18.2728 10.9452 27.7797 10.9452 37.2873C10.9452 37.9375 11.1194 38.1155 11.7584 38.1155C17.4165 38.1155 23.0752 38.1155 28.7333 38.1155C28.8195 38.1155 28.905 38.1048 29.0691 38.0935C28.9276 38.013 28.8572 37.9727 28.7861 37.9331C27.9692 37.474 27.2278 36.9143 26.5964 36.2213C26.4322 36.0408 26.2668 35.9779 26.0285 35.9779C22.0539 35.9842 18.0793 35.9829 14.1048 35.9817C13.1293 35.9817 12.6181 35.4685 12.6168 34.4906C12.6149 33.058 12.6149 31.6247 12.6168 30.1921C12.6181 29.2111 13.1212 28.713 14.1085 28.713C17.3611 28.7124 20.6144 28.713 23.867 28.713C23.9896 28.713 24.1123 28.713 24.206 28.713C24.399 28.008 24.582 27.342 24.7694 26.6578H24.3732C20.9219 26.6578 17.4699 26.659 14.0186 26.6565C13.1545 26.6565 12.6225 26.1346 12.6187 25.278C12.6124 23.7718 12.6187 22.2656 12.6155 20.7594C12.6149 20.3739 12.7325 20.0425 13.008 19.7689C13.3212 19.4583 13.7117 19.3897 14.1331 19.3904C16.9882 19.3935 19.844 19.3922 22.6991 19.3922C24.1424 19.3922 25.5857 19.391 27.029 19.3922C28.0692 19.3935 28.5717 19.8954 28.5723 20.928C28.5723 21.367 28.5723 21.8053 28.5723 22.277L28.5736 22.2776ZM20.6062 20.3488C18.4315 20.3488 16.2568 20.3482 14.0827 20.3494C13.6746 20.3494 13.5689 20.44 13.5683 20.8022C13.5652 22.287 13.5652 23.7712 13.5683 25.256C13.5689 25.595 13.6821 25.7107 14.0186 25.7107C17.6988 25.7126 21.3785 25.7138 25.0587 25.7044C25.165 25.7044 25.3159 25.617 25.3707 25.5252C25.926 24.602 26.6133 23.7976 27.4372 23.1033C27.5384 23.0184 27.6139 22.8467 27.6183 22.7128C27.6378 22.1172 27.6271 21.521 27.6265 20.9255C27.6258 20.4356 27.5378 20.3488 27.036 20.3488C24.8927 20.3488 22.7494 20.3488 20.6062 20.3488ZM24.1349 29.6588H23.8355C20.593 29.6588 17.3498 29.6588 14.1073 29.6588C13.6507 29.6588 13.5671 29.745 13.5664 30.2154C13.5658 31.638 13.5658 33.0605 13.5664 34.483C13.5664 34.9434 13.652 35.0283 14.1198 35.0289C17.8542 35.0295 21.5885 35.0289 25.3229 35.0289C25.4103 35.0289 25.4971 35.0151 25.5977 35.0069C24.3135 32.4146 24.2808 32.2945 24.1349 29.6595V29.6588Z" fill="#FFCD2C"/>
<path d="M33.1248 36.8413C29.4087 36.8545 26.3938 33.8353 26.3674 30.0745C26.3416 26.3867 29.3684 23.3001 33.0323 23.2775C36.8434 23.2542 39.9105 26.2647 39.9312 30.0481C39.9513 33.7818 36.9 36.8275 33.1248 36.8413ZM33.1726 24.2334C29.9199 24.2359 27.3119 26.8112 27.3157 30.0173C27.3195 33.2932 29.9074 35.8974 33.1531 35.8917C36.4025 35.8861 38.9703 33.3082 38.9816 30.0405C38.9923 26.8609 36.3616 24.2309 33.1719 24.2334H33.1726Z" fill="#FFCD2C"/>
<path d="M20.5777 17.3515C18.4131 17.3515 16.2491 17.3522 14.0845 17.3515C13.1474 17.3515 12.6217 16.8333 12.6198 15.9032C12.6166 14.4392 12.616 12.9757 12.6198 11.5117C12.6223 10.5998 13.1506 10.0791 14.0681 10.0791C18.4181 10.0778 22.7675 10.0778 27.1175 10.0791C28.0426 10.0791 28.5734 10.6143 28.5741 11.5431C28.5759 12.9965 28.5759 14.4498 28.5741 15.9032C28.5728 16.8101 28.0345 17.3509 27.1333 17.3515C24.9479 17.3534 22.7625 17.3515 20.5771 17.3515H20.5777ZM20.6098 16.4069C22.7644 16.4069 24.919 16.4069 27.0735 16.4069C27.5156 16.4069 27.6269 16.2937 27.6276 15.8479C27.6288 14.4153 27.6295 12.982 27.6276 11.5494C27.6276 11.145 27.5081 11.0262 27.1031 11.0262C22.7625 11.0249 18.4219 11.0249 14.0813 11.0262C13.6732 11.0262 13.5688 11.135 13.5688 11.5519C13.5675 12.9638 13.5682 14.3756 13.5688 15.7881C13.5688 16.3315 13.6436 16.4082 14.1782 16.4082C16.3221 16.4082 18.4666 16.4082 20.6104 16.4082L20.6098 16.4069Z" fill="#FFCD2C"/>
<path d="M20.5865 21.37C22.331 21.37 24.0762 21.37 25.8207 21.37C25.9251 21.37 26.0333 21.3587 26.1333 21.3813C26.3741 21.4361 26.5175 21.5895 26.5156 21.8455C26.5144 22.1008 26.3691 22.2517 26.1282 22.3058C26.0383 22.3259 25.9408 22.3152 25.8471 22.3152C22.3467 22.3152 18.847 22.3152 15.3466 22.3152C15.2529 22.3152 15.1566 22.3234 15.0648 22.3071C14.817 22.2624 14.6692 22.1014 14.6642 21.8561C14.6586 21.5952 14.8076 21.4247 15.0699 21.3788C15.1717 21.3612 15.278 21.37 15.3824 21.37C17.1169 21.37 18.8514 21.37 20.5858 21.37H20.5865Z" fill="#FFCD2C"/>
<path d="M16.7065 23.744C17.1976 23.744 17.6888 23.7389 18.1793 23.7458C18.5126 23.7509 18.7258 23.949 18.7177 24.2257C18.7101 24.493 18.5038 24.6879 18.1888 24.6898C17.1857 24.6961 16.1832 24.6967 15.1802 24.6898C14.8682 24.6879 14.6601 24.486 14.6563 24.22C14.6525 23.9439 14.8663 23.7502 15.2015 23.7458C15.7028 23.7396 16.2046 23.744 16.7058 23.7446L16.7065 23.744Z" fill="#FFCD2C"/>
<path d="M19.0434 31.6325C17.8315 31.6325 16.6196 31.6325 15.4078 31.6325C15.2933 31.6325 15.177 31.6344 15.0638 31.6181C14.8091 31.581 14.6732 31.4124 14.6644 31.1697C14.6563 30.9382 14.7833 30.7703 15.0147 30.7118C15.1242 30.6842 15.2418 30.6817 15.3556 30.6817C17.8108 30.6798 20.2653 30.6804 22.7205 30.6804C22.7834 30.6804 22.8463 30.6779 22.9085 30.6823C23.2179 30.7062 23.4248 30.9011 23.4217 31.1653C23.4186 31.4307 23.2142 31.6269 22.8972 31.6294C21.9155 31.6369 20.9332 31.6332 19.9515 31.6338C19.6484 31.6338 19.3459 31.6338 19.0428 31.6338L19.0434 31.6325Z" fill="#FFCD2C"/>
<path d="M17.0272 33.995C16.4222 33.995 15.8172 33.9982 15.2116 33.9937C14.8739 33.9912 14.6607 33.8076 14.6563 33.5309C14.6519 33.2548 14.8689 33.0517 15.1984 33.0504C16.4191 33.046 17.6398 33.0454 18.8604 33.0504C19.1887 33.0517 19.4057 33.2579 19.3994 33.534C19.3931 33.812 19.1818 33.9912 18.8416 33.9937C18.2366 33.9975 17.6316 33.995 17.026 33.995H17.0272Z" fill="#FFCD2C"/>
<path d="M22.2747 33.9959C21.815 33.9959 21.3553 33.9996 20.8956 33.9946C20.5522 33.9908 20.3509 33.8122 20.3516 33.5248C20.3516 33.2393 20.556 33.0525 20.8962 33.0506C21.8156 33.0456 22.7357 33.0456 23.6551 33.0506C23.9972 33.0525 24.1972 33.2374 24.1972 33.5255C24.1972 33.8166 24.0016 33.9908 23.6551 33.9946C23.1954 33.9996 22.7357 33.9959 22.276 33.9959H22.2747Z" fill="#FFCD2C"/>
<path d="M20.5995 12.0555C22.3151 12.0555 24.0301 12.0555 25.7457 12.0555C25.8608 12.0555 25.9765 12.053 26.0903 12.0662C26.3557 12.0982 26.5085 12.2504 26.5142 12.5215C26.5199 12.7944 26.3633 12.946 26.1061 12.9957C26.0149 13.0133 25.9186 13.0076 25.8243 13.0076C22.3308 13.0076 18.8374 13.0082 15.3439 13.0064C15.22 13.0064 15.0571 13.0252 14.981 12.9579C14.8458 12.8391 14.698 12.6686 14.6754 12.5039C14.6458 12.2856 14.8062 12.1127 15.0464 12.0743C15.1697 12.0548 15.2967 12.0561 15.4219 12.0555C17.1475 12.0542 18.8738 12.0548 20.5995 12.0548V12.0555Z" fill="#FFCD2C"/>
<path d="M17.282 15.3723C16.5927 15.3723 15.9041 15.3754 15.2148 15.371C14.8733 15.3685 14.662 15.188 14.6564 14.912C14.6501 14.6271 14.874 14.4283 15.228 14.4277C16.5959 14.4239 17.9631 14.4271 19.3309 14.4258C19.5818 14.4258 19.8183 14.4956 19.8623 14.7591C19.8887 14.9157 19.8177 15.1245 19.7183 15.2541C19.6498 15.3434 19.4567 15.3654 19.3183 15.3679C18.6398 15.3786 17.9612 15.3729 17.2826 15.3729L17.282 15.3723Z" fill="#FFCD2C"/>
<path d="M22.2248 15.3674C21.933 15.3674 21.6405 15.3755 21.3494 15.3648C21.0506 15.3541 20.8639 15.1705 20.8595 14.907C20.855 14.6435 21.0393 14.4353 21.3324 14.4284C21.926 14.4146 22.5203 14.414 23.114 14.4297C23.4058 14.4379 23.5794 14.6504 23.5681 14.9215C23.5574 15.1818 23.3888 15.3516 23.0996 15.3636C22.8084 15.3755 22.5159 15.3661 22.2241 15.3661V15.3674H22.2248Z" fill="#FFCD2C"/>
</svg>
