<svg width="48" height="48" viewBox="0 0 48 48" fill="none" xmlns="http://www.w3.org/2000/svg">
<circle opacity="0.2" cx="24" cy="24" r="24" fill="#FFCD2C"/>
<path fill-rule="evenodd" clip-rule="evenodd" d="M21.3859 9.61389C19.9375 9.79932 18.7205 10.6063 18.0207 11.8457C17.6623 12.4803 17.5551 12.944 17.5219 14.0039L17.4918 14.9644L16.67 14.9899C16.0157 15.0103 15.7908 15.0411 15.5666 15.1409C15.1859 15.3104 14.7998 15.7393 14.6323 16.1788C14.5346 16.435 14.1317 18.8605 13.2473 24.5159C12.5613 28.9024 12 32.59 12 32.7105C12 33.267 12.3376 33.7765 12.8987 34.0671L13.2202 34.2335L16.8053 34.2508L20.3904 34.2681L20.5753 34.0866C20.8005 33.8655 20.8368 33.5943 20.6817 33.2916C20.5191 32.9745 20.5181 32.9744 16.9435 32.9744H13.6212L13.4661 32.8221C13.3603 32.7183 13.321 32.6256 13.3426 32.5304C13.3601 32.4537 13.8969 29.0327 14.5356 24.9283C15.9444 15.8755 15.7971 16.7306 15.9859 16.5102C16.1401 16.3305 16.1448 16.3294 16.8237 16.3294H17.5064V17.9018V19.4742L17.7191 19.683C17.9562 19.9156 18.2033 19.9541 18.4985 19.8043C18.798 19.6523 18.8204 19.517 18.8204 17.862V16.3294H21.8239H24.8274V17.9018V19.4742L25.0401 19.683C25.2771 19.9156 25.5243 19.9541 25.8195 19.8043C26.119 19.6523 26.1414 19.517 26.1414 17.862V16.3294H26.8513C27.6419 16.3294 27.7194 16.3641 27.8321 16.7675C27.8639 16.8812 28.087 18.2457 28.3279 19.7997C28.5688 21.3536 28.7955 22.7272 28.8318 22.852C29.0063 23.4539 29.8116 23.5068 30.0561 22.9326C30.1324 22.7531 30.093 22.432 29.6456 19.5896C29.1102 16.1876 29.0722 16.0379 28.6184 15.5448C28.23 15.1229 27.9287 15.0215 26.9705 14.9906L26.1414 14.9639V14.121C26.1414 12.8699 25.9427 12.2174 25.2839 11.3053C24.7634 10.5847 23.8215 9.95901 22.9189 9.73434C22.5051 9.63133 21.7271 9.57022 21.3859 9.61389ZM22.6416 11.0234C23.7416 11.3437 24.53 12.1717 24.7582 13.2461C24.7963 13.4251 24.8274 13.888 24.8274 14.2748V14.9782H21.8239H18.8204L18.8209 14.3793C18.8215 13.5375 18.9134 13.0521 19.1698 12.5358C19.5294 11.8116 20.145 11.291 20.9352 11.043C21.3908 10.9 22.1866 10.8909 22.6416 11.0234ZM27.6841 24.8383C24.2351 25.4771 21.7527 28.5648 21.9729 31.9419C22.1835 35.1705 24.4973 37.7187 27.7683 38.3243C28.4158 38.4442 29.7037 38.4172 30.3687 38.2699C33.0255 37.6812 34.9883 35.8257 35.6999 33.2305C35.846 32.6976 35.8627 32.5261 35.8629 31.5617C35.863 30.5799 35.8482 30.4337 35.6915 29.8726C35.4844 29.1311 35.085 28.2832 34.6558 27.6737C34.2762 27.1348 33.3949 26.2776 32.8504 25.9179C32.2724 25.536 31.3848 25.1367 30.7092 24.9546C29.9514 24.7504 28.4665 24.6933 27.6841 24.8383ZM29.8958 26.1205C30.5342 26.2326 31.1846 26.4629 31.7608 26.7812C32.4194 27.145 33.4553 28.1599 33.8192 28.7978C35.5109 31.7635 34.2004 35.4682 31.0192 36.713C29.7617 37.205 28.1743 37.2209 26.9593 36.7535C25.3022 36.116 24.1283 34.9191 23.5839 33.3122C22.8955 31.2804 23.4726 29.0334 25.0603 27.5632C26.352 26.3672 28.185 25.8203 29.8958 26.1205ZM31.2854 29.0236C31.2287 29.0459 28.3943 32.3051 28.2345 32.5317C28.2275 32.5416 27.8875 32.2132 27.4788 31.802C26.7076 31.0258 26.4432 30.8517 26.1366 30.9178C25.8685 30.9756 25.6408 31.2749 25.6408 31.5695C25.6408 31.7979 25.6927 31.8676 26.4482 32.655C27.592 33.847 27.8402 34.0736 28.0758 34.1398C28.4749 34.2522 28.5783 34.1584 30.4011 32.0296C31.3449 30.9274 32.1535 29.94 32.198 29.8354C32.3659 29.4412 32.0349 28.9774 31.5924 28.9869C31.468 28.9895 31.3298 29.0061 31.2854 29.0236Z" fill="#FFCD2C"/>
</svg>
