<svg width="48" height="48" viewBox="0 0 48 48" fill="none" xmlns="http://www.w3.org/2000/svg">
<circle opacity="0.2" cx="24" cy="24" r="24" fill="#FFCD2C"/>
<path fill-rule="evenodd" clip-rule="evenodd" d="M24.6011 9.68666C24.3778 9.79686 24.2602 9.9981 24.2676 10.2577C24.2809 10.7246 24.5061 10.8597 25.4413 10.9618C28.4268 11.2877 31.1476 12.5904 33.2731 14.7116C35.4481 16.8821 36.7596 19.6216 37.0789 22.6611C37.1707 23.5344 37.3126 23.7571 37.7796 23.7606C37.9724 23.7621 38.0746 23.724 38.2141 23.5988C38.3801 23.4499 38.4372 23.2844 38.8447 21.7716C39.1679 20.572 39.2827 20.0541 39.2566 19.9146C39.2064 19.6474 38.9194 19.4163 38.6376 19.4163C38.3549 19.4163 38.1667 19.5505 38.034 19.8469L37.9282 20.0831L37.7643 19.5859C36.8349 16.7677 35.1025 14.3065 32.8353 12.5836C30.6879 10.9518 28.1955 9.94785 25.5604 9.65338C24.8692 9.57616 24.8218 9.57776 24.6011 9.68666ZM23.3059 12.9897C22.7493 13.051 22.2721 13.1824 21.9014 13.3763C21.25 13.717 21.1989 13.8225 21.0632 15.1039C21.002 15.6825 20.9439 16.1624 20.9342 16.1704C20.9244 16.1785 20.6145 16.3386 20.2455 16.5263C19.8764 16.714 19.4142 16.9856 19.2183 17.1298C19.0224 17.274 18.8263 17.392 18.7827 17.392C18.739 17.392 18.2903 17.2047 17.7856 16.9759C17.2006 16.7107 16.7904 16.5596 16.6542 16.5592C15.7758 16.5563 14.4738 18.0416 13.9148 19.6842C13.7354 20.2115 13.7161 21.0086 13.8757 21.3018C13.9382 21.4167 14.3084 21.7314 14.8218 22.1063L15.6651 22.722V24.0007V25.2793L14.8218 25.895C14.3084 26.2699 13.9382 26.5847 13.8757 26.6995C13.7161 26.9927 13.7354 27.7898 13.9148 28.3171C14.3966 29.7326 15.4506 31.0856 16.2963 31.3739C16.6532 31.4955 16.8497 31.4497 17.79 31.0254C18.2971 30.7966 18.7326 30.6093 18.7578 30.6093C18.7829 30.6093 19.0414 30.7696 19.3323 30.9654C19.7616 31.2546 20.6244 31.7226 20.8935 31.8123C20.9248 31.8227 21.0005 32.3048 21.0617 32.8835C21.1422 33.6433 21.2036 33.9876 21.2829 34.1222C21.4912 34.476 22.1515 34.8145 22.9166 34.9599C23.4598 35.0632 24.7503 35.0463 25.292 34.9289C26.097 34.7543 26.7059 34.3822 26.8362 33.9851C26.8914 33.8172 27.0786 32.2647 27.0786 31.9754C27.0786 31.8961 27.2413 31.7852 27.6685 31.5733C28.1551 31.3319 28.6533 31.0278 29.194 30.642C29.249 30.6027 29.4529 30.6646 29.858 30.8438C31.2301 31.4505 31.2523 31.4582 31.5248 31.4209C32.2792 31.3175 33.1549 30.4269 33.8069 29.1C34.1586 28.3842 34.2857 27.9313 34.294 27.3636C34.3038 26.7021 34.2358 26.6141 33.0589 25.7638L32.3412 25.2453L32.3939 24.7867C32.4448 24.3437 32.4129 23.031 32.347 22.8593C32.3254 22.803 32.5558 22.6011 33.0457 22.2472C34.2376 21.3859 34.3038 21.3006 34.294 20.6377C34.2857 20.07 34.1586 19.6171 33.8069 18.9013C33.1048 17.4725 32.0622 16.4887 31.3402 16.5739C31.2067 16.5897 30.6821 16.7899 30.1746 17.0189L29.2517 17.4352L29.0424 17.2708C28.7065 17.0069 27.8923 16.5292 27.4798 16.3539L27.0989 16.192L26.9988 15.1811C26.8878 14.059 26.8296 13.8622 26.536 13.6139C25.9447 13.1139 24.5771 12.8496 23.3059 12.9897ZM25.0543 14.3607C25.6616 14.4903 25.609 14.3869 25.7505 15.7318C25.8998 17.1508 25.8649 17.0903 26.7433 17.4604C27.26 17.6782 27.8827 18.0571 28.7396 18.675C29.0536 18.9014 29.241 18.8661 30.3332 18.3743C30.8787 18.1287 31.3706 17.9278 31.4264 17.9278C31.5438 17.9278 31.9668 18.3649 32.252 18.7808C32.6486 19.3592 33.1165 20.5543 32.9908 20.6678C32.9646 20.6915 32.5948 20.9601 32.1691 21.2647C30.8954 22.1759 30.9361 22.1115 31.0531 23.0326C31.1306 23.6424 31.1247 24.2181 31.0301 25.294C31.0002 25.6341 31.0122 25.7543 31.0871 25.8687C31.1392 25.9482 31.5781 26.3008 32.0625 26.6523C32.5468 27.0037 32.9646 27.3105 32.9908 27.3339C33.1167 27.4465 32.6484 28.6424 32.252 29.2205C31.968 29.6347 31.5439 30.0735 31.4276 30.0735C31.3725 30.0735 30.8818 29.8726 30.3371 29.627C29.7188 29.3482 29.2693 29.1804 29.1407 29.1804C28.9873 29.1804 28.8461 29.2492 28.5872 29.45C27.8828 29.9962 27.3359 30.3151 26.5483 30.6389C25.8994 30.9056 25.8907 30.9235 25.7468 32.3016C25.6278 33.4417 25.6229 33.4638 25.474 33.5231C24.9112 33.7471 23.587 33.7984 22.9115 33.6225C22.699 33.5671 22.5044 33.5011 22.4792 33.476C22.454 33.4507 22.38 32.928 22.3149 32.3144C22.2473 31.6771 22.159 31.1261 22.1089 31.0294C22.0436 30.9031 21.9035 30.8112 21.5582 30.6679C20.7168 30.3189 20.466 30.1717 19.3769 29.3885C19.2001 29.2613 19.0181 29.1804 18.909 29.1804C18.8108 29.1804 18.2773 29.3814 17.7235 29.627C17.1696 29.8726 16.6833 30.0735 16.6427 30.0735C16.5311 30.0735 16.078 29.6111 15.827 29.241C15.422 28.644 15.052 27.7872 15.052 27.4465C15.052 27.3797 15.3951 27.0919 15.9974 26.6535C17.115 25.84 17.1247 25.8254 17.0253 25.1137C16.938 24.4896 16.938 23.5117 17.0253 22.8876C17.1247 22.1759 17.115 22.1613 15.9974 21.3478C15.3951 20.9094 15.052 20.6216 15.052 20.5548C15.052 20.2141 15.422 19.3573 15.827 18.7603C16.078 18.3902 16.5311 17.9278 16.6427 17.9278C16.6833 17.9278 17.1696 18.1287 17.7235 18.3743C18.3533 18.6536 18.8087 18.8209 18.9392 18.8209C19.1001 18.8209 19.2413 18.7487 19.5559 18.5057C20.233 17.9825 20.6794 17.7316 21.7309 17.2831C21.9131 17.2053 22.0418 17.1017 22.103 16.9834C22.1601 16.8729 22.2425 16.3689 22.3149 15.6869C22.38 15.0733 22.4537 14.5527 22.4787 14.5301C22.7504 14.2836 24.2361 14.1859 25.0543 14.3607ZM23.3133 19.7755C22.3422 19.939 21.3994 20.4887 20.7195 21.2879C20.3715 21.6971 19.9656 22.5263 19.8424 23.0799C19.6985 23.7266 19.7451 24.6986 19.9501 25.327C20.3725 26.622 21.4102 27.661 22.7158 28.096C23.1226 28.2316 23.2801 28.2508 24.0124 28.254C24.949 28.2581 25.3034 28.1745 26.0962 27.7632C26.7322 27.4332 27.5162 26.6236 27.8371 25.9654C28.1907 25.2402 28.2932 24.8074 28.2955 24.0304C28.2983 23.0825 28.1007 22.4178 27.5776 21.6159C26.6873 20.251 24.9479 19.5003 23.3133 19.7755ZM24.7148 21.1124C26.3203 21.5306 27.323 23.1504 26.9279 24.6877C26.7836 25.2492 26.5452 25.6668 26.1266 26.091C25.5225 26.7032 24.8676 26.9781 24.0165 26.9768C23.2071 26.9755 22.5 26.683 21.9313 26.1144C20.7715 24.9545 20.7661 23.0641 21.9194 21.9168C22.6584 21.1818 23.762 20.8643 24.7148 21.1124ZM9.89407 24.3443C9.82423 24.4009 9.73999 24.5008 9.70683 24.5663C9.62371 24.7306 8.80048 27.8149 8.80078 27.9609C8.80114 28.1553 9.01166 28.4403 9.21796 28.5258C9.51184 28.6475 9.85775 28.5097 10.0297 28.2024L10.1604 27.9687L10.2628 28.3215C10.4319 28.9047 10.7577 29.7052 11.1248 30.4396C13.3337 34.8594 17.6267 37.8292 22.563 38.3527C23.2179 38.4221 23.2683 38.4197 23.456 38.3101C23.8341 38.0892 23.9142 37.6709 23.6403 37.3478C23.4805 37.1593 23.4558 37.1519 22.6133 37.041C21.2054 36.8556 20.2935 36.6302 19.2036 36.1983C17.5425 35.54 16.1017 34.594 14.7925 33.3021C12.6713 31.2089 11.2993 28.3732 10.9978 25.4593C10.9214 24.7209 10.8578 24.5115 10.6637 24.3588C10.4721 24.2081 10.0716 24.2006 9.89407 24.3443Z" fill="#FFCD2C"/>
</svg>
