<svg width="48" height="48" viewBox="0 0 48 48" fill="none" xmlns="http://www.w3.org/2000/svg">
<circle opacity="0.2" cx="24" cy="24" r="24" fill="#FFCD2C"/>
<path fill-rule="evenodd" clip-rule="evenodd" d="M10.694 13.7097C9.74746 14.0126 9.01699 14.8634 8.8524 15.8545C8.80741 16.1255 8.79307 18.2412 8.80457 22.9246L8.82094 29.608L8.95662 29.8696C9.25822 30.4508 9.7391 30.7655 10.4297 30.8336L10.8239 30.8725L10.8248 31.1411C10.8272 31.9306 11.1884 32.7312 11.8399 33.3914C12.3416 33.8998 12.7686 34.1516 13.4051 34.3142C13.8482 34.4275 14.6496 34.4276 15.0933 34.3144C16.5156 33.9518 17.6693 32.5296 17.6737 31.1336L17.6745 30.8575H23.3931H29.1116L29.1126 31.0755C29.1163 31.867 29.5144 32.7718 30.1329 33.3943C30.5865 33.8508 31.2487 34.2199 31.8286 34.3393C32.558 34.4895 33.5489 34.3514 34.1802 34.0116C34.3448 33.923 34.6629 33.6765 34.8871 33.4638C35.5528 32.8319 35.8805 32.1652 35.9526 31.2957L35.9913 30.8285L36.6589 30.7994C37.2026 30.7758 37.3778 30.7451 37.6022 30.6345C37.9481 30.464 38.2493 30.1159 38.4002 29.7122C38.5107 29.4164 38.5166 29.264 38.5148 26.7726C38.5126 23.692 38.5154 23.7103 37.9843 23.2203C37.7272 22.9831 37.4901 22.8553 36.5806 22.4637L35.4862 21.9925L34.5641 20.1965C34.057 19.2087 33.5412 18.2808 33.418 18.1345C33.1106 17.7694 32.6446 17.4541 32.1913 17.3046C31.8446 17.1902 31.6596 17.177 30.0841 17.1554L28.3569 17.1317V16.5739C28.3569 16.2526 28.3169 15.8567 28.2627 15.6402C28.0297 14.7104 27.3082 13.9601 26.3869 13.6895C26.1054 13.6068 25.2672 13.5972 18.5493 13.6C11.4183 13.603 11.0098 13.6087 10.694 13.7097ZM26.3539 15.1149C26.6548 15.3122 26.7571 15.4306 26.901 15.7482C27.0161 16.0023 27.0191 16.1116 27.0203 20.2077L27.0216 24.4066H18.5744H10.1272L10.1276 20.2658C10.1277 17.5925 10.1492 16.0482 10.1879 15.9085C10.2737 15.5993 10.5781 15.2319 10.8819 15.0707L11.1432 14.9322L18.6325 14.9474L26.1217 14.9626L26.3539 15.1149ZM31.9351 18.6364C32.0672 18.707 32.252 18.8417 32.3458 18.9356C32.485 19.0749 33.8722 21.6391 33.8722 21.7569C33.8722 21.7759 32.6313 21.7913 31.1146 21.7913H28.3569V20.1304V18.4693L30.026 18.4887C31.6168 18.5072 31.7064 18.5141 31.9351 18.6364ZM35.9067 23.6C36.496 23.8596 37.024 24.1121 37.0799 24.1611C37.1737 24.2434 37.1815 24.4434 37.1815 26.7793C37.1815 29.051 37.1717 29.3191 37.0854 29.4146C37.0032 29.5055 36.8952 29.5209 36.3389 29.5209H35.6885L35.4784 29.1801C35.058 28.4982 34.2293 27.8796 33.4368 27.6559C32.9724 27.5248 31.9485 27.5518 31.5113 27.7066C30.7255 27.9849 29.9974 28.5657 29.6314 29.206L29.4514 29.5209H28.9042H28.3569V26.3244V23.128H31.596H34.835L35.9067 23.6ZM27.0216 27.6321V29.5209H22.1883H17.355L17.21 29.2448C17.1302 29.0929 16.8821 28.7831 16.6585 28.5563C15.5905 27.4723 13.9741 27.2392 12.5954 27.9704C12.1671 28.1974 11.54 28.8062 11.3126 29.2157L11.1432 29.5207L10.7414 29.5208C10.0905 29.5209 10.1272 29.6396 10.1272 27.5359V25.7433H18.5744H27.0216V27.6321ZM14.7885 28.968C15.6767 29.1996 16.2803 29.9355 16.3294 30.8467C16.3568 31.3556 16.2692 31.7123 16.02 32.107C15.1409 33.4992 13.1058 33.3941 12.3803 31.919C12.0768 31.3018 12.0879 30.545 12.4087 29.9858C12.8991 29.1308 13.8512 28.7236 14.7885 28.968ZM33.1215 28.9739C33.7632 29.1617 34.1951 29.546 34.4904 30.1916C34.6126 30.4587 34.642 30.6102 34.6409 30.9666C34.6389 31.5793 34.4704 32.0073 34.0625 32.4353C32.9226 33.6316 30.9361 33.1045 30.5288 31.4977C30.1335 29.9384 31.586 28.5244 33.1215 28.9739Z" fill="#FFCD2C"/>
</svg>
