<svg width="48" height="49" viewBox="0 0 48 49" fill="none" xmlns="http://www.w3.org/2000/svg">
<path d="M48 24.5C48 37.7548 37.2548 48.5 24 48.5C10.7452 48.5 0 37.7548 0 24.5C0 11.2452 10.7452 0.5 24 0.5C37.2548 0.5 48 11.2452 48 24.5ZM4.1088 24.5C4.1088 35.4856 13.0144 44.3912 24 44.3912C34.9856 44.3912 43.8912 35.4856 43.8912 24.5C43.8912 13.5144 34.9856 4.6088 24 4.6088C13.0144 4.6088 4.1088 13.5144 4.1088 24.5Z" fill="#262938"/>
<path d="M21.0751 0.678892C26.726 -0.0149404 32.4394 1.32265 37.195 4.45276C41.9506 7.58286 45.4386 12.3016 47.036 17.7662C48.6334 23.2308 48.2361 29.0852 45.9152 34.2839C43.5942 39.4826 39.5008 43.6869 34.366 46.1459L32.5913 42.4402C36.8471 40.4021 40.2397 36.9176 42.1633 32.6089C44.0869 28.3002 44.4161 23.448 43.0922 18.919C41.7683 14.39 38.8774 10.4791 34.936 7.88484C30.9946 5.29061 26.2593 4.18202 21.5759 4.75706L21.0751 0.678892Z" fill="#F14D4D"/>
<path d="M30.9532 20.7356L31.9573 19.7425C32.1651 19.5347 32.2818 19.2529 32.2818 18.9591C32.2818 18.6652 32.1651 18.3834 31.9573 18.1756C31.7495 17.9678 31.4677 17.8511 31.1739 17.8511C30.88 17.8511 30.5982 17.9678 30.3904 18.1756L29.3973 19.1798C27.8509 17.9835 25.9511 17.3344 23.9959 17.3344C22.0408 17.3344 20.141 17.9835 18.5945 19.1798L17.5904 18.1646C17.3812 17.9568 17.0979 17.8407 16.8031 17.8417C16.5082 17.8427 16.2258 17.9609 16.018 18.1701C15.8102 18.3794 15.6941 18.6626 15.6951 18.9575C15.6961 19.2523 15.8143 19.5347 16.0235 19.7425L17.0387 20.7467C15.8282 22.2888 15.1714 24.1931 15.1739 26.1536C15.1703 27.5609 15.5032 28.9487 16.1449 30.2013C16.7866 31.4538 17.7185 32.5348 18.8629 33.354C20.0073 34.1733 21.3309 34.707 22.7234 34.9107C24.116 35.1145 25.5371 34.9823 26.8681 34.5253C28.1992 34.0683 29.4018 33.2996 30.3754 32.2834C31.3491 31.2672 32.0657 30.0329 32.4654 28.6835C32.8652 27.3341 32.9365 25.9087 32.6734 24.5261C32.4104 23.1436 31.8205 21.8439 30.9532 20.7356ZM24.0014 32.7742C22.692 32.7742 21.412 32.3859 20.3232 31.6585C19.2344 30.931 18.3858 29.897 17.8847 28.6872C17.3836 27.4774 17.2525 26.1462 17.508 24.8619C17.7634 23.5776 18.394 22.3979 19.3199 21.472C20.2458 20.5461 21.4255 19.9155 22.7098 19.6601C23.9941 19.4046 25.3253 19.5357 26.5351 20.0368C27.7448 20.5379 28.7789 21.3865 29.5063 22.4753C30.2338 23.5641 30.6221 24.8441 30.6221 26.1536C30.6221 27.9095 29.9246 29.5935 28.683 30.8351C27.4414 32.0767 25.7574 32.7742 24.0014 32.7742ZM21.7945 16.2225H26.2083C26.501 16.2225 26.7817 16.1063 26.9886 15.8993C27.1955 15.6924 27.3118 15.4117 27.3118 15.1191C27.3118 14.8264 27.1955 14.5458 26.9886 14.3388C26.7817 14.1319 26.501 14.0156 26.2083 14.0156H21.7945C21.5019 14.0156 21.2212 14.1319 21.0143 14.3388C20.8074 14.5458 20.6911 14.8264 20.6911 15.1191C20.6911 15.4117 20.8074 15.6924 21.0143 15.8993C21.2212 16.1063 21.5019 16.2225 21.7945 16.2225ZM25.1049 22.8432C25.1049 22.5506 24.9886 22.2699 24.7817 22.063C24.5748 21.856 24.2941 21.7398 24.0014 21.7398C23.7088 21.7398 23.4281 21.856 23.2212 22.063C23.0143 22.2699 22.898 22.5506 22.898 22.8432V24.9287C22.6481 25.1522 22.472 25.4463 22.393 25.772C22.3139 26.0978 22.3356 26.4399 22.4552 26.753C22.5748 27.0662 22.7867 27.3356 23.0628 27.5257C23.3389 27.7158 23.6662 27.8176 24.0014 27.8176C24.3367 27.8176 24.664 27.7158 24.9401 27.5257C25.2162 27.3356 25.428 27.0662 25.5477 26.753C25.6673 26.4399 25.689 26.0978 25.6099 25.772C25.5309 25.4463 25.3547 25.1522 25.1049 24.9287V22.8432Z" fill="#F14D4D"/>
</svg>
