<svg width="48" height="48" viewBox="0 0 48 48" fill="none" xmlns="http://www.w3.org/2000/svg">
<circle opacity="0.2" cx="24" cy="24" r="24" fill="#FFCD2C"/>
<g clip-path="url(#clip0_1753_22197)">
<path d="M33.6661 31.6837C33.6647 33.4602 33.6647 35.236 33.6647 37.0125C33.6647 37.7749 33.4608 37.9781 32.697 37.9781C26.8779 37.9781 21.0587 37.9781 15.2396 37.9781H14.8317V37.4748C14.8317 29.8533 14.8317 22.231 14.8317 14.6095C14.8317 14.4622 14.8352 14.3135 14.814 14.1683C14.7765 13.9071 14.5999 13.7625 14.351 13.7495C14.0843 13.7359 13.8906 13.8771 13.8381 14.1485C13.8081 14.3026 13.8129 14.4642 13.8129 14.6224C13.8115 22.244 13.8122 29.8656 13.8122 37.4878V37.9686C13.3887 37.9686 13.0075 38.0184 12.6488 37.9495C12.4415 37.9099 12.2355 37.7054 12.0964 37.5233C12.0084 37.408 12.0262 37.198 12.0262 37.0302C12.0234 28.3421 12.0234 19.6546 12.0241 10.9665C12.0241 10.8533 12.0173 10.7373 12.0398 10.6275C12.1046 10.3104 12.2853 10.0731 12.6188 10.0465C12.9993 10.0165 13.3846 10.0397 13.8122 10.0397C13.8122 10.1686 13.8122 10.2784 13.8122 10.3882C13.8122 10.8533 13.8054 11.3184 13.8163 11.7835C13.8245 12.1299 14.0325 12.3508 14.3203 12.3536C14.6087 12.3563 14.8154 12.1353 14.829 11.7916C14.8386 11.5427 14.8324 11.2924 14.8324 11.0429C14.8324 10.7087 14.8324 10.3739 14.8324 10.0397C14.964 10.0308 15.0316 10.022 15.0991 10.022C21.0089 10.022 26.9188 10.0206 32.8286 10.0226C33.409 10.0226 33.664 10.2791 33.6647 10.8505C33.6667 13.4965 33.6674 16.1425 33.6613 18.7885C34.0179 18.781 34.3869 18.8485 34.7388 18.9747C34.7456 18.8847 34.7517 18.7953 34.7586 18.7033C34.7906 18.26 34.7927 17.8161 34.7647 17.3735C34.7579 17.3844 34.7504 17.3953 34.7436 17.4062C34.7401 17.278 34.7381 17.1505 34.7354 17.0223C34.7306 16.9738 34.7258 16.9247 34.7204 16.8763C34.7142 16.8211 34.7176 16.7727 34.7292 16.729C34.717 16.1228 34.7067 15.5179 34.7006 14.915C34.6985 14.8495 34.6958 14.7848 34.6945 14.7193C34.6938 14.6941 34.6958 14.6709 34.6985 14.6477C34.6876 13.4086 34.6876 12.1763 34.6869 10.9433C34.6869 9.67348 34.007 9.00039 32.727 8.99971C31.9141 8.99971 31.1019 8.99971 30.289 8.99902C30.2808 9.00039 30.2726 9.00175 30.2631 9.00175H28.1129C28.1054 9.00175 28.0992 9.00039 28.0924 8.99971H27.7992C22.842 8.99971 17.8849 8.99971 12.9277 8.99971C11.7022 9.00107 11.0012 9.69939 11.0005 10.9181C10.9998 19.6396 10.9998 28.3618 11.0005 37.0834C11.0005 38.3007 11.7009 38.9977 12.925 38.9977C19.5379 38.999 26.1516 38.999 32.7645 38.9977C34.0016 38.9977 34.6835 38.3184 34.6842 37.0882C34.6856 35.2578 34.6842 33.4274 34.6842 31.5977C34.3276 31.7307 33.977 31.76 33.6647 31.683L33.6661 31.6837Z" fill="#FFCD2C"/>
<path d="M27.0126 27.1966C26.9915 27.1543 26.9717 27.1114 26.9533 27.0684C26.1922 27.0677 25.4312 27.067 24.6701 27.0677C22.4012 27.0677 20.133 27.0664 17.8642 27.0691C17.5109 27.0691 17.294 27.2587 17.2818 27.5533C17.2688 27.8561 17.5007 28.0716 17.8587 28.0873C17.9494 28.0913 18.0401 28.0886 18.1308 28.0886C21.2508 28.0886 24.37 28.0886 27.49 28.0886C27.3215 27.794 27.162 27.4953 27.0133 27.1966H27.0126Z" fill="#FFCD2C"/>
<path d="M28.9389 32.017C28.7991 31.9011 28.1867 31.8656 28.1048 31.8663C27.6963 31.8663 27.2885 31.8602 26.88 31.8691C26.5193 31.8772 26.3126 32.0614 26.3031 32.3594C26.2929 32.6717 26.5049 32.877 26.8793 32.8831C27.4801 32.8927 28.081 32.8797 28.6818 32.8886C28.8577 32.8913 28.9886 32.8388 29.0943 32.7495C29.2144 32.5496 29.2723 32.2537 28.9389 32.017Z" fill="#FFCD2C"/>
<path d="M29.3025 30.6332C28.9581 30.4088 28.6703 30.1251 28.4876 29.7773H28.167C24.7757 29.7773 21.3836 29.7773 17.9922 29.7773C17.4174 29.7773 17.2728 29.9233 17.2728 30.5064C17.2714 31.7653 17.2707 33.0241 17.2728 34.283C17.2741 34.8163 17.4324 34.9739 17.9616 34.9739C22.1583 34.9745 26.3558 34.9745 30.5525 34.9739C31.0626 34.9739 31.2168 34.8184 31.2181 34.3028C31.2202 33.4367 31.2147 32.5706 31.2243 31.7052C30.4257 31.8348 29.7519 31.2927 29.3018 30.6325L29.3025 30.6332ZM23.7166 33.9339H18.3189V30.818H23.7166V33.9339ZM30.1829 33.9257H24.7784V30.8228H28.7072C28.7092 30.848 30.0595 31.6984 30.1829 31.6943V33.9257Z" fill="#FFCD2C"/>
<path d="M19.1847 19.1736C19.1847 18.5442 19.1915 18.0361 19.1772 17.5281C19.1751 17.4524 19.0872 17.3651 19.0183 17.3078C18.9508 17.2519 18.856 17.2294 18.7755 17.1891C18.1931 16.8986 17.8174 16.4717 17.8487 15.7782C17.8801 15.0914 18.249 14.6229 18.8553 14.3692C19.1295 14.2547 19.2147 14.1197 19.1902 13.8496C19.1724 13.6586 19.1786 13.4636 19.1915 13.272C19.214 12.9494 19.42 12.7435 19.7009 12.7441C19.9846 12.7441 20.1851 12.9501 20.2022 13.2747C20.2138 13.5011 20.2158 13.7289 20.2042 13.9546C20.1954 14.1401 20.2533 14.2226 20.4436 14.2908C20.7709 14.4074 21.0894 14.5629 21.3867 14.743C21.7004 14.9325 21.7611 15.2435 21.5831 15.4958C21.4099 15.7407 21.1351 15.772 20.8316 15.59C20.6509 15.4815 20.4627 15.386 20.2083 15.2469C20.2083 15.7332 20.1994 16.1471 20.2172 16.5604C20.2199 16.6293 20.3283 16.7111 20.4061 16.7568C20.6195 16.8836 20.8541 16.9784 21.0601 17.1162C22.0871 17.8036 22.1082 19.0952 21.0962 19.8113C20.8419 19.9913 20.5384 20.1018 20.2056 20.2702C20.2056 20.5103 20.2124 20.8015 20.2042 21.0927C20.194 21.4446 20.003 21.6628 19.7125 21.671C19.4118 21.6798 19.154 21.4446 19.1983 21.0872C19.2781 20.4434 19.107 20.0418 18.427 19.8672C18.1652 19.7997 17.9374 19.5494 17.7253 19.3489C17.4914 19.1273 17.5009 18.8279 17.7042 18.6226C17.9006 18.4242 18.1877 18.4344 18.4386 18.6315C18.6541 18.8006 18.8819 18.9547 19.1833 19.1723L19.1847 19.1736ZM20.2376 17.7995V19.1293C20.5636 18.9997 20.7928 18.8245 20.8078 18.4883C20.8241 18.1234 20.5595 17.9618 20.2376 17.7995ZM19.169 15.3506C18.7612 15.7168 18.7789 16.0728 19.169 16.2037V15.3506Z" fill="#FFCD2C"/>
<path d="M26.3677 24.8253C26.3439 24.7578 26.333 24.6896 26.333 24.6207C25.3271 24.6194 24.3212 24.6207 23.316 24.6207C21.5033 24.6207 19.69 24.6194 17.8774 24.6221C17.5084 24.6221 17.28 24.8233 17.2793 25.1274C17.2793 25.4295 17.5098 25.6293 17.8753 25.6409C17.9319 25.643 17.9885 25.6409 18.0451 25.6409C20.8896 25.6409 23.7347 25.6409 26.5792 25.6409C26.5246 25.3661 26.4632 25.0926 26.3677 24.8253Z" fill="#FFCD2C"/>
<path d="M29.9251 19.9734C30.3752 19.7457 30.8137 19.4988 31.2768 19.3079C31.182 19.2513 31.0579 19.2206 30.9078 19.2192C29.934 19.2131 28.9602 19.2172 27.9863 19.2172C26.99 19.2172 25.993 19.2131 24.9966 19.2199C24.6495 19.2219 24.4299 19.4258 24.4258 19.7163C24.4217 20.0048 24.6379 20.208 24.983 20.2333C25.0846 20.2408 25.1869 20.2374 25.2885 20.2374C26.7424 20.2374 28.1964 20.2374 29.6503 20.2374C29.7144 20.1269 29.8065 20.0328 29.9245 19.9734H29.9251Z" fill="#FFCD2C"/>
<path d="M27.9527 17.7196C27.0354 17.7196 26.1182 17.7203 25.201 17.7183C25.0769 17.7183 24.95 17.7183 24.8293 17.693C24.5558 17.6371 24.4188 17.4448 24.4304 17.1802C24.4413 16.932 24.5838 16.7588 24.845 16.7138C24.9118 16.7022 24.98 16.6988 25.0475 16.6988C26.9843 16.6981 28.9204 16.6981 30.8571 16.6988C30.9362 16.6988 31.0167 16.7008 31.0938 16.7172C31.3488 16.7724 31.4839 16.9374 31.4879 17.1966C31.492 17.4557 31.3631 17.6296 31.1095 17.6883C30.9901 17.7162 30.8626 17.7169 30.7385 17.7169C29.8096 17.719 28.8815 17.7183 27.9527 17.7183V17.7196Z" fill="#FFCD2C"/>
<path d="M27.5614 15.2027C26.7689 15.2027 25.9758 15.2033 25.1834 15.202C25.0702 15.202 24.9556 15.2027 24.8451 15.1829C24.5723 15.1324 24.425 14.949 24.4298 14.683C24.4346 14.4184 24.5832 14.237 24.8608 14.1974C24.972 14.1818 25.0865 14.1831 25.1997 14.1831C26.7853 14.1824 28.3702 14.1824 29.9557 14.1831C30.0689 14.1831 30.1835 14.1811 30.2946 14.1981C30.5674 14.2404 30.7202 14.4102 30.725 14.6823C30.7297 14.9544 30.5811 15.1297 30.3117 15.1822C30.2019 15.2033 30.0866 15.2027 29.9741 15.2027C29.1701 15.204 28.3661 15.2033 27.562 15.2033L27.5614 15.2027Z" fill="#FFCD2C"/>
<path d="M32.7213 18.5332C33.0064 18.5332 33.2921 18.5332 33.5772 18.5332C33.6154 18.5421 33.6529 18.5537 33.6917 18.5584C33.9297 18.5891 34.1705 18.6034 34.4058 18.6491C36.0834 18.9778 37.4718 19.7996 38.5248 21.1471C39.7939 22.7729 40.244 24.6217 39.8744 26.6478C39.5689 28.3248 38.7273 29.705 37.3839 30.7546C35.7588 32.0244 33.91 32.4745 31.8839 32.1055C30.2069 31.8 28.8362 30.9517 27.7744 29.6171C27.0188 28.6678 26.5564 27.5876 26.3798 26.3866C26.3518 26.1943 26.3286 26.0013 26.3027 25.8083C26.3027 25.5233 26.3027 25.2375 26.3027 24.9525C26.3116 24.9143 26.3225 24.8768 26.328 24.8379C26.3675 24.5522 26.3873 24.2616 26.4473 23.9807C26.7521 22.5561 27.4355 21.3408 28.5075 20.3513C29.5359 19.402 30.7457 18.823 32.1301 18.6123C32.3265 18.5823 32.5242 18.5598 32.7213 18.5339V18.5332ZM38.9776 25.3855C38.9837 22.1783 36.3691 19.5582 33.1544 19.552C29.9471 19.5459 27.327 22.1605 27.3209 25.3753C27.3148 28.5825 29.9294 31.2026 33.1441 31.2088C36.3514 31.2149 38.9715 28.6003 38.9776 25.3855Z" fill="#FFCD2C"/>
<path d="M31.9959 26.8445C32.0477 26.7667 32.0702 26.7149 32.1077 26.6774C33.355 25.428 34.603 24.1801 35.8517 22.9321C36.0815 22.7023 36.3461 22.6695 36.5691 22.8407C36.7846 23.0057 36.8344 23.3092 36.6796 23.5322C36.6441 23.5834 36.5998 23.6284 36.5561 23.672C35.1793 25.0496 33.8017 26.4271 32.4242 27.8047C32.1268 28.102 31.8547 28.1034 31.5588 27.8081C30.9504 27.1998 30.3421 26.5908 29.7332 25.9832C29.6159 25.8659 29.5293 25.737 29.5333 25.5631C29.5388 25.3517 29.6329 25.1955 29.8245 25.1062C30.0148 25.0175 30.1969 25.0427 30.3619 25.1723C30.4035 25.205 30.441 25.2446 30.4785 25.2821C30.945 25.7486 31.4121 26.2143 31.8772 26.6822C31.9113 26.7169 31.9359 26.7613 31.9959 26.8431V26.8445Z" fill="#FFCD2C"/>
</g>
<defs>
<clipPath id="clip0_1753_22197">
<rect width="28.9996" height="30" fill="white" transform="translate(11 9)"/>
</clipPath>
</defs>
</svg>
