<svg width="27" height="24" viewBox="0 0 27 24" fill="none" xmlns="http://www.w3.org/2000/svg">
<path d="M8.23535 16.734L5.00034 16.734" stroke="#FFCD2C" stroke-width="1.5" stroke-linecap="round" stroke-linejoin="round"/>
<path d="M15.1426 12.1403L4.99986 12.1403" stroke="#FFCD2C" stroke-width="1.5" stroke-linecap="round" stroke-linejoin="round"/>
<path d="M11.8613 7.47619L5.00119 7.47619" stroke="#FFCD2C" stroke-width="1.5" stroke-linecap="round" stroke-linejoin="round"/>
<path fill-rule="evenodd" clip-rule="evenodd" d="M18 1H2C1.44771 1 1 1.44772 1 2V22C1 22.5523 1.44772 23 2 23H18C18.5523 23 19 22.5523 19 22H20C20 23.1046 19.1046 24 18 24H2C0.895431 24 0 23.1046 0 22V2C0 0.89543 0.895431 0 2 0H18C19.1046 0 20 0.895431 20 2V11V12H19V11V2C19 1.44772 18.5523 1 18 1Z" fill="#FFCD2C"/>
<path fill-rule="evenodd" clip-rule="evenodd" d="M19.941 11.071C16.9642 11.633 14.8216 14.349 15.0117 17.3196C15.1935 20.1595 17.1905 22.401 20.0136 22.9337C20.5725 23.0392 21.6841 23.0155 22.2581 22.8859C24.5511 22.368 26.2452 20.7359 26.8593 18.4531C26.9854 17.9844 26.9999 17.8335 27 16.9852C27.0002 16.1215 26.9874 15.9929 26.8521 15.4994C26.6733 14.8471 26.3287 14.1013 25.9582 13.5651C25.6306 13.0911 24.8699 12.3371 24.4 12.0207C23.9011 11.6848 23.135 11.3335 22.5519 11.1734C21.8979 10.9937 20.6162 10.9435 19.941 11.071ZM21.8498 12.1989C22.4009 12.2975 22.9622 12.5001 23.4595 12.7801C24.0279 13.1001 24.9221 13.9928 25.2361 14.5539C26.6963 17.1627 25.5652 20.4214 22.8195 21.5164C21.7341 21.9492 20.3641 21.9631 19.3154 21.552C17.8852 20.9912 16.872 19.9385 16.4021 18.525C15.808 16.7377 16.3061 14.7612 17.6764 13.468C18.7913 12.4159 20.3733 11.9349 21.8498 12.1989ZM23.0492 14.7525C23.0003 14.7722 20.5539 17.6391 20.416 17.8384C20.41 17.8471 20.1165 17.5582 19.7638 17.1965C19.0981 16.5138 18.87 16.3607 18.6053 16.4188C18.3739 16.4696 18.1774 16.7329 18.1774 16.992C18.1774 17.193 18.2222 17.2543 18.8743 17.9469C19.8615 18.9954 20.0757 19.1947 20.279 19.253C20.6235 19.3518 20.7128 19.2693 22.286 17.3968C23.1006 16.4272 23.7985 15.5586 23.8369 15.4666C23.9818 15.1199 23.6961 14.712 23.3142 14.7203C23.2068 14.7226 23.0875 14.7371 23.0492 14.7525Z" fill="#FFCD2C"/>
</svg>
