<svg width="48" height="48" viewBox="0 0 48 48" fill="none" xmlns="http://www.w3.org/2000/svg">
<circle opacity="0.2" cx="24" cy="24" r="24" fill="#FFCD2C"/>
<g clip-path="url(#clip0_1753_22249)">
<path d="M34.6661 32.6837C34.6647 34.4602 34.6647 36.236 34.6647 38.0125C34.6647 38.7749 34.4608 38.9781 33.697 38.9781C27.8779 38.9781 22.0587 38.9781 16.2396 38.9781H15.8317V38.4748C15.8317 30.8533 15.8317 23.231 15.8317 15.6095C15.8317 15.4622 15.8352 15.3135 15.814 15.1683C15.7765 14.9071 15.5999 14.7625 15.351 14.7495C15.0843 14.7359 14.8906 14.8771 14.8381 15.1485C14.8081 15.3026 14.8129 15.4642 14.8129 15.6224C14.8115 23.244 14.8122 30.8656 14.8122 38.4878V38.9686C14.3887 38.9686 14.0075 39.0184 13.6488 38.9495C13.4415 38.9099 13.2355 38.7054 13.0964 38.5233C13.0084 38.408 13.0262 38.198 13.0262 38.0302C13.0234 29.3421 13.0234 20.6546 13.0241 11.9665C13.0241 11.8533 13.0173 11.7373 13.0398 11.6275C13.1046 11.3104 13.2853 11.0731 13.6188 11.0465C13.9993 11.0165 14.3846 11.0397 14.8122 11.0397C14.8122 11.1686 14.8122 11.2784 14.8122 11.3882C14.8122 11.8533 14.8054 12.3184 14.8163 12.7835C14.8245 13.1299 15.0325 13.3508 15.3203 13.3536C15.6087 13.3563 15.8154 13.1353 15.829 12.7916C15.8386 12.5427 15.8324 12.2924 15.8324 12.0429C15.8324 11.7087 15.8324 11.3739 15.8324 11.0397C15.964 11.0308 16.0316 11.022 16.0991 11.022C22.0089 11.022 27.9188 11.0206 33.8286 11.0226C34.409 11.0226 34.664 11.2791 34.6647 11.8505C34.6667 14.4965 34.6674 17.1425 34.6613 19.7885C35.0179 19.781 35.3869 19.8485 35.7388 19.9747C35.7456 19.8847 35.7517 19.7953 35.7586 19.7033C35.7906 19.26 35.7927 18.8161 35.7647 18.3735C35.7579 18.3844 35.7504 18.3953 35.7436 18.4062C35.7401 18.278 35.7381 18.1505 35.7354 18.0223C35.7306 17.9738 35.7258 17.9247 35.7204 17.8763C35.7142 17.8211 35.7176 17.7727 35.7292 17.729C35.717 17.1228 35.7067 16.5179 35.7006 15.915C35.6985 15.8495 35.6958 15.7848 35.6945 15.7193C35.6938 15.6941 35.6958 15.6709 35.6985 15.6477C35.6876 14.4086 35.6876 13.1763 35.6869 11.9433C35.6869 10.6735 35.007 10.0004 33.727 9.99971C32.9141 9.99971 32.1019 9.99971 31.289 9.99902C31.2808 10.0004 31.2726 10.0018 31.2631 10.0018H29.1129C29.1054 10.0018 29.0992 10.0004 29.0924 9.99971H28.7992C23.842 9.99971 18.8849 9.99971 13.9277 9.99971C12.7022 10.0011 12.0012 10.6994 12.0005 11.9181C11.9998 20.6396 11.9998 29.3618 12.0005 38.0834C12.0005 39.3007 12.7009 39.9977 13.925 39.9977C20.5379 39.999 27.1516 39.999 33.7645 39.9977C35.0016 39.9977 35.6835 39.3184 35.6842 38.0882C35.6856 36.2578 35.6842 34.4274 35.6842 32.5977C35.3276 32.7307 34.977 32.76 34.6647 32.683L34.6661 32.6837Z" fill="#FFCD2C"/>
<path d="M28.0126 28.1966C27.9915 28.1543 27.9717 28.1114 27.9533 28.0684C27.1922 28.0677 26.4312 28.067 25.6701 28.0677C23.4012 28.0677 21.133 28.0664 18.8642 28.0691C18.5109 28.0691 18.294 28.2587 18.2818 28.5533C18.2688 28.8561 18.5007 29.0716 18.8587 29.0873C18.9494 29.0913 19.0401 29.0886 19.1308 29.0886C22.2508 29.0886 25.37 29.0886 28.49 29.0886C28.3215 28.794 28.162 28.4953 28.0133 28.1966H28.0126Z" fill="#FFCD2C"/>
<path d="M29.9389 33.017C29.7991 32.9011 29.1867 32.8656 29.1048 32.8663C28.6963 32.8663 28.2885 32.8602 27.88 32.8691C27.5193 32.8772 27.3126 33.0614 27.3031 33.3594C27.2929 33.6717 27.5049 33.877 27.8793 33.8831C28.4801 33.8927 29.081 33.8797 29.6818 33.8886C29.8577 33.8913 29.9886 33.8388 30.0943 33.7495C30.2144 33.5496 30.2723 33.2537 29.9389 33.017Z" fill="#FFCD2C"/>
<path d="M30.3025 31.6332C29.9581 31.4088 29.6703 31.1251 29.4876 30.7773H29.167C25.7757 30.7773 22.3836 30.7773 18.9922 30.7773C18.4174 30.7773 18.2728 30.9233 18.2728 31.5064C18.2714 32.7653 18.2707 34.0241 18.2728 35.283C18.2741 35.8163 18.4324 35.9739 18.9616 35.9739C23.1583 35.9745 27.3558 35.9745 31.5525 35.9739C32.0626 35.9739 32.2168 35.8184 32.2181 35.3028C32.2202 34.4367 32.2147 33.5706 32.2243 32.7052C31.4257 32.8348 30.7519 32.2927 30.3018 31.6325L30.3025 31.6332ZM24.7166 34.9339H19.3189V31.818H24.7166V34.9339ZM31.1829 34.9257H25.7784V31.8228H29.7072C29.7092 31.848 31.0595 32.6984 31.1829 32.6943V34.9257Z" fill="#FFCD2C"/>
<path d="M20.1847 20.1736C20.1847 19.5442 20.1915 19.0361 20.1772 18.5281C20.1751 18.4524 20.0872 18.3651 20.0183 18.3078C19.9508 18.2519 19.856 18.2294 19.7755 18.1891C19.1931 17.8986 18.8174 17.4717 18.8487 16.7782C18.8801 16.0914 19.249 15.6229 19.8553 15.3692C20.1295 15.2547 20.2147 15.1197 20.1902 14.8496C20.1724 14.6586 20.1786 14.4636 20.1915 14.272C20.214 13.9494 20.42 13.7435 20.7009 13.7441C20.9846 13.7441 21.1851 13.9501 21.2022 14.2747C21.2138 14.5011 21.2158 14.7289 21.2042 14.9546C21.1954 15.1401 21.2533 15.2226 21.4436 15.2908C21.7709 15.4074 22.0894 15.5629 22.3867 15.743C22.7004 15.9325 22.7611 16.2435 22.5831 16.4958C22.4099 16.7407 22.1351 16.772 21.8316 16.59C21.6509 16.4815 21.4627 16.386 21.2083 16.2469C21.2083 16.7332 21.1994 17.1471 21.2172 17.5604C21.2199 17.6293 21.3283 17.7111 21.4061 17.7568C21.6195 17.8836 21.8541 17.9784 22.0601 18.1162C23.0871 18.8036 23.1082 20.0952 22.0962 20.8113C21.8419 20.9913 21.5384 21.1018 21.2056 21.2702C21.2056 21.5103 21.2124 21.8015 21.2042 22.0927C21.194 22.4446 21.003 22.6628 20.7125 22.671C20.4118 22.6798 20.154 22.4446 20.1983 22.0872C20.2781 21.4434 20.107 21.0418 19.427 20.8672C19.1652 20.7997 18.9374 20.5494 18.7253 20.3489C18.4914 20.1273 18.5009 19.8279 18.7042 19.6226C18.9006 19.4242 19.1877 19.4344 19.4386 19.6315C19.6541 19.8006 19.8819 19.9547 20.1833 20.1723L20.1847 20.1736ZM21.2376 18.7995V20.1293C21.5636 19.9997 21.7928 19.8245 21.8078 19.4883C21.8241 19.1234 21.5595 18.9618 21.2376 18.7995ZM20.169 16.3506C19.7612 16.7168 19.7789 17.0728 20.169 17.2037V16.3506Z" fill="#FFCD2C"/>
<path d="M27.3677 25.8253C27.3439 25.7578 27.333 25.6896 27.333 25.6207C26.3271 25.6194 25.3212 25.6207 24.316 25.6207C22.5033 25.6207 20.69 25.6194 18.8774 25.6221C18.5084 25.6221 18.28 25.8233 18.2793 26.1274C18.2793 26.4295 18.5098 26.6293 18.8753 26.6409C18.9319 26.643 18.9885 26.6409 19.0451 26.6409C21.8896 26.6409 24.7347 26.6409 27.5792 26.6409C27.5246 26.3661 27.4632 26.0926 27.3677 25.8253Z" fill="#FFCD2C"/>
<path d="M30.9251 20.9734C31.3752 20.7457 31.8137 20.4988 32.2768 20.3079C32.182 20.2513 32.0579 20.2206 31.9078 20.2192C30.934 20.2131 29.9602 20.2172 28.9863 20.2172C27.99 20.2172 26.993 20.2131 25.9966 20.2199C25.6495 20.2219 25.4299 20.4258 25.4258 20.7163C25.4217 21.0048 25.6379 21.208 25.983 21.2333C26.0846 21.2408 26.1869 21.2374 26.2885 21.2374C27.7424 21.2374 29.1964 21.2374 30.6503 21.2374C30.7144 21.1269 30.8065 21.0328 30.9245 20.9734H30.9251Z" fill="#FFCD2C"/>
<path d="M28.9527 18.7196C28.0354 18.7196 27.1182 18.7203 26.201 18.7183C26.0769 18.7183 25.95 18.7183 25.8293 18.693C25.5558 18.6371 25.4188 18.4448 25.4304 18.1802C25.4413 17.932 25.5838 17.7588 25.845 17.7138C25.9118 17.7022 25.98 17.6988 26.0475 17.6988C27.9843 17.6981 29.9204 17.6981 31.8571 17.6988C31.9362 17.6988 32.0167 17.7008 32.0938 17.7172C32.3488 17.7724 32.4839 17.9374 32.4879 18.1966C32.492 18.4557 32.3631 18.6296 32.1095 18.6883C31.9901 18.7162 31.8626 18.7169 31.7385 18.7169C30.8096 18.719 29.8815 18.7183 28.9527 18.7183V18.7196Z" fill="#FFCD2C"/>
<path d="M28.5614 16.2027C27.7689 16.2027 26.9758 16.2033 26.1834 16.202C26.0702 16.202 25.9556 16.2027 25.8451 16.1829C25.5723 16.1324 25.425 15.949 25.4298 15.683C25.4346 15.4184 25.5832 15.237 25.8608 15.1974C25.972 15.1818 26.0865 15.1831 26.1997 15.1831C27.7853 15.1824 29.3702 15.1824 30.9557 15.1831C31.0689 15.1831 31.1835 15.1811 31.2946 15.1981C31.5674 15.2404 31.7202 15.4102 31.725 15.6823C31.7297 15.9544 31.5811 16.1297 31.3117 16.1822C31.2019 16.2033 31.0866 16.2027 30.9741 16.2027C30.1701 16.204 29.3661 16.2033 28.562 16.2033L28.5614 16.2027Z" fill="#FFCD2C"/>
<path d="M33.7213 19.5332C34.0064 19.5332 34.2921 19.5332 34.5772 19.5332C34.6154 19.5421 34.6529 19.5537 34.6917 19.5584C34.9297 19.5891 35.1705 19.6034 35.4058 19.6491C37.0834 19.9778 38.4718 20.7996 39.5248 22.1471C40.7939 23.7729 41.244 25.6217 40.8744 27.6478C40.5689 29.3248 39.7273 30.705 38.3839 31.7546C36.7588 33.0244 34.91 33.4745 32.8839 33.1055C31.2069 32.8 29.8362 31.9517 28.7744 30.6171C28.0188 29.6678 27.5564 28.5876 27.3798 27.3866C27.3518 27.1943 27.3286 27.0013 27.3027 26.8083C27.3027 26.5233 27.3027 26.2375 27.3027 25.9525C27.3116 25.9143 27.3225 25.8768 27.328 25.8379C27.3675 25.5522 27.3873 25.2616 27.4473 24.9807C27.7521 23.5561 28.4355 22.3408 29.5075 21.3513C30.5359 20.402 31.7457 19.823 33.1301 19.6123C33.3265 19.5823 33.5242 19.5598 33.7213 19.5339V19.5332ZM39.9776 26.3855C39.9837 23.1783 37.3691 20.5582 34.1544 20.552C30.9471 20.5459 28.327 23.1605 28.3209 26.3753C28.3148 29.5825 30.9294 32.2026 34.1441 32.2088C37.3514 32.2149 39.9715 29.6003 39.9776 26.3855Z" fill="#FFCD2C"/>
<path d="M34 23V28H37" stroke="#FFCD2C" stroke-linecap="round" stroke-linejoin="round"/>
</g>
<defs>
<clipPath id="clip0_1753_22249">
<rect width="28.9996" height="30" fill="white" transform="translate(12 10)"/>
</clipPath>
</defs>
</svg>
