<svg width="48" height="48" viewBox="0 0 48 48" fill="none" xmlns="http://www.w3.org/2000/svg">
<circle opacity="0.2" cx="24" cy="24" r="24" fill="#FFCD2C"/>
<g clip-path="url(#clip0_1981_27050)">
<path d="M32.8516 9C33.4634 9.25953 33.6484 9.73103 33.6431 10.3775C33.6214 13.102 33.6337 15.8265 33.6331 18.551C33.6331 18.6679 33.6378 18.7865 33.6208 18.9015C33.5879 19.1229 33.4505 19.2497 33.2268 19.2632C32.9901 19.2773 32.8316 19.1623 32.7788 18.9303C32.7535 18.8182 32.7559 18.6978 32.7559 18.581C32.7547 15.8271 32.7553 13.0732 32.7547 10.3194C32.7547 10.0258 32.6091 9.879 32.3178 9.879C26.4114 9.879 20.505 9.879 14.5986 9.879C14.1747 9.879 14.1688 9.88429 14.1688 10.3018C14.1688 18.1922 14.1688 26.0827 14.1688 33.9732C14.1688 34.3789 14.187 34.4001 14.5663 34.4001C18.8815 34.4006 23.1966 34.4001 27.5112 34.4001C27.5975 34.4001 27.6844 34.3924 27.7948 34.3877C27.8588 33.0836 28.3409 31.9733 29.3109 31.1025C30.2739 30.2376 31.4189 29.8741 32.7547 29.9499C32.7547 29.8183 32.7547 29.6962 32.7547 29.5741C32.7547 26.7521 32.7547 23.9295 32.7547 21.1076C32.7547 20.6355 32.8974 20.4223 33.2062 20.4288C33.5057 20.4347 33.6331 20.6331 33.6331 21.097C33.6331 23.9977 33.6354 26.8977 33.629 29.7984C33.629 30.0326 33.683 30.1489 33.9238 30.2376C35.8761 30.9528 37.0628 32.9315 36.8297 35.0465C36.6118 37.0277 34.9701 38.69 32.9608 38.956C31.5157 39.1474 30.2604 38.7311 29.2011 37.7358C29.0543 37.5978 28.9146 37.5409 28.7137 37.5415C23.2759 37.5467 17.8381 37.5456 12.4008 37.5456C11.4989 37.5456 11.2805 37.3894 10.9986 36.545V26.9928C11.102 26.745 11.2388 26.526 11.5541 26.5953C11.8665 26.6634 11.9152 26.9136 11.9046 27.1872C11.9017 27.2747 11.9046 27.3628 11.9046 27.4508C11.9046 30.3902 11.9046 33.3296 11.9046 36.2685C11.9046 36.6536 11.9187 36.6666 12.2963 36.6666C17.548 36.6666 22.8003 36.6666 28.052 36.6666C28.143 36.6666 28.234 36.656 28.318 36.6507C28.1859 36.2796 28.0344 35.939 27.9486 35.5826C27.8917 35.346 27.8083 35.275 27.5652 35.2761C24.7832 35.2855 22.0011 35.282 19.2185 35.282C17.6466 35.282 16.0754 35.2797 14.5035 35.2838C14.1477 35.2843 13.8265 35.2168 13.574 34.942C13.3397 34.6872 13.2863 34.3807 13.2869 34.0478C13.2892 26.8801 13.2886 19.713 13.2886 12.5454C13.2886 12.4221 13.2886 12.2988 13.2886 12.1525C12.9592 12.1525 12.668 12.1525 12.3767 12.1525C12.0616 12.1525 11.9039 12.3076 11.9035 12.6176C11.9035 16.6409 11.9035 20.6637 11.9035 24.687C11.9035 24.7944 11.9052 24.9019 11.8964 25.0088C11.8782 25.2284 11.7655 25.3781 11.5429 25.4133C11.3128 25.4497 11.1443 25.3564 11.055 25.1344C11.0368 25.0892 11.0168 25.0452 10.998 25.0005C10.9992 20.76 10.9992 16.5206 10.9992 12.2817C11.2805 11.4221 11.4919 11.2712 12.412 11.2706C12.6991 11.2706 12.9868 11.2706 13.2898 11.2706C13.2898 10.9318 13.3062 10.6394 13.2863 10.3499C13.2411 9.70168 13.4795 9.23663 14.1036 9H32.8516V9ZM35.9847 34.5011C35.9877 32.4688 34.35 30.8171 32.3319 30.8154C30.3408 30.8136 28.6861 32.4618 28.6873 34.4453C28.6879 36.4916 30.3073 38.1251 32.3348 38.1257C34.3295 38.1257 35.9818 36.4851 35.9847 34.5011V34.5011Z" fill="#FFCD2C"/>
<path d="M23.4755 11.9282C25.729 11.9282 27.9826 11.9282 30.2368 11.9282C30.3249 11.9282 30.4135 11.9223 30.4998 11.9323C30.7482 11.9617 30.8962 12.1108 30.9044 12.3545C30.912 12.6005 30.7664 12.752 30.5239 12.8002C30.4582 12.8131 30.3877 12.8072 30.3196 12.8072C25.7537 12.8072 21.1878 12.8072 16.6213 12.8072C16.5339 12.8072 16.4417 12.8148 16.3601 12.7908C16.1393 12.725 16.0148 12.5753 16.0306 12.3357C16.0453 12.1096 16.1804 11.9805 16.3929 11.9376C16.4869 11.9188 16.5873 11.9288 16.6848 11.9288C18.9483 11.9288 21.2119 11.9288 23.4755 11.9288V11.9282Z" fill="#FFCD2C"/>
<path d="M26.1416 25.8849C24.7659 25.8849 23.3896 25.8913 22.0144 25.8761C21.8512 25.8743 21.6415 25.7939 21.5376 25.6758C21.3368 25.448 21.5 25.0892 21.8077 25.0205C21.9011 25 22.0021 25.0065 22.0989 25.0065C24.8117 25.0059 27.5244 25.0065 30.2372 25.0065C30.276 25.0065 30.3153 25.0053 30.354 25.0065C30.6764 25.017 30.8637 25.1785 30.8643 25.4462C30.8649 25.7158 30.6805 25.8825 30.357 25.8837C29.3517 25.8872 28.3471 25.8855 27.3418 25.8855C26.942 25.8855 26.5415 25.8855 26.1416 25.8855V25.8849Z" fill="#FFCD2C"/>
<path d="M24.7488 30.0867C23.861 30.0867 22.9732 30.0867 22.086 30.0861C21.9891 30.0861 21.8881 30.0896 21.7959 30.0649C21.5693 30.0056 21.446 29.8483 21.4624 29.614C21.4788 29.3815 21.6145 29.2176 21.8523 29.2165C23.7935 29.2094 25.7347 29.2094 27.6753 29.2165C27.9119 29.2171 28.047 29.3791 28.0634 29.6146C28.0799 29.8518 27.956 30.0056 27.7305 30.0655C27.6383 30.0902 27.5373 30.0855 27.4404 30.0861C26.5432 30.0872 25.6454 30.0867 24.7482 30.0867H24.7488Z" fill="#FFCD2C"/>
<path d="M24.5135 20.8187C25.342 20.8187 26.1705 20.8204 26.9991 20.8175C27.2222 20.8169 27.406 20.8756 27.4964 21.097C27.5903 21.326 27.4694 21.5873 27.2286 21.6607C27.1282 21.6912 27.0173 21.6959 26.9116 21.6959C25.2933 21.6983 23.6756 21.6977 22.0574 21.6971C21.9987 21.6971 21.9399 21.6989 21.8824 21.6912C21.6117 21.6572 21.4361 21.4693 21.4614 21.225C21.4884 20.9614 21.6481 20.8228 21.9112 20.8216C22.7784 20.8181 23.6463 20.8204 24.5135 20.8204V20.8187V20.8187Z" fill="#FFCD2C"/>
<path d="M27.8447 16.6187C28.6632 16.6187 29.4823 16.6175 30.3008 16.6187C30.669 16.6193 30.8663 16.7772 30.8645 17.0614C30.8628 17.3456 30.6684 17.4965 30.295 17.4965C28.6479 17.4971 27.0009 17.4977 25.3533 17.4965C25.0033 17.4965 24.8113 17.3444 24.8049 17.0702C24.7978 16.7925 24.9916 16.6204 25.3304 16.6193C26.1683 16.6163 27.0068 16.6181 27.8447 16.6181V16.6187Z" fill="#FFCD2C"/>
<path d="M22.524 17.4958C22.3102 17.4958 22.0959 17.5052 21.8834 17.4935C21.6309 17.48 21.46 17.2985 21.4571 17.0643C21.4541 16.8311 21.6227 16.6333 21.8728 16.625C22.3091 16.611 22.7471 16.6104 23.1834 16.625C23.4323 16.6333 23.5997 16.8347 23.595 17.0678C23.5903 17.2997 23.4171 17.4806 23.1652 17.4935C22.952 17.5046 22.7377 17.4958 22.5246 17.4958H22.524Z" fill="#FFCD2C"/>
<path d="M29.8103 20.8233C30.0246 20.8233 30.2401 20.8133 30.4538 20.8263C30.7034 20.8415 30.8508 20.9854 30.8613 21.2367C30.8719 21.4892 30.7339 21.6653 30.4891 21.6783C30.0322 21.7023 29.5725 21.7023 29.1157 21.68C28.8708 21.6683 28.7352 21.4968 28.7363 21.2432C28.7375 20.9977 28.896 20.8456 29.1667 20.8216C29.1861 20.8198 29.2055 20.8192 29.2255 20.8192C29.4204 20.8192 29.6153 20.8192 29.8109 20.8192C29.8109 20.8204 29.8109 20.8222 29.8109 20.8233H29.8103Z" fill="#FFCD2C"/>
</g>
<path d="M18.4058 17.9996L16.6093 16.2031C16.4972 16.0909 16.3153 16.0909 16.2032 16.2031C16.091 16.3152 16.091 16.497 16.2032 16.6092L17.9997 18.4057C18.1119 18.5178 18.2937 18.5178 18.4058 18.4057C18.518 18.2936 18.518 18.1117 18.4058 17.9996Z" fill="#FFCD2C"/>
<path d="M17.9996 16.2037L16.2031 18.0002C16.0909 18.1123 16.0909 18.2942 16.2031 18.4063C16.3152 18.5185 16.497 18.5185 16.6092 18.4063L18.4057 16.6098C18.5178 16.4976 18.5178 16.3158 18.4057 16.2037C18.2936 16.0915 18.1117 16.0915 17.9996 16.2037Z" fill="#FFCD2C"/>
<path d="M18.4058 21.9996L16.6093 20.2031C16.4972 20.0909 16.3153 20.0909 16.2032 20.2031C16.091 20.3152 16.091 20.497 16.2032 20.6092L17.9997 22.4057C18.1119 22.5178 18.2937 22.5178 18.4058 22.4057C18.518 22.2936 18.518 22.1117 18.4058 21.9996Z" fill="#FFCD2C"/>
<path d="M17.9996 20.2037L16.2031 22.0002C16.0909 22.1123 16.0909 22.2942 16.2031 22.4063C16.3152 22.5185 16.497 22.5185 16.6092 22.4063L18.4057 20.6098C18.5178 20.4976 18.5178 20.3158 18.4057 20.2037C18.2936 20.0915 18.1117 20.0915 17.9996 20.2037Z" fill="#FFCD2C"/>
<path d="M18.4058 25.9996L16.6093 24.2031C16.4972 24.0909 16.3153 24.0909 16.2032 24.2031C16.091 24.3152 16.091 24.497 16.2032 24.6092L17.9997 26.4057C18.1119 26.5178 18.2937 26.5178 18.4058 26.4057C18.518 26.2936 18.518 26.1117 18.4058 25.9996Z" fill="#FFCD2C"/>
<path d="M17.9996 24.2037L16.2031 26.0002C16.0909 26.1123 16.0909 26.2942 16.2031 26.4063C16.3152 26.5185 16.497 26.5185 16.6092 26.4063L18.4057 24.6098C18.5178 24.4976 18.5178 24.3158 18.4057 24.2037C18.2936 24.0915 18.1117 24.0915 17.9996 24.2037Z" fill="#FFCD2C"/>
<path d="M18.4058 29.9996L16.6093 28.2031C16.4972 28.0909 16.3153 28.0909 16.2032 28.2031C16.091 28.3152 16.091 28.497 16.2032 28.6092L17.9997 30.4057C18.1119 30.5178 18.2937 30.5178 18.4058 30.4057C18.518 30.2936 18.518 30.1117 18.4058 29.9996Z" fill="#FFCD2C"/>
<path d="M17.9996 28.2037L16.2031 30.0002C16.0909 30.1123 16.0909 30.2942 16.2031 30.4063C16.3152 30.5185 16.497 30.5185 16.6092 30.4063L18.4057 28.6098C18.5178 28.4976 18.5178 28.3158 18.4057 28.2037C18.2936 28.0915 18.1117 28.0915 17.9996 28.2037Z" fill="#FFCD2C"/>
<path d="M34.251 35.5322L31.0774 32.3587C30.8793 32.1606 30.5582 32.1606 30.3601 32.3587C30.1619 32.5568 30.162 32.878 30.3601 33.0761L33.5336 36.2496C33.7317 36.4477 34.0529 36.4477 34.251 36.2496C34.4491 36.0515 34.4491 35.7303 34.251 35.5322Z" fill="#FFCD2C"/>
<path d="M33.5322 32.3598L30.3587 35.5333C30.1606 35.7314 30.1606 36.0526 30.3587 36.2507C30.5568 36.4488 30.878 36.4488 31.0761 36.2507L34.2496 33.0772C34.4477 32.8791 34.4477 32.5579 34.2496 32.3598C34.0515 32.1617 33.7303 32.1617 33.5322 32.3598Z" fill="#FFCD2C"/>
<defs>
<clipPath id="clip0_1981_27050">
<rect width="25.8604" height="30" fill="white" transform="translate(11 9)"/>
</clipPath>
</defs>
</svg>
