<svg width="48" height="48" viewBox="0 0 48 48" fill="none" xmlns="http://www.w3.org/2000/svg">
<circle opacity="0.2" cx="24" cy="24" r="24" fill="#FFCD2C"/>
<g clip-path="url(#clip0_1951_27018)">
<path d="M32.8525 9C33.4644 9.25953 33.6493 9.73103 33.6441 10.3775C33.6223 13.102 33.6347 15.8265 33.6341 18.551C33.6341 18.6679 33.6388 18.7865 33.6217 18.9016C33.5889 19.1229 33.4515 19.2497 33.2277 19.2632C32.9911 19.2773 32.8326 19.1623 32.7797 18.9303C32.7545 18.8182 32.7568 18.6978 32.7568 18.581C32.7557 15.8271 32.7562 13.0732 32.7557 10.3194C32.7557 10.0258 32.61 9.879 32.3188 9.879C26.4124 9.879 20.506 9.879 14.5996 9.879C14.1756 9.879 14.1698 9.88429 14.1698 10.3018C14.1698 18.1922 14.1698 26.0827 14.1698 33.9732C14.1698 34.3789 14.188 34.4001 14.5673 34.4001C18.8824 34.4006 23.1976 34.4001 27.5122 34.4001C27.5985 34.4001 27.6854 34.3924 27.7958 34.3877C27.8598 33.0836 28.3419 31.9733 29.3119 31.1025C30.2748 30.2376 31.4198 29.8741 32.7557 29.9499C32.7557 29.8183 32.7557 29.6962 32.7557 29.5741C32.7557 26.7521 32.7557 23.9295 32.7557 21.1076C32.7557 20.6355 32.8983 20.4223 33.2072 20.4288C33.5067 20.4347 33.6341 20.6331 33.6341 21.097C33.6341 23.9977 33.6364 26.8977 33.63 29.7984C33.63 30.0326 33.684 30.1489 33.9247 30.2376C35.8771 30.9528 37.0638 32.9315 36.8307 35.0465C36.6128 37.0277 34.9711 38.69 32.9618 38.956C31.5167 39.1474 30.2613 38.7311 29.2021 37.7358C29.0553 37.5978 28.9155 37.5409 28.7147 37.5415C23.2769 37.5467 17.839 37.5456 12.4018 37.5456C11.4999 37.5456 11.2815 37.3894 10.9996 36.545V26.9928C11.103 26.745 11.2398 26.526 11.5551 26.5953C11.8675 26.6634 11.9162 26.9136 11.9056 27.1872C11.9027 27.2747 11.9056 27.3628 11.9056 27.4508C11.9056 30.3902 11.9056 33.3296 11.9056 36.2685C11.9056 36.6536 11.9197 36.6666 12.2973 36.6666C17.549 36.6666 22.8013 36.6666 28.053 36.6666C28.144 36.6666 28.235 36.656 28.319 36.6507C28.1868 36.2796 28.0354 35.9391 27.9496 35.5826C27.8927 35.346 27.8093 35.275 27.5662 35.2761C24.7842 35.2855 22.0021 35.282 19.2195 35.282C17.6476 35.282 16.0763 35.2797 14.5045 35.2838C14.1486 35.2843 13.8275 35.2168 13.575 34.942C13.3407 34.6872 13.2872 34.3807 13.2878 34.0478C13.2902 26.8801 13.2896 19.713 13.2896 12.5454C13.2896 12.4221 13.2896 12.2988 13.2896 12.1525C12.9602 12.1525 12.669 12.1525 12.3777 12.1525C12.0626 12.1525 11.9048 12.3076 11.9044 12.6176C11.9044 16.6409 11.9044 20.6637 11.9044 24.687C11.9044 24.7944 11.9062 24.9019 11.8974 25.0088C11.8792 25.2284 11.7665 25.3781 11.5439 25.4133C11.3137 25.4497 11.1452 25.3564 11.056 25.1344C11.0378 25.0892 11.0178 25.0452 10.999 25.0005C11.0002 20.76 11.0002 16.5206 11.0002 12.2817C11.2815 11.4221 11.4928 11.2712 12.4129 11.2706C12.7001 11.2706 12.9878 11.2706 13.2908 11.2706C13.2908 10.9318 13.3072 10.6394 13.2872 10.3499C13.242 9.70168 13.4804 9.23663 14.1046 9H32.8525V9ZM35.9857 34.5011C35.9886 32.4688 34.351 30.8171 32.3329 30.8154C30.3418 30.8136 28.6871 32.4618 28.6883 34.4453C28.6889 36.4916 30.3083 38.1251 32.3358 38.1257C34.3305 38.1257 35.9828 36.4851 35.9857 34.5011Z" fill="#FFCD2C"/>
<path d="M23.4774 11.9317C25.731 11.9317 27.9846 11.9317 30.2387 11.9317C30.3268 11.9317 30.4155 11.9259 30.5018 11.9359C30.7502 11.9652 30.8981 12.1144 30.9064 12.358C30.914 12.6041 30.7684 12.7556 30.5259 12.8037C30.4601 12.8166 30.3896 12.8108 30.3215 12.8108C25.7556 12.8108 21.1898 12.8108 16.6233 12.8108C16.5358 12.8108 16.4436 12.8184 16.362 12.7943C16.1412 12.7285 16.0167 12.5788 16.0326 12.3392C16.0473 12.1132 16.1823 11.984 16.3949 11.9411C16.4888 11.9224 16.5892 11.9323 16.6867 11.9323C18.9503 11.9323 21.2138 11.9323 23.4774 11.9323V11.9317Z" fill="#FFCD2C"/>
<path d="M26.1426 25.8872C24.7669 25.8872 23.3905 25.8936 22.0154 25.8784C21.8521 25.8766 21.6425 25.7962 21.5386 25.6782C21.3378 25.4503 21.501 25.0916 21.8087 25.0229C21.902 25.0023 22.003 25.0088 22.0999 25.0088C24.8127 25.0082 27.5254 25.0088 30.2382 25.0088C30.2769 25.0088 30.3163 25.0076 30.355 25.0088C30.6774 25.0193 30.8647 25.1808 30.8653 25.4486C30.8659 25.7181 30.6815 25.8848 30.358 25.886C29.3527 25.8895 28.3481 25.8878 27.3428 25.8878C26.9429 25.8878 26.5425 25.8878 26.1426 25.8878V25.8872Z" fill="#FFCD2C"/>
<path d="M24.7498 30.0864C23.862 30.0864 22.9742 30.0864 22.087 30.0858C21.9901 30.0858 21.8891 30.0894 21.7969 30.0647C21.5702 30.0054 21.4469 29.848 21.4634 29.6137C21.4798 29.3812 21.6155 29.2174 21.8533 29.2162C23.7945 29.2092 25.7357 29.2092 27.6763 29.2162C27.9129 29.2168 28.048 29.3789 28.0644 29.6143C28.0808 29.8515 27.957 30.0054 27.7315 30.0653C27.6393 30.0899 27.5383 30.0852 27.4414 30.0858C26.5442 30.087 25.6464 30.0864 24.7492 30.0864H24.7498Z" fill="#FFCD2C"/>
<path d="M24.5145 20.8215C25.343 20.8215 26.1715 20.8233 27 20.8203C27.2232 20.8197 27.4069 20.8784 27.4974 21.0998C27.5913 21.3288 27.4704 21.5901 27.2296 21.6635C27.1292 21.694 27.0182 21.6987 26.9125 21.6987C25.2943 21.7011 23.6766 21.7005 22.0584 21.6999C21.9996 21.6999 21.9409 21.7017 21.8834 21.694C21.6127 21.66 21.4371 21.4721 21.4624 21.2278C21.4894 20.9642 21.6491 20.8256 21.9121 20.8244C22.7794 20.8209 23.6473 20.8233 24.5145 20.8233V20.8215Z" fill="#FFCD2C"/>
<path d="M27.8466 16.6183C28.6652 16.6183 29.4843 16.6171 30.3028 16.6183C30.671 16.6189 30.8682 16.7768 30.8665 17.061C30.8647 17.3452 30.6704 17.4961 30.2969 17.4961C28.6499 17.4967 27.0029 17.4973 25.3552 17.4961C25.0053 17.4961 24.8133 17.344 24.8068 17.0698C24.7998 16.7921 24.9935 16.6201 25.3323 16.6189C26.1702 16.6159 27.0087 16.6177 27.8466 16.6177V16.6183Z" fill="#FFCD2C"/>
<path d="M17.5094 22.9025C18.086 22.2138 18.6368 21.5438 19.204 20.8891C19.3103 20.767 19.4812 20.6413 19.6285 20.6331C19.7554 20.626 19.9662 20.7593 20.0049 20.8756C20.0525 21.02 20.0161 21.2537 19.921 21.3741C19.3637 22.0764 18.7801 22.7569 18.2035 23.4439C17.6251 24.1332 17.5934 24.135 16.914 23.5549C16.6844 23.3588 16.4507 23.1673 16.2235 22.9683C16.0045 22.7763 15.9657 22.5167 16.1184 22.323C16.2787 22.1198 16.55 22.1069 16.7901 22.3012C17.0244 22.4903 17.2517 22.6876 17.5088 22.9037L17.5094 22.9025Z" fill="#FFCD2C"/>
<path d="M17.5089 18.7104C18.1008 18.0041 18.6668 17.3329 19.2276 16.6571C19.3626 16.4938 19.5159 16.394 19.7337 16.4416C20.0731 16.5156 20.1688 16.8978 19.9157 17.2061C19.4942 17.7193 19.0638 18.2248 18.6375 18.7333C18.4055 19.0099 18.1777 19.2906 17.9393 19.5624C17.7062 19.8284 17.5001 19.8472 17.23 19.6258C16.89 19.3475 16.5553 19.0633 16.2248 18.7738C15.9987 18.576 15.9652 18.3235 16.1226 18.1297C16.2911 17.9218 16.5501 17.9107 16.7943 18.1097C17.0274 18.2994 17.2547 18.4967 17.5089 18.711V18.7104Z" fill="#FFCD2C"/>
<path d="M17.5082 27.0972C18.0683 26.429 18.6056 25.7861 19.1452 25.1449C19.4335 24.802 19.6795 24.7268 19.9044 24.9082C20.1493 25.1061 20.1205 25.3504 19.8134 25.7168C19.211 26.4343 18.6109 27.1548 18.0067 27.8705C17.6949 28.2399 17.5105 28.254 17.1506 27.9486C16.8452 27.6897 16.5376 27.4337 16.2369 27.17C15.9974 26.9604 15.9615 26.7026 16.133 26.5048C16.3091 26.301 16.5546 26.2975 16.8059 26.5036C17.032 26.6885 17.2527 26.88 17.5093 27.0966L17.5082 27.0972Z" fill="#FFCD2C"/>
<path d="M17.5103 31.292C18.098 30.5891 18.6523 29.9098 19.2301 29.2504C19.337 29.1282 19.5402 29.0172 19.694 29.0237C20.0569 29.0384 20.1802 29.4612 19.923 29.7741C19.3599 30.4594 18.7868 31.1358 18.2178 31.8163C18.1116 31.9431 18.0106 32.0758 17.8961 32.1945C17.7117 32.3859 17.4751 32.407 17.2684 32.2385C16.9061 31.9431 16.5491 31.6402 16.1985 31.3313C15.9936 31.151 15.9725 30.8927 16.1251 30.706C16.2837 30.5122 16.5473 30.4952 16.7746 30.6766C17.0165 30.8704 17.2508 31.0741 17.5109 31.292H17.5103Z" fill="#FFCD2C"/>
<path d="M22.5249 17.4988C22.3112 17.4988 22.0969 17.5082 21.8843 17.4964C21.6318 17.4829 21.461 17.3015 21.458 17.0672C21.4551 16.8341 21.6236 16.6362 21.8738 16.628C22.31 16.6139 22.7481 16.6133 23.1843 16.628C23.4333 16.6362 23.6007 16.8376 23.596 17.0707C23.5913 17.3026 23.418 17.4835 23.1661 17.4964C22.953 17.5076 22.7387 17.4988 22.5255 17.4988H22.5249Z" fill="#FFCD2C"/>
<path d="M29.8122 20.8244C30.0266 20.8244 30.242 20.8144 30.4558 20.8274C30.7053 20.8426 30.8527 20.9865 30.8633 21.2378C30.8738 21.4903 30.7359 21.6664 30.491 21.6794C30.0342 21.7034 29.5744 21.7034 29.1176 21.6811C28.8728 21.6694 28.7371 21.4979 28.7383 21.2443C28.7395 20.9988 28.898 20.8467 29.1687 20.8227C29.1881 20.8209 29.2074 20.8203 29.2274 20.8203C29.4223 20.8203 29.6173 20.8203 29.8128 20.8203C29.8128 20.8215 29.8128 20.8232 29.8128 20.8244H29.8122Z" fill="#FFCD2C"/>
<path d="M31.7403 34.9405C32.2746 34.2782 32.7896 33.6399 33.3051 33.0016C33.3779 32.9118 33.446 32.8178 33.5241 32.7327C33.7713 32.462 34.0931 32.4168 34.345 32.6123C34.6145 32.822 34.6538 33.159 34.4125 33.4649C33.7836 34.2617 33.143 35.0491 32.5065 35.8406C32.4343 35.9305 32.3656 36.0244 32.2881 36.1101C32.0151 36.4137 31.718 36.4507 31.4097 36.1935C31.0245 35.8729 30.6481 35.5418 30.2817 35.1994C30.0198 34.9546 30.0075 34.6105 30.2224 34.3733C30.4367 34.1361 30.7673 34.1226 31.0515 34.3451C31.1731 34.4402 31.2858 34.5453 31.4026 34.6463C31.5077 34.7373 31.6123 34.8289 31.7409 34.9411L31.7403 34.9405Z" fill="#FFCD2C"/>
</g>
<defs>
<clipPath id="clip0_1951_27018">
<rect width="25.8604" height="30" fill="white" transform="translate(11 9)"/>
</clipPath>
</defs>
</svg>
