<svg width="14" height="14" viewBox="0 0 14 14" fill="none" xmlns="http://www.w3.org/2000/svg">
<path fill-rule="evenodd" clip-rule="evenodd" d="M5.58434 9.13745C3.02167 9.13745 0.833008 9.52478 0.833008 11.0768C0.833008 12.6288 3.00834 13.0301 5.58434 13.0301C8.14767 13.0301 10.3357 12.6421 10.3357 11.0908C10.3357 9.53945 8.16101 9.13745 5.58434 9.13745Z" stroke="#151929" stroke-width="1.5" stroke-linecap="round" stroke-linejoin="round"/>
<path fill-rule="evenodd" clip-rule="evenodd" d="M5.58473 6.92392C7.26673 6.92392 8.63006 5.56058 8.63006 3.87858C8.63006 2.19659 7.26673 0.833252 5.58473 0.833252C3.90339 0.833252 2.54006 2.19659 2.54006 3.87858C2.53406 5.55458 3.88739 6.91792 5.56406 6.92392H5.58473Z" stroke="#151929" stroke-width="1.5" stroke-linecap="round" stroke-linejoin="round"/>
<path d="M11.8021 4.77942V7.45275" stroke="#151929" stroke-width="1.5" stroke-linecap="round" stroke-linejoin="round"/>
<path d="M13.1661 6.11593H10.4395" stroke="#151929" stroke-width="1.5" stroke-linecap="round" stroke-linejoin="round"/>
</svg>
