<svg width="48" height="48" viewBox="0 0 48 48" fill="none" xmlns="http://www.w3.org/2000/svg">
<circle opacity="0.2" cx="24" cy="24" r="24" fill="#FFCD2C"/>
<path d="M35.4941 29.6122C35.9116 29.6122 36.3069 29.5999 36.7008 29.6169C36.9126 29.6258 37.1362 29.6524 37.3307 29.7287C37.9254 29.9612 38.1629 30.5966 37.8832 31.1644C37.5592 31.8209 37.2359 32.4781 36.896 33.1264C36.6599 33.5757 36.2861 33.8252 35.7517 33.8211C34.9659 33.8143 34.1809 33.8157 33.3952 33.8238C33.2733 33.8252 33.1515 33.8784 33.0304 33.9097C32.9237 33.937 32.8178 33.9895 32.7105 33.9922C32.3485 34.0024 31.9857 34.0018 31.623 33.9949C31.2436 33.9881 31.0068 33.7618 31.0048 33.3862C30.9985 32.2382 30.9985 31.0901 31.0041 29.9428C31.0061 29.5488 31.2332 29.332 31.6361 29.3238C31.9899 29.3163 32.3443 29.3163 32.6974 29.3238C32.84 29.3272 32.914 29.2808 32.9632 29.1465C33.1231 28.7075 33.2996 28.2739 33.4609 27.8356C33.6769 27.2493 34.183 26.918 34.7278 27.0175C35.3045 27.1225 35.6728 27.5868 35.6464 28.2228C35.6312 28.5868 35.5668 28.9482 35.5253 29.3108C35.5149 29.4015 35.5066 29.4922 35.4941 29.6122ZM33.3135 32.9846C34.1574 32.9846 34.9743 32.9867 35.7904 32.9799C35.8451 32.9799 35.9213 32.926 35.9504 32.8756C36.3463 32.1898 36.7375 31.5019 37.1238 30.8106C37.2151 30.647 37.139 30.5263 36.9701 30.4766C36.8648 30.4459 36.7492 30.4411 36.6378 30.4405C36.1463 30.437 35.6548 30.4405 35.1625 30.4384C34.7063 30.437 34.5707 30.298 34.6143 29.8528C34.6697 29.287 34.7472 28.7225 34.7915 28.156C34.7991 28.0585 34.7063 27.8922 34.6247 27.8663C34.5402 27.8397 34.3997 27.9304 34.3104 28.0019C34.2522 28.049 34.2398 28.1526 34.21 28.2317C34.0231 28.7334 33.8431 29.2372 33.6479 29.7349C33.6036 29.8474 33.5039 29.938 33.4381 30.0437C33.3896 30.1207 33.3211 30.2053 33.319 30.2884C33.3073 30.7465 33.3135 31.2053 33.3135 31.6641C33.3135 32.095 33.3135 32.5258 33.3135 32.984V32.9846ZM31.8659 33.1578H32.2875V30.1671H31.8659V33.1578Z" fill="#FFCD2C"/>
<path d="M42.9971 30.019V31.491C42.9779 31.5622 42.949 31.6321 42.9413 31.7045C42.7535 33.5241 42.0783 35.1424 40.9275 36.5613C40.3524 37.2697 39.6792 37.873 38.9181 38.377C38.6559 38.5507 38.3699 38.4988 38.2141 38.2667C38.0641 38.043 38.1186 37.7814 38.3584 37.5935C38.434 37.5345 38.518 37.4871 38.5943 37.4287C41.1737 35.4617 42.3669 32.858 41.9424 29.64C41.2461 24.3531 35.8425 21.198 30.8454 23.0881C27.1107 24.5012 24.8975 28.6924 25.8156 32.6143C26.6343 36.1124 29.6272 38.6604 33.2183 38.9277C34.407 39.0162 35.554 38.8412 36.6747 38.4494C36.9818 38.3424 37.2389 38.4482 37.3402 38.7033C37.4473 38.9726 37.3152 39.2348 36.9972 39.3554C36.7889 39.4342 36.5766 39.5144 36.3593 39.5586C35.6938 39.6939 35.0251 39.8119 34.3583 39.9369H33.3343C32.681 39.8209 32.0283 39.7029 31.3744 39.5907C31.3186 39.5811 31.2513 39.5952 31.198 39.6189C30.9698 39.7208 30.7447 39.8305 30.5191 39.9369H11.5782C10.4979 39.5375 10.2344 39.1553 10.2344 37.9872C10.2344 28.3039 10.2344 18.62 10.2344 8.93669C10.2344 7.87943 10.8717 7.23892 11.9232 7.23828C18.0025 7.23828 24.0813 7.23828 30.16 7.23956C30.2979 7.23956 30.4389 7.24341 30.5729 7.27098C31.3686 7.4364 31.8276 8.04998 31.8283 8.95656C31.8302 13.0836 31.8296 17.2114 31.8296 21.3384C31.8296 21.4744 31.8296 21.6109 31.8296 21.7744C31.9584 21.7622 32.0514 21.7552 32.1437 21.7443C32.5881 21.6917 33.0304 21.6064 33.476 21.5885C37.6704 21.4205 41.4545 24.1441 42.6195 28.1782C42.7926 28.7783 42.874 29.4041 42.9984 30.0183L42.9971 30.019ZM29.1701 22.8137C29.6618 22.5919 30.1081 22.3675 30.5723 22.1918C30.8057 22.1033 30.864 21.9873 30.864 21.7507C30.8569 17.5069 30.8589 13.2632 30.8582 9.01875C30.8582 8.37889 30.6819 8.20321 30.042 8.20321C24.039 8.20321 18.0352 8.20321 12.0322 8.20321C11.3775 8.20321 11.198 8.38273 11.198 9.03799C11.198 18.7309 11.198 28.4231 11.198 38.116C11.198 38.779 11.3756 38.9604 12.027 38.9604C17.7955 38.9604 23.5645 38.9604 29.3329 38.9604C29.4208 38.9604 29.508 38.9495 29.6753 38.938C29.531 38.8559 29.4592 38.8149 29.3868 38.7745C28.5539 38.3065 27.798 37.7358 27.1543 37.0293C26.987 36.8453 26.8183 36.7812 26.5753 36.7812C22.5233 36.7876 18.4712 36.7863 14.4192 36.785C13.4247 36.785 12.9035 36.2618 12.9022 35.2649C12.9003 33.8043 12.9003 32.3431 12.9022 30.8826C12.9035 29.8824 13.4164 29.3746 14.423 29.3746C17.739 29.374 21.0557 29.3746 24.3717 29.3746C24.4967 29.3746 24.6218 29.3746 24.7173 29.3746C24.9141 28.6559 25.1007 27.9769 25.2918 27.2793H24.8878C21.3692 27.2793 17.8499 27.2806 14.3313 27.278C13.4504 27.278 12.908 26.7459 12.9041 25.8727C12.8977 24.3371 12.9041 22.8015 12.9009 21.266C12.9003 20.873 13.0202 20.5351 13.301 20.2562C13.6203 19.9395 14.0184 19.8696 14.448 19.8702C17.3588 19.8734 20.2703 19.8721 23.1811 19.8721C24.6525 19.8721 26.124 19.8709 27.5954 19.8721C28.6559 19.8734 29.1682 20.3851 29.1688 21.4378C29.1688 21.8853 29.1688 22.3322 29.1688 22.8131L29.1701 22.8137ZM21.0474 20.8473C18.8303 20.8473 16.6132 20.8467 14.3967 20.848C13.9806 20.848 13.8729 20.9403 13.8723 21.3096C13.8691 22.8233 13.8691 24.3365 13.8723 25.8502C13.8729 26.1958 13.9883 26.3138 14.3313 26.3138C18.0833 26.3157 21.8347 26.317 25.5867 26.3074C25.6951 26.3074 25.8489 26.2182 25.9047 26.1246C26.4708 25.1834 27.1716 24.3634 28.0115 23.6556C28.1147 23.569 28.1917 23.394 28.1962 23.2574C28.2161 22.6502 28.2052 22.0424 28.2045 21.4353C28.2039 20.9358 28.1141 20.8473 27.6025 20.8473C25.4174 20.8473 23.2324 20.8473 21.0474 20.8473ZM24.6448 30.3389H24.3397C21.0339 30.3389 17.7275 30.3389 14.4217 30.3389C13.9562 30.3389 13.871 30.4267 13.8703 30.9063C13.8697 32.3566 13.8697 33.8069 13.8703 35.2572C13.8703 35.7265 13.9575 35.813 14.4345 35.8137C18.2417 35.8143 22.0488 35.8137 25.856 35.8137C25.9451 35.8137 26.0336 35.7996 26.1362 35.7912C24.8269 33.1484 24.7936 33.026 24.6448 30.3395V30.3389Z" fill="#FFCD2C"/>
<path d="M33.8034 37.6605C30.0148 37.6739 26.9412 34.5958 26.9142 30.7617C26.8879 27.002 29.9738 23.8552 33.7091 23.8322C37.5945 23.8084 40.7214 26.8776 40.7425 30.7348C40.7631 34.5413 37.6522 37.6464 33.8034 37.6605ZM33.8521 24.8067C30.5361 24.8093 27.8772 27.4348 27.8811 30.7034C27.8849 34.0431 30.5233 36.6981 33.8322 36.6923C37.1451 36.6866 39.7629 34.0585 39.7744 30.7271C39.7853 27.4854 37.1034 24.8042 33.8515 24.8067H33.8521Z" fill="#FFCD2C"/>
<path d="M21.0142 17.7941C18.8074 17.7941 16.6012 17.7948 14.3943 17.7941C13.439 17.7941 12.903 17.2658 12.9011 16.3176C12.8979 14.825 12.8972 13.333 12.9011 11.8404C12.9037 10.9107 13.4422 10.3799 14.3777 10.3799C18.8125 10.3786 23.2467 10.3786 27.6815 10.3799C28.6246 10.3799 29.1658 10.9255 29.1664 11.8725C29.1683 13.3542 29.1683 14.8359 29.1664 16.3176C29.1651 17.2421 28.6163 17.7935 27.6975 17.7941C25.4695 17.796 23.2415 17.7941 21.0136 17.7941H21.0142ZM21.0469 16.8311C23.2435 16.8311 25.44 16.8311 27.6366 16.8311C28.0874 16.8311 28.2008 16.7157 28.2015 16.2611C28.2028 14.8006 28.2034 13.3394 28.2015 11.8789C28.2015 11.4666 28.0797 11.3454 27.6668 11.3454C23.2415 11.3442 18.8163 11.3442 14.3911 11.3454C13.975 11.3454 13.8686 11.4564 13.8686 11.8814C13.8673 13.3208 13.8679 14.7602 13.8686 16.2002C13.8686 16.7542 13.9449 16.8324 14.4899 16.8324C16.6755 16.8324 18.8619 16.8324 21.0475 16.8324L21.0469 16.8311Z" fill="#FFCD2C"/>
<path d="M21.0301 21.8896C22.8086 21.8896 24.5878 21.8896 26.3663 21.8896C26.4728 21.8896 26.583 21.8781 26.685 21.9011C26.9306 21.9569 27.0767 22.1134 27.0748 22.3743C27.0735 22.6346 26.9254 22.7885 26.6799 22.8436C26.5882 22.8642 26.4888 22.8533 26.3933 22.8533C22.8246 22.8533 19.2566 22.8533 15.688 22.8533C15.5925 22.8533 15.4944 22.8616 15.4008 22.8449C15.1481 22.7994 14.9975 22.6353 14.9923 22.3852C14.9866 22.1191 15.1385 21.9454 15.4059 21.8986C15.5098 21.8806 15.6181 21.8896 15.7245 21.8896C17.4928 21.8896 19.2611 21.8896 21.0294 21.8896H21.0301Z" fill="#FFCD2C"/>
<path d="M17.0746 24.3104C17.5753 24.3104 18.076 24.3053 18.5761 24.3123C18.916 24.3174 19.1333 24.5194 19.125 24.8015C19.1173 25.074 18.907 25.2728 18.5858 25.2747C17.5631 25.2811 16.5411 25.2817 15.5185 25.2747C15.2005 25.2728 14.9883 25.067 14.9844 24.7957C14.9806 24.5143 15.1986 24.3168 15.5403 24.3123C16.0513 24.3059 16.5629 24.3104 17.0739 24.311L17.0746 24.3104Z" fill="#FFCD2C"/>
<path d="M19.4569 32.3542C18.2214 32.3542 16.9859 32.3542 15.7504 32.3542C15.6337 32.3542 15.5151 32.3562 15.3997 32.3395C15.14 32.3017 15.0015 32.1298 14.9926 31.8824C14.9842 31.6464 15.1137 31.4752 15.3497 31.4156C15.4612 31.3874 15.5811 31.3848 15.6972 31.3848C18.2002 31.3829 20.7026 31.3835 23.2057 31.3835C23.2698 31.3835 23.3339 31.381 23.3974 31.3855C23.7128 31.4098 23.9238 31.6086 23.9206 31.8779C23.9174 32.1484 23.709 32.3485 23.3859 32.351C22.385 32.3587 21.3835 32.3549 20.3827 32.3555C20.0737 32.3555 19.7653 32.3555 19.4562 32.3555L19.4569 32.3542Z" fill="#FFCD2C"/>
<path d="M17.4016 34.7635C16.7848 34.7635 16.168 34.7667 15.5506 34.7622C15.2063 34.7596 14.9889 34.5724 14.9844 34.2903C14.98 34.0089 15.2012 33.8018 15.5371 33.8005C16.7816 33.796 18.0261 33.7954 19.2705 33.8005C19.6052 33.8018 19.8264 34.0121 19.82 34.2935C19.8136 34.5769 19.5982 34.7596 19.2513 34.7622C18.6345 34.7661 18.0177 34.7635 17.4003 34.7635H17.4016Z" fill="#FFCD2C"/>
<path d="M22.7575 34.7605C22.2888 34.7605 21.8202 34.7643 21.3515 34.7592C21.0014 34.7553 20.7962 34.5732 20.7969 34.2802C20.7969 33.9892 21.0053 33.7987 21.3521 33.7968C22.2895 33.7917 23.2275 33.7917 24.1648 33.7968C24.5136 33.7987 24.7175 33.9872 24.7175 34.2809C24.7175 34.5777 24.5181 34.7553 24.1648 34.7592C23.6962 34.7643 23.2275 34.7605 22.7588 34.7605H22.7575Z" fill="#FFCD2C"/>
<path d="M21.0432 12.3914C22.7923 12.3914 24.5407 12.3914 26.2897 12.3914C26.4071 12.3914 26.525 12.3889 26.6411 12.4023C26.9116 12.435 27.0674 12.5902 27.0732 12.8665C27.079 13.1448 26.9193 13.2993 26.6571 13.3499C26.5641 13.3679 26.466 13.3621 26.3699 13.3621C22.8083 13.3621 19.2467 13.3628 15.6851 13.3608C15.5588 13.3608 15.3927 13.3801 15.3152 13.3115C15.1773 13.1903 15.0267 13.0165 15.0036 12.8486C14.9734 12.6261 15.1369 12.4498 15.3819 12.4107C15.5075 12.3908 15.637 12.3921 15.7646 12.3914C17.5239 12.3901 19.2839 12.3908 21.0432 12.3908V12.3914Z" fill="#FFCD2C"/>
<path d="M17.6613 15.7697C16.9586 15.7697 16.2565 15.7729 15.5538 15.7684C15.2057 15.7658 14.9903 15.5818 14.9845 15.3003C14.9781 15.0099 15.2063 14.8073 15.5673 14.8067C16.9618 14.8028 18.3557 14.806 19.7502 14.8047C20.006 14.8047 20.2471 14.8759 20.2919 15.1445C20.3189 15.3042 20.2464 15.5171 20.1451 15.6491C20.0752 15.7402 19.8784 15.7626 19.7373 15.7652C19.0455 15.7761 18.3537 15.7703 17.6619 15.7703L17.6613 15.7697Z" fill="#FFCD2C"/>
<path d="M22.6967 15.7726C22.3992 15.7726 22.1011 15.7809 21.8042 15.77C21.4997 15.7591 21.3093 15.5719 21.3048 15.3033C21.3003 15.0346 21.4881 14.8224 21.7869 14.8153C22.3922 14.8012 22.998 14.8006 23.6033 14.8166C23.9008 14.825 24.0777 15.0417 24.0662 15.318C24.0553 15.5834 23.8835 15.7566 23.5885 15.7687C23.2917 15.7809 22.9936 15.7713 22.6961 15.7713V15.7726H22.6967Z" fill="#FFCD2C"/>
</svg>
