<svg width="48" height="48" viewBox="0 0 48 48" fill="none" xmlns="http://www.w3.org/2000/svg">
<circle opacity="0.2" cx="24" cy="24" r="24" fill="#FFCD2C"/>
<path d="M14.4658 8.27734C14.6923 8.27734 14.9179 8.27734 15.1444 8.27734C15.3383 8.36341 15.5358 8.44133 15.7251 8.53555C17.5525 9.44516 19.3754 10.3647 21.2055 11.2671C21.9792 11.6485 22.3379 12.2492 22.3316 13.1072C22.3189 14.6546 22.328 16.2011 22.328 17.7486V18.1264C23.243 18.0457 24.024 18.2224 24.6419 18.9001C25.2779 18.1934 26.0842 18.0584 26.9494 18.1137C26.9494 16.3742 26.9494 14.6917 26.9494 13.0093C26.9494 12.2673 27.252 11.6893 27.9225 11.3541C29.989 10.3203 32.0619 9.30202 34.133 8.27734C34.3595 8.27734 34.5851 8.27734 34.8116 8.27734C35.0562 8.38697 35.3045 8.48844 35.5436 8.60712C37.2152 9.43973 38.8759 10.2941 40.5583 11.1022C41.226 11.4229 41.7696 11.817 41.9997 12.5491V22.4506C41.7587 22.9825 41.3927 23.3285 40.7658 23.3285C36.5728 23.3258 32.379 23.3285 28.1861 23.3249C27.4387 23.3249 26.9567 22.8384 26.9512 22.0919C26.9449 21.2783 26.9494 20.4647 26.9494 19.6502C26.9494 19.5306 26.9494 19.411 26.9494 19.2996C25.8958 19.1311 25.1655 19.575 25.2072 20.7927C25.257 22.2377 25.219 23.6855 25.219 25.1324V25.6424C26.5254 25.5292 27.3725 26.0275 27.57 27.3792C27.7168 27.3792 27.8409 27.3792 27.9641 27.3792C29.3204 27.3792 30.6767 27.3729 32.0329 27.381C34.1602 27.3937 35.6243 28.8687 35.6288 30.995C35.6324 32.5551 35.6288 34.1143 35.6288 35.6745C35.6288 35.795 35.6288 35.9155 35.6288 36.0242C36.523 36.2407 36.7839 36.5768 36.7848 37.4656C36.7848 37.9286 36.7876 38.3924 36.7848 38.8554C36.7794 39.64 36.3282 40.0903 35.5409 40.0993C35.1713 40.1038 34.8016 40.0993 34.4401 40.0993C34.403 40.228 34.3776 40.314 34.3541 40.401C33.9301 41.9457 32.5928 42.9885 31.0264 42.9976C29.4463 43.0057 28.0674 41.9629 27.6597 40.4128C27.5872 40.1365 27.4704 40.093 27.2221 40.0939C25.6847 40.1038 24.1481 40.0984 22.6106 40.0993C22.501 40.0993 22.3923 40.1093 22.2854 40.1138C22.2609 40.1926 22.2428 40.2452 22.2274 40.2995C21.7789 41.9421 20.4807 42.9867 18.8762 42.9967C17.2599 43.0066 15.9426 41.972 15.4832 40.3168C15.4316 40.131 15.3401 40.0948 15.1725 40.0966C14.6642 40.1029 14.155 40.1075 13.6468 40.0957C12.9646 40.0803 12.5016 39.6146 12.4916 38.936C12.4835 38.348 12.4817 37.7601 12.4935 37.173C12.5043 36.6321 12.8658 36.2054 13.3904 36.0831C13.4647 36.0659 13.5408 36.0532 13.645 36.0323V35.6201C13.645 32.9302 13.645 30.2403 13.645 27.5505C13.645 26.3355 14.3435 25.6379 15.5575 25.6379C18.2474 25.6379 20.9373 25.6379 23.6272 25.6379H24.0548C24.0548 25.4875 24.0548 25.377 24.0548 25.2656C24.0548 23.7172 24.0294 22.168 24.0638 20.6205C24.0847 19.6702 23.3925 19.0749 22.3243 19.3223C22.3243 20.2427 22.3298 21.1687 22.3225 22.0937C22.3171 22.8266 21.8396 23.3231 21.1185 23.324C16.9029 23.3295 12.6873 23.3295 8.47086 23.324C7.76238 23.3231 7.27677 22.8303 7.27586 22.1236C7.27496 19.0613 7.27496 15.9982 7.27949 12.935C7.28039 12.2302 7.59387 11.683 8.22443 11.3677C10.2992 10.3276 12.3847 9.30564 14.4658 8.27734ZM14.8028 36.0414C14.9423 36.0486 15.042 36.0586 15.1408 36.0586C18.7683 36.0586 22.395 36.0568 26.0226 36.0649C26.3007 36.0649 26.3859 35.9925 26.385 35.7071C26.375 32.9955 26.3796 30.2829 26.3777 27.5713C26.3777 26.986 26.1848 26.794 25.6086 26.793C22.2636 26.793 18.9187 26.793 15.5747 26.793C14.9904 26.793 14.8028 26.9797 14.8028 27.5622C14.8028 29.9694 14.8028 32.3758 14.8028 34.783C14.8028 35.1889 14.8028 35.5947 14.8028 36.0405V36.0414ZM21.1538 22.1526C21.1611 22.0638 21.1701 22.0085 21.1701 21.9533C21.1701 18.9707 21.1692 15.9882 21.1728 13.0057C21.1728 12.6506 20.9925 12.453 20.6918 12.3036C18.8734 11.4012 17.056 10.4943 15.2449 9.57744C14.9315 9.41889 14.6633 9.42704 14.3507 9.58469C12.5487 10.4979 10.7422 11.4021 8.9302 12.2945C8.5669 12.473 8.42466 12.7158 8.42556 13.118C8.43644 16.01 8.43191 18.9028 8.43191 21.7947C8.43191 21.9134 8.43191 22.0321 8.43191 22.1508H9.58795C9.58795 21.9986 9.58795 21.8654 9.58795 21.7322C9.58795 19.2579 9.58795 16.7837 9.58795 14.3094C9.58795 13.3346 10.0192 12.9006 10.9895 12.9006C13.5199 12.9006 16.0513 12.9006 18.5817 12.9006C19.5946 12.9006 20.0132 13.3246 20.0141 14.3493C20.0141 16.8127 20.0141 19.2751 20.0141 21.7385V22.1526H21.1538ZM40.8437 22.1544C40.8437 22.014 40.8437 21.9125 40.8437 21.811C40.8437 18.9073 40.8382 16.0036 40.85 13.1008C40.8518 12.6931 40.6897 12.4594 40.3336 12.2836C38.5325 11.3949 36.735 10.497 34.9439 9.58831C34.6204 9.42433 34.345 9.42342 34.0198 9.58831C32.2187 10.5025 30.4121 11.4066 28.6001 12.2972C28.235 12.4766 28.0991 12.7267 28.1009 13.1253C28.1109 16.0172 28.1064 18.91 28.1073 21.802C28.1073 21.9116 28.1172 22.0221 28.1227 22.1462H29.2633C29.2633 21.9886 29.2633 21.8536 29.2633 21.7195C29.2633 19.2344 29.2633 16.7483 29.2633 14.2632C29.2633 13.359 29.7163 12.9015 30.6105 12.9006C33.1863 12.8988 35.762 12.8997 38.3377 12.9006C39.2365 12.9006 39.6876 13.3554 39.6885 14.2587C39.6894 16.7556 39.6885 19.2525 39.6885 21.7494C39.6885 21.8808 39.6885 22.0112 39.6885 22.1535H40.8446L40.8437 22.1544ZM34.461 32.5778C33.5613 32.5778 32.6934 32.5814 31.8255 32.5751C31.6008 32.5733 31.3688 32.5733 31.1532 32.5207C30.3985 32.3386 29.8694 31.6772 29.8567 30.899C29.8441 30.1235 29.854 29.347 29.854 28.5624H27.5619V36.036H34.4619V32.5769L34.461 32.5778ZM11.9009 22.1517C11.9009 22.014 11.9009 21.8926 11.9009 21.7721C11.9009 20.7891 11.8982 19.807 11.9018 18.824C11.9055 18.004 12.3612 17.5501 13.1838 17.5393C13.4891 17.5357 13.7936 17.5357 14.0989 17.5393C14.926 17.5492 15.3664 17.9914 15.3763 18.8231C15.3799 19.1583 15.3763 19.4926 15.3763 19.8568C15.7423 19.8568 16.0567 19.8559 16.3711 19.8568C17.2581 19.8604 17.6929 20.2998 17.6984 21.1958C17.7002 21.5084 17.6984 21.821 17.6984 22.1426H18.8309V16.405H10.7694V22.1707C11.0747 22.1707 11.3546 22.1716 11.6355 22.1707C11.7116 22.1707 11.7877 22.1607 11.9018 22.1517H11.9009ZM35.0589 19.8568C35.3905 19.8568 35.6723 19.8749 35.9504 19.8541C36.9932 19.7762 37.439 20.4964 37.3783 21.2692C37.3556 21.5573 37.3746 21.8491 37.3746 22.1435H38.5071V16.4059H30.4429V22.1526H31.5763C31.5763 22.013 31.5763 21.8916 31.5763 21.7712C31.5763 20.7773 31.57 19.7834 31.579 18.7895C31.5863 18.0059 32.0429 17.5547 32.8257 17.5402C33.1527 17.5338 33.4807 17.5338 33.8078 17.5402C34.5905 17.5547 35.0408 18.005 35.0562 18.7895C35.0626 19.1266 35.0571 19.4645 35.0571 19.8568H35.0589ZM28.6962 39.5285C28.698 40.8078 29.7263 41.8424 30.9965 41.8433C32.2803 41.8442 33.324 40.7951 33.3185 39.5086C33.3131 38.2366 32.2775 37.2165 30.9947 37.2192C29.7145 37.2219 28.6944 38.2466 28.6971 39.5285H28.6962ZM16.5414 39.5285C16.5441 40.8069 17.5742 41.8433 18.8435 41.8442C20.1255 41.8442 21.1783 40.7897 21.1701 39.5104C21.162 38.2402 20.1219 37.2174 18.8426 37.2201C17.5634 37.2228 16.5396 38.2511 16.5414 39.5294V39.5285ZM22.3687 38.9424C24.0095 38.9424 25.7137 38.9442 27.4187 38.9369C27.484 38.9369 27.5827 38.8663 27.6099 38.8038C27.8364 38.2846 28.0502 37.7591 28.2658 37.2409H21.5579C21.8179 37.7872 22.077 38.3308 22.3687 38.9433V38.9424ZM18.8363 14.0793H10.7712V15.1964H18.8363V14.0793ZM38.5135 14.0838H30.4402V15.1919H38.5135V14.0838ZM31.0083 28.6023C31.0083 29.3045 31.0055 30.0247 31.0092 30.7441C31.0119 31.2179 31.2112 31.4154 31.6941 31.4181C32.4832 31.4227 33.2732 31.4199 34.0623 31.4199C34.1919 31.4199 34.3224 31.4199 34.4565 31.4199C34.5208 30.6344 34.4383 29.9423 33.8748 29.3307C33.6392 29.5817 33.43 29.8181 33.2053 30.0392C32.9217 30.3183 32.5756 30.34 32.3346 30.1099C32.0819 29.868 32.1045 29.521 32.3953 29.2166C32.5611 29.0435 32.7287 28.8723 32.8954 28.7002L32.8583 28.6014H31.0074L31.0083 28.6023ZM13.6649 38.9424C14.2094 38.9424 14.7376 38.9469 15.2649 38.936C15.3319 38.9342 15.4307 38.8654 15.4579 38.8019C15.6844 38.2828 15.8982 37.7582 16.1138 37.2409H13.6658V38.9415L13.6649 38.9424ZM33.7126 37.2355C33.979 37.8026 34.2354 38.3462 34.5045 38.9188H35.6116V37.2355H33.7126ZM16.5097 22.1616V21.0355H15.4053V22.1616H16.5097ZM33.8793 18.7261H32.7595V19.8305H33.8793V18.7261ZM32.7595 21.0319V22.1553H33.8748V21.0319H32.7595ZM36.195 22.1553V21.0427H35.0825V22.1553H36.195ZM14.2003 21.0382H13.0869V22.1499H14.2003V21.0382ZM13.0896 18.7134V19.8332H14.1858V18.7134H13.0896Z" fill="#FFCD2C"/>
<path d="M20.8429 34.9002C19.8725 34.9002 18.9031 34.9011 17.9328 34.8984C17.7987 34.8984 17.6583 34.8984 17.5306 34.8622C17.2597 34.7879 17.1147 34.5876 17.1192 34.3122C17.1229 34.0377 17.2678 33.8393 17.5432 33.7723C17.6728 33.7405 17.8114 33.7396 17.9464 33.7396C19.8979 33.7378 21.8494 33.7387 23.8 33.7387C23.868 33.7387 23.9359 33.7369 24.003 33.7405C24.3889 33.7632 24.6281 33.9797 24.6335 34.3086C24.6399 34.6493 24.3916 34.8921 23.9894 34.8957C22.9402 34.9047 21.8911 34.8984 20.8429 34.8984V34.9002Z" fill="#FFCD2C"/>
<path d="M20.8616 29.1048C19.846 29.1048 18.8313 29.1066 17.8157 29.1048C17.3817 29.1039 17.1226 28.891 17.1154 28.5422C17.1081 28.1861 17.3845 27.9506 17.8275 27.9506C19.8578 27.9488 21.889 27.9488 23.9194 27.9506C24.366 27.9506 24.6396 28.1798 24.6351 28.5377C24.6315 28.8973 24.3687 29.1048 23.9076 29.1057C22.892 29.1075 21.8773 29.1057 20.8616 29.1057V29.1048Z" fill="#FFCD2C"/>
<path d="M20.9085 30.8513C21.9123 30.8513 22.9161 30.8495 23.9209 30.8513C24.3748 30.8522 24.6411 31.0724 24.6357 31.432C24.6303 31.7772 24.3621 32.0046 23.939 32.0055C21.8969 32.0082 19.8557 32.0055 17.8136 32.0082C17.5463 32.0082 17.2899 31.9484 17.1984 31.6884C17.1386 31.519 17.1314 31.2499 17.2283 31.1285C17.347 30.9799 17.5989 30.8676 17.7964 30.8631C18.8337 30.8377 19.872 30.8513 20.9094 30.8513H20.9085Z" fill="#FFCD2C"/>
<path d="M14.7968 11.7435C14.5939 11.7435 14.39 11.7543 14.1871 11.7407C13.8727 11.719 13.6607 11.4943 13.6507 11.1935C13.6408 10.8982 13.8419 10.6255 14.1463 10.6064C14.5848 10.5793 15.0278 10.5784 15.4654 10.6082C15.7662 10.6291 15.971 10.9145 15.9547 11.2026C15.9384 11.497 15.7173 11.7217 15.4056 11.7416C15.2036 11.7543 14.9998 11.7444 14.7959 11.7435H14.7968Z" fill="#FFCD2C"/>
<path d="M34.463 11.7419C34.271 11.7419 34.0789 11.751 33.8877 11.7401C33.5571 11.7211 33.3287 11.491 33.3224 11.182C33.3161 10.8921 33.5253 10.6212 33.8298 10.6022C34.2574 10.5759 34.6886 10.575 35.1154 10.6013C35.4361 10.6203 35.6454 10.9003 35.6263 11.2083C35.6082 11.5064 35.3917 11.7148 35.0728 11.741C35.0501 11.7428 35.0275 11.7428 35.0048 11.7437C34.8245 11.7437 34.6433 11.7437 34.463 11.7437V11.7419Z" fill="#FFCD2C"/>
<path d="M32.1696 34.8883C31.9558 34.8883 31.7392 34.9065 31.5272 34.8838C31.2092 34.8503 31.0108 34.6174 31.0117 34.3176C31.0117 34.0168 31.2101 33.774 31.5299 33.7558C31.9567 33.7323 32.3879 33.7314 32.8146 33.7595C33.1263 33.7794 33.2939 33.995 33.3147 34.3031C33.3347 34.5966 33.1245 34.8448 32.8119 34.8802C32.6008 34.9046 32.3843 34.8847 32.1696 34.8847V34.8865V34.8883Z" fill="#FFCD2C"/>
<path d="M31.0014 40.0948C30.7985 40.0948 30.5946 40.1066 30.3926 40.0921C30.0864 40.0712 29.8825 39.8674 29.858 39.582C29.8327 39.293 29.9958 39.0058 30.2848 38.9822C30.7649 38.9433 31.2533 38.9424 31.7325 38.9859C32.0216 39.0121 32.162 39.2613 32.1584 39.5539C32.1547 39.8357 31.9373 40.064 31.6456 40.0885C31.4327 40.1066 31.217 40.0921 31.0023 40.0921V40.0948H31.0014Z" fill="#FFCD2C"/>
<path d="M18.8521 40.0908C18.6492 40.0908 18.4453 40.1017 18.2433 40.0881C17.9353 40.0672 17.7332 39.867 17.7079 39.5798C17.6807 39.2754 17.8546 38.9909 18.1618 38.9674C18.6202 38.9311 19.0859 38.9338 19.5443 38.9692C19.8324 38.9909 20.0227 39.2754 20.0082 39.5472C19.9928 39.8398 19.7717 40.0672 19.4609 40.0881C19.2589 40.1017 19.0551 40.0908 18.8521 40.0908Z" fill="#FFCD2C"/>
</svg>
