<svg width="48" height="48" viewBox="0 0 48 48" fill="none" xmlns="http://www.w3.org/2000/svg">
<circle opacity="0.2" cx="24" cy="24" r="24" fill="#FFCD2C"/>
<path d="M13.7813 32.6878C12.7749 32.6878 11.8541 32.6944 10.9332 32.6865C9.94527 32.6773 9.58746 32.3234 9.58746 31.3539C9.58483 24.5448 9.58614 17.7345 9.58746 10.9255C9.58746 9.9415 9.93475 9.59289 10.9161 9.59026C12.1671 9.58631 13.4182 9.58237 14.6692 9.59158C15.5033 9.59815 15.8716 9.96123 15.8742 10.7939C15.8821 12.9264 15.8769 15.0575 15.8769 17.3399C16.5872 16.982 17.2266 16.6847 17.833 16.3309C17.9488 16.2638 17.9685 15.9691 17.9698 15.7797C17.9803 14.18 17.9724 12.5804 17.9764 10.9807C17.979 9.9244 18.3184 9.59289 19.3853 9.59026C20.5745 9.58763 21.765 9.58631 22.9542 9.59026C23.9382 9.59421 24.2789 9.92966 24.2829 10.9255C24.2908 12.7922 24.2855 14.6589 24.2855 16.5243C24.2855 16.7453 24.2855 16.9649 24.2855 17.332C24.9972 16.9755 25.6208 16.694 26.2061 16.3467C26.339 16.2677 26.3837 15.9586 26.3851 15.756C26.3995 14.1564 26.389 12.5567 26.3943 10.9571C26.3982 9.91782 26.7245 9.59289 27.7519 9.59026C28.9411 9.58763 30.1316 9.58763 31.3208 9.59026C32.3443 9.59289 32.6955 9.93624 32.6981 10.9505C32.7034 12.8172 32.6994 14.6839 32.6994 16.5492C32.6994 16.7676 32.6994 16.986 32.6994 17.3267C33.544 16.9031 34.2859 16.5282 35.0305 16.1585C36.2026 15.5771 36.8959 16.0086 36.8959 17.3201C36.8985 20.7049 36.8867 24.0884 36.913 27.4731C36.9156 27.7968 37.0709 28.194 37.2919 28.4269C39.3796 30.629 38.9415 29.5687 38.9902 32.5786C39.0059 33.5836 38.9981 34.5887 38.9902 35.5937C38.9849 36.4883 38.6087 36.9092 37.726 36.8803C37.0643 36.8579 36.6696 37.0105 36.2658 37.6327C35.0055 39.5731 32.1285 39.3968 31.0103 37.3591C30.8104 36.996 30.6039 36.8777 30.2066 36.8855C29.0174 36.9105 27.8268 36.8842 26.6376 36.9053C26.4495 36.9092 26.1838 37.0092 26.0917 37.1526C24.7801 39.1837 23.2792 39.5179 21.1152 38.2102C20.368 38.7654 19.5379 39.1035 18.5631 38.9404C17.5199 38.7654 16.7359 38.2195 16.2636 37.2828C16.1058 36.9697 15.9282 36.8605 15.6045 36.8908C15.402 36.9105 15.1941 36.9013 14.9902 36.8921C14.1746 36.8579 13.7892 36.4764 13.78 35.6621C13.7681 34.7018 13.7773 33.7415 13.7773 32.6865L13.7813 32.6878ZM13.7813 30.5488C13.7813 30.3199 13.7813 30.1199 13.7813 29.92C13.7813 28.5045 13.7786 27.0903 13.7813 25.6749C13.7839 24.6277 14.1365 24.2752 15.1902 24.2725C17.5068 24.2686 19.8247 24.2725 22.1413 24.2725C24.5197 24.2725 26.8981 24.2686 29.2765 24.2752C30.2039 24.2778 30.5789 24.6606 30.5986 25.5828C30.6039 25.8235 30.5986 26.0629 30.5986 26.33H34.77V18.6764C34.5201 18.7895 34.3188 18.8711 34.1254 18.9671C32.1838 19.9367 30.2447 20.9088 28.3017 21.8783C27.052 22.5019 26.3956 22.0875 26.3916 20.6747C26.389 20.0287 26.3916 19.3841 26.3916 18.6606C26.0825 18.8014 25.8786 18.8882 25.6826 18.9856C23.7225 19.963 21.765 20.947 19.8023 21.9217C18.6947 22.4716 17.9882 22.0415 17.9777 20.8154C17.9711 20.1274 17.9777 19.4381 17.9777 18.6738C17.6896 18.8027 17.487 18.8843 17.291 18.9816C15.5874 19.8314 13.8944 20.7023 12.1764 21.5245C11.7672 21.7205 11.6725 21.9573 11.6752 22.3703C11.6909 24.8921 11.683 27.414 11.683 29.9371V30.5488H13.78H13.7813ZM21.1191 33.4758C22.8924 32.3102 24.7394 32.451 25.7102 33.9651C26.1785 34.6966 26.6745 34.8899 27.4309 34.7965C27.5927 34.7768 27.7611 34.7755 27.9216 34.7965C28.3872 34.8597 28.5122 34.6637 28.5083 34.2085C28.4885 31.7709 28.4991 29.3333 28.4964 26.8943C28.4964 26.7378 28.4635 26.5812 28.4451 26.4273H15.9308V34.7294C16.4938 33.8152 17.1568 33.0653 18.2171 32.7983C19.2787 32.5312 20.2456 32.7575 21.1178 33.4731L21.1191 33.4758ZM36.7828 34.836C36.8498 34.6847 36.888 34.6347 36.8933 34.5821C37.0739 32.3826 36.3885 30.5093 34.8371 28.9623C34.7358 28.861 34.6411 28.7505 34.5293 28.6624C34.4359 28.5887 34.3228 28.4927 34.2175 28.4913C33.0336 28.4795 31.851 28.4835 30.6749 28.4835V34.7176C31.3682 33.4547 32.3351 32.6917 33.7834 32.6983C35.2252 32.7049 36.1408 33.5415 36.7841 34.8347L36.7828 34.836ZM11.7107 19.4131C12.2763 19.1329 12.7565 18.8658 13.2603 18.654C13.651 18.4909 13.7984 18.2699 13.7918 17.8279C13.7628 15.9836 13.78 14.1379 13.78 12.2936V11.7227H11.7107V19.4131ZM20.1128 19.4131C20.7245 19.1092 21.2257 18.8343 21.7492 18.6093C22.0807 18.4659 22.1926 18.2686 22.1899 17.9095C22.1728 15.9823 22.1834 14.0537 22.1794 12.1265C22.1794 11.9924 22.1452 11.8569 22.1268 11.7214H20.1128V19.4131ZM28.5372 11.7187V19.4026C29.1331 19.1079 29.6475 18.8264 30.1842 18.5948C30.5249 18.4488 30.6118 18.2305 30.6078 17.8805C30.5907 16.4664 30.6012 15.0522 30.6012 13.6394C30.6012 13.0092 30.6012 12.3804 30.6012 11.7187H28.5372ZM20.0693 35.8397C20.0733 35.2412 19.6273 34.7965 19.0262 34.8018C18.4658 34.8057 18.0093 35.2451 17.9882 35.7976C17.9672 36.358 18.45 36.8684 19.0156 36.8816C19.5892 36.8948 20.0667 36.4238 20.0693 35.8384V35.8397ZM33.7295 34.8018C33.1309 34.8084 32.6942 35.2622 32.7087 35.8621C32.7218 36.4185 33.173 36.8711 33.7255 36.8803C34.2899 36.8908 34.7898 36.4001 34.7924 35.8358C34.795 35.2609 34.3162 34.7952 33.7295 34.8018ZM23.2121 36.8816C23.7843 36.8987 24.2658 36.4277 24.2711 35.845C24.2776 35.2741 23.8593 34.8281 23.2936 34.8031C22.703 34.7755 22.2189 35.2122 22.1952 35.7937C22.1715 36.3659 22.6359 36.8645 23.2108 36.8816H23.2121Z" fill="#FFCD2C"/>
</svg>
