<svg width="48" height="48" viewBox="0 0 48 48" fill="none" xmlns="http://www.w3.org/2000/svg">
<circle opacity="0.2" cx="24" cy="24" r="24" fill="#FFCD2C"/>
<path d="M39.997 35.7076C39.9581 35.784 39.9183 35.8603 39.8801 35.9375C39.6717 36.3591 39.3424 36.6168 38.8699 36.6725C38.7227 36.69 38.5732 36.6932 38.4244 36.6932C29.3069 36.694 20.1895 36.694 11.0712 36.6916C10.8644 36.6916 10.6504 36.6868 10.4507 36.6383C9.90186 36.5047 9.52005 35.9956 9.51289 35.4069C9.50573 34.7618 9.5105 34.1175 9.5105 33.4724C9.5105 30.2285 9.5105 26.9839 9.5105 23.74C9.5105 23.6406 9.50016 23.5388 9.52005 23.4433C9.56857 23.2134 9.71095 23.075 9.95436 23.0742C10.1986 23.0734 10.3425 23.211 10.3919 23.4401C10.4141 23.5451 10.403 23.6573 10.403 23.7663C10.403 27.5757 10.403 31.3859 10.403 35.1953C10.403 35.6941 10.5024 35.8007 10.9853 35.8007C13.9515 35.8023 16.9186 35.8015 19.8848 35.8007C19.9723 35.8007 20.059 35.7911 20.1728 35.784C20.1728 35.4809 20.1696 35.1953 20.1736 34.9098C20.1783 34.5805 20.3414 34.388 20.6111 34.3824C20.8966 34.3768 21.0613 34.5685 21.0645 34.9177C21.0676 35.1945 21.0645 35.4722 21.0645 35.7824C21.183 35.7887 21.288 35.7999 21.3922 35.7999C27.0868 35.8007 32.7815 35.8007 38.4769 35.7999C39.0083 35.7999 39.1006 35.7052 39.1014 35.177C39.1014 35.1476 39.1029 35.1174 39.1014 35.088C39.0886 34.8366 39.1205 34.6075 39.3965 34.5009C39.6773 34.3927 39.8395 34.5669 39.9947 34.7547V35.7076H39.997Z" fill="#FFCD2C"/>
<path d="M39.9995 33.1472C39.8619 33.3644 39.6853 33.5203 39.4117 33.4272C39.1412 33.3349 39.1039 33.1042 39.1039 32.8473C39.107 28.3769 39.1062 23.9072 39.1062 19.4368C39.1062 18.9181 39.0203 18.8314 38.5025 18.8306C37.8287 18.8306 37.1542 18.8306 36.4805 18.8306C36.3914 18.8306 36.3015 18.833 36.2132 18.8235C35.9348 18.7917 35.7614 18.6055 35.7741 18.3589C35.786 18.1211 35.9578 17.9548 36.2283 17.9429C36.4956 17.9318 36.7636 17.9389 37.0309 17.9389C37.4668 17.9389 37.9051 17.9652 38.3386 17.9334C39.1325 17.8745 39.7036 18.1545 39.9995 18.9181V33.1472Z" fill="#FFCD2C"/>
<path d="M24.5469 29.3309C24.7123 29.058 24.811 28.7526 25.0202 28.5784C25.4791 28.195 25.6526 27.7582 25.6088 27.1609C25.5818 26.7902 25.5245 26.4927 25.2206 26.2636C25.1109 26.1809 25.0194 26.0727 24.9255 25.9701C24.6113 25.6248 24.5421 25.2025 24.7537 24.788C24.9112 24.4794 25.0846 24.1779 25.2731 23.8876C25.5181 23.5105 25.8785 23.3634 26.3239 23.431C26.3732 23.4381 26.4289 23.435 26.4695 23.458C27.2148 23.882 27.7836 23.4381 28.3619 23.0675C28.4335 23.0213 28.4804 22.9139 28.5082 22.8256C28.5798 22.5989 28.6275 22.3659 28.696 22.1384C28.8431 21.6444 29.213 21.3636 29.7269 21.3556C30.0339 21.3509 30.3418 21.3493 30.6488 21.3564C31.111 21.3676 31.4578 21.6221 31.6169 22.0572C31.6336 22.1034 31.6598 22.1511 31.6606 22.198C31.6813 23.0516 32.3511 23.3172 32.9628 23.6306C33.0304 23.6648 33.1346 23.6505 33.2157 23.6322C33.4862 23.5718 33.7511 23.4835 34.0223 23.4342C34.4527 23.3562 34.8122 23.501 35.054 23.8653C35.2513 24.1612 35.4287 24.473 35.5902 24.7904C35.8017 25.2056 35.7294 25.624 35.4159 25.9732C35.4024 25.9884 35.3913 26.0067 35.3754 26.0162C34.63 26.4577 34.7287 27.1823 34.7581 27.8784C34.7621 27.9635 34.8313 28.0573 34.8941 28.125C35.0477 28.2928 35.2187 28.4455 35.3762 28.6102C35.7492 29.0007 35.8089 29.4374 35.5512 29.9163C35.4152 30.1693 35.2704 30.4182 35.1208 30.6624C34.84 31.1214 34.3986 31.3585 33.9086 31.1588C33.2467 30.8891 32.7217 31.0474 32.1785 31.4229C31.9669 31.5693 31.8324 31.7164 31.7799 31.9678C31.5731 32.9637 31.3416 33.3407 30.1111 33.2707C29.9925 33.2644 29.8732 33.2707 29.7539 33.2691C29.2178 33.2604 28.7843 32.9955 28.7103 32.4801C28.6093 31.7801 28.229 31.3855 27.6205 31.1087C27.3898 31.0037 27.2037 30.9576 26.9531 31.0299C25.7798 31.368 25.5722 31.2805 24.9709 30.221C24.8181 29.9513 24.7036 29.6602 24.5485 29.3301L24.5469 29.3309ZM34.2029 30.3276C34.2713 30.2472 34.3811 30.151 34.4511 30.0317C34.8536 29.3484 34.8583 29.338 34.2856 28.7899C33.9762 28.494 33.8266 28.1592 33.8529 27.732C33.8704 27.4552 33.8712 27.176 33.8529 26.8992C33.8235 26.4593 33.9841 26.1196 34.3007 25.8173C34.8591 25.286 34.8361 25.2836 34.4638 24.5931C34.3198 24.3259 34.1639 24.2606 33.8982 24.3776C33.2292 24.6703 32.6072 24.586 32.0329 24.1358C32.0019 24.1119 31.9661 24.0912 31.9303 24.0761C31.3114 23.8176 30.9789 23.361 30.8588 22.6936C30.7665 22.1813 30.819 22.241 30.2773 22.2473C29.4302 22.2585 29.6274 22.1018 29.419 22.9155C29.2965 23.3944 29.0682 23.7412 28.6228 23.956C28.3913 24.0681 28.1686 24.2002 27.953 24.3402C27.5951 24.5733 27.2291 24.6059 26.8195 24.4834C26.071 24.259 26.0797 24.2789 25.6716 24.9463C25.5197 25.1953 25.5126 25.3663 25.7536 25.5437C26.3406 25.9748 26.4981 26.5523 26.5085 27.277C26.5196 28.0613 26.3231 28.6714 25.6979 29.1376C25.5277 29.2648 25.4903 29.4032 25.6263 29.5902C25.7424 29.7493 25.8403 29.9251 25.9238 30.104C26.0113 30.2926 26.141 30.3642 26.3263 30.2782C27.1162 29.9123 27.8233 30.0873 28.4883 30.5885C28.5902 30.6656 28.7103 30.7189 28.8216 30.7842C29.0905 30.9417 29.2719 31.1652 29.3482 31.4722C29.3936 31.6544 29.4675 31.8326 29.4914 32.0171C29.5304 32.3162 29.6847 32.391 29.9727 32.3838C30.7506 32.3647 30.7546 32.379 30.9455 31.6202C31.0306 31.2813 31.169 30.9862 31.4864 30.804C31.8388 30.602 32.1745 30.3618 32.546 30.2067C32.7854 30.1072 33.0789 30.0921 33.343 30.1104C33.6047 30.1287 33.86 30.2361 34.2005 30.3268L34.2029 30.3276Z" fill="#FFCD2C"/>
<path d="M21.0643 18.8319C21.0643 19.1644 21.0683 19.4508 21.0635 19.7363C21.0579 20.0625 20.8877 20.2486 20.6109 20.243C20.35 20.2375 20.1805 20.0521 20.1734 19.7459C20.1662 19.4516 20.1718 19.1564 20.1718 18.8319H19.7868C16.8699 18.8319 13.9529 18.8319 11.036 18.8319C10.4768 18.8319 10.402 18.9075 10.402 19.4683C10.402 20.1333 10.4036 20.7975 10.402 21.4625C10.4012 21.8204 10.2477 22.0145 9.96851 22.0209C9.67738 22.028 9.51113 21.8276 9.51033 21.4569C9.50874 20.7227 9.50556 19.9885 9.51033 19.2543C9.5159 18.4938 10.0369 17.9641 10.7942 17.9394C10.8833 17.9362 10.9724 17.9386 11.0623 17.9386C18.6922 17.9386 26.3214 17.9386 33.9514 17.9386C34.0604 17.9386 34.1702 17.9338 34.2784 17.9442C34.5297 17.9672 34.6801 18.1041 34.6976 18.361C34.7143 18.6068 34.5568 18.7842 34.2903 18.82C34.1734 18.8359 34.0525 18.8319 33.9339 18.8319C29.7864 18.8319 25.6397 18.8319 21.4922 18.8319C21.3642 18.8319 21.2361 18.8319 21.0651 18.8319H21.0643Z" fill="#FFCD2C"/>
<path d="M15.2105 23.7744C14.2886 23.7744 13.3667 23.776 12.4447 23.7744C11.9388 23.7728 11.8084 23.6424 11.8068 23.1404C11.8044 22.298 11.8036 21.4549 11.8068 20.6125C11.8084 20.1607 11.9436 20.0254 12.3938 20.0246C14.287 20.023 16.181 20.023 18.0742 20.0246C18.5085 20.0246 18.6501 20.1622 18.6517 20.5918C18.6564 21.4541 18.6556 22.3171 18.6517 23.1794C18.6501 23.6272 18.5093 23.7712 18.0646 23.7736C17.1133 23.7784 16.1611 23.7752 15.2097 23.7752L15.2105 23.7744ZM12.7263 20.9338V22.8588H17.7401V20.9338H12.7255H12.7263Z" fill="#FFCD2C"/>
<path d="M15.2441 25.9149C16.1652 25.9149 17.0872 25.9149 18.0083 25.9149C18.1069 25.9149 18.2079 25.9133 18.3042 25.9324C18.5158 25.9753 18.6295 26.1177 18.6407 26.3285C18.6526 26.552 18.5508 26.7167 18.3296 26.7739C18.2071 26.8058 18.0743 26.805 17.9462 26.8058C16.1334 26.8074 14.3198 26.8074 12.5069 26.8066C12.0193 26.8066 11.8125 26.6705 11.8125 26.3555C11.8125 26.0413 12.0137 25.9141 12.5093 25.9141C13.4209 25.9141 14.3325 25.9141 15.2441 25.9141V25.9149Z" fill="#FFCD2C"/>
<path d="M15.2268 27.8995C16.1782 27.8995 17.1295 27.8979 18.0809 27.8995C18.454 27.9003 18.6528 28.0657 18.6441 28.3569C18.6361 28.6313 18.4349 28.7912 18.0833 28.7912C16.1806 28.7928 14.2778 28.7928 12.3751 28.7912C12.0092 28.7912 11.8048 28.6186 11.8127 28.329C11.8207 28.0514 12.0124 27.9003 12.3727 27.8995C13.3241 27.8971 14.2754 27.8995 15.2268 27.8995Z" fill="#FFCD2C"/>
<path d="M15.2285 30.7718C14.2771 30.7718 13.3258 30.7734 12.3744 30.7718C12.0029 30.771 11.8033 30.604 11.8128 30.3136C11.8216 30.0384 12.0196 29.8809 12.3744 29.8801C14.2771 29.8785 16.1799 29.8785 18.0826 29.8801C18.4485 29.8801 18.6529 30.0535 18.6442 30.3423C18.6354 30.6215 18.4453 30.771 18.0834 30.7718C17.132 30.7742 16.1807 30.7718 15.2293 30.7718H15.2285Z" fill="#FFCD2C"/>
<path d="M15.2318 31.8688C16.1831 31.8688 17.1345 31.8704 18.0851 31.8672C18.2935 31.8672 18.4836 31.8958 18.5942 32.0995C18.7326 32.3548 18.5989 32.665 18.3134 32.7334C18.1996 32.7605 18.0779 32.7605 17.9594 32.7605C16.1362 32.7621 14.313 32.7613 12.4898 32.7613C12.4302 32.7613 12.3705 32.7629 12.3117 32.7597C11.9855 32.7382 11.8026 32.5672 11.8129 32.2936C11.8225 32.0318 12.0014 31.8728 12.3188 31.8712C13.2901 31.8664 14.2605 31.8696 15.2318 31.8696V31.8688Z" fill="#FFCD2C"/>
<path d="M21.0671 25.7022C21.0671 25.9297 21.0758 26.1572 21.0647 26.3839C21.0519 26.64 20.8682 26.8198 20.6343 26.8254C20.4037 26.8309 20.1913 26.6543 20.1833 26.403C20.1682 25.909 20.1674 25.4142 20.1849 24.9202C20.1937 24.6673 20.4068 24.5018 20.6447 24.5122C20.8809 24.5225 21.0551 24.6991 21.0655 24.96C21.075 25.2066 21.0679 25.454 21.0671 25.7014V25.7022Z" fill="#FFCD2C"/>
<path d="M21.0683 28.9496C21.0683 29.1867 21.0754 29.4245 21.0659 29.6615C21.0555 29.9224 20.8813 30.099 20.6451 30.1094C20.3961 30.1205 20.1901 29.9447 20.1821 29.6719C20.1678 29.1978 20.1694 28.7229 20.1813 28.2488C20.1885 27.9768 20.3921 27.7914 20.6347 27.797C20.8789 27.8026 21.0571 27.9903 21.0667 28.2679C21.0746 28.4954 21.0683 28.7229 21.0683 28.9504V28.9496Z" fill="#FFCD2C"/>
<path d="M21.0682 22.3776C21.0682 22.6147 21.0761 22.8517 21.0658 23.0888C21.0546 23.3513 20.8812 23.5255 20.6434 23.5358C20.3992 23.5462 20.19 23.364 20.182 23.0943C20.1685 22.6203 20.1685 22.1462 20.182 21.6721C20.1892 21.3968 20.3849 21.225 20.6386 21.2306C20.8924 21.2362 21.0538 21.4112 21.0697 21.6959C21.0705 21.7158 21.0697 21.7357 21.0697 21.7548C21.0697 21.9624 21.0697 22.17 21.0697 22.3768H21.0682V22.3776Z" fill="#FFCD2C"/>
<path d="M21.0684 32.2227C21.0684 32.4597 21.0747 32.6968 21.0668 32.9338C21.0572 33.2162 20.8846 33.3912 20.6309 33.3936C20.3779 33.396 20.1878 33.2234 20.1806 32.945C20.1687 32.4812 20.1695 32.0167 20.1798 31.5521C20.1862 31.2769 20.3771 31.09 20.6197 31.086C20.8766 31.082 21.058 31.2737 21.0668 31.5704C21.0731 31.7876 21.0684 32.0047 21.0676 32.2227H21.0684Z" fill="#FFCD2C"/>
<path d="M30.1921 24.8008C31.5865 24.808 32.6938 25.9296 32.6866 27.328C32.6794 28.7216 31.5563 29.8305 30.1586 29.8225C28.765 29.8154 27.6562 28.6914 27.6641 27.2946C27.6713 25.9001 28.7936 24.7937 30.1921 24.8008ZM30.1738 25.6941C29.2661 25.6941 28.5534 26.4116 28.5574 27.3208C28.5606 28.2141 29.2693 28.9252 30.1618 28.93C31.0702 28.9356 31.7909 28.2229 31.7933 27.3176C31.7957 26.4092 31.0814 25.6933 30.1738 25.6941Z" fill="#FFCD2C"/>
<path d="M18.5565 14.9022C18.5565 15.2347 18.5605 15.5211 18.5557 15.8066C18.5501 16.1328 18.3799 16.3189 18.1031 16.3133C17.8422 16.3078 17.6727 16.1224 17.6656 15.8162C17.6584 15.5219 17.664 15.2268 17.664 14.9022H17.279C14.3621 14.9022 11.4451 14.9022 8.5282 14.9022C7.969 14.9022 7.89422 14.9778 7.89422 15.5386C7.89422 16.2036 7.89581 16.8678 7.89422 17.5328C7.89343 17.8907 7.73991 18.0848 7.4607 18.0912C7.16957 18.0983 7.00332 17.8979 7.00252 17.5272C7.00093 16.793 6.99775 16.0588 7.00252 15.3246C7.00809 14.5641 7.52911 14.0344 8.28638 14.0097C8.37547 14.0065 8.46456 14.0089 8.55445 14.0089C16.1844 14.0089 23.8136 14.0089 31.4436 14.0089C31.5526 14.0089 31.6624 14.0041 31.7705 14.0145C32.0219 14.0375 32.1723 14.1744 32.1898 14.4313C32.2065 14.6771 32.049 14.8545 31.7825 14.8903C31.6655 14.9062 31.5446 14.9022 31.4261 14.9022C27.2786 14.9022 23.1319 14.9022 18.9844 14.9022C18.8564 14.9022 18.7283 14.9022 18.5573 14.9022H18.5565Z" fill="#FFCD2C"/>
<path fill-rule="evenodd" clip-rule="evenodd" d="M9.72482 32.7661C9.33767 32.766 8.95052 32.7659 8.56337 32.7658C8.35655 32.7658 8.14257 32.761 7.94291 32.7125C7.39405 32.5789 7.01223 32.0698 7.00507 31.4811C6.99996 31.0204 7.00093 30.56 7.00191 30.0995C7.0023 29.9152 7.00269 29.731 7.00269 29.5466V19.8142C7.00269 19.7889 7.00202 19.7634 7.00134 19.7379C6.99938 19.6633 6.99741 19.5887 7.01223 19.5175C7.06076 19.2876 7.20314 19.1492 7.44655 19.1484C7.69075 19.1476 7.83473 19.2853 7.88405 19.5143C7.90076 19.5931 7.89866 19.676 7.89658 19.7584C7.89588 19.7859 7.89519 19.8133 7.89519 19.8405V31.2696C7.89519 31.7683 7.99462 31.8749 8.47746 31.8749C8.89323 31.8751 9.30902 31.8753 9.72482 31.8754V32.7661Z" fill="#FFCD2C"/>
<path fill-rule="evenodd" clip-rule="evenodd" d="M37.4917 18.8432H36.5985C36.5985 18.4775 36.5985 18.1118 36.5985 17.7461C36.5985 17.0011 36.5984 16.256 36.5984 15.511C36.5984 14.9923 36.5125 14.9056 35.9947 14.9048H33.9726C33.9578 14.9048 33.9429 14.9049 33.9281 14.905C33.8537 14.9053 33.779 14.9056 33.7054 14.8977C33.427 14.8659 33.2536 14.6797 33.2663 14.4331C33.2782 14.1953 33.45 14.0291 33.7205 14.0171C33.9126 14.0091 34.1052 14.0106 34.2975 14.012C34.3727 14.0126 34.448 14.0131 34.5231 14.0131C34.6588 14.0131 34.7947 14.0157 34.9306 14.0182C35.2314 14.0239 35.5322 14.0295 35.8308 14.0076C36.6247 13.9487 37.1958 14.2287 37.4917 14.9923V18.8432Z" fill="#FFCD2C"/>
</svg>
