<svg width="48" height="49" viewBox="0 0 48 49" fill="none" xmlns="http://www.w3.org/2000/svg">
<path d="M21.0751 0.678892C14.9462 1.43143 9.34307 4.51738 5.43096 9.29504C1.51884 14.0727 -0.401233 20.1744 0.0699799 26.3314C0.541192 32.4884 3.36743 38.2269 7.96102 42.3536C12.5546 46.4803 18.562 48.6777 24.7342 48.4888C30.9063 48.2999 36.7681 45.7393 41.1007 41.3394C45.4334 36.9395 47.9034 31.0389 47.9972 24.8646C48.091 18.6903 45.8014 12.7175 41.6045 8.18797C37.4075 3.65848 31.6262 0.920951 25.4627 0.544613L25.2123 4.6452C30.3208 4.95711 35.1125 7.22604 38.591 10.9802C42.0696 14.7344 43.9672 19.6848 43.8895 24.8022C43.8117 29.9196 41.7645 34.8102 38.1735 38.4569C34.5825 42.1036 29.7241 44.2259 24.6085 44.3825C19.4929 44.539 14.5138 42.7178 10.7065 39.2975C6.89923 35.8772 4.55677 31.121 4.16622 26.0179C3.77567 20.9149 5.36707 15.8576 8.60953 11.8978C11.852 7.93792 16.496 5.38021 21.5758 4.75649L21.0751 0.678892Z" fill="#262938"/>
<path d="M21.0751 0.678892C24.5696 0.24983 28.1156 0.594836 31.4618 1.68945C34.808 2.78406 37.8724 4.60146 40.4377 7.01279C43.003 9.42411 45.0063 12.3703 46.3057 15.6424C47.605 18.9146 48.1686 22.4325 47.9564 25.9468C47.7441 29.4611 46.7613 32.8856 45.0776 35.9776C43.3939 39.0696 41.0505 41.7532 38.2137 43.8383C35.3769 45.9234 32.116 47.3588 28.6624 48.0428C25.2088 48.7267 21.647 48.6425 18.2296 47.796L19.2174 43.8083C22.0498 44.5099 25.0019 44.5797 27.8643 44.0128C30.7268 43.4459 33.4294 42.2562 35.7807 40.5281C38.1319 38.7999 40.0741 36.5756 41.4696 34.0129C42.8651 31.4502 43.6797 28.6118 43.8556 25.6991C44.0315 22.7864 43.5644 19.8707 42.4875 17.1586C41.4105 14.4466 39.7501 12.0047 37.624 10.0062C35.4978 8.00761 32.9579 6.5013 30.1845 5.59406C27.4111 4.68682 24.4721 4.40087 21.5758 4.75649L21.0751 0.678892Z" fill="#FE9705"/>
<path d="M22.8978 13.4648C20.7154 13.4648 18.582 14.112 16.7673 15.3245C14.9527 16.537 13.5384 18.2603 12.7032 20.2766C11.8681 22.2929 11.6495 24.5116 12.0753 26.652C12.5011 28.7925 13.552 30.7587 15.0952 32.3019C16.6384 33.8451 18.6046 34.896 20.745 35.3218C22.8855 35.7476 25.1042 35.529 27.1205 34.6939C29.1368 33.8587 30.8601 32.4444 32.0726 30.6298C33.2851 28.8151 33.9323 26.6817 33.9323 24.4993C33.9323 23.0503 33.6468 21.6154 33.0923 20.2766C32.5378 18.9378 31.725 17.7214 30.7003 16.6968C29.6757 15.6721 28.4592 14.8593 27.1205 14.3048C25.7817 13.7503 24.3468 13.4648 22.8978 13.4648V13.4648ZM22.8978 33.3269C21.1518 33.3269 19.4451 32.8092 17.9934 31.8392C16.5417 30.8692 15.4103 29.4905 14.7421 27.8775C14.074 26.2645 13.8992 24.4895 14.2398 22.7772C14.5804 21.0648 15.4212 19.4918 16.6557 18.2573C17.8903 17.0227 19.4632 16.182 21.1756 15.8414C22.888 15.5007 24.6629 15.6756 26.2759 16.3437C27.889 17.0118 29.2676 18.1433 30.2376 19.595C31.2076 21.0467 31.7254 22.7534 31.7254 24.4993C31.7254 26.8405 30.7953 29.0859 29.1398 30.7414C27.4843 32.3969 25.239 33.3269 22.8978 33.3269V33.3269ZM22.8978 17.8786C22.6051 17.8786 22.3245 17.9949 22.1175 18.2018C21.9106 18.4088 21.7943 18.6894 21.7943 18.9821V23.8593L19.4771 25.1945C19.2645 25.315 19.0979 25.5026 19.0035 25.7279C18.909 25.9532 18.892 26.2035 18.9551 26.4396C19.0182 26.6756 19.1579 26.884 19.3522 27.0321C19.5465 27.1802 19.7845 27.2597 20.0288 27.2579C20.2221 27.2593 20.4124 27.2098 20.5805 27.1145L23.4495 25.4593L23.5488 25.36L23.7254 25.2166C23.7685 25.1619 23.8055 25.1027 23.8357 25.04C23.8717 24.9808 23.9013 24.9179 23.924 24.8524C23.954 24.7823 23.9726 24.7078 23.9791 24.6317C23.9791 24.6317 24.0012 24.4993 24.0012 24.4993V18.9821C24.0012 18.6894 23.885 18.4088 23.678 18.2018C23.4711 17.9949 23.1904 17.8786 22.8978 17.8786Z" fill="#FE9705"/>
</svg>
