<svg width="48" height="48" viewBox="0 0 48 48" fill="none" xmlns="http://www.w3.org/2000/svg">
<circle opacity="0.2" cx="24" cy="24" r="24" fill="#FFCD2C"/>
<g clip-path="url(#clip0_1753_22166)">
<path d="M13.8952 13.1658C18.2187 13.1897 22.5422 13.1766 26.8652 13.1772C26.9875 13.1772 27.1104 13.1749 27.2321 13.1868C27.6908 13.2313 28.0577 13.5805 28.1574 14.0408H29.0402C28.8403 12.9857 28.0277 12.2947 26.7378 12.3078C22.4618 12.3517 18.1853 12.3232 13.9088 12.3255C13.693 12.3255 13.4716 12.3243 13.2627 12.3705C12.3238 12.5773 11.723 13.364 11.7224 14.3764C11.7207 19.8146 11.7218 25.2535 11.7218 30.6918C11.7218 32.2459 11.7235 33.7994 11.7207 35.3536C11.7196 35.7734 11.8192 36.1603 12.0548 36.5072C12.2083 36.7334 12.4387 36.7892 12.642 36.6639C12.8442 36.5391 12.8725 36.3181 12.7836 36.0663C12.6856 35.7877 12.5786 35.4909 12.5781 35.202C12.5667 28.3042 12.5769 21.4069 12.5588 14.5091C12.5571 13.7548 12.9948 13.1612 13.8946 13.1663L13.8952 13.1658Z" fill="#FFCD2C"/>
<path d="M12.1237 11.4607C16.4472 11.4846 20.7707 11.4715 25.0937 11.4721C25.216 11.4721 25.3389 11.4698 25.4606 11.4818C25.9193 11.5262 26.2863 11.8754 26.3859 12.3357H27.2687C27.0689 11.2807 26.2562 10.5896 24.9663 10.6027C20.6903 10.6466 16.4138 10.6181 12.1373 10.6204C11.9216 10.6204 11.7002 10.6192 11.4912 10.6654C10.5523 10.8722 9.95149 11.6589 9.95093 12.6713C9.94923 18.1096 9.95036 23.5484 9.95036 28.9867C9.95036 30.5408 9.95206 32.0944 9.94923 33.6485C9.9481 34.0684 10.0478 34.4552 10.2833 34.8021C10.4368 35.0283 10.6673 35.0841 10.8706 34.9588C11.0727 34.834 11.101 34.613 11.0121 34.3612C10.9142 34.0826 10.8071 33.7858 10.8066 33.497C10.7952 26.5991 10.8054 19.7018 10.7873 12.804C10.7856 12.0497 11.2233 11.4561 12.1232 11.4612L12.1237 11.4607Z" fill="#FFCD2C"/>
<path d="M40.3078 16.3021V15.7336C40.1317 15.2305 39.7676 14.9138 39.3021 14.6888C39.0994 14.5908 38.9102 14.4632 38.7137 14.3515C37.8938 13.8838 37.2097 14.0701 36.7369 14.8927C35.6258 16.8268 34.5165 18.7615 33.4055 20.6956C33.3534 20.7862 33.2956 20.8728 33.2401 20.9611C33.1937 19.1432 33.1942 17.3532 33.1931 15.5627C33.1931 14.5019 32.6285 13.9396 31.5656 13.939C30.8906 13.939 30.2162 13.939 29.5412 13.9385C29.5344 13.9396 29.5276 13.9408 29.5197 13.9408H27.7342C27.728 13.9408 27.7229 13.9396 27.7172 13.939H27.4737C23.3575 13.939 19.2412 13.939 15.125 13.939C14.1085 13.939 13.5264 14.523 13.5258 15.541C13.5252 22.8268 13.5252 30.1132 13.5258 37.399C13.5258 38.4159 14.1074 38.9981 15.1238 38.9981C20.615 38.9992 26.1067 38.9992 31.5979 38.9981C32.6251 38.9981 33.1914 38.4307 33.192 37.403C33.1931 35.5367 33.192 33.6698 33.192 31.8035C33.192 31.718 33.2209 31.6086 33.1795 31.5528C33.0816 31.4201 32.9689 31.26 32.8267 31.2081C32.6325 31.1375 32.4553 31.256 32.3867 31.4622C32.3494 31.5756 32.346 31.7038 32.346 31.8251C32.3437 33.6629 32.3443 35.5013 32.3443 37.3392C32.3443 37.9761 32.1749 38.1458 31.5407 38.1458C26.7087 38.1458 21.8767 38.1458 17.0446 38.1458H16.706V37.7254C16.706 31.3585 16.706 24.9911 16.706 18.6242C16.706 18.5011 16.7088 18.3769 16.6913 18.2556C16.6601 18.0374 16.5135 17.9166 16.3068 17.9058C16.0854 17.8944 15.9246 18.0123 15.881 18.2391C15.856 18.3678 15.86 18.5029 15.86 18.635C15.8589 25.0019 15.8594 31.3688 15.8594 37.7362V38.1379C15.5078 38.1379 15.1912 38.1795 14.8934 38.1219C14.7212 38.0889 14.5502 37.918 14.4347 37.7659C14.3616 37.6696 14.3764 37.4941 14.3764 37.354C14.3741 30.0961 14.3741 22.8388 14.3747 15.5809C14.3747 15.4863 14.369 15.3895 14.3877 15.2978C14.4415 15.0329 14.5915 14.8346 14.8685 14.8124C15.1844 14.7873 15.5044 14.8067 15.8594 14.8067C15.8594 14.9144 15.8594 15.0061 15.8594 15.0978C15.8594 15.4863 15.8538 15.8749 15.8628 16.2634C15.8696 16.5528 16.0423 16.7374 16.2813 16.7397C16.5208 16.7419 16.6924 16.5574 16.7038 16.2702C16.7117 16.0623 16.7066 15.8532 16.7066 15.6447C16.7066 15.3656 16.7066 15.0858 16.7066 14.8067C16.8159 14.7993 16.8719 14.7919 16.928 14.7919C21.8353 14.7919 26.7427 14.7907 31.65 14.7924C32.1319 14.7924 32.3437 15.0066 32.3443 15.4841C32.346 17.7674 32.3465 20.0507 32.3409 22.334C32.3409 22.4588 32.3052 22.5984 32.2435 22.7066C31.0769 24.7507 29.9025 26.7896 28.7365 28.8337C28.6488 28.9875 28.5497 29.0359 28.3792 29.0348C27.2116 29.0279 26.0433 29.0313 24.8751 29.0313C22.9911 29.0313 21.1077 29.0302 19.2237 29.0325C18.9303 29.0325 18.7503 29.1908 18.7401 29.437C18.7293 29.6899 18.9218 29.8699 19.2191 29.883C19.2945 29.8864 19.3698 29.8842 19.4451 29.8842C22.2521 29.8842 25.0591 29.8842 27.8656 29.8842H28.1782C28.1493 30.3599 28.1221 30.8093 28.0932 31.2959H27.7807C24.9646 31.2959 22.1479 31.2959 19.3318 31.2959C18.8545 31.2959 18.7344 31.4178 18.7344 31.9049C18.7333 32.9565 18.7327 34.0082 18.7344 35.0598C18.7355 35.5053 18.8669 35.6369 19.3064 35.6369C22.7912 35.6375 26.2766 35.6375 29.7615 35.6369C30.1851 35.6369 30.313 35.507 30.3142 35.0763C30.3159 34.2805 30.3096 33.4846 30.321 32.6888C30.3227 32.5896 30.3855 32.4404 30.4631 32.4011C31.1381 32.0621 31.6075 31.5323 31.979 30.8823C34.273 26.8705 36.5772 22.8638 38.878 18.8561C38.9289 18.7678 38.9827 18.6812 39.0478 18.5718C39.0999 18.639 39.1469 18.6846 39.1758 18.7393C39.4125 19.1808 39.3689 19.6081 39.1231 20.0342C38.4147 21.2619 37.7109 22.4924 37.007 23.7235C36.8405 24.0146 36.8773 24.2647 37.097 24.3963C37.3196 24.5296 37.5687 24.4442 37.7295 24.165C38.4561 22.9037 39.1871 21.6453 39.9006 20.3766C40.3633 19.5545 40.2551 18.6339 39.6294 17.9263C39.5173 17.7999 39.5235 17.7207 39.6005 17.5862C39.844 17.1629 40.0717 16.73 40.3055 16.301L40.3078 16.3021ZM24.0851 34.7681H19.6031V32.1652H24.0851V34.7681ZM29.4546 34.7613H24.9668V32.1692H28.2291C28.241 32.3264 28.2801 32.4797 28.258 32.6238C28.2144 32.907 28.0276 33.0397 27.7291 33.0403C27.3899 33.0403 27.0513 33.0351 26.7121 33.0425C26.4125 33.0494 26.241 33.2032 26.233 33.4521C26.2245 33.7131 26.4006 33.8845 26.7115 33.8897C27.2104 33.8976 27.7093 33.8868 28.2082 33.8942C28.4874 33.8982 28.6306 33.7359 28.7473 33.512C28.8991 33.2203 29.0429 32.9115 29.454 32.8973L29.4546 34.7613ZM29.0797 32.0837C28.9959 31.3785 28.8566 30.7148 29.0859 30.0095C29.6816 30.3553 30.2615 30.692 30.8567 31.0372C30.3782 31.6041 29.7139 31.7778 29.0797 32.0837ZM31.3199 30.3194C30.7021 29.9605 30.0973 29.6096 29.4744 29.2478C30.6681 27.1679 31.8476 25.113 33.047 23.0234C33.6677 23.384 34.273 23.736 34.8919 24.0955C33.6988 26.1738 32.5198 28.2292 31.3199 30.3194ZM35.3161 23.3544C34.7011 22.9977 34.1026 22.6502 33.474 22.2856C33.6133 22.0406 33.7458 21.8088 33.8874 21.5598C34.5091 21.9204 35.1077 22.2679 35.7323 22.6308C35.5856 22.8861 35.4548 23.1134 35.3161 23.3544ZM36.1564 21.8931C35.525 21.5256 34.9254 21.177 34.3115 20.8198C35.0488 19.5357 35.7753 18.2698 36.5138 16.9841C37.1333 17.3441 37.7318 17.6916 38.3581 18.0551C37.6225 19.3369 36.8971 20.6027 36.1564 21.8931ZM39.4272 16.1301C39.2466 16.538 39.0071 16.9197 38.7856 17.3179C38.1559 16.9521 37.5642 16.6086 36.9351 16.2435C37.1661 15.8521 37.3666 15.459 37.6242 15.1081C37.699 15.0061 37.9719 14.9463 38.092 15.0021C38.5065 15.1964 38.9068 15.4311 39.2828 15.6926C39.3876 15.7655 39.4754 16.0218 39.4272 16.1301Z" fill="#FFCD2C"/>
<path d="M20.3216 22.4365C20.3216 21.9107 20.3273 21.4862 20.3154 21.0618C20.3137 20.9986 20.2406 20.9257 20.1834 20.8778C20.1274 20.8311 20.0486 20.8123 19.9818 20.7787C19.4982 20.536 19.1862 20.1794 19.2123 19.6C19.2383 19.0263 19.5447 18.6349 20.0481 18.423C20.2757 18.3273 20.3465 18.2145 20.3261 17.9889C20.3114 17.8294 20.3165 17.6665 20.3273 17.5064C20.3459 17.2369 20.517 17.0649 20.7503 17.0654C20.9858 17.0654 21.1523 17.2375 21.1665 17.5087C21.1761 17.6978 21.1778 17.8881 21.1682 18.0766C21.1608 18.2316 21.2089 18.3005 21.3669 18.3575C21.6387 18.4549 21.9032 18.5848 22.1501 18.7352C22.4106 18.8936 22.461 19.1534 22.3132 19.3641C22.1693 19.5687 21.9411 19.5949 21.6891 19.4428C21.5391 19.3522 21.3828 19.2724 21.1716 19.1562C21.1716 19.5624 21.1642 19.9082 21.1789 20.2534C21.1812 20.311 21.2712 20.3793 21.3358 20.4175C21.513 20.5235 21.7078 20.6027 21.8788 20.7177C22.7317 21.292 22.7492 22.371 21.9089 22.9692C21.6976 23.1196 21.4456 23.2118 21.1693 23.3526C21.1693 23.5531 21.175 23.7963 21.1682 24.0396C21.1597 24.3336 21.0011 24.5159 20.7599 24.5227C20.5102 24.5301 20.2961 24.3336 20.3329 24.035C20.3992 23.4973 20.257 23.1617 19.6925 23.0159C19.475 22.9595 19.2859 22.7504 19.1098 22.5829C18.9155 22.3978 18.9235 22.1477 19.0922 21.9762C19.2553 21.8104 19.4937 21.8189 19.7021 21.9836C19.881 22.1249 20.0702 22.2536 20.3205 22.4354L20.3216 22.4365ZM21.1959 21.2886V22.3995C21.4666 22.2912 21.6569 22.1448 21.6693 21.864C21.6829 21.5592 21.4632 21.4241 21.1959 21.2886ZM20.3086 19.2428C19.9699 19.5487 19.9847 19.8461 20.3086 19.9555V19.2428Z" fill="#FFCD2C"/>
<path d="M23.7509 26.9872C25.2187 26.9872 26.6865 26.9827 28.1537 26.9941C28.3066 26.9952 28.5003 27.0539 28.6034 27.1576C28.8282 27.3837 28.6719 27.766 28.3491 27.8287C28.2579 27.8463 28.1617 27.8389 28.0677 27.8389C25.17 27.8389 22.2724 27.8389 19.3742 27.8389C19.3272 27.8389 19.2802 27.8401 19.2332 27.8389C18.9297 27.8292 18.7377 27.6623 18.7383 27.4099C18.7383 27.1564 18.9286 26.9884 19.2349 26.9878C20.7401 26.9855 22.2458 26.9867 23.7509 26.9867V26.9872Z" fill="#FFCD2C"/>
<path d="M27.6284 22.4738C28.4371 22.4738 29.2457 22.4704 30.0544 22.4755C30.3817 22.4778 30.5606 22.6521 30.5363 22.9301C30.5147 23.178 30.3613 23.3022 30.1274 23.317C29.9026 23.3318 29.6761 23.3255 29.4507 23.3255C28.0968 23.3261 26.7422 23.3255 25.3883 23.3255C25.3039 23.3255 25.2189 23.3284 25.1346 23.3221C24.848 23.3004 24.6685 23.1312 24.6719 22.8903C24.6753 22.6476 24.8571 22.4772 25.1459 22.4755C25.9732 22.4704 26.8011 22.4738 27.6284 22.4732V22.4738Z" fill="#FFCD2C"/>
<path d="M27.6031 21.2234C26.8415 21.2234 26.0798 21.2239 25.3182 21.2222C25.2151 21.2222 25.1098 21.2222 25.0096 21.2012C24.7825 21.1544 24.6687 20.9938 24.6783 20.7727C24.6874 20.5654 24.8057 20.4207 25.0226 20.3831C25.0781 20.3734 25.1347 20.3705 25.1908 20.3705C26.799 20.37 28.4067 20.37 30.0149 20.3705C30.0806 20.3705 30.1474 20.3723 30.2114 20.3859C30.4232 20.4321 30.5353 20.5699 30.5387 20.7864C30.5421 21.0029 30.4351 21.1482 30.2244 21.1972C30.1253 21.2205 30.0194 21.2211 29.9163 21.2211C29.1451 21.2228 28.3744 21.2222 27.6031 21.2222V21.2234Z" fill="#FFCD2C"/>
<path d="M27.2782 19.1197C26.6202 19.1197 25.9616 19.1203 25.3036 19.1191C25.2096 19.1191 25.1144 19.1197 25.0227 19.1032C24.7962 19.061 24.6739 18.9078 24.6778 18.6856C24.6818 18.4645 24.8052 18.313 25.0357 18.28C25.128 18.2669 25.2232 18.268 25.3172 18.268C26.6337 18.2674 27.9498 18.2674 29.2664 18.268C29.3604 18.268 29.4555 18.2663 29.5478 18.2805C29.7743 18.3159 29.9011 18.4577 29.9051 18.685C29.9091 18.9123 29.7856 19.0587 29.5619 19.1026C29.4708 19.1203 29.3751 19.1197 29.2816 19.1197C28.614 19.1208 27.9464 19.1203 27.2787 19.1203L27.2782 19.1197Z" fill="#FFCD2C"/>
</g>
<defs>
<clipPath id="clip0_1753_22166">
<rect width="32.3077" height="30" fill="white" transform="translate(8 9)"/>
</clipPath>
</defs>
</svg>
