<svg width="48" height="48" viewBox="0 0 48 48" fill="none" xmlns="http://www.w3.org/2000/svg">
<circle opacity="0.2" cx="24" cy="24" r="24" fill="#FFCD2C"/>
<path d="M29.2076 36.5159C29.2027 36.5159 29.1979 36.5159 29.1936 36.5159C23.7186 36.5159 18.2442 36.5159 12.7692 36.5159C12.2234 36.5159 12.0884 36.3809 12.0884 35.8324C12.0884 27.8043 12.0884 19.7762 12.0884 11.7487C12.0884 11.218 12.2277 11.0781 12.7552 11.0781C16.5246 11.0781 20.2941 11.0781 24.0636 11.0781H24.3746V11.3972C24.3746 12.6994 24.3729 14.0016 24.3751 15.3033C24.3762 16.0926 24.8572 16.5833 25.646 16.5871C26.9471 16.5931 28.2488 16.5887 29.5499 16.5887C29.6471 16.5887 29.7442 16.5887 29.8663 16.5887C29.8717 16.707 29.8803 16.802 29.8803 16.897C29.8808 19.5538 29.8803 22.2106 29.8835 24.8668C30.2312 24.6811 30.5989 24.5304 30.9563 24.349C30.9552 21.7786 30.952 19.2088 30.9628 16.6384C30.9649 16.0786 30.783 15.6385 30.3878 15.2471C28.888 13.7635 27.3985 12.2691 25.9127 10.7715C25.5882 10.4443 25.2589 10.1371 24.8065 10H12.2563C11.3078 10.3158 10.9973 10.9896 11 11.963C11.0205 19.9285 11.0205 27.8939 11.0006 35.8594C10.9979 36.9008 11.751 37.6102 12.7438 37.6037C16.7914 37.5784 20.8394 37.5935 24.8875 37.5935C26.3775 37.5935 27.8671 37.5935 29.3572 37.5935C29.8123 37.5935 30.2139 37.4558 30.5033 37.1356C30.0417 36.9775 29.5785 36.8063 29.2076 36.5159ZM25.4516 11.9911C26.6102 13.1502 27.7985 14.339 28.9684 15.5095C27.9097 15.5095 26.7895 15.5079 25.6687 15.5111C25.5072 15.5111 25.4484 15.4496 25.4489 15.2876C25.4533 14.1663 25.4511 13.0449 25.4511 11.9911H25.4516Z" fill="#FFCD2C"/>
<path d="M39.1681 27.5729C37.232 24.2764 34.3037 23.3748 30.7702 24.3039C30.2125 24.6403 29.5927 24.86 29.0139 25.1721C28.9707 25.1953 28.927 25.2163 28.8838 25.2385C28.8417 25.3254 28.7758 25.401 28.6803 25.4776C25.1516 28.3077 25.143 33.5986 28.6549 36.4459C28.7138 36.494 28.7656 36.5625 28.8093 36.6446C28.8649 36.6943 28.9157 36.7504 28.9605 36.8125C28.9022 36.7315 29.0188 36.8395 29.0496 36.8595C29.1565 36.928 29.2715 36.9847 29.3848 37.0414C29.5846 37.1413 29.7838 37.252 29.9868 37.3432C30.2146 37.4458 30.4506 37.5284 30.6881 37.6072C33.8902 38.5455 36.7165 37.8442 38.7837 34.9872C40.4676 32.6603 40.6198 30.0451 39.1686 27.5729H39.1681ZM33.0155 36.602C29.9199 36.5874 27.4013 34.0434 27.417 30.9472C27.4326 27.8461 29.9647 25.3243 33.0577 25.3303C36.1782 25.3357 38.6903 27.8634 38.6816 30.9893C38.673 34.1125 36.1453 36.6165 33.0155 36.602Z" fill="#FFCD2C"/>
<path d="M20.9797 25.0357C18.9876 25.0357 16.9954 25.0357 15.0032 25.0357C14.9222 25.0357 14.8412 25.0401 14.7608 25.0325C14.4763 25.0055 14.2571 24.768 14.2598 24.4942C14.2619 24.2313 14.4703 24.0008 14.743 23.9652C14.8137 23.956 14.8866 23.9598 14.9579 23.9598C18.987 23.9598 23.0162 23.9598 27.0453 23.9598C27.1258 23.9598 27.2084 23.956 27.2866 23.9706C27.5631 24.0213 27.7391 24.2502 27.725 24.5299C27.7115 24.7944 27.5204 24.999 27.251 25.0309C27.1711 25.0401 27.0896 25.0357 27.0091 25.0357C24.9992 25.0357 22.9892 25.0357 20.9786 25.0357H20.9797Z" fill="#FFCD2C"/>
<path d="M19.6088 20.7713C21.1523 20.7713 22.6958 20.7713 24.2399 20.7713C24.3295 20.7713 24.4202 20.7675 24.5088 20.7767C24.7684 20.8026 24.9574 20.9943 24.9806 21.248C25.0049 21.512 24.8705 21.7323 24.6189 21.8073C24.5098 21.8397 24.3894 21.8478 24.2745 21.8478C21.1604 21.85 18.0464 21.85 14.9318 21.8478C14.8168 21.8478 14.6969 21.8413 14.5868 21.8095C14.34 21.7388 14.1835 21.4969 14.2099 21.2556C14.238 20.9943 14.4405 20.7972 14.7088 20.7756C14.7979 20.7686 14.888 20.7718 14.9776 20.7718C16.5212 20.7718 18.0647 20.7718 19.6088 20.7718V20.7713Z" fill="#FFCD2C"/>
<path d="M19.4749 28.2677C17.9757 28.2677 16.4769 28.2677 14.9777 28.2666C14.8708 28.2666 14.7601 28.2671 14.6581 28.2407C14.4114 28.1764 14.2461 27.9383 14.2629 27.6965C14.2807 27.44 14.4832 27.2273 14.745 27.1954C14.8157 27.1868 14.8886 27.19 14.9604 27.19C17.9767 27.19 20.9925 27.19 24.0089 27.19C24.0629 27.19 24.1168 27.1884 24.1703 27.1922C24.4872 27.2116 24.6999 27.4227 24.7042 27.7191C24.7086 28.0263 24.4904 28.2596 24.1611 28.2644C23.5327 28.2741 22.9043 28.2677 22.2758 28.2677C21.3424 28.2677 20.4089 28.2677 19.4749 28.2677Z" fill="#FFCD2C"/>
<path d="M19.4836 30.4207C21.0185 30.4207 22.5533 30.4201 24.0888 30.4212C24.4143 30.4212 24.6238 30.5627 24.6902 30.8132C24.7706 31.1166 24.5833 31.4184 24.2669 31.4821C24.1714 31.5015 24.0704 31.4972 23.9722 31.4978C20.9828 31.4983 17.994 31.4983 15.0047 31.4978C14.8978 31.4978 14.7871 31.4994 14.684 31.4762C14.4216 31.4168 14.2456 31.1771 14.2629 30.9249C14.2812 30.6561 14.4923 30.4385 14.772 30.4261C15.0587 30.4137 15.3464 30.4212 15.6337 30.4212C16.9175 30.4212 18.2008 30.4212 19.4846 30.4212L19.4836 30.4207Z" fill="#FFCD2C"/>
<path d="M18.5306 18.575C17.3008 18.575 16.0714 18.5788 14.8416 18.5729C14.3848 18.5707 14.1225 18.1507 14.3341 17.7792C14.4599 17.5584 14.6656 17.4985 14.9058 17.499C16.1443 17.5012 17.3834 17.5001 18.6219 17.5001C19.8155 17.5001 21.0092 17.4985 22.2034 17.5012C22.5797 17.5017 22.8038 17.6831 22.8286 17.9919C22.8562 18.3331 22.624 18.5723 22.2466 18.5734C21.0081 18.5766 19.7691 18.575 18.5306 18.575Z" fill="#FFCD2C"/>
<path d="M27.6655 21.3015C27.6672 21.5941 27.4323 21.8376 27.1429 21.844C26.8498 21.8505 26.5874 21.5887 26.5939 21.295C26.5998 21.0045 26.8417 20.7718 27.1359 20.7734C27.4345 20.7751 27.6645 21.004 27.6655 21.3015Z" fill="#FFCD2C"/>
<path d="M32.0991 30.977C31.6089 30.4933 31.1613 30.0571 30.7197 29.6144C30.3504 29.2445 30.3148 28.8499 30.6128 28.5427C30.9227 28.2231 31.3228 28.2544 31.7093 28.6399C32.152 29.0815 32.5883 29.5296 33.059 30.0074C33.5633 29.495 34.0351 29.0038 34.521 28.526C34.7872 28.2641 35.1327 28.2387 35.4086 28.4282C35.6629 28.6026 35.7865 28.9384 35.6672 29.2262C35.6078 29.3703 35.4966 29.5004 35.3859 29.6144C34.9659 30.0473 34.5367 30.4712 34.1118 30.8993C34.0967 30.9144 34.0929 30.9398 34.0621 31.0094C34.4924 31.4332 34.9422 31.8641 35.3757 32.3111C35.5004 32.4396 35.6224 32.6032 35.6661 32.7711C35.7466 33.0799 35.6262 33.3471 35.3427 33.5107C35.0604 33.6732 34.7759 33.6462 34.5394 33.4243C34.1836 33.0918 33.8424 32.7435 33.5017 32.3948C33.3646 32.2544 33.2458 32.0951 33.0903 31.9105C32.5899 32.4126 32.1466 32.8677 31.691 33.3099C31.57 33.4276 31.4237 33.542 31.2672 33.596C30.9654 33.7002 30.6425 33.5566 30.4908 33.285C30.3234 32.9854 30.3575 32.6955 30.5961 32.4547C31.0771 31.9683 31.5711 31.4948 32.1002 30.9759L32.0991 30.977Z" fill="#FFCD2C"/>
</svg>
