<svg width="16" height="20" viewBox="0 0 16 20" fill="none" xmlns="http://www.w3.org/2000/svg">
<path fill-rule="evenodd" clip-rule="evenodd" d="M4.9 0H11.07C13.78 0 15.97 1.07 16 3.79V18.97C16 19.14 15.96 19.31 15.88 19.46C15.75 19.7 15.53 19.88 15.26 19.96C15 20.04 14.71 20 14.47 19.86L7.99 16.62L1.5 19.86C1.351 19.939 1.18 19.99 1.01 19.99C0.45 19.99 0 19.53 0 18.97V3.79C0 1.07 2.2 0 4.9 0ZM4.21945 7.61999H11.7495C12.1795 7.61999 12.5295 7.26899 12.5295 6.82999C12.5295 6.38999 12.1795 6.03999 11.7495 6.03999H4.21945C3.78945 6.03999 3.43945 6.38999 3.43945 6.82999C3.43945 7.26899 3.78945 7.61999 4.21945 7.61999Z" fill="#FFCD2C"/>
</svg>
