<svg width="20" height="20" viewBox="0 0 20 20" fill="none" xmlns="http://www.w3.org/2000/svg">
<path fill-rule="evenodd" clip-rule="evenodd" d="M2.54 0H5.92C7.33 0 8.46 1.15 8.46 2.561V5.97C8.46 7.39 7.33 8.53 5.92 8.53H2.54C1.14 8.53 0 7.39 0 5.97V2.561C0 1.15 1.14 0 2.54 0ZM2.54 11.4697H5.92C7.33 11.4697 8.46 12.6107 8.46 14.0307V17.4397C8.46 18.8497 7.33 19.9997 5.92 19.9997H2.54C1.14 19.9997 0 18.8497 0 17.4397V14.0307C0 12.6107 1.14 11.4697 2.54 11.4697ZM17.461 0H14.081C12.671 0 11.541 1.15 11.541 2.561V5.97C11.541 7.39 12.671 8.53 14.081 8.53H17.461C18.861 8.53 20.001 7.39 20.001 5.97V2.561C20.001 1.15 18.861 0 17.461 0ZM14.081 11.4697H17.461C18.861 11.4697 20.001 12.6107 20.001 14.0307V17.4397C20.001 18.8497 18.861 19.9997 17.461 19.9997H14.081C12.671 19.9997 11.541 18.8497 11.541 17.4397V14.0307C11.541 12.6107 12.671 11.4697 14.081 11.4697Z" fill="#FFCD2C"/>
</svg>
