<svg width="20" height="20" viewBox="0 0 20 20" fill="none" xmlns="http://www.w3.org/2000/svg">
<path fill-rule="evenodd" clip-rule="evenodd" d="M5.67 -0.000793457H14.34C17.73 -0.000793457 20 2.37921 20 5.91921V14.0902C20 17.6202 17.73 19.9992 14.34 19.9992H5.67C2.28 19.9992 0 17.6202 0 14.0902V5.91921C0 2.37921 2.28 -0.000793457 5.67 -0.000793457ZM13.0096 12.9992C13.3496 12.6602 13.3496 12.1102 13.0096 11.7702L11.2296 9.99021L13.0096 8.20921C13.3496 7.87021 13.3496 7.31021 13.0096 6.97021C12.6696 6.62921 12.1196 6.62921 11.7696 6.97021L9.99961 8.74921L8.21961 6.97021C7.86961 6.62921 7.31961 6.62921 6.97961 6.97021C6.63961 7.31021 6.63961 7.87021 6.97961 8.20921L8.75961 9.99021L6.97961 11.7602C6.63961 12.1102 6.63961 12.6602 6.97961 12.9992C7.14961 13.1692 7.37961 13.2602 7.59961 13.2602C7.82961 13.2602 8.04961 13.1692 8.21961 12.9992L9.99961 11.2302L11.7796 12.9992C11.9496 13.1802 12.1696 13.2602 12.3896 13.2602C12.6196 13.2602 12.8396 13.1692 13.0096 12.9992Z" fill="#FFCD2C"/>
</svg>
