<svg width="20" height="20" viewBox="0 0 20 20" fill="none" xmlns="http://www.w3.org/2000/svg">
<path fill-rule="evenodd" clip-rule="evenodd" d="M0 10.0001C0 4.48012 4.47 0.00012207 10 0.00012207C15.52 0.00012207 20 4.48012 20 10.0001C20 15.5301 15.52 20.0001 10 20.0001C4.47 20.0001 0 15.5301 0 10.0001ZM12.2309 11.8301L13.8509 6.71012C13.9609 6.36012 13.6409 6.03012 13.2909 6.14012L8.17093 7.74012C7.96093 7.81012 7.79093 7.97012 7.73093 8.18012L6.13093 13.3101C6.02093 13.6501 6.35093 13.9801 6.69093 13.8701L11.7909 12.2701C12.0009 12.2101 12.1709 12.0401 12.2309 11.8301Z" fill="#FFCD2C"/>
</svg>
