<svg width="18" height="20" viewBox="0 0 18 20" fill="none" xmlns="http://www.w3.org/2000/svg">
<path fill-rule="evenodd" clip-rule="evenodd" d="M4.81 0H13.191C16.28 0 18 1.78 18 4.83V15.16C18 18.26 16.28 20 13.191 20H4.81C1.77 20 0 18.26 0 15.16V4.83C0 1.78 1.77 0 4.81 0ZM5.08094 4.65999V4.64999H8.06994C8.50094 4.64999 8.85094 4.99999 8.85094 5.42899C8.85094 5.86999 8.50094 6.21999 8.06994 6.21999H5.08094C4.64994 6.21999 4.30094 5.86999 4.30094 5.43999C4.30094 5.00999 4.64994 4.65999 5.08094 4.65999ZM5.08078 10.74H12.9208C13.3508 10.74 13.7008 10.39 13.7008 9.95999C13.7008 9.52999 13.3508 9.17899 12.9208 9.17899H5.08078C4.64978 9.17899 4.30078 9.52999 4.30078 9.95999C4.30078 10.39 4.64978 10.74 5.08078 10.74ZM5.08094 15.31H12.9209C13.3199 15.27 13.6209 14.929 13.6209 14.53C13.6209 14.12 13.3199 13.78 12.9209 13.74H5.08094C4.78094 13.71 4.49094 13.85 4.33094 14.11C4.17094 14.36 4.17094 14.69 4.33094 14.95C4.49094 15.2 4.78094 15.35 5.08094 15.31Z" fill="#FFCD2C"/>
</svg>
