<svg width="20" height="20" viewBox="0 0 20 20" fill="none" xmlns="http://www.w3.org/2000/svg">
<path fill-rule="evenodd" clip-rule="evenodd" d="M14.6653 0.0103353C16.1038 -0.0795717 17.5224 0.419911 18.5913 1.3989C19.5703 2.46779 20.0697 3.88633 19.9898 5.33483V14.6652C20.0797 16.1137 19.5703 17.5322 18.6013 18.6011C17.5323 19.5801 16.1038 20.0796 14.6653 19.9897H5.33487C3.88636 20.0796 2.46781 19.5801 1.39891 18.6011C0.419915 17.5322 -0.0795724 16.1137 0.0103353 14.6652V5.33483C-0.0795724 3.88633 0.419915 2.46779 1.39891 1.3989C2.46781 0.419911 3.88636 -0.0795717 5.33487 0.0103353H14.6653ZM8.98079 14.845L15.7039 8.10196C16.3133 7.4826 16.3133 6.48363 15.7039 5.87426L14.4052 4.5756C13.7859 3.95624 12.7869 3.95624 12.1675 4.5756L11.4982 5.2549C11.3983 5.3548 11.3983 5.52462 11.4982 5.62452C11.4982 5.62452 13.0866 7.20289 13.1165 7.24284C13.2264 7.36272 13.2964 7.52255 13.2964 7.70237C13.2964 8.062 13.0067 8.36169 12.637 8.36169C12.4672 8.36169 12.3074 8.29176 12.1975 8.18187L10.5292 6.52359C10.4493 6.44367 10.3094 6.44367 10.2295 6.52359L5.4644 11.2887C5.13473 11.6183 4.94493 12.0579 4.93494 12.5274L4.875 14.8949C4.875 15.0248 4.91496 15.1447 5.00487 15.2346C5.09477 15.3245 5.21465 15.3744 5.34452 15.3744H7.69211C8.17162 15.3744 8.63114 15.1846 8.98079 14.845Z" fill="#FFCD2C"/>
</svg>
