<svg width="20" height="18" viewBox="0 0 20 18" fill="none" xmlns="http://www.w3.org/2000/svg">
<path fill-rule="evenodd" clip-rule="evenodd" d="M6.87774 3.37856C6.87774 5.24523 5.33886 6.75821 3.43887 6.75821C1.53999 6.75821 0 5.24523 0 3.37856C0 1.51298 1.53999 0 3.43887 0C5.33886 0 6.87774 1.51298 6.87774 3.37856ZM18.4934 1.89833C19.3246 1.89833 20.0001 2.56203 20.0001 3.37856C20.0001 4.19618 19.3246 4.85989 18.4934 4.85989H11.9179C11.0857 4.85989 10.4102 4.19618 10.4102 3.37856C10.4102 2.56203 11.0857 1.89833 11.9179 1.89833H18.4934ZM1.50777 12.958H8.08329C8.91551 12.958 9.59106 13.6217 9.59106 14.4393C9.59106 15.2558 8.91551 15.9206 8.08329 15.9206H1.50777C0.675552 15.9206 0 15.2558 0 14.4393C0 13.6217 0.675552 12.958 1.50777 12.958ZM16.5619 17.7778C18.4619 17.7778 20.0008 16.2648 20.0008 14.3992C20.0008 12.5325 18.4619 11.0196 16.5619 11.0196C14.663 11.0196 13.123 12.5325 13.123 14.3992C13.123 16.2648 14.663 17.7778 16.5619 17.7778Z" fill="#FFCD2C"/>
</svg>
