<svg width="20" height="20" viewBox="0 0 20 20" fill="none" xmlns="http://www.w3.org/2000/svg">
<path fill-rule="evenodd" clip-rule="evenodd" d="M11.45 2.88017H14.52C18.21 2.88017 20.01 4.85017 20 8.89017V13.7602C20 17.6202 17.62 20.0002 13.75 20.0002H6.24C2.39 20.0002 0 17.6202 0 13.7502V6.24017C0 2.10017 1.84 0.000170661 5.47 0.000170661H7.05C7.981 -0.00982934 8.85 0.420171 9.42 1.15017L10.3 2.32017C10.58 2.67017 11 2.88017 11.45 2.88017ZM5.36914 13.2902H14.6291C15.0391 13.2902 15.3691 12.9502 15.3691 12.5402C15.3691 12.1202 15.0391 11.7902 14.6291 11.7902H5.36914C4.94914 11.7902 4.61914 12.1202 4.61914 12.5402C4.61914 12.9502 4.94914 13.2902 5.36914 13.2902Z" fill="#FFCD2C"/>
</svg>
