<svg width="20" height="20" viewBox="0 0 20 20" fill="none" xmlns="http://www.w3.org/2000/svg">
<path fill-rule="evenodd" clip-rule="evenodd" d="M5.63848 1.39536C3.06148 1.39536 1.39648 3.16236 1.39648 5.88836V14.1024C1.39648 14.8674 1.53848 15.5504 1.78148 16.1414C1.79198 16.1288 2.02083 15.8499 2.31937 15.4861C2.90285 14.7751 3.75253 13.7396 3.75848 13.7344C4.45048 12.9444 5.74948 11.7664 7.45448 12.4794C7.8281 12.6343 8.1602 12.8465 8.46592 13.0418C8.49568 13.0609 8.5252 13.0797 8.55448 13.0984C9.12748 13.4814 9.46448 13.6614 9.81448 13.6314C9.95949 13.6114 10.0955 13.5684 10.2245 13.4884C10.7111 13.1884 11.9727 11.4007 12.3505 10.8654C12.4059 10.7869 12.4423 10.7353 12.4545 10.7194C13.5445 9.29936 15.2245 8.91936 16.6245 9.75936C16.8125 9.87136 18.1595 10.8124 18.6055 11.1904V5.88836C18.6055 3.16236 16.9405 1.39536 14.3545 1.39536H5.63848ZM14.354 0.000366211C17.731 0.000366211 20 2.36237 20 5.88837V14.1024C20 14.191 19.9907 14.2742 19.9814 14.3573C19.9748 14.4157 19.9683 14.4741 19.965 14.5344C19.9629 14.5708 19.9618 14.6072 19.9608 14.6436C19.9594 14.6922 19.958 14.7408 19.954 14.7894C19.952 14.8084 19.9482 14.8266 19.9445 14.8449C19.9408 14.8631 19.937 14.8814 19.935 14.9004C19.902 15.2144 19.851 15.5144 19.78 15.8054C19.7632 15.8781 19.7438 15.9482 19.7243 16.0189L19.72 16.0344C19.64 16.3164 19.546 16.5854 19.433 16.8424C19.4132 16.8856 19.3923 16.9277 19.3714 16.9698C19.3575 16.9979 19.3436 17.026 19.33 17.0544C19.208 17.2994 19.076 17.5344 18.923 17.7524C18.8947 17.7927 18.8646 17.8305 18.8344 17.8684C18.8145 17.8934 18.7945 17.9185 18.775 17.9444C18.616 18.1504 18.45 18.3474 18.262 18.5264C18.2245 18.5621 18.1839 18.5947 18.1433 18.6274C18.118 18.6478 18.0926 18.6682 18.068 18.6894C17.875 18.8554 17.678 19.0144 17.461 19.1504C17.4136 19.1801 17.3633 19.2051 17.3132 19.2299C17.2808 19.246 17.2484 19.2621 17.217 19.2794C16.996 19.4014 16.773 19.5204 16.53 19.6124C16.4715 19.6346 16.4093 19.6506 16.3469 19.6667C16.3026 19.6782 16.2582 19.6897 16.215 19.7034C16.1934 19.7101 16.1717 19.7168 16.1501 19.7235C15.9331 19.791 15.7167 19.8584 15.483 19.8984C15.3476 19.9221 15.2039 19.9312 15.0601 19.9403C14.9978 19.9443 14.9356 19.9482 14.874 19.9534C14.8078 19.9583 14.7428 19.9663 14.6778 19.9743C14.5721 19.9873 14.4661 20.0004 14.354 20.0004H5.638C5.262 20.0004 4.903 19.9624 4.556 19.9054C4.543 19.9034 4.531 19.9014 4.519 19.8994C3.166 19.6664 2.043 19.0134 1.256 18.0284C1.25053 18.0284 1.24839 18.0247 1.24553 18.0198C1.24368 18.0166 1.24153 18.0129 1.238 18.0094C0.447 17.0134 0 15.6744 0 14.1024V5.88837C0 2.36237 2.271 0.000366211 5.638 0.000366211H14.354ZM9 6.51493C9 7.86988 7.86628 8.99997 6.50484 8.99997C5.30814 8.99997 4.28779 8.12562 4.05911 6.9936C4.02132 6.82375 4 6.64907 4 6.46861C4 5.104 5.10853 3.99997 6.47868 3.99997C7.17636 3.99997 7.80814 4.29335 8.26066 4.76141C8.71512 5.21306 9 5.83552 9 6.51493Z" fill="#FFCD2C"/>
</svg>
