<svg width="20" height="20" viewBox="0 0 20 20" fill="none" xmlns="http://www.w3.org/2000/svg">
<path fill-rule="evenodd" clip-rule="evenodd" d="M5.67 -0.000793457H14.34C17.73 -0.000793457 20 2.37921 20 5.91921V14.0902C20 17.6202 17.73 19.9992 14.34 19.9992H5.67C2.28 19.9992 0 17.6202 0 14.0902V5.91921C0 2.37921 2.28 -0.000793457 5.67 -0.000793457ZM9.99086 7.06021C9.52086 7.06021 9.13086 6.66921 9.13086 6.19021C9.13086 5.70021 9.52086 5.31021 10.0109 5.31021C10.4909 5.31021 10.8809 5.70021 10.8809 6.19021C10.8809 6.66921 10.4909 7.06021 9.99086 7.06021ZM10.8691 13.7802C10.8691 14.2602 10.4791 14.6502 9.98914 14.6502C9.50914 14.6502 9.11914 14.2602 9.11914 13.7802V9.36021C9.11914 8.87921 9.50914 8.48021 9.98914 8.48021C10.4791 8.48021 10.8691 8.87921 10.8691 9.36021V13.7802Z" fill="#FFCD2C"/>
</svg>
