<svg width="18" height="20" viewBox="0 0 18 20" fill="none" xmlns="http://www.w3.org/2000/svg">
<path fill-rule="evenodd" clip-rule="evenodd" d="M0.5 8.31776C0.5 3.71789 4.34388 0 8.99345 0C13.6561 0 17.5 3.71789 17.5 8.31776C17.5 10.6357 16.657 12.7876 15.2695 14.6116C13.7388 16.6235 11.8522 18.3765 9.72854 19.7524C9.24251 20.0704 8.80387 20.0944 8.27045 19.7524C6.13474 18.3765 4.24809 16.6235 2.7305 14.6116C1.34198 12.7876 0.5 10.6357 0.5 8.31776ZM6.19336 8.57674C6.19336 10.1177 7.45079 11.3297 8.99258 11.3297C10.5354 11.3297 11.8049 10.1177 11.8049 8.57674C11.8049 7.04779 10.5354 5.77682 8.99258 5.77682C7.45079 5.77682 6.19336 7.04779 6.19336 8.57674Z" fill="#FFCD2C"/>
</svg>
