<svg width="18" height="20" viewBox="0 0 18 20" fill="none" xmlns="http://www.w3.org/2000/svg">
<path fill-rule="evenodd" clip-rule="evenodd" d="M14.5227 5.39601V6.92935C16.2451 7.46696 17.5 9.02614 17.5 10.8884V15.8253C17.5 18.1308 15.5886 20 13.2322 20H4.7688C2.41136 20 0.5 18.1308 0.5 15.8253V10.8884C0.5 9.02614 1.75595 7.46696 3.47729 6.92935V5.39601C3.48745 2.41479 5.95667 0 8.98476 0C12.0535 0 14.5227 2.41479 14.5227 5.39601ZM9.00541 1.73904C11.0682 1.73904 12.7448 3.37871 12.7448 5.39601V6.7137H5.25586V5.37613C5.26602 3.36878 6.94265 1.73904 9.00541 1.73904ZM9.88957 14.4549C9.88957 14.9419 9.49328 15.3294 8.99537 15.3294C8.50762 15.3294 8.11133 14.9419 8.11133 14.4549V12.2488C8.11133 11.7718 8.50762 11.3843 8.99537 11.3843C9.49328 11.3843 9.88957 11.7718 9.88957 12.2488V14.4549Z" fill="#FFCD2C"/>
</svg>
