<svg width="21" height="20" viewBox="0 0 21 20" fill="none" xmlns="http://www.w3.org/2000/svg">
<path fill-rule="evenodd" clip-rule="evenodd" d="M7.89535 9.23C7.45785 9.23 7.11192 9.57 7.11192 10C7.11192 10.42 7.45785 10.77 7.89535 10.77H14V9.2302H18.14L16.54 7.6402C16.24 7.3402 16.24 6.8502 16.54 6.5502C16.84 6.2402 17.33 6.2402 17.63 6.5402L20.55 9.4502C20.7 9.6002 20.78 9.7902 20.78 10.0002C20.78 10.2002 20.7 10.4002 20.55 10.5402L17.63 13.4502C17.48 13.6002 17.28 13.6802 17.09 13.6802C16.89 13.6802 16.69 13.6002 16.54 13.4502C16.24 13.1502 16.24 12.6602 16.54 12.3602L18.14 10.7702H14V15.55C14 18 11.9753 20 9.47238 20H4.51744C2.02471 20 0 18.01 0 15.56V4.45C0 1.99 2.03488 0 4.52762 0H9.49273C11.9753 0 14 1.99 14 4.44V9.23H7.89535Z" fill="#FFCD2C"/>
</svg>
