<svg width="20" height="20" viewBox="0 0 20 20" fill="none" xmlns="http://www.w3.org/2000/svg">
<path fill-rule="evenodd" clip-rule="evenodd" d="M0 9.99988C0 4.47988 4.47 -0.00012207 10 -0.00012207C15.52 -0.00012207 20 4.47988 20 9.99988C20 15.5199 15.52 19.9999 10 19.9999C4.47 19.9999 0 15.5199 0 9.99988ZM5.52031 11.1999C4.86031 11.1999 4.32031 10.6599 4.32031 9.99987C4.32031 9.33987 4.86031 8.80087 5.52031 8.80087C6.18031 8.80087 6.71031 9.33987 6.71031 9.99987C6.71031 10.6599 6.18031 11.1999 5.52031 11.1999ZM8.80078 9.99987C8.80078 10.6599 9.34078 11.1999 10.0008 11.1999C10.6608 11.1999 11.1908 10.6599 11.1908 9.99987C11.1908 9.33987 10.6608 8.80087 10.0008 8.80087C9.34078 8.80087 8.80078 9.33987 8.80078 9.99987ZM13.2812 9.99987C13.2812 10.6599 13.8113 11.1999 14.4812 11.1999C15.1413 11.1999 15.6713 10.6599 15.6713 9.99987C15.6713 9.33987 15.1413 8.80087 14.4812 8.80087C13.8113 8.80087 13.2812 9.33987 13.2812 9.99987Z" fill="#FFCD2C"/>
</svg>
