<svg width="18" height="20" viewBox="0 0 18 20" fill="none" xmlns="http://www.w3.org/2000/svg">
<path fill-rule="evenodd" clip-rule="evenodd" d="M9.15304 14.64L11.9946 11.77C12.2818 11.47 12.2818 11 11.9847 10.71C11.6976 10.42 11.2322 10.42 10.9451 10.71L9.37086 12.31V7.49001C9.37086 7.07001 9.04413 6.74001 8.63819 6.74001C8.23225 6.74001 7.89561 7.07001 7.89561 7.49001V12.31L6.32136 10.71C6.03423 10.42 5.56888 10.42 5.28175 10.71C4.99462 11 4.99462 11.47 5.28175 11.77L8.11344 14.64C8.18274 14.71 8.26195 14.76 8.35106 14.8C8.44017 14.84 8.53918 14.86 8.63819 14.86C8.7372 14.86 8.82631 14.84 8.91542 14.8C9.00453 14.76 9.08373 14.71 9.15304 14.64ZM16.3282 7.02561C16.5609 7.02292 16.8143 7.02 17.0446 7.02C17.302 7.02 17.5 7.22 17.5 7.47V15.51C17.5 17.99 15.5 20 13.0446 20H5.17327C2.58911 20 0.5 17.89 0.5 15.29V4.51C0.5 2.03 2.4901 0 4.96535 0H10.2525C10.5 0 10.7079 0.21 10.7079 0.46V3.68C10.7079 5.51 12.1931 7.01 14.0149 7.02C14.4333 7.02 14.8077 7.02318 15.1346 7.02595C15.3878 7.02809 15.6125 7.03 15.8069 7.03C15.9479 7.03 16.1306 7.02789 16.3282 7.02561ZM16.6039 5.5661C15.7911 5.5691 14.8317 5.5661 14.1416 5.5591C13.0465 5.5591 12.1445 4.6481 12.1445 3.5421V0.9061C12.1445 0.4751 12.6624 0.2611 12.9574 0.5721C13.7201 1.37238 14.8879 2.59899 15.8747 3.63546C16.2739 4.05472 16.6434 4.44287 16.9445 4.7591C17.2336 5.0621 17.0218 5.5651 16.6039 5.5661Z" fill="#FFCD2C"/>
</svg>
