<svg width="18" height="20" viewBox="0 0 18 20" fill="none" xmlns="http://www.w3.org/2000/svg">
<path fill-rule="evenodd" clip-rule="evenodd" d="M10.9451 10.89C11.2322 11.18 11.6976 11.18 11.9847 10.89C12.2818 10.6 12.2818 10.13 11.9946 9.84001L9.15304 6.96001C9.08373 6.89001 9.00453 6.84001 8.91542 6.80001C8.82631 6.76001 8.7372 6.74001 8.63819 6.74001C8.53918 6.74001 8.44017 6.76001 8.35106 6.80001C8.26195 6.84001 8.18274 6.89001 8.11344 6.96001L5.28175 9.84001C4.99462 10.13 4.99462 10.6 5.28175 10.89C5.56888 11.18 6.03423 11.18 6.32136 10.89L7.89561 9.29001V14.12C7.89561 14.53 8.22235 14.86 8.63819 14.86C9.04413 14.86 9.37086 14.53 9.37086 14.12V9.29001L10.9451 10.89ZM16.3282 7.02561C16.5609 7.02292 16.8143 7.02 17.0446 7.02C17.2921 7.02 17.5 7.22 17.5 7.47V15.51C17.5 17.99 15.5 20 13.0446 20H5.17327C2.58911 20 0.5 17.89 0.5 15.29V4.51C0.5 2.03 2.4901 0 4.96535 0H10.2525C10.5 0 10.7079 0.21 10.7079 0.46V3.68C10.7079 5.51 12.1931 7.01 14.0149 7.02C14.4313 7.02 14.801 7.02315 15.1258 7.02591C15.3801 7.02807 15.6069 7.03 15.8069 7.03C15.9479 7.03 16.1306 7.02789 16.3282 7.02561ZM16.6039 5.56599C15.7901 5.56899 14.8317 5.56599 14.1416 5.55899C13.0465 5.55899 12.1445 4.64799 12.1445 3.54199V0.905993C12.1445 0.474993 12.6614 0.260993 12.9574 0.571993C13.7201 1.37227 14.8879 2.59888 15.8747 3.63535C16.2739 4.05461 16.6434 4.44276 16.9445 4.75899C17.2327 5.06199 17.0208 5.56499 16.6039 5.56599Z" fill="#FFCD2C"/>
</svg>
