<svg width="18" height="20" viewBox="0 0 18 20" fill="none" xmlns="http://www.w3.org/2000/svg">
<path fill-rule="evenodd" clip-rule="evenodd" d="M9.5497 11.73H11.2626C11.6685 11.73 12.0051 11.4 12.0051 10.99C12.0051 10.57 11.6685 10.24 11.2626 10.24H9.5497V8.51C9.5497 8.1 9.22297 7.77 8.81703 7.77C8.41108 7.77 8.07445 8.1 8.07445 8.51V10.24H6.37148C5.96554 10.24 5.62891 10.57 5.62891 10.99C5.62891 11.4 5.96554 11.73 6.37148 11.73H8.07445V13.46C8.07445 13.87 8.41108 14.2 8.81703 14.2C9.22297 14.2 9.5497 13.87 9.5497 13.46V11.73ZM16.3381 7.02561C16.5708 7.02292 16.8242 7.02 17.0545 7.02C17.302 7.02 17.5 7.22 17.5 7.47V15.51C17.5 17.99 15.5099 20 13.0446 20H5.17327C2.59901 20 0.5 17.89 0.5 15.29V4.51C0.5 2.03 2.5 0 4.96535 0H10.2525C10.5099 0 10.7079 0.21 10.7079 0.46V3.68C10.7079 5.51 12.203 7.01 14.0149 7.02C14.4381 7.02 14.8112 7.02316 15.1377 7.02593C15.3917 7.02809 15.6175 7.03 15.8168 7.03C15.9578 7.03 16.1405 7.02789 16.3381 7.02561ZM16.6108 5.56621C15.7969 5.56921 14.8375 5.56621 14.1474 5.55921C13.0524 5.55921 12.1504 4.64821 12.1504 3.54221V0.906207C12.1504 0.475207 12.6682 0.261207 12.9643 0.572207C13.5002 1.13505 14.2368 1.90879 14.9699 2.67894C15.7009 3.44677 16.4284 4.21103 16.9504 4.75921C17.2395 5.06221 17.0276 5.56521 16.6108 5.56621Z" fill="#FFCD2C"/>
</svg>
