<svg width="14" height="14" viewBox="0 0 14 14" fill="none" xmlns="http://www.w3.org/2000/svg">
<path d="M12.274 9.3387H9.25398C9.07717 9.3387 8.9076 9.40894 8.78258 9.53396C8.65756 9.65898 8.58732 9.82855 8.58732 10.0054C8.58732 10.1822 8.65756 10.3517 8.78258 10.4768C8.9076 10.6018 9.07717 10.672 9.25398 10.672H10.854C10.1186 11.4405 9.17025 11.9716 8.13076 12.197C7.09127 12.4223 6.00812 12.3318 5.0205 11.9369C4.03288 11.542 3.1859 10.8608 2.58838 9.98081C1.99086 9.10086 1.6701 8.06234 1.66732 6.9987C1.66732 6.82189 1.59708 6.65232 1.47206 6.52729C1.34703 6.40227 1.17746 6.33203 1.00065 6.33203C0.82384 6.33203 0.654271 6.40227 0.529246 6.52729C0.404222 6.65232 0.333984 6.82189 0.333984 6.9987C0.337509 8.30056 0.722132 9.57291 1.44039 10.6587C2.15864 11.7445 3.17909 12.5963 4.37581 13.1088C5.57253 13.6214 6.89314 13.7724 8.17466 13.5431C9.45619 13.3139 10.6425 12.7144 11.5873 11.8187V12.9987C11.5873 13.1755 11.6576 13.3451 11.7826 13.4701C11.9076 13.5951 12.0772 13.6654 12.254 13.6654C12.4308 13.6654 12.6004 13.5951 12.7254 13.4701C12.8504 13.3451 12.9207 13.1755 12.9207 12.9987V9.9987C12.919 9.82645 12.8508 9.66153 12.7302 9.5385C12.6097 9.41546 12.4462 9.34386 12.274 9.3387ZM7.00065 0.332031C5.29157 0.336906 3.64964 0.997974 2.41398 2.1787V0.998698C2.41398 0.821887 2.34375 0.652318 2.21872 0.527293C2.0937 0.402269 1.92413 0.332031 1.74732 0.332031C1.57051 0.332031 1.40094 0.402269 1.27591 0.527293C1.15089 0.652318 1.08065 0.821887 1.08065 0.998698V3.9987C1.08065 4.17551 1.15089 4.34508 1.27591 4.4701C1.40094 4.59513 1.57051 4.66536 1.74732 4.66536H4.74732C4.92413 4.66536 5.0937 4.59513 5.21872 4.4701C5.34375 4.34508 5.41398 4.17551 5.41398 3.9987C5.41398 3.82189 5.34375 3.65232 5.21872 3.52729C5.0937 3.40227 4.92413 3.33203 4.74732 3.33203H3.14732C3.88229 2.56395 4.83004 2.03303 5.86892 1.80744C6.90779 1.58184 7.99038 1.67186 8.97772 2.06594C9.96507 2.46002 10.8121 3.14017 11.4101 4.0191C12.0082 4.89803 12.3299 5.93562 12.334 6.9987C12.334 7.17551 12.4042 7.34508 12.5292 7.4701C12.6543 7.59513 12.8238 7.66536 13.0007 7.66536C13.1775 7.66536 13.347 7.59513 13.4721 7.4701C13.5971 7.34508 13.6673 7.17551 13.6673 6.9987C13.6673 6.12322 13.4949 5.25631 13.1598 4.44747C12.8248 3.63864 12.3338 2.90371 11.7147 2.28465C11.0956 1.6656 10.3607 1.17453 9.55187 0.839501C8.74304 0.50447 7.87613 0.332031 7.00065 0.332031V0.332031Z" fill="#FFCD2C"/>
</svg>
