<svg width="18" height="20" viewBox="0 0 18 20" fill="none" xmlns="http://www.w3.org/2000/svg">
<path fill-rule="evenodd" clip-rule="evenodd" d="M16.2013 2.32867C16.9461 2.57382 17.4493 3.26122 17.4493 4.02608L17.4997 10.6637C17.5097 12.674 16.775 14.6253 15.4263 16.1561C14.8123 16.8621 14.0172 17.4603 13.0107 17.9996L9.43772 19.9117C9.32701 19.9706 9.20623 20 9.08545 20C8.96467 20 8.83383 19.9706 8.72312 19.9117L5.11991 18.0486C4.10336 17.5191 3.30824 16.9307 2.68422 16.2345C1.3154 14.7244 0.550472 12.773 0.540408 10.7628L0.500148 4.12316C0.490083 3.3583 0.993325 2.67286 1.72806 2.41693L8.34065 0.103698C8.73318 -0.034566 9.16597 -0.034566 9.56856 0.103698L16.2013 2.32867ZM11.4198 12.0866C11.7116 11.8022 11.7116 11.3315 11.4198 11.0471L10.061 9.72236L11.4198 8.39954C11.7116 8.11516 11.7116 7.65428 11.4198 7.35912C11.1279 7.07475 10.6448 7.07475 10.3529 7.35912L8.99414 8.68391L7.63539 7.35912C7.34351 7.07475 6.87046 7.07475 6.56852 7.35912C6.27664 7.65428 6.27664 8.11516 6.56852 8.39954L7.92727 9.72236L6.56852 11.0471C6.27664 11.3315 6.27664 11.8022 6.56852 12.0866C6.71949 12.2337 6.91072 12.3013 7.10196 12.3013C7.30325 12.3013 7.49448 12.2337 7.63539 12.0866L8.99414 10.7628L10.3529 12.0866C10.5039 12.2337 10.6951 12.3013 10.8863 12.3013C11.0776 12.3013 11.2789 12.2337 11.4198 12.0866Z" fill="#FFCD2C"/>
</svg>
