<svg width="20" height="18" viewBox="0 0 20 18" fill="none" xmlns="http://www.w3.org/2000/svg">
<path fill-rule="evenodd" clip-rule="evenodd" d="M17.761 9.00099C17.761 9.81449 18.429 10.4764 19.25 10.4764C19.664 10.4764 20 10.8093 20 11.2195V13.8958C20 16.159 18.142 18 15.858 18H4.143C1.859 18 0 16.159 0 13.8958V11.2195C0 10.8093 0.336 10.4764 0.75 10.4764C1.572 10.4764 2.24 9.81449 2.24 9.00099C2.24 8.2083 1.599 7.6118 0.75 7.6118C0.551 7.6118 0.361 7.53352 0.22 7.39381C0.079 7.2541 0 7.06485 0 6.86866L0.002 4.10514C0.002 1.84201 1.86 0 4.144 0H15.856C18.14 0 19.999 1.84201 19.999 4.10514L20 6.78245C20 6.97864 19.921 7.16889 19.781 7.30761C19.64 7.44732 19.45 7.5256 19.25 7.5256C18.429 7.5256 17.761 8.18749 17.761 9.00099ZM12.2528 9.64802L13.4318 8.51051C13.6368 8.31432 13.7078 8.02499 13.6188 7.75746C13.5308 7.48993 13.3008 7.29968 13.0228 7.26104L11.3938 7.02521L10.6648 5.5627C10.5398 5.31102 10.2858 5.15446 10.0028 5.15347H10.0008C9.7188 5.15347 9.4648 5.31003 9.3378 5.56171L8.6088 7.02521L6.9828 7.26005C6.7018 7.29968 6.4718 7.48993 6.3828 7.75746C6.2948 8.02499 6.3658 8.31432 6.5698 8.51051L7.7488 9.64802L7.4708 11.2562C7.4228 11.5336 7.5358 11.8091 7.7658 11.9746C7.8958 12.0667 8.0468 12.1143 8.1998 12.1143C8.3168 12.1143 8.4348 12.0855 8.5428 12.0291L10.0008 11.2701L11.4558 12.0271C11.7078 12.1608 12.0068 12.14 12.2358 11.9736C12.4668 11.8091 12.5798 11.5336 12.5318 11.2562L12.2528 9.64802Z" fill="#FFCD2C"/>
</svg>
