<svg width="20" height="20" viewBox="0 0 20 20" fill="none" xmlns="http://www.w3.org/2000/svg">
<path fill-rule="evenodd" clip-rule="evenodd" d="M5.67 0.00012207H14.34C17.73 0.00012207 20 2.37912 20 5.91912V14.0891C20 17.6201 17.73 20.0001 14.34 20.0001H5.67C2.28 20.0001 0 17.6201 0 14.0891V5.91912C0 2.37912 2.28 0.00012207 5.67 0.00012207ZM13.5804 13.8101C13.8304 13.8101 14.0804 13.6801 14.2204 13.4401C14.4404 13.0891 14.3204 12.6291 13.9604 12.4101L10.4004 10.2901V5.66913C10.4004 5.26013 10.0704 4.91913 9.65039 4.91913C9.24039 4.91913 8.90039 5.26013 8.90039 5.66913V10.7201C8.90039 10.9801 9.04039 11.2301 9.27039 11.3601L13.1904 13.7001C13.3104 13.7801 13.4504 13.8101 13.5804 13.8101Z" fill="#FFCD2C"/>
</svg>
