<svg width="20" height="20" viewBox="0 0 20 20" fill="none" xmlns="http://www.w3.org/2000/svg">
<path fill-rule="evenodd" clip-rule="evenodd" d="M10 20.0001C4.48 20.0001 0 15.5301 0 10.0001C0 4.48012 4.48 0.00012207 10 0.00012207C15.53 0.00012207 20 4.48012 20 10.0001C20 15.5301 15.53 20.0001 10 20.0001ZM13.1904 13.7101C13.3104 13.7801 13.4404 13.8201 13.5804 13.8201C13.8304 13.8201 14.0804 13.6901 14.2204 13.4501C14.4304 13.1001 14.3204 12.6401 13.9604 12.4201L10.4004 10.3001V5.68011C10.4004 5.26011 10.0604 4.93011 9.65039 4.93011C9.24039 4.93011 8.90039 5.26011 8.90039 5.68011V10.7301C8.90039 10.9901 9.04039 11.2301 9.27039 11.3701L13.1904 13.7101Z" fill="#FFCD2C"/>
</svg>
