<svg width="20" height="18" viewBox="0 0 20 18" fill="none" xmlns="http://www.w3.org/2000/svg">
<path fill-rule="evenodd" clip-rule="evenodd" d="M12.2124 4.76241C12.2124 7.40617 10.0489 9.52482 7.34933 9.52482C4.6507 9.52482 2.48631 7.40617 2.48631 4.76241C2.48631 2.11865 4.6507 0 7.34933 0C10.0489 0 12.2124 2.11865 12.2124 4.76241ZM0 14.9174C0 12.47 3.38553 11.8577 7.34933 11.8577C11.3347 11.8577 14.6987 12.4911 14.6987 14.9404C14.6987 17.3877 11.3131 18 7.34933 18C3.364 18 0 17.3666 0 14.9174ZM14.1728 4.84876C14.1728 6.19508 13.7599 7.45132 13.0358 8.49483C12.9605 8.60215 13.027 8.74685 13.1581 8.76985C13.3401 8.79955 13.527 8.81776 13.7178 8.82159C15.616 8.87046 17.3196 7.67363 17.7902 5.87119C18.4879 3.19677 16.4409 0.795441 13.8333 0.795441C13.5505 0.795441 13.2794 0.824188 13.0153 0.87689C12.9791 0.884556 12.9399 0.901804 12.9203 0.932468C12.8949 0.971755 12.9135 1.02254 12.9389 1.05608C13.7227 2.13217 14.1728 3.44208 14.1728 4.84876ZM17.3166 10.7023C18.5926 10.9466 19.4311 11.444 19.7785 12.1693C20.073 12.7634 20.073 13.4534 19.7785 14.0475C19.2472 15.1705 17.5329 15.5318 16.8665 15.6247C16.7286 15.6439 16.618 15.5289 16.6327 15.3928C16.9732 12.2805 14.2657 10.8048 13.5651 10.4656C13.5358 10.4493 13.5289 10.4263 13.5319 10.411C13.5338 10.4014 13.5465 10.3861 13.5691 10.3832C15.0847 10.3545 16.7149 10.5586 17.3166 10.7023Z" fill="#FFCD2C"/>
</svg>
