<svg width="22" height="16" viewBox="0 0 22 16" fill="none" xmlns="http://www.w3.org/2000/svg">
<path fill-rule="evenodd" clip-rule="evenodd" d="M15.1588 4.23285C15.1588 6.58253 13.2856 8.4666 10.9495 8.4666C8.61342 8.4666 6.74023 6.58253 6.74023 4.23285C6.74023 1.88227 8.61342 0 10.9495 0C13.2856 0 15.1588 1.88227 15.1588 4.23285ZM10.9488 16C7.51765 16 4.58789 15.456 4.58789 13.2802C4.58789 11.1034 7.49885 10.5396 10.9488 10.5396C14.38 10.5396 17.3098 11.0836 17.3098 13.2604C17.3098 15.4362 14.3988 16 10.9488 16ZM16.9578 4.30923C16.9578 5.50704 16.6005 6.62289 15.9737 7.55051C15.9092 7.64598 15.9666 7.77476 16.0803 7.79458C16.237 7.8216 16.399 7.83691 16.5638 7.84141C18.2068 7.88464 19.6816 6.82102 20.089 5.21974C20.6925 2.84124 18.9205 0.705902 16.6641 0.705902C16.4187 0.705902 16.1841 0.73202 15.9558 0.778851C15.9245 0.786056 15.8913 0.800466 15.8734 0.828385C15.8519 0.862608 15.8681 0.908539 15.8895 0.938259C16.5674 1.8938 16.9578 3.05919 16.9578 4.30923ZM19.6783 9.51257C20.7824 9.72961 21.5086 10.1727 21.8094 10.8166C22.0637 11.3453 22.0637 11.9586 21.8094 12.4864C21.3492 13.4851 19.8655 13.8058 19.2888 13.8886C19.1698 13.9066 19.074 13.8031 19.0865 13.6833C19.3811 10.9157 17.0378 9.60353 16.4316 9.30183C16.4057 9.28832 16.4003 9.2676 16.403 9.25499C16.4048 9.24599 16.4155 9.23158 16.4352 9.22888C17.747 9.20456 19.1572 9.38468 19.6783 9.51257ZM5.43768 7.84132C5.60243 7.83681 5.7636 7.82241 5.9212 7.79449C6.03491 7.77467 6.09222 7.64589 6.02775 7.55042C5.40097 6.6228 5.0437 5.50695 5.0437 4.30914C5.0437 3.0591 5.4341 1.89371 6.11192 0.938167C6.13341 0.908447 6.14863 0.862516 6.12803 0.828293C6.11013 0.801275 6.0761 0.785965 6.04566 0.77876C5.81643 0.731928 5.58184 0.705811 5.3365 0.705811C3.08008 0.705811 1.30808 2.84115 1.91248 5.21965C2.31989 6.82093 3.79461 7.88455 5.43768 7.84132ZM5.59694 9.25446C5.59962 9.26797 5.59425 9.28778 5.56918 9.30219C4.9621 9.60389 2.61883 10.9161 2.91342 13.6827C2.92595 13.8034 2.83104 13.9061 2.71195 13.889C2.13531 13.8061 0.651629 13.4855 0.191392 12.4867C-0.0637974 11.9581 -0.0637974 11.3457 0.191392 10.817C0.492248 10.1731 1.21752 9.72998 2.32156 9.51203C2.84358 9.38504 4.25294 9.20492 5.5656 9.22924C5.5853 9.23194 5.59515 9.24635 5.59694 9.25446Z" fill="#FFCD2C"/>
</svg>
