<svg width="18" height="20" viewBox="0 0 18 20" fill="none" xmlns="http://www.w3.org/2000/svg">
<path fill-rule="evenodd" clip-rule="evenodd" d="M9.17384 13.2165H8.82413C6.42074 13.2165 4.47266 11.2928 4.47266 8.92037V4.29708C4.47266 1.92374 6.42074 0 8.82413 0H9.17384C11.1684 0 12.8491 1.32395 13.3635 3.13098C13.4342 3.37874 13.2473 3.62459 12.9877 3.62459H11.8552C11.5133 3.62459 11.2353 3.89818 11.2353 4.23586V4.23682C11.2353 4.57546 11.5133 4.84905 11.8552 4.84905H12.8995C13.2453 4.84905 13.5263 5.12551 13.5263 5.46702C13.5263 5.80853 13.2453 6.08499 12.8995 6.08499H11.8552C11.5133 6.08499 11.2353 6.35953 11.2353 6.69817C11.2353 7.03585 11.5133 7.3104 11.8552 7.3104H12.8995C13.2453 7.3104 13.5263 7.58686 13.5263 7.92933C13.5263 8.26988 13.2453 8.54634 12.8995 8.54634H11.8552C11.5133 8.54634 11.2353 8.82088 11.2353 9.15952C11.2353 9.49721 11.5133 9.7708 11.8552 9.7708H12.9325C13.1979 9.7708 13.3878 10.0272 13.3044 10.2759C12.73 11.9844 11.0987 13.2165 9.17384 13.2165ZM15.5626 8.78281C15.5626 8.25381 15.9966 7.8262 16.5313 7.8262C17.066 7.8262 17.5 8.25381 17.5 8.78281C17.5 13.0866 14.2006 16.6404 9.9692 17.1177V19.0434C9.9692 19.5714 9.53522 20 9.00048 20C8.46478 20 8.03177 19.5714 8.03177 19.0434V17.1177C3.79945 16.6404 0.5 13.0866 0.5 8.78281C0.5 8.25381 0.933985 7.8262 1.46872 7.8262C2.00345 7.8262 2.43743 8.25381 2.43743 8.78281C2.43743 12.3557 5.38136 15.2629 9.00048 15.2629C12.6186 15.2629 15.5626 12.3557 15.5626 8.78281Z" fill="#FFCD2C"/>
</svg>
