<svg width="20" height="20" viewBox="0 0 20 20" fill="none" xmlns="http://www.w3.org/2000/svg">
<path fill-rule="evenodd" clip-rule="evenodd" d="M7.877 13.2062C4.033 13.2062 0.75 13.7872 0.75 16.1152C0.75 18.4432 4.013 19.0452 7.877 19.0452C11.722 19.0452 15.004 18.4632 15.004 16.1362C15.004 13.8092 11.742 13.2062 7.877 13.2062Z" stroke="white" stroke-width="1.5" stroke-linecap="round" stroke-linejoin="round"/>
<path fill-rule="evenodd" clip-rule="evenodd" d="M7.87758 9.88588C10.4006 9.88588 12.4456 7.84088 12.4456 5.31788C12.4456 2.79488 10.4006 0.749878 7.87758 0.749878C5.35558 0.749878 3.31058 2.79488 3.31058 5.31788C3.30158 7.83188 5.33158 9.87688 7.84658 9.88588H7.87758Z" stroke="white" stroke-width="1.5" stroke-linecap="round" stroke-linejoin="round"/>
<path d="M17.2031 6.66907V10.6791" stroke="white" stroke-width="1.5" stroke-linecap="round" stroke-linejoin="round"/>
<path d="M19.2502 8.67395H15.1602" stroke="white" stroke-width="1.5" stroke-linecap="round" stroke-linejoin="round"/>
</svg>
