<svg width="21" height="21" viewBox="0 0 21 21" fill="none" xmlns="http://www.w3.org/2000/svg">
<path d="M2.79476 5.05601C2.79476 3.80701 3.80676 2.79501 5.05576 2.79401H6.08476C6.68176 2.79401 7.25376 2.55701 7.67776 2.13701L8.39676 1.41701C9.27776 0.531012 10.7098 0.527012 11.5958 1.40801L11.5968 1.40901L11.6058 1.41701L12.3258 2.13701C12.7498 2.55801 13.3218 2.79401 13.9188 2.79401H14.9468C16.1958 2.79401 17.2088 3.80601 17.2088 5.05601V6.08301C17.2088 6.68001 17.4448 7.25301 17.8658 7.67701L18.5858 8.39701C19.4718 9.27801 19.4768 10.71 18.5958 11.596L18.5948 11.597L18.5858 11.606L17.8658 12.326C17.4448 12.749 17.2088 13.321 17.2088 13.918V14.947C17.2088 16.196 16.1968 17.208 14.9478 17.208H14.9468H13.9168C13.3198 17.208 12.7468 17.445 12.3238 17.866L11.6038 18.585C10.7238 19.471 9.29276 19.476 8.40676 18.597C8.40576 18.596 8.40476 18.595 8.40376 18.594L8.39476 18.585L7.67576 17.866C7.25276 17.445 6.67976 17.209 6.08276 17.208H5.05576C3.80676 17.208 2.79476 16.196 2.79476 14.947V13.916C2.79476 13.319 2.55776 12.747 2.13676 12.324L1.41776 11.604C0.531764 10.724 0.526764 9.29301 1.40676 8.40701C1.40676 8.40601 1.40776 8.40501 1.40876 8.40401L1.41776 8.39501L2.13676 7.67501C2.55776 7.25101 2.79476 6.67901 2.79476 6.08101V5.05601" stroke="white" stroke-width="1.5" stroke-linecap="round" stroke-linejoin="round"/>
<path d="M7.43164 12.5717L12.5716 7.4317" stroke="white" stroke-width="1.5" stroke-linecap="round" stroke-linejoin="round"/>
<path d="M12.4955 12.5H12.5045" stroke="white" stroke-width="2" stroke-linecap="round" stroke-linejoin="round"/>
<path d="M7.4955 7.5H7.5045" stroke="white" stroke-width="2" stroke-linecap="round" stroke-linejoin="round"/>
</svg>
