<svg width="21" height="21" viewBox="0 0 21 21" fill="none" xmlns="http://www.w3.org/2000/svg">
<path d="M9.492 0.78894H5.753C2.678 0.78894 0.75 2.96594 0.75 6.04794V14.3619C0.75 17.4439 2.669 19.6209 5.753 19.6209H14.577C17.662 19.6209 19.581 17.4439 19.581 14.3619V10.3339" stroke="white" stroke-width="1.5" stroke-linecap="round" stroke-linejoin="round"/>
<path fill-rule="evenodd" clip-rule="evenodd" d="M6.82666 8.92087L14.2997 1.44787C15.2307 0.517866 16.7397 0.517866 17.6707 1.44787L18.8877 2.66487C19.8187 3.59587 19.8187 5.10587 18.8877 6.03587L11.3787 13.5449C10.9717 13.9519 10.4197 14.1809 9.84366 14.1809H6.09766L6.19166 10.4009C6.20566 9.84487 6.43266 9.31487 6.82666 8.92087Z" stroke="white" stroke-width="1.5" stroke-linecap="round" stroke-linejoin="round"/>
<path d="M13.1641 2.60242L17.7301 7.16842" stroke="white" stroke-width="1.5" stroke-linecap="round" stroke-linejoin="round"/>
</svg>
