<svg width="20" height="20" viewBox="0 0 20 20" fill="none" xmlns="http://www.w3.org/2000/svg">
<path d="M10.1098 13.39L6.22984 17.27C5.76007 17.7234 5.1327 17.9767 4.47984 17.9767C3.82698 17.9767 3.1996 17.7234 2.72984 17.27C2.49944 17.0405 2.31663 16.7678 2.19189 16.4675C2.06715 16.1672 2.00294 15.8452 2.00294 15.52C2.00294 15.1948 2.06715 14.8728 2.19189 14.5725C2.31663 14.2722 2.49944 13.9995 2.72984 13.77L6.60984 9.89C6.79814 9.7017 6.90393 9.44631 6.90393 9.18C6.90393 8.9137 6.79814 8.65831 6.60984 8.47C6.42153 8.2817 6.16614 8.17591 5.89984 8.17591C5.63353 8.17591 5.37814 8.2817 5.18984 8.47L1.30984 12.36C0.528193 13.2108 0.105457 14.3307 0.129911 15.4858C0.154365 16.6408 0.624118 17.7418 1.44107 18.5588C2.25802 19.3757 3.359 19.8455 4.51408 19.8699C5.66917 19.8944 6.78904 19.4716 7.63984 18.69L11.5298 14.81C11.7181 14.6217 11.8239 14.3663 11.8239 14.1C11.8239 13.8337 11.7181 13.5783 11.5298 13.39C11.3415 13.2017 11.0861 13.0959 10.8198 13.0959C10.5535 13.0959 10.2981 13.2017 10.1098 13.39ZM18.6898 1.31C17.8486 0.47401 16.7108 0.00479126 15.5248 0.00479126C14.3389 0.00479126 13.2011 0.47401 12.3598 1.31L8.46984 5.19C8.3766 5.28324 8.30264 5.39393 8.25218 5.51575C8.20172 5.63758 8.17575 5.76814 8.17575 5.9C8.17575 6.03186 8.20172 6.16243 8.25218 6.28425C8.30264 6.40607 8.3766 6.51676 8.46984 6.61C8.56308 6.70324 8.67377 6.7772 8.79559 6.82766C8.91741 6.87812 9.04798 6.90409 9.17984 6.90409C9.3117 6.90409 9.44226 6.87812 9.56409 6.82766C9.68591 6.7772 9.7966 6.70324 9.88984 6.61L13.7698 2.73C14.2396 2.27663 14.867 2.02326 15.5198 2.02326C16.1727 2.02326 16.8001 2.27663 17.2698 2.73C17.5002 2.95949 17.683 3.23221 17.8078 3.53252C17.9325 3.83283 17.9967 4.15482 17.9967 4.48C17.9967 4.80519 17.9325 5.12717 17.8078 5.42748C17.683 5.72779 17.5002 6.00052 17.2698 6.23L13.3898 10.11C13.2961 10.203 13.2217 10.3136 13.1709 10.4354C13.1202 10.5573 13.094 10.688 13.094 10.82C13.094 10.952 13.1202 11.0827 13.1709 11.2046C13.2217 11.3264 13.2961 11.437 13.3898 11.53C13.4828 11.6237 13.5934 11.6981 13.7153 11.7489C13.8371 11.7997 13.9678 11.8258 14.0998 11.8258C14.2318 11.8258 14.3626 11.7997 14.4844 11.7489C14.6063 11.6981 14.7169 11.6237 14.8098 11.53L18.6898 7.64C19.5258 6.79878 19.995 5.66098 19.995 4.475C19.995 3.28903 19.5258 2.15122 18.6898 1.31ZM6.82984 13.17C6.92328 13.2627 7.03409 13.336 7.15593 13.3858C7.27777 13.4355 7.40823 13.4608 7.53984 13.46C7.67144 13.4608 7.80191 13.4355 7.92374 13.3858C8.04558 13.336 8.1564 13.2627 8.24984 13.17L13.1698 8.25C13.3581 8.0617 13.4639 7.8063 13.4639 7.54C13.4639 7.2737 13.3581 7.01831 13.1698 6.83C12.9815 6.6417 12.7261 6.53591 12.4598 6.53591C12.1935 6.53591 11.9381 6.6417 11.7498 6.83L6.82984 11.75C6.73611 11.843 6.66171 11.9536 6.61095 12.0754C6.56018 12.1973 6.53404 12.328 6.53404 12.46C6.53404 12.592 6.56018 12.7227 6.61095 12.8446C6.66171 12.9664 6.73611 13.077 6.82984 13.17Z" fill="white"/>
</svg>
