<svg width="18" height="18" viewBox="0 0 18 18" fill="none" xmlns="http://www.w3.org/2000/svg">
<path fill-rule="evenodd" clip-rule="evenodd" d="M11.5331 6.46704L4.71375 13.2869C4.53651 13.1842 4.36859 13.1189 4.21933 13.1096C2.92263 13.0163 2.41888 13.1656 1.7099 12.5592C0.94494 11.9061 1.00091 10.1615 1.00091 8.88337C1.00091 7.60523 0.94494 5.86063 1.7099 5.20757C2.41888 4.60115 2.92263 4.75975 4.21933 4.65713C5.51603 4.55451 8.25868 0.598821 10.3763 1.84897C11.2345 2.54868 11.4678 3.8548 11.5331 6.46704Z" stroke="white" stroke-width="1.5" stroke-linecap="round" stroke-linejoin="round"/>
<path d="M11.5334 10.9172C11.4961 13.7906 11.2722 15.1901 10.3766 15.9178C9.39713 16.4962 8.28701 15.9644 7.24219 15.2087" stroke="white" stroke-width="1.5" stroke-linecap="round" stroke-linejoin="round"/>
<path d="M1.00195 17L4.71479 13.2869L11.5341 6.46706L17.0008 1" stroke="white" stroke-width="1.5" stroke-linecap="round" stroke-linejoin="round"/>
</svg>
