<svg width="20" height="20" viewBox="0 0 20 20" fill="none" xmlns="http://www.w3.org/2000/svg">
<path fill-rule="evenodd" clip-rule="evenodd" d="M15.1797 2.41C15.1797 1.08 16.2597 0 17.5897 0C18.9197 0 19.9997 1.08 19.9997 2.41C19.9997 3.74 18.9197 4.82 17.5897 4.82C16.2597 4.82 15.1797 3.74 15.1797 2.41ZM11.3299 12.7593L14.2199 9.0303L14.1799 9.0503C14.3399 8.8303 14.3699 8.5503 14.2599 8.3003C14.1509 8.0503 13.9099 7.8803 13.6509 7.8603C13.3799 7.8303 13.1109 7.9503 12.9499 8.1703L10.5309 11.3003L7.75995 9.1203C7.58995 8.9903 7.38995 8.9393 7.18995 8.9603C6.99095 8.9903 6.81095 9.0993 6.68995 9.2593L3.73095 13.1103L3.66995 13.2003C3.49995 13.5193 3.57995 13.9293 3.87995 14.1503C4.01995 14.2403 4.16995 14.3003 4.33995 14.3003C4.57095 14.3103 4.78995 14.1893 4.92995 14.0003L7.43995 10.7693L10.2899 12.9103L10.3799 12.9693C10.6999 13.1393 11.0999 13.0603 11.3299 12.7593ZM13.45 1.7803C13.41 2.0303 13.39 2.2803 13.39 2.5303C13.39 4.7803 15.21 6.5993 17.45 6.5993C17.7 6.5993 17.94 6.5703 18.19 6.5303V14.5993C18.19 17.9903 16.19 20.0003 12.79 20.0003H5.401C2 20.0003 0 17.9903 0 14.5993V7.2003C0 3.8003 2 1.7803 5.401 1.7803H13.45Z" fill="#FFCD2C"/>
</svg>
