<svg width="20" height="20" viewBox="0 0 20 20" fill="none" xmlns="http://www.w3.org/2000/svg">
<path fill-rule="evenodd" clip-rule="evenodd" d="M14.4184 4.47H14.6232C17.3152 4.47 19.5 6.72 19.5 9.48V15C19.5 17.76 17.3152 20 14.6232 20H5.3768C2.6848 20 0.5 17.76 0.5 15V9.48C0.5 6.72 2.6848 4.47 5.3768 4.47H5.58162C5.60113 3.27 6.05955 2.15 6.8886 1.31C7.72741 0.46 8.80031 0.03 10.0098 0C12.4286 0 14.3891 2 14.4184 4.47ZM7.91299 2.38C7.36679 2.94 7.06443 3.68 7.04492 4.47H12.9556C12.9263 2.83 11.6194 1.5 10.01 1.5C9.25899 1.5 8.4787 1.81 7.91299 2.38ZM13.7061 8.32C14.1158 8.32 14.4376 7.98 14.4376 7.57V6.41C14.4376 6 14.1158 5.66 13.7061 5.66C13.3062 5.66 12.9746 6 12.9746 6.41V7.57C12.9746 7.98 13.3062 8.32 13.7061 8.32ZM6.93765 7.57C6.93765 7.98 6.61578 8.32 6.20613 8.32C5.80623 8.32 5.47461 7.98 5.47461 7.57V6.41C5.47461 6 5.80623 5.66 6.20613 5.66C6.61578 5.66 6.93765 6 6.93765 6.41V7.57Z" fill="#FFCD2C"/>
</svg>
