<svg width="20" height="20" viewBox="0 0 20 20" fill="none" xmlns="http://www.w3.org/2000/svg">
<path fill-rule="evenodd" clip-rule="evenodd" d="M5.33 0.000366211H14.669C18.07 0.000366211 19.99 1.92937 20 5.33037V14.6704C20 18.0704 18.07 20.0004 14.669 20.0004H5.33C1.929 20.0004 0 18.0704 0 14.6704V5.33037C0 1.92937 1.929 0.000366211 5.33 0.000366211ZM10.0494 15.8603C10.4804 15.8603 10.8394 15.5403 10.8794 15.1103V4.92031C10.9194 4.61031 10.7704 4.29931 10.5004 4.13031C10.2194 3.96031 9.87939 3.96031 9.61039 4.13031C9.33939 4.29931 9.19039 4.61031 9.21939 4.92031V15.1103C9.27039 15.5403 9.62939 15.8603 10.0494 15.8603ZM14.65 15.8604C15.07 15.8604 15.429 15.5404 15.48 15.1104V11.8304C15.509 11.5094 15.36 11.2104 15.089 11.0404C14.82 10.8704 14.48 10.8704 14.2 11.0404C13.929 11.2104 13.78 11.5094 13.82 11.8304V15.1104C13.86 15.5404 14.219 15.8604 14.65 15.8604ZM6.21945 15.1103C6.17945 15.5403 5.82045 15.8603 5.38945 15.8603C4.95945 15.8603 4.59945 15.5403 4.56045 15.1103V8.20034C4.53045 7.88934 4.67945 7.58034 4.95045 7.41034C5.21945 7.24034 5.56045 7.24034 5.83045 7.41034C6.09945 7.58034 6.25045 7.88934 6.21945 8.20034V15.1103Z" fill="#FFCD2C"/>
</svg>
