<svg width="20" height="20" viewBox="0 0 20 20" fill="none" xmlns="http://www.w3.org/2000/svg">
<path fill-rule="evenodd" clip-rule="evenodd" d="M12.1205 9.23313H14.8884C15.308 9.23313 15.6378 8.88615 15.6378 8.46774C15.6378 8.03913 15.308 7.70236 14.8884 7.70236H12.1205C11.7008 7.70236 11.3711 8.03913 11.3711 8.46774C11.3711 8.88615 11.7008 9.23313 12.1205 9.23313ZM18.1766 3.92749C18.7861 3.92749 19.1858 4.1418 19.5855 4.61123C19.9852 5.08067 20.0551 5.7542 19.9652 6.36549L19.0159 13.06C18.8361 14.3469 17.7569 15.2949 16.4879 15.2949H5.58639C4.25742 15.2949 3.15828 14.255 3.04837 12.908L2.12908 1.7834L0.620259 1.51807C0.22057 1.44664 -0.0592117 1.04864 0.0107338 0.640433C0.0806793 0.223045 0.470376 -0.0535127 0.880056 0.0087383L3.2632 0.375101C3.60293 0.437352 3.85274 0.722074 3.88272 1.06905L4.07257 3.35499C4.10254 3.68257 4.36234 3.92749 4.68209 3.92749H18.1766ZM5.42702 16.9079C4.58767 16.9079 3.9082 17.6018 3.9082 18.459C3.9082 19.306 4.58767 20 5.42702 20C6.25637 20 6.93584 19.306 6.93584 18.459C6.93584 17.6018 6.25637 16.9079 5.42702 16.9079ZM16.6673 16.9079C15.8279 16.9079 15.1484 17.6018 15.1484 18.459C15.1484 19.306 15.8279 20 16.6673 20C17.4966 20 18.1761 19.306 18.1761 18.459C18.1761 17.6018 17.4966 16.9079 16.6673 16.9079Z" fill="#FFCD2C"/>
</svg>
