<svg width="18" height="20" viewBox="0 0 18 20" fill="none" xmlns="http://www.w3.org/2000/svg">
<path fill-rule="evenodd" clip-rule="evenodd" d="M13.4109 0.768617L13.4119 1.51824C16.1665 1.73413 17.9862 3.61119 17.9891 6.48975L18 14.9155C18.0039 18.054 16.0322 19.985 12.8718 19.99L5.15188 20C2.01119 20.004 0.0148166 18.027 0.0108673 14.8795L6.64975e-06 6.55272C-0.00394266 3.65517 1.75153 1.78311 4.50617 1.53024L4.50518 0.780611C4.5042 0.340832 4.83001 0.00999726 5.26444 0.00999726C5.69886 0.00899776 6.02468 0.338833 6.02567 0.778612L6.02666 1.47826L11.8914 1.47027L11.8904 0.770616C11.8894 0.330837 12.2152 0.00100177 12.6497 2.26549e-06C13.0742 -0.000997234 13.4099 0.328838 13.4109 0.768617ZM1.52052 6.86156L16.4687 6.84157V6.49174C16.4262 4.34282 15.348 3.21539 13.4129 3.04747L13.4139 3.81708C13.4139 4.24687 13.0792 4.5877 12.6546 4.5877C12.2202 4.5887 11.8934 4.24887 11.8934 3.81908L11.8924 3.00949L6.02767 3.01748L6.02866 3.82608C6.02866 4.25686 5.70383 4.59669 5.2694 4.59669C4.83498 4.59769 4.50817 4.25886 4.50817 3.82808L4.50718 3.05846C2.5819 3.25137 1.51657 4.3828 1.51953 6.55071L1.52052 6.86156ZM12.2383 11.4043V11.4153C12.2481 11.8751 12.6233 12.2239 13.0785 12.2139C13.5228 12.2029 13.8772 11.8221 13.8674 11.3623C13.8466 10.9225 13.4902 10.5637 13.0469 10.5647C12.5927 10.5747 12.2373 10.9445 12.2383 11.4043ZM13.0541 15.892C12.5999 15.882 12.2336 15.5032 12.2326 15.0435C12.2227 14.5837 12.5871 14.2029 13.0412 14.1919H13.0511C13.5152 14.1919 13.8913 14.5707 13.8913 15.0405C13.8923 15.5102 13.5171 15.891 13.0541 15.892ZM8.17187 11.4203C8.19162 11.88 8.56779 12.2389 9.02196 12.2189C9.46626 12.1979 9.82071 11.8181 9.80096 11.3583C9.7901 10.9085 9.42479 10.5587 8.98049 10.5597C8.52632 10.5797 8.17088 10.9605 8.17187 11.4203ZM9.02586 15.8471C8.57169 15.8671 8.19651 15.5082 8.17577 15.0485C8.17577 14.5887 8.53023 14.2089 8.9844 14.1879C9.42869 14.1869 9.79499 14.5367 9.80487 14.9855C9.8256 15.4463 9.47016 15.8261 9.02586 15.8471ZM4.10351 11.4553C4.12326 11.915 4.49943 12.2748 4.9536 12.2539C5.3979 12.2339 5.75235 11.8531 5.73161 11.3933C5.72174 10.9435 5.35643 10.5937 4.91115 10.5947C4.45697 10.6147 4.10252 10.9955 4.10351 11.4553ZM4.95751 15.8521C4.50334 15.8731 4.12815 15.5132 4.10742 15.0535C4.10643 14.5937 4.46187 14.2129 4.91604 14.1929C5.36034 14.1919 5.72663 14.5417 5.73651 14.9915C5.75724 15.4513 5.40279 15.8321 4.95751 15.8521Z" fill="#FFCD2C"/>
</svg>
