<svg width="20" height="21" viewBox="0 0 20 21" fill="none" xmlns="http://www.w3.org/2000/svg">
<path fill-rule="evenodd" clip-rule="evenodd" d="M19.3746 1.86948V1.85931C19.7017 1.51374 19.7017 0.97505 19.3746 0.629476C19.216 0.466853 18.998 0.364197 18.77 0.364197C18.542 0.364197 18.324 0.466853 18.1753 0.629476L0.215108 19.0567C0.185372 19.0872 0.165549 19.1167 0.145725 19.1482L0.11599 19.1888C-0.0723343 19.5141 -0.0326871 19.9511 0.244843 20.2459C0.423256 20.4085 0.631403 20.5 0.849463 20.5C1.06752 20.5 1.27567 20.4085 1.44417 20.2459L6.80553 14.7481C14.2057 21.9874 16.6895 19.3327 17.2643 18.7183C17.3024 18.6777 17.3321 18.6459 17.3542 18.6266C20.0213 15.9051 19.2868 15.1915 17.4473 13.4043L17.4472 13.4042C17.1904 13.1547 16.912 12.8842 16.6183 12.5844C15.5123 11.4605 14.7232 11.7446 13.846 12.0604C12.8805 12.408 11.8083 12.7939 10.0895 11.3824L9.69985 11.7802L9.9584 11.5151L19.3746 1.86948ZM4.18444 12.2053C-1.80848 5.41505 0.574999 3.06039 1.15814 2.48429L1.15814 2.48429C1.20082 2.44213 1.23385 2.4095 1.25325 2.38535C3.94022 -0.339809 4.63942 0.407302 6.39015 2.27799C6.63888 2.54376 6.90883 2.83221 7.20872 3.1366C8.31419 4.26402 8.03793 5.07029 7.73057 5.96733C7.47324 6.71834 7.19411 7.53297 7.68579 8.65293L4.18444 12.2053Z" fill="#FFCD2C"/>
</svg>
