<svg width="20" height="20" viewBox="0 0 20 20" fill="none" xmlns="http://www.w3.org/2000/svg">
<path fill-rule="evenodd" clip-rule="evenodd" d="M0 10.015C0 4.74712 4.21 0 10.02 0C15.7 0 20 4.65699 20 9.98498C20 16.1642 14.96 20 10 20C8.36 20 6.54 19.5593 5.08 18.698C4.57 18.3876 4.14 18.1572 3.59 18.3375L1.57 18.9384C1.06 19.0986 0.6 18.698 0.75 18.1572L1.42 15.9139C1.53 15.6034 1.51 15.2729 1.35 15.0125C0.49 13.4301 0 11.6975 0 10.015ZM8.69922 10.015C8.69922 10.7261 9.26922 11.2969 9.97922 11.307C10.6892 11.307 11.2592 10.7261 11.2592 10.025C11.2592 9.31396 10.6892 8.74311 9.97922 8.74311C9.27922 8.73309 8.69922 9.31396 8.69922 10.015ZM13.3086 10.025C13.3086 10.7261 13.8786 11.307 14.5886 11.307C15.2986 11.307 15.8686 10.7261 15.8686 10.025C15.8686 9.31397 15.2986 8.74312 14.5886 8.74312C13.8786 8.74312 13.3086 9.31397 13.3086 10.025ZM5.36984 11.307C4.66984 11.307 4.08984 10.7261 4.08984 10.025C4.08984 9.31397 4.65984 8.74312 5.36984 8.74312C6.07984 8.74312 6.64984 9.31397 6.64984 10.025C6.64984 10.7261 6.07984 11.2969 5.36984 11.307Z" fill="#FFCD2C"/>
</svg>
