<svg width="20" height="20" viewBox="0 0 20 20" fill="none" xmlns="http://www.w3.org/2000/svg">
<path fill-rule="evenodd" clip-rule="evenodd" d="M13.164 4.08252C13.4791 4.08684 13.7949 4.09117 14.1119 4.09441C17.5172 4.09441 20 6.52216 20 9.87476V14.1811C20 17.5337 17.5172 19.9615 14.1119 19.9615C12.7478 19.9904 11.3837 20 10.0098 20C8.63592 20 7.25221 19.9904 5.88813 19.9615C2.48283 19.9615 0 17.5337 0 14.1811V9.87476C0 6.52216 2.48283 4.09441 5.89794 4.09441C7.18351 4.07514 8.49853 4.05588 9.83317 4.05588V3.8921C9.83317 3.22736 9.2738 2.68786 8.60648 2.68786H7.63494C6.52601 2.68786 5.62316 1.80154 5.62316 0.722543C5.62316 0.327553 5.95682 0 6.35918 0C6.77134 0 7.09519 0.327553 7.09519 0.722543C7.09519 1.01156 7.34053 1.24277 7.63494 1.24277H8.60648C10.0883 1.25241 11.2954 2.43738 11.3052 3.88247V4.06551C11.9239 4.06551 12.5425 4.074 13.164 4.08252ZM8.85097 12.7457H7.82055V13.7669C7.82055 14.1618 7.48689 14.4894 7.08453 14.4894C6.67236 14.4894 6.34852 14.1618 6.34852 13.7669V12.7457H5.30828C4.90593 12.7457 4.57227 12.4277 4.57227 12.0231C4.57227 11.6281 4.90593 11.3006 5.30828 11.3006H6.34852V10.289C6.34852 9.89402 6.67236 9.56647 7.08453 9.56647C7.48689 9.56647 7.82055 9.89402 7.82055 10.289V11.3006H8.85097C9.25333 11.3006 9.58699 11.6281 9.58699 12.0231C9.58699 12.4277 9.25333 12.7457 8.85097 12.7457ZM13.0212 11.1175H13.1193C13.5217 11.1175 13.8553 10.7996 13.8553 10.395C13.8553 9.99999 13.5217 9.67244 13.1193 9.67244H13.0212C12.609 9.67244 12.2852 9.99999 12.2852 10.395C12.2852 10.7996 12.609 11.1175 13.0212 11.1175ZM14.6989 14.4316H14.797C15.1994 14.4316 15.5331 14.1137 15.5331 13.7091C15.5331 13.3141 15.1994 12.9865 14.797 12.9865H14.6989C14.2858 12.9865 13.9629 13.3141 13.9629 13.7091C13.9629 14.1137 14.2858 14.4316 14.6989 14.4316Z" fill="#FFCD2C"/>
</svg>
