<svg width="20" height="20" viewBox="0 0 20 20" fill="none" xmlns="http://www.w3.org/2000/svg">
<path fill-rule="evenodd" clip-rule="evenodd" d="M13.85 0.500648C14.481 0.500648 15.111 0.589648 15.71 0.790648C19.401 1.99065 20.731 6.04065 19.62 9.58065C18.99 11.3896 17.96 13.0406 16.611 14.3896C14.68 16.2596 12.561 17.9196 10.28 19.3496L10.03 19.5006L9.77002 19.3396C7.48102 17.9196 5.35002 16.2596 3.40102 14.3796C2.06102 13.0306 1.03002 11.3896 0.390017 9.58065C-0.739983 6.04065 0.590017 1.99065 4.32102 0.769648C4.61102 0.669648 4.91002 0.599648 5.21002 0.560648H5.33002C5.61102 0.519648 5.89002 0.500648 6.17002 0.500648H6.28002C6.91002 0.519648 7.52002 0.629648 8.11102 0.830648H8.17002C8.21002 0.849648 8.24002 0.870648 8.26002 0.889648C8.48102 0.960648 8.69002 1.04065 8.89002 1.15065L9.27002 1.32065C9.36184 1.36962 9.4649 1.44445 9.55398 1.50912C9.61041 1.55009 9.66123 1.58699 9.70002 1.61065C9.71634 1.62028 9.73292 1.62996 9.74964 1.63972C9.83538 1.68977 9.9247 1.74191 10 1.79965C11.111 0.950648 12.46 0.490648 13.85 0.500648ZM16.5108 7.70064C16.9208 7.68964 17.2708 7.36064 17.3008 6.93964V6.82064C17.3308 5.41964 16.4818 4.15065 15.1908 3.66065C14.7808 3.51964 14.3308 3.74064 14.1808 4.16065C14.0408 4.58065 14.2608 5.04065 14.6808 5.18964C15.3218 5.42965 15.7508 6.06065 15.7508 6.75964V6.79064C15.7318 7.01964 15.8008 7.24064 15.9408 7.41065C16.0808 7.58065 16.2908 7.67965 16.5108 7.70064Z" fill="#FFCD2C"/>
</svg>
