<svg width="20" height="20" viewBox="0 0 20 20" fill="none" xmlns="http://www.w3.org/2000/svg">
<path fill-rule="evenodd" clip-rule="evenodd" d="M0 9.99927C0 4.48027 4.48 -0.000732422 10 -0.000732422C15.53 -0.000732422 20 4.48027 20 9.99927C20 15.5203 15.53 19.9993 10 19.9993C4.48 19.9993 0 15.5203 0 9.99927ZM9.11914 6.20927C9.11914 5.73027 9.51914 5.32927 9.99914 5.32927C10.4791 5.32927 10.8691 5.73027 10.8691 6.20927V10.6293C10.8691 11.1103 10.4791 11.4993 9.99914 11.4993C9.51914 11.4993 9.11914 11.1103 9.11914 10.6293V6.20927ZM10.0109 14.6803C9.52086 14.6803 9.13086 14.2803 9.13086 13.8003C9.13086 13.3203 9.52086 12.9303 10.0009 12.9303C10.4909 12.9303 10.8809 13.3203 10.8809 13.8003C10.8809 14.2803 10.4909 14.6803 10.0109 14.6803Z" fill="#FFCD2C"/>
</svg>
