<svg width="20" height="18" viewBox="0 0 20 18" fill="none" xmlns="http://www.w3.org/2000/svg">
<path fill-rule="evenodd" clip-rule="evenodd" d="M14.939 0C16.28 0 17.57 0.53 18.519 1.481C19.469 2.43 20 3.71 20 5.05V12.95C20 15.74 17.73 18 14.939 18H5.06C2.269 18 0 15.74 0 12.95V5.05C0 2.26 2.259 0 5.06 0H14.939ZM16.5299 6.54L16.6099 6.46C16.8489 6.17 16.8489 5.75 16.5989 5.46C16.4599 5.311 16.2689 5.22 16.0699 5.2C15.8599 5.189 15.6599 5.26 15.5089 5.4L10.9999 9C10.4199 9.481 9.58893 9.481 8.99993 9L4.49993 5.4C4.18893 5.17 3.75893 5.2 3.49993 5.47C3.22993 5.74 3.19993 6.17 3.42893 6.47L3.55993 6.6L8.10993 10.15C8.66993 10.59 9.34893 10.83 10.0599 10.83C10.7689 10.83 11.4599 10.59 12.0189 10.15L16.5299 6.54Z" fill="#FFCD2C"/>
</svg>
