<svg width="20" height="20" viewBox="0 0 20 20" fill="none" xmlns="http://www.w3.org/2000/svg">
<path fill-rule="evenodd" clip-rule="evenodd" d="M5.67 -0.00012207H14.34C17.73 -0.00012207 20 2.37988 20 5.91988V14.0899C20 17.6199 17.73 19.9999 14.34 19.9999H5.67C2.28 19.9999 0 17.6199 0 14.0899V5.91988C0 2.37988 2.28 -0.00012207 5.67 -0.00012207ZM5.52031 11.1999C4.86031 11.1999 4.32031 10.6599 4.32031 9.99987C4.32031 9.33987 4.86031 8.80087 5.52031 8.80087C6.18031 8.80087 6.72031 9.33987 6.72031 9.99987C6.72031 10.6599 6.18031 11.1999 5.52031 11.1999ZM8.80078 9.99987C8.80078 10.6599 9.34078 11.1999 10.0008 11.1999C10.6608 11.1999 11.2008 10.6599 11.2008 9.99987C11.2008 9.33987 10.6608 8.80087 10.0008 8.80087C9.34078 8.80087 8.80078 9.33987 8.80078 9.99987ZM13.2812 9.99987C13.2812 10.6599 13.8212 11.1999 14.4812 11.1999C15.1413 11.1999 15.6713 10.6599 15.6713 9.99987C15.6713 9.33987 15.1413 8.80087 14.4812 8.80087C13.8212 8.80087 13.2812 9.33987 13.2812 9.99987Z" fill="#FFCD2C"/>
</svg>
