<svg width="18" height="20" viewBox="0 0 18 20" fill="none" xmlns="http://www.w3.org/2000/svg">
<path fill-rule="evenodd" clip-rule="evenodd" d="M5.92617 14.39H11.3123C11.7182 14.39 12.0549 14.05 12.0549 13.64C12.0549 13.23 11.7182 12.9 11.3123 12.9H5.92617C5.52023 12.9 5.18359 13.23 5.18359 13.64C5.18359 14.05 5.52023 14.39 5.92617 14.39ZM9.2727 7.89999H5.92617C5.52023 7.89999 5.18359 8.23999 5.18359 8.64999C5.18359 9.05999 5.52023 9.38999 5.92617 9.38999H9.2727C9.67864 9.38999 10.0153 9.05999 10.0153 8.64999C10.0153 8.23999 9.67864 7.89999 9.2727 7.89999ZM16.3381 7.02561C16.5708 7.02292 16.8242 7.02 17.0545 7.02C17.302 7.02 17.5 7.22 17.5 7.47V15.51C17.5 17.99 15.5099 20 13.0545 20H5.17327C2.59901 20 0.5 17.89 0.5 15.29V4.51C0.5 2.03 2.5 0 4.96535 0H10.2525C10.5099 0 10.7079 0.21 10.7079 0.46V3.68C10.7079 5.51 12.203 7.01 14.0149 7.02C14.4381 7.02 14.8112 7.02316 15.1377 7.02593C15.3917 7.02809 15.6175 7.03 15.8168 7.03C15.9578 7.03 16.1405 7.02789 16.3381 7.02561ZM16.6108 5.56599C15.7969 5.56899 14.8375 5.56599 14.1474 5.55899C13.0524 5.55899 12.1504 4.64799 12.1504 3.54199V0.905993C12.1504 0.474993 12.6682 0.260993 12.9643 0.571993C13.5002 1.13484 14.2368 1.90857 14.9699 2.67872C15.7009 3.44655 16.4284 4.21082 16.9504 4.75899C17.2395 5.06199 17.0276 5.56499 16.6108 5.56599Z" fill="#FFCD2C"/>
</svg>
