<svg width="18" height="20" viewBox="0 0 18 20" fill="none" xmlns="http://www.w3.org/2000/svg">
<path fill-rule="evenodd" clip-rule="evenodd" d="M11.0543 13.26C11.3414 12.97 11.3414 12.5 11.0543 12.21L9.84636 10.99L11.0543 9.77C11.3414 9.48 11.3414 9.01 11.0543 8.72C10.7672 8.42 10.2919 8.42 10.0048 8.72L8.79686 9.94L7.58893 8.72C7.30181 8.42 6.83646 8.42 6.54933 8.72C6.2622 9.01 6.2622 9.48 6.54933 9.77L7.75725 10.99L6.54933 12.21C6.2622 12.5 6.2622 12.97 6.54933 13.26C6.68794 13.41 6.87606 13.48 7.06418 13.48C7.2523 13.48 7.45032 13.41 7.58893 13.26L8.79686 12.04L10.0048 13.26C10.1533 13.41 10.3414 13.48 10.5295 13.48C10.7176 13.48 10.9058 13.41 11.0543 13.26ZM16.3354 7.02557C16.5686 7.02289 16.8209 7.02 17.0446 7.02C17.302 7.02 17.5 7.22 17.5 7.47V15.51C17.5 17.99 15.5099 20 13.0446 20H5.17327C2.58911 20 0.5 17.89 0.5 15.29V4.51C0.5 2.03 2.5 0 4.96535 0H10.2525C10.5 0 10.7079 0.21 10.7079 0.46V3.68C10.7079 5.51 12.203 7.01 14.0149 7.02C14.4333 7.02 14.8077 7.02318 15.1346 7.02595C15.3878 7.02809 15.6125 7.03 15.8069 7.03C15.9488 7.03 16.135 7.02786 16.3354 7.02557ZM16.6059 5.56621C15.792 5.56921 14.8336 5.56621 14.1435 5.55921C13.0485 5.55921 12.1465 4.64821 12.1465 3.54221V0.906207C12.1465 0.475207 12.6643 0.261207 12.9594 0.572207C13.7221 1.37249 14.8899 2.59909 15.8767 3.63556C16.2758 4.05482 16.6454 4.44297 16.9465 4.75921C17.2346 5.06221 17.0237 5.56521 16.6059 5.56621Z" fill="#FFCD2C"/>
</svg>
