<svg width="20" height="20" viewBox="0 0 20 20" fill="none" xmlns="http://www.w3.org/2000/svg">
<path fill-rule="evenodd" clip-rule="evenodd" d="M15.0112 12.6013C15.4252 12.6013 15.7612 12.2653 15.7612 11.8513V9.99927C15.7612 9.58527 15.4252 9.24927 15.0112 9.24927H9.31923C8.99523 8.18227 8.01323 7.39827 6.84123 7.39827C5.40723 7.39827 4.24023 8.56527 4.24023 9.99927C4.24023 11.4343 5.40723 12.6013 6.84123 12.6013C8.01323 12.6013 8.99523 11.8173 9.31923 10.7493H11.4312V11.8513C11.4312 12.2653 11.7672 12.6013 12.1812 12.6013C12.5952 12.6013 12.9312 12.2653 12.9312 11.8513V10.7493H14.2612V11.8513C14.2612 12.2653 14.5972 12.6013 15.0112 12.6013ZM5.666 -0.000732422H14.335C17.723 -0.000732422 20 2.37727 20 5.91627V14.0833C20 17.6223 17.723 19.9993 14.334 19.9993H5.666C2.277 19.9993 0 17.6223 0 14.0833V5.91627C0 2.37727 2.277 -0.000732422 5.666 -0.000732422ZM5.73828 10.0002C5.73828 9.39216 6.23328 8.89816 6.84028 8.89816C7.44728 8.89816 7.94228 9.39216 7.94228 10.0002C7.94228 10.6072 7.44728 11.1012 6.84028 11.1012C6.23328 11.1012 5.73828 10.6072 5.73828 10.0002Z" fill="#FFCD2C"/>
</svg>
