<svg width="20" height="20" viewBox="0 0 20 20" fill="none" xmlns="http://www.w3.org/2000/svg">
<path fill-rule="evenodd" clip-rule="evenodd" d="M0 10.0058C0 4.48625 4.48842 0 10 0C15.5116 0 20 4.48625 20 10.0058C20 15.5137 15.5116 20 10 20C4.48842 20 0 15.5137 0 10.0058ZM13.6684 11.0178C13.7746 10.9117 13.9097 10.7477 13.9387 10.7091C14.0931 10.5065 14.1704 10.2557 14.1704 10.0058C14.1704 9.72503 14.0835 9.46454 13.9194 9.25229C13.906 9.23885 13.8796 9.2102 13.8453 9.17285C13.7811 9.10297 13.6889 9.00264 13.6009 8.91462C12.8094 8.0656 10.7437 6.67631 9.66265 6.25181C9.49855 6.18524 9.08349 6.03956 8.86149 6.02991C8.64913 6.02991 8.44643 6.07815 8.25338 6.17462C8.01207 6.30969 7.81902 6.52195 7.71284 6.77279C7.64527 6.94645 7.53909 7.46744 7.53909 7.47709C7.43292 8.04631 7.375 8.9725 7.375 9.99517C7.375 10.9706 7.43292 11.8572 7.51979 12.4361C7.52218 12.4385 7.53048 12.4799 7.54338 12.5442C7.58259 12.7397 7.66429 13.1471 7.75145 13.314C7.9638 13.7192 8.37886 13.9701 8.82288 13.9701H8.86149C9.15106 13.9604 9.75917 13.7096 9.75917 13.7C10.7823 13.2754 12.7997 11.9537 13.6105 11.0757L13.6684 11.0178Z" fill="#FFCD2C"/>
</svg>
