<svg width="20" height="16" viewBox="0 0 20 16" fill="none" xmlns="http://www.w3.org/2000/svg">
<path fill-rule="evenodd" clip-rule="evenodd" d="M6.09766 8C6.09766 10.1333 7.844 11.8691 10.0001 11.8691C12.1464 11.8691 13.8928 10.1333 13.8928 8C13.8928 5.85697 12.1464 4.12122 10.0001 4.12122C7.844 4.12122 6.09766 5.85697 6.09766 8ZM15.7366 2.04606C17.4439 3.36485 18.8976 5.29455 19.9415 7.70909C20.0195 7.89333 20.0195 8.10667 19.9415 8.28121C17.8537 13.1103 14.1366 16 10 16H9.99024C5.86341 16 2.14634 13.1103 0.0585366 8.28121C-0.0195122 8.10667 -0.0195122 7.89333 0.0585366 7.70909C2.14634 2.88 5.86341 0 9.99024 0H10C12.0683 0 14.0293 0.717576 15.7366 2.04606ZM10.0015 10.4124C11.3381 10.4124 12.4308 9.32637 12.4308 7.99788C12.4308 6.6597 11.3381 5.57364 10.0015 5.57364C9.88445 5.57364 9.76738 5.58334 9.66006 5.60273C9.62104 6.6694 8.74299 7.52273 7.66006 7.52273H7.61128C7.58201 7.67788 7.5625 7.83303 7.5625 7.99788C7.5625 9.32637 8.65518 10.4124 10.0015 10.4124Z" fill="#FFCD2C"/>
</svg>
