<svg width="20" height="20" viewBox="0 0 20 20" fill="none" xmlns="http://www.w3.org/2000/svg">
<path fill-rule="evenodd" clip-rule="evenodd" d="M5.67 -0.00012207H14.34C17.73 -0.00012207 20 2.37988 20 5.91988V14.0909C20 17.6199 17.73 19.9999 14.34 19.9999H5.67C2.28 19.9999 0 17.6199 0 14.0909V5.91988C0 2.37988 2.28 -0.00012207 5.67 -0.00012207ZM9.42945 12.9899L14.1795 8.23987C14.5195 7.89987 14.5195 7.34987 14.1795 6.99987C13.8395 6.65987 13.2795 6.65987 12.9395 6.99987L8.80945 11.1299L7.05945 9.37987C6.71945 9.03987 6.15945 9.03987 5.81945 9.37987C5.47945 9.71987 5.47945 10.2699 5.81945 10.6199L8.19945 12.9899C8.36945 13.1599 8.58945 13.2399 8.80945 13.2399C9.03945 13.2399 9.25945 13.1599 9.42945 12.9899Z" fill="#FFCD2C"/>
</svg>
