<svg width="22" height="18" viewBox="0 0 22 18" fill="none" xmlns="http://www.w3.org/2000/svg">
<path fill-rule="evenodd" clip-rule="evenodd" d="M12.3571 3.45056C12.3068 2.96422 12.2543 2.45963 12.1254 1.95611C11.7741 0.75153 10.801 9.59513e-06 9.75762 9.59513e-06C9.17565 -0.00213761 8.43954 0.356445 8.0222 0.719322L4.56287 3.61697H2.75194C1.41918 3.61697 0.347511 4.6444 0.145131 6.12705C-0.0268386 7.55064 -0.0687825 10.2379 0.145131 11.8042C0.330733 13.3706 1.35416 14.383 2.75194 14.383H4.56287L8.08931 17.3236C8.45107 17.6382 9.08967 17.9989 9.67688 17.9989C9.71463 18 9.74819 18 9.78174 18C10.845 18 11.7814 17.2206 12.1327 16.0192C12.265 15.5113 12.3114 15.0352 12.3563 14.5752L12.3571 14.5666L12.4043 14.1082C12.5846 12.6213 12.5846 5.36908 12.4043 3.89288L12.3571 3.45056ZM16.4068 3.49458C16.1185 3.06943 15.547 2.96314 15.1286 3.25838C14.7144 3.55577 14.6117 4.14196 14.9 4.56603C15.7022 5.74806 16.1437 7.32196 16.1437 9C16.1437 10.677 15.7022 12.2519 14.9 13.434C14.6117 13.858 14.7144 14.4442 15.1297 14.7416C15.2849 14.8511 15.4663 14.9091 15.6529 14.9091C15.9539 14.9091 16.2349 14.7577 16.4068 14.5054C17.4198 13.0131 17.9787 11.0581 17.9787 9C17.9787 6.94191 17.4198 4.98688 16.4068 3.49458ZM18.291 0.221057C18.7083 -0.0752566 19.2819 0.033177 19.5682 0.457249C21.1369 2.76656 22.0009 5.80163 22.0009 8.99989C22.0009 12.2003 21.1369 15.2343 19.5682 17.5436C19.3972 17.7959 19.1152 17.9473 18.8142 17.9473C18.6276 17.9473 18.4472 17.8893 18.292 17.7798C17.8768 17.4824 17.774 16.8973 18.0613 16.4721C19.4182 14.4731 20.1659 11.8192 20.1659 8.99989C20.1659 6.18168 19.4182 3.52775 18.0613 1.5287C17.774 1.10463 17.8768 0.518444 18.291 0.221057Z" fill="#FFCD2C"/>
</svg>
