<svg width="20" height="18" viewBox="0 0 20 18" fill="none" xmlns="http://www.w3.org/2000/svg">
<path fill-rule="evenodd" clip-rule="evenodd" d="M15.7689 5.3818H20C20 1.98459 17.9644 0 14.5156 0H5.48444C2.03556 0 0 1.98459 0 5.33847V12.6615C0 16.0154 2.03556 18 5.48444 18H14.5156C17.9644 18 20 16.0154 20 12.6615V12.3495H15.7689C13.8052 12.3495 12.2133 10.7975 12.2133 8.883C12.2133 6.96849 13.8052 5.41647 15.7689 5.41647V5.3818ZM15.7691 6.87241H19.2536C19.6659 6.87241 20.0002 7.19834 20.0002 7.60039V10.131C19.9954 10.5311 19.6639 10.8543 19.2536 10.8589H15.8491C14.855 10.872 13.9857 10.2084 13.7602 9.26433C13.6473 8.67829 13.8058 8.07357 14.1933 7.61222C14.5808 7.15087 15.1576 6.88008 15.7691 6.87241ZM15.9207 9.53298H16.2496C16.6718 9.53298 17.014 9.1993 17.014 8.78768C17.014 8.37606 16.6718 8.04237 16.2496 8.04237H15.9207C15.7188 8.04006 15.5243 8.11664 15.3807 8.25504C15.2371 8.39344 15.1562 8.58213 15.1562 8.77901C15.1562 9.19206 15.4971 9.52823 15.9207 9.53298ZM4.7371 5.3818H10.3815C10.8037 5.3818 11.146 5.04812 11.146 4.6365C11.146 4.22487 10.8037 3.89119 10.3815 3.89119H4.7371C4.31836 3.89116 3.97753 4.2196 3.97266 4.62783C3.97263 5.04087 4.31348 5.37705 4.7371 5.3818Z" fill="#FFCD2C"/>
</svg>
