<svg width="20" height="20" viewBox="0 0 20 20" fill="none" xmlns="http://www.w3.org/2000/svg">
<path fill-rule="evenodd" clip-rule="evenodd" d="M8.70343 1.51898C8.0331 1.51898 7.46281 1.9848 7.30273 2.61265H12.6854C12.5253 1.9848 11.9551 1.51898 11.2847 1.51898H8.70343ZM14.2071 2.61264H16.1881C18.2891 2.61264 20 4.34428 20 6.47085C20 6.47085 19.94 7.3711 19.92 8.62477C19.918 8.72401 19.8699 8.82122 19.7909 8.87996C19.3097 9.2354 18.8694 9.52907 18.8294 9.54932C17.1686 10.6632 15.2386 11.447 13.1826 11.8369C13.0485 11.8632 12.9165 11.7934 12.8484 11.6739C12.2721 10.6754 11.1956 10.0253 9.995 10.0253C8.8024 10.0253 7.71586 10.6683 7.12256 11.6678C7.05353 11.7853 6.92346 11.8531 6.7904 11.8278C4.75138 11.4369 2.82141 10.6541 1.17059 9.55945L0.210105 8.89109C0.130065 8.84046 0.08004 8.74932 0.08004 8.64806C0.050025 8.13161 0 6.47085 0 6.47085C0 4.34428 1.71086 2.61264 3.81191 2.61264H5.78289C5.97299 1.1443 7.2036 0 8.70435 0H11.2856C12.7864 0 14.017 1.1443 14.2071 2.61264ZM19.6594 10.8152L19.6194 10.8355C17.5984 12.1924 15.1671 13.0937 12.6159 13.4684C12.2557 13.519 11.8955 13.2861 11.7955 12.9216C11.5753 12.0912 10.865 11.5443 10.0146 11.5443H10.0046H9.98455C9.13413 11.5443 8.42377 12.0912 8.20366 12.9216C8.10361 13.2861 7.74343 13.519 7.38325 13.4684C4.83198 13.0937 2.40076 12.1924 0.379749 10.8355C0.369744 10.8254 0.269694 10.7646 0.189654 10.8152C0.0996094 10.8659 0.0996094 10.9874 0.0996094 10.9874L0.169644 16.1519C0.169644 18.2785 1.87049 20 3.97155 20H16.0176C18.1186 20 19.8195 18.2785 19.8195 16.1519L19.8995 10.9874C19.8995 10.9874 19.8995 10.8659 19.8095 10.8152C19.7594 10.7849 19.6994 10.795 19.6594 10.8152ZM10.7449 15.0583C10.7449 15.4836 10.4147 15.8177 9.99452 15.8177C9.58431 15.8177 9.24414 15.4836 9.24414 15.0583V13.7519C9.24414 13.3367 9.58431 12.9924 9.99452 12.9924C10.4147 12.9924 10.7449 13.3367 10.7449 13.7519V15.0583Z" fill="#FFCD2C"/>
</svg>
