<svg width="20" height="18" viewBox="0 0 20 18" fill="none" xmlns="http://www.w3.org/2000/svg">
<path fill-rule="evenodd" clip-rule="evenodd" d="M13.04 1.05132C14.05 1.45332 14.359 2.85332 14.772 3.30332C15.185 3.75332 15.776 3.90632 16.103 3.90632C17.841 3.90632 19.25 5.31532 19.25 7.05232V12.8473C19.25 15.1773 17.36 17.0673 15.03 17.0673H4.97C2.639 17.0673 0.75 15.1773 0.75 12.8473V7.05232C0.75 5.31532 2.159 3.90632 3.897 3.90632C4.223 3.90632 4.814 3.75332 5.228 3.30332C5.641 2.85332 5.949 1.45332 6.959 1.05132C7.97 0.649317 12.03 0.649317 13.04 1.05132Z" stroke="white" stroke-width="1.5" stroke-linecap="round" stroke-linejoin="round"/>
<path d="M15.4955 6.5H15.5045" stroke="white" stroke-width="2" stroke-linecap="round" stroke-linejoin="round"/>
<path fill-rule="evenodd" clip-rule="evenodd" d="M13.1783 10.128C13.1783 8.37204 11.7553 6.94904 9.99931 6.94904C8.24331 6.94904 6.82031 8.37204 6.82031 10.128C6.82031 11.884 8.24331 13.307 9.99931 13.307C11.7553 13.307 13.1783 11.884 13.1783 10.128Z" stroke="white" stroke-width="1.5" stroke-linecap="round" stroke-linejoin="round"/>
</svg>
