<svg width="22" height="22" viewBox="0 0 22 22" fill="none" xmlns="http://www.w3.org/2000/svg">
<path fill-rule="evenodd" clip-rule="evenodd" d="M16.2787 12.8891C16.9534 12.8891 17.5197 13.446 17.4166 14.1123C16.8113 18.0323 13.4555 20.9428 9.40815 20.9428C4.93025 20.9428 1.30078 17.3134 1.30078 12.8365C1.30078 9.14809 4.10289 5.7123 7.25762 4.93546C7.93552 4.76809 8.63025 5.24493 8.63025 5.94283C8.63025 10.6712 8.7892 11.8944 9.6871 12.5597C10.585 13.2249 11.6408 12.8891 16.2787 12.8891Z" stroke="white" stroke-width="1.5" stroke-linecap="round" stroke-linejoin="round"/>
<path fill-rule="evenodd" clip-rule="evenodd" d="M20.6941 8.95157C20.7478 5.91368 17.0162 1.01684 12.4688 1.10105C12.1151 1.10736 11.832 1.4021 11.8162 1.75473C11.7015 4.25263 11.8562 7.48947 11.9425 8.95684C11.9688 9.41368 12.3278 9.77263 12.7836 9.79894C14.292 9.88526 17.6467 10.0032 20.1088 9.63052C20.4436 9.57999 20.6888 9.28947 20.6941 8.95157Z" stroke="white" stroke-width="1.5" stroke-linecap="round" stroke-linejoin="round"/>
</svg>
