<svg width="20" height="20" viewBox="0 0 20 20" fill="none" xmlns="http://www.w3.org/2000/svg">
<path fill-rule="evenodd" clip-rule="evenodd" d="M14.303 0.749756H5.651C2.639 0.749756 0.75 2.88376 0.75 5.90376V14.0498C0.75 17.0698 2.631 19.2038 5.651 19.2038H14.298C17.323 19.2038 19.203 17.0698 19.203 14.0498V5.90376C19.207 2.88376 17.326 0.749756 14.303 0.749756Z" stroke="white" stroke-width="1.5" stroke-linecap="round" stroke-linejoin="round"/>
<path fill-rule="evenodd" clip-rule="evenodd" d="M8.70372 6.78496C8.70372 7.80496 7.87772 8.63096 6.85772 8.63096C5.83872 8.63096 5.01172 7.80496 5.01172 6.78496C5.01172 5.76496 5.83872 4.93896 6.85772 4.93896C7.87672 4.93996 8.70272 5.76596 8.70372 6.78496Z" stroke="white" stroke-width="1.5" stroke-linecap="round" stroke-linejoin="round"/>
<path d="M19.207 12.9509C18.284 12.0009 16.509 10.0819 14.579 10.0819C12.648 10.0819 11.535 14.3149 9.678 14.3149C7.821 14.3149 6.134 12.4009 4.646 13.6279C3.158 14.8539 1.75 17.3609 1.75 17.3609" stroke="white" stroke-width="1.5" stroke-linecap="round" stroke-linejoin="round"/>
</svg>
