<svg width="20" height="20" viewBox="0 0 20 20" fill="none" xmlns="http://www.w3.org/2000/svg">
<path fill-rule="evenodd" clip-rule="evenodd" d="M14.334 0.750122H5.665C2.644 0.750122 0.75 2.88912 0.75 5.91612V14.0841C0.75 17.1111 2.635 19.2501 5.665 19.2501H14.333C17.364 19.2501 19.25 17.1111 19.25 14.0841V5.91612C19.25 2.88912 17.364 0.750122 14.334 0.750122Z" stroke="white" stroke-width="1.5" stroke-linecap="round" stroke-linejoin="round"/>
<path fill-rule="evenodd" clip-rule="evenodd" d="M8.68837 10.0001C8.68837 11.0231 7.85938 11.8521 6.83637 11.8521C5.81337 11.8521 4.98438 11.0231 4.98438 10.0001C4.98438 8.97713 5.81337 8.14813 6.83637 8.14813H6.83938C7.86038 8.14913 8.68837 8.97813 8.68837 10.0001Z" stroke="white" stroke-width="1.5" stroke-linecap="round" stroke-linejoin="round"/>
<path d="M8.69141 10.0001H15.0094V11.8521" stroke="white" stroke-width="1.5" stroke-linecap="round" stroke-linejoin="round"/>
<path d="M12.1816 11.8522V10.0002" stroke="white" stroke-width="1.5" stroke-linecap="round" stroke-linejoin="round"/>
</svg>
