<svg width="20" height="22" viewBox="0 0 20 22" fill="none" xmlns="http://www.w3.org/2000/svg">
<path fill-rule="evenodd" clip-rule="evenodd" d="M18.8074 6.62355L18.185 5.54346C17.6584 4.62954 16.4914 4.31426 15.5763 4.83866V4.83866C15.1406 5.09528 14.6208 5.16809 14.1314 5.04103C13.6421 4.91396 13.2233 4.59746 12.9676 4.16131C12.803 3.88409 12.7146 3.56833 12.7113 3.24598V3.24598C12.7261 2.72916 12.5311 2.22834 12.1708 1.85761C11.8104 1.48688 11.3153 1.2778 10.7982 1.27802H9.54423C9.0377 1.27801 8.55205 1.47985 8.19473 1.83888C7.83742 2.19791 7.63791 2.68453 7.64034 3.19106V3.19106C7.62533 4.23686 6.77321 5.07675 5.7273 5.07664C5.40494 5.07329 5.08919 4.98488 4.81197 4.82035V4.82035C3.89679 4.29595 2.72985 4.61123 2.20327 5.52516L1.53508 6.62355C1.00914 7.53633 1.32013 8.70255 2.23073 9.23225V9.23225C2.82263 9.57398 3.18726 10.2055 3.18726 10.889C3.18726 11.5725 2.82263 12.204 2.23073 12.5457V12.5457C1.32129 13.0719 1.00996 14.2353 1.53508 15.1453V15.1453L2.16666 16.2345C2.41338 16.6797 2.82734 17.0082 3.31693 17.1474C3.80652 17.2865 4.33137 17.2248 4.77535 16.976V16.976C5.21181 16.7213 5.73192 16.6515 6.22007 16.7821C6.70822 16.9128 7.12397 17.233 7.3749 17.6716C7.53943 17.9488 7.62784 18.2646 7.63119 18.5869V18.5869C7.63119 19.6435 8.48769 20.5 9.54423 20.5H10.7982C11.8512 20.5 12.7062 19.6491 12.7113 18.5961V18.5961C12.7088 18.088 12.9096 17.6 13.2689 17.2407C13.6282 16.8814 14.1162 16.6806 14.6243 16.6831C14.9459 16.6917 15.2604 16.7797 15.5397 16.9393V16.9393C16.4524 17.4653 17.6186 17.1543 18.1484 16.2437V16.2437L18.8074 15.1453C19.0625 14.7074 19.1325 14.1859 19.0019 13.6963C18.8714 13.2067 18.551 12.7893 18.1117 12.5366V12.5366C17.6725 12.2839 17.3521 11.8665 17.2215 11.3769C17.091 10.8872 17.161 10.3658 17.4161 9.9279C17.582 9.63827 17.8221 9.39814 18.1117 9.23225V9.23225C19.0169 8.70283 19.3271 7.54343 18.8074 6.63271V6.63271V6.62355Z" stroke="white" stroke-width="1.5" stroke-linecap="round" stroke-linejoin="round"/>
<circle cx="10.1752" cy="10.889" r="2.63616" stroke="white" stroke-width="1.5" stroke-linecap="round" stroke-linejoin="round"/>
</svg>
