<svg width="20" height="19" viewBox="0 0 20 19" fill="none" xmlns="http://www.w3.org/2000/svg">
<path fill-rule="evenodd" clip-rule="evenodd" d="M15.857 17.4171C17.73 17.4171 19.249 15.8991 19.25 14.0261V14.0241V11.3241C18.013 11.3241 17.011 10.3221 17.01 9.08512C17.01 7.84912 18.012 6.84612 19.249 6.84612H19.25V4.14612C19.252 2.27212 17.735 0.752122 15.862 0.750122H15.856H4.144C2.27 0.750122 0.751 2.26812 0.75 4.14212V4.14312V6.93312C1.944 6.89112 2.945 7.82512 2.987 9.01912C2.988 9.04112 2.989 9.06312 2.989 9.08512C2.99 10.3201 1.991 11.3221 0.756 11.3241H0.75V14.0241C0.749 15.8971 2.268 17.4171 4.141 17.4171H4.142H15.857Z" stroke="white" stroke-width="1.5" stroke-linecap="round" stroke-linejoin="round"/>
<path fill-rule="evenodd" clip-rule="evenodd" d="M10.3716 6.06309L10.9876 7.31009C11.0476 7.43209 11.1636 7.51709 11.2986 7.53709L12.6756 7.73809C13.0166 7.78809 13.1516 8.20609 12.9056 8.44509L11.9096 9.41509C11.8116 9.51009 11.7676 9.64709 11.7896 9.78209L12.0246 11.1521C12.0826 11.4911 11.7276 11.7491 11.4236 11.5891L10.1926 10.9421C10.0716 10.8781 9.92758 10.8781 9.80658 10.9421L8.57658 11.5891C8.27158 11.7491 7.91658 11.4911 7.97458 11.1521L8.20958 9.78209C8.23258 9.64709 8.18758 9.51009 8.08958 9.41509L7.09458 8.44509C6.84858 8.20609 6.98358 7.78809 7.32358 7.73809L8.70058 7.53709C8.83558 7.51709 8.95258 7.43209 9.01258 7.31009L9.62758 6.06309C9.77958 5.75509 10.2196 5.75509 10.3716 6.06309Z" stroke="white" stroke-width="1.5" stroke-linecap="round" stroke-linejoin="round"/>
</svg>
