<svg width="22" height="18" viewBox="0 0 22 18" fill="none" xmlns="http://www.w3.org/2000/svg">
<path d="M16.8887 7.89667C18.2837 7.70067 19.3577 6.50467 19.3607 5.05567C19.3607 3.62767 18.3197 2.44367 16.9547 2.21967" stroke="white" stroke-width="1.5" stroke-linecap="round" stroke-linejoin="round"/>
<path d="M18.7285 11.2503C20.0795 11.4523 21.0225 11.9253 21.0225 12.9003C21.0225 13.5713 20.5785 14.0073 19.8605 14.2813" stroke="white" stroke-width="1.5" stroke-linecap="round" stroke-linejoin="round"/>
<path fill-rule="evenodd" clip-rule="evenodd" d="M10.8867 11.6638C7.67273 11.6638 4.92773 12.1508 4.92773 14.0958C4.92773 16.0398 7.65573 16.5408 10.8867 16.5408C14.1007 16.5408 16.8447 16.0588 16.8447 14.1128C16.8447 12.1668 14.1177 11.6638 10.8867 11.6638Z" stroke="white" stroke-width="1.5" stroke-linecap="round" stroke-linejoin="round"/>
<path fill-rule="evenodd" clip-rule="evenodd" d="M10.8874 8.88788C12.9964 8.88788 14.7064 7.17888 14.7064 5.06888C14.7064 2.95988 12.9964 1.24988 10.8874 1.24988C8.77839 1.24988 7.06839 2.95988 7.06839 5.06888C7.06039 7.17088 8.75739 8.88088 10.8594 8.88788H10.8874Z" stroke="white" stroke-width="1.5" stroke-linecap="round" stroke-linejoin="round"/>
<path d="M4.88411 7.89667C3.48811 7.70067 2.41511 6.50467 2.41211 5.05567C2.41211 3.62767 3.45311 2.44367 4.81811 2.21967" stroke="white" stroke-width="1.5" stroke-linecap="round" stroke-linejoin="round"/>
<path d="M3.044 11.2503C1.693 11.4523 0.75 11.9253 0.75 12.9003C0.75 13.5713 1.194 14.0073 1.912 14.2813" stroke="white" stroke-width="1.5" stroke-linecap="round" stroke-linejoin="round"/>
</svg>
