<svg width="24" height="14" viewBox="0 0 24 14" fill="none" xmlns="http://www.w3.org/2000/svg">
<path d="M1.2 0C0.962663 0 0.730655 0.0684239 0.533316 0.196619C0.335978 0.324814 0.18217 0.507022 0.0913451 0.720203C0.000519937 0.933383 -0.0232441 1.16796 0.0230582 1.39427C0.0693605 1.62058 0.183649 1.82846 0.351472 1.99162C0.519295 2.15479 0.733115 2.2659 0.965892 2.31092C1.19867 2.35593 1.43995 2.33283 1.65922 2.24453C1.87849 2.15622 2.06591 2.00669 2.19776 1.81483C2.32962 1.62297 2.4 1.39741 2.4 1.16667C2.4 0.857247 2.27357 0.560501 2.04853 0.341709C1.82349 0.122917 1.51826 0 1.2 0ZM6 2.33333H22.8C23.1183 2.33333 23.4235 2.21042 23.6485 1.99162C23.8736 1.77283 24 1.47609 24 1.16667C24 0.857247 23.8736 0.560501 23.6485 0.341709C23.4235 0.122917 23.1183 0 22.8 0H6C5.68174 0 5.37652 0.122917 5.15147 0.341709C4.92643 0.560501 4.8 0.857247 4.8 1.16667C4.8 1.47609 4.92643 1.77283 5.15147 1.99162C5.37652 2.21042 5.68174 2.33333 6 2.33333ZM6 5.83333C5.76266 5.83333 5.53066 5.90176 5.33332 6.02995C5.13598 6.15815 4.98217 6.34035 4.89135 6.55354C4.80052 6.76672 4.77676 7.00129 4.82306 7.2276C4.86936 7.45392 4.98365 7.6618 5.15147 7.82496C5.3193 7.98812 5.53312 8.09923 5.76589 8.14425C5.99867 8.18927 6.23995 8.16616 6.45922 8.07786C6.67849 7.98956 6.86591 7.84002 6.99776 7.64817C7.12962 7.45631 7.2 7.23074 7.2 7C7.2 6.69058 7.07357 6.39383 6.84853 6.17504C6.62349 5.95625 6.31826 5.83333 6 5.83333ZM10.8 11.6667C10.5627 11.6667 10.3307 11.7351 10.1333 11.8633C9.93598 11.9915 9.78217 12.1737 9.69135 12.3869C9.60052 12.6 9.57676 12.8346 9.62306 13.0609C9.66936 13.2873 9.78365 13.4951 9.95147 13.6583C10.1193 13.8215 10.3331 13.9326 10.5659 13.9776C10.7987 14.0226 11.04 13.9995 11.2592 13.9112C11.4785 13.8229 11.6659 13.6734 11.7978 13.4815C11.9296 13.2896 12 13.0641 12 12.8333C12 12.5239 11.8736 12.2272 11.6485 12.0084C11.4235 11.7896 11.1183 11.6667 10.8 11.6667ZM22.8 5.83333H10.8C10.4817 5.83333 10.1765 5.95625 9.95147 6.17504C9.72643 6.39383 9.6 6.69058 9.6 7C9.6 7.30942 9.72643 7.60616 9.95147 7.82496C10.1765 8.04375 10.4817 8.16667 10.8 8.16667H22.8C23.1183 8.16667 23.4235 8.04375 23.6485 7.82496C23.8736 7.60616 24 7.30942 24 7C24 6.69058 23.8736 6.39383 23.6485 6.17504C23.4235 5.95625 23.1183 5.83333 22.8 5.83333ZM22.8 11.6667H15.6C15.2817 11.6667 14.9765 11.7896 14.7515 12.0084C14.5264 12.2272 14.4 12.5239 14.4 12.8333C14.4 13.1428 14.5264 13.4395 14.7515 13.6583C14.9765 13.8771 15.2817 14 15.6 14H22.8C23.1183 14 23.4235 13.8771 23.6485 13.6583C23.8736 13.4395 24 13.1428 24 12.8333C24 12.5239 23.8736 12.2272 23.6485 12.0084C23.4235 11.7896 23.1183 11.6667 22.8 11.6667Z" fill="white"/>
</svg>
