<svg width="22" height="16" viewBox="0 0 22 16" fill="none" xmlns="http://www.w3.org/2000/svg">
<path fill-rule="evenodd" clip-rule="evenodd" d="M15.2976 11.5383C15.3785 13.3704 13.8999 14.9196 11.9953 14.9975C11.8551 15.0034 5.01604 14.9896 5.01604 14.9896C3.12069 15.1335 1.46188 13.7715 1.31238 11.9463C1.30112 11.8103 1.30419 4.47219 1.30419 4.47219C1.22023 2.63815 2.69678 1.08499 4.60236 1.00418C4.74469 0.997278 11.5745 1.01009 11.5745 1.01009C13.4791 0.868176 15.143 2.24001 15.2904 4.07405C15.3007 4.2061 15.2976 11.5383 15.2976 11.5383Z" stroke="white" stroke-width="1.5" stroke-linecap="round" stroke-linejoin="round"/>
<path d="M15.3008 5.97984L18.5938 3.28484C19.4098 2.61684 20.6338 3.19884 20.6328 4.25184L20.6208 11.6008C20.6198 12.6538 19.3948 13.2308 18.5808 12.5628L15.3008 9.86784" stroke="white" stroke-width="1.5" stroke-linecap="round" stroke-linejoin="round"/>
</svg>
